<?xml version="1.0" encoding="utf-8"?>
<!-- Generator: Adobe Illustrator 20.0.0, SVG Export Plug-In . SVG Version: 6.00 Build 0)  -->
<svg version="1.1" xmlns="http://www.w3.org/2000/svg" xmlns:xlink="http://www.w3.org/1999/xlink" x="0px" y="0px"
	 viewBox="0 0 300 300" style="enable-background:new 0 0 300 300;" xml:space="preserve">
<style type="text/css">
	.st0{fill-rule:evenodd;clip-rule:evenodd;fill:#e9e9e9;}
	.st1{fill-rule:evenodd;clip-rule:evenodd;fill:#FFFFFF;}
</style>
<g id="Layer_1">
	<circle class="st0" cx="150" cy="150" r="130.8"/>
	<path class="st1" d="M147.1,83c-5.6,5.6-5.6,14.6,0,20.1l32.7,32.7H85.9c-7.9,0-14.2,6.4-14.2,14.2c0,7.9,6.4,14.2,14.2,14.2h93.8
		l-32.7,32.7c-5.6,5.6-5.6,14.6,0,20.1c5.6,5.6,14.6,5.6,20.1,0l57-57c1.3-1.3,2.4-2.9,3.1-4.6c0.7-1.7,1.1-3.6,1.1-5.4
		c0-1.8-0.4-3.7-1.1-5.4c-0.7-1.7-1.8-3.3-3.1-4.6l-57-57C161.6,77.4,152.6,77.4,147.1,83"/>
</g>
<g id="Layer_2">
</g>
</svg>
