<?xml version="1.0" encoding="utf-8"?>
<!-- Generator: Adobe Illustrator 20.0.0, SVG Export Plug-In . SVG Version: 6.00 Build 0)  -->
<svg version="1.1" xmlns="http://www.w3.org/2000/svg" xmlns:xlink="http://www.w3.org/1999/xlink" x="0px" y="0px"
	 viewBox="0 0 612 98" style="enable-background:new 0 0 612 98;" xml:space="preserve">
<style type="text/css">
	.st0{fill:#445146;}
	.st1{fill:#93B875;}
	.st2{display:none;}
	.st3{display:inline;}
	.st4{fill:#FFFFFF;}
	.st5{display:inline;fill:#445146;}
</style>
<g id="Layer_1">
	<g>
		<path class="st0" d="M80.5,42.2c-2.2,0.4-3.5,1.7-4.8,5l-8,21h-7.5l-4.6-13.3L51,68.1h-7.2l-8.4-20.6c-1.4-3.5-1.7-4.2-4.2-5.2
			L30.6,42v-5h16.7v5l-0.8,0.1c-1.6,0.2-2.5,1.2-2.5,2.4c0,0.3,0.1,0.7,0.2,1.1l4.5,11.6l3.5-11.2L52,45.3c-0.9-2.4-1-2.5-2.6-3
			L48.7,42v-5H65v5L64,42.2c-1.4,0.2-2.5,0.9-2.5,2.2c0,0.4,0.1,0.7,0.2,1.2l3.7,10.8l4.1-10.8c0.1-0.4,0.2-0.7,0.2-1
			c0-1.2-1-1.9-2.7-2.4L66.4,42v-5h14.8v5L80.5,42.2z"/>
		<path class="st0" d="M82.9,68.1v-5l2-0.4c2.4-0.5,2.7-1.2,2.7-4.7V49c0-3.8-0.7-4.8-3.4-5.1l-1.3-0.1v-5L93.8,37h3.8v21
			c0,3.5,0.4,4.2,2.7,4.7l1.9,0.4v5H82.9z M92.9,32.5c-3.3,0-6-2.7-6-6c0-3.4,2.5-5.9,5.9-5.9c3.2,0,6,2.9,6,6.1
			C98.8,29.9,96.1,32.5,92.9,32.5z"/>
		<path class="st0" d="M125.7,68.1v-5l0.7-0.1c1-0.2,1.3-0.6,1.3-1.1s-0.2-1-0.6-1.5L123,54l-2.3,2V58c0,1.5,0,4.3,2.9,5l0.9,0.2v5
			h-18.3v-5l1.8-0.4c2.4-0.6,2.7-1.2,2.7-4.7V36.1c0-3.8-0.6-4.6-3.7-5l-0.9-0.1v-5c2.7,0,7.2-1.2,10.5-2.7h4v26l4-4.3
			c0.8-0.9,1.2-1.6,1.2-2c0-0.5-0.5-0.8-1.5-0.9l-0.7-0.1v-5h17.9v5l-0.9,0.1c-2.3,0.3-3.2,0.7-5.1,2l-5.5,4l8.4,11.8
			c1.2,1.7,2.8,2.9,4.9,3l1.1,0.1v5H125.7z"/>
		<path class="st0" d="M148,68.1v-5l2-0.4c2.4-0.5,2.7-1.2,2.7-4.7V49c0-3.8-0.7-4.8-3.4-5.1l-1.3-0.1v-5l10.9-1.8h3.8v21
			c0,3.5,0.4,4.2,2.7,4.7l1.9,0.4v5H148z M158,32.5c-3.3,0-6-2.7-6-6c0-3.4,2.5-5.9,5.9-5.9c3.2,0,6,2.9,6,6.1
			C163.9,29.9,161.2,32.5,158,32.5z"/>
	</g>
	<g>
		<path class="st1" d="M202.8,68.9v-5.1l1.2-0.1c3.5-0.4,4.2-1.2,4.2-5.2v-9.3h-15.7v9.3c0,4,0.7,4.8,4.2,5.2l1.2,0.1v5.1h-21.8
			v-5.1l1.2-0.1c3.5-0.4,4.2-1.2,4.2-5.2V37.1c0-4-0.7-4.8-4.2-5.2l-1.2-0.1v-5.1H198v5.1l-1.2,0.1c-3.5,0.4-4.2,1.2-4.2,5.2v6.1
			h15.7v-6.1c0-4-0.7-4.8-4.2-5.2l-1.2-0.1v-5.1h21.8v5.1l-1.2,0.1c-3.5,0.4-4.2,1.2-4.2,5.2v21.4c0,4,0.7,4.8,4.2,5.2l1.2,0.1v5.1
			H202.8z"/>
		<path class="st1" d="M245.9,69.4c-10.5,0-17.2-6.4-17.2-16.6c0-9.4,6.8-15.7,16.9-15.7c10.7,0,17.5,6.3,17.5,16.3
			C263,63.2,256.3,69.4,245.9,69.4z M245.9,43.5c-4,0-6,3.4-6,10.1c0,6.4,2,9.8,6,9.8c3.8,0,5.8-3.3,5.8-9.7
			C251.8,46.9,249.8,43.5,245.9,43.5z"/>
		<path class="st1" d="M315.4,42.9c-2.2,0.4-3.5,1.7-4.8,5l-8,21h-7.5l-4.6-13.3l-4.6,13.3h-7.2l-8.4-20.6c-1.4-3.5-1.7-4.2-4.2-5.2
			l-0.7-0.2v-5h16.7v5l-0.8,0.1c-1.6,0.2-2.5,1.2-2.5,2.4c0,0.3,0.1,0.7,0.2,1.1l4.5,11.6l3.5-11.2l-0.2-0.7c-0.9-2.4-1-2.5-2.6-3
			l-0.7-0.2v-5h16.2v5l-0.9,0.1c-1.4,0.2-2.5,0.9-2.5,2.2c0,0.4,0.1,0.7,0.2,1.2l3.7,10.8l4.1-10.8c0.1-0.4,0.2-0.7,0.2-1
			c0-1.2-1-1.9-2.7-2.4l-0.7-0.2v-5H316v5L315.4,42.9z"/>
	</g>
	<path class="st0" d="M346,68.9v-4.8l1.5-0.1c2.5-0.2,3.4-0.7,3.4-1.9c-0.1-0.6-0.2-1.3-0.6-2.4l-1.7-4.9H336l-1.9,5
		c-0.3,0.8-0.5,1.3-0.5,1.7c0,1.7,1.6,2.1,4.3,2.4l0.9,0.1v4.8h-17.9v-4.8l0.9-0.1c3.2-0.4,4.5-1.7,6.8-7.1l11.5-27.5h9l11.4,28.3
		c2.2,4.6,2.7,5.7,5.7,6.3l0.9,0.1v4.8H346z M342.3,38.7L337.9,50h8.7L342.3,38.7z"/>
	<path class="st0" d="M385.2,68.9v-4.7l1-0.3c2.2-0.6,2.6-1.2,2.6-4.5V49.3c0-2.4-0.9-3.7-2.6-3.7s-4.3,1-6.6,2.6v11.3
		c0,3.3,0.3,3.9,2.6,4.5l1,0.3v4.7h-17.2v-4.7l1.7-0.4c2.2-0.5,2.6-1.1,2.6-4.4v-8.4c0-3.5-0.6-4.5-3.2-4.8l-1-0.1v-4.7l9-1.7h3.6
		v2.5c3.8-2.1,6.9-3,10.6-3c4.2,0,9,1.9,9,9.2v10.9c0,3.3,0.3,3.9,2.6,4.4l1.7,0.4v4.7H385.2z"/>
	<path class="st0" d="M419.8,69.5c-2.7,0-4.6-0.4-7.6-1.7l-0.7,1.4h-3.8l-2.3-9.8l4.5-0.9c1.4,1.6,1.9,2.2,2.6,2.8
		c1.6,1.5,4.1,2.3,6.4,2.3c2.8,0,5-1.1,5-2.4c0-1.4-1.5-2.2-5.1-2.7l-3.7-0.5c-6-0.8-9.3-3.8-9.3-8.6c0-5.9,5-10.1,11.8-10.1
		c2.7,0,4.4,0.5,7.4,1.9l0.7-1.4h3.7l1.1,8.6l-4.8,0.7c-2.2-3-4.6-4.5-7.5-4.5c-2.3,0-4,1-4,2.3s1.3,2,4.5,2.6l4.3,0.8
		c3.3,0.6,9.5,1.7,9.5,8.7C432.6,64.9,427,69.5,419.8,69.5z"/>
	<path class="st0" d="M480.6,44.6c-2.1,0.3-3.3,1.6-4.5,4.7l-7.5,19.6h-7l-4.3-12.5L453,68.9h-6.7l-7.8-19.3
		c-1.3-3.3-1.6-3.9-3.9-4.9l-0.6-0.2v-4.7h15.6v4.7l-0.8,0.1c-1.5,0.2-2.3,1.1-2.3,2.2c0,0.3,0.1,0.6,0.2,1l4.2,10.8l3.3-10.5
		l-0.2-0.6c-0.9-2.3-0.9-2.3-2.4-2.8l-0.6-0.2v-4.7H466v4.7l-0.9,0.1c-1.3,0.2-2.3,0.8-2.3,2c0,0.3,0.1,0.7,0.2,1.2l3.5,10.1
		l3.8-10.1c0.1-0.3,0.2-0.6,0.2-0.9c0-1.2-0.9-1.8-2.5-2.2l-0.7-0.2v-4.7h13.9v4.7L480.6,44.6z"/>
	<path class="st0" d="M497.9,69.5c-9.2,0-15.8-6.4-15.8-15.2c0-8.8,6.3-15,15.3-15c5.6,0,10.3,2.4,12.5,6.4c1.1,2,1.5,4.3,1.5,8.5
		h-18.8c0,5.8,2.5,9,7,9c3,0,5.3-1.6,7.6-4.9l4.9,2.4C509.9,64.3,506.5,69.5,497.9,69.5z M497.4,44.6c-2.6,0-4.2,1.9-4.3,5.1h8.2
		C501.1,46.1,500,44.6,497.4,44.6z"/>
	<path class="st0" d="M536.2,49c-2.8,0-3.2-1.8-5-1.8c-0.9,0-1.5,0.2-2.3,0.9v11.3c0,3.3,0.3,3.9,2.6,4.4l1.7,0.4v4.7h-17.9v-4.7
		l1.7-0.4c2.2-0.5,2.6-1.1,2.6-4.4v-8.4c0-3.5-0.6-4.5-3.2-4.8l-1-0.1v-4.7l9-1.7h3.6v2.8c3.8-2.7,5.3-3.4,7.7-3.4
		c3,0,5.2,2.3,5.2,5.3C540.8,47.2,538.8,49,536.2,49z"/>
	<path class="st0" d="M557.3,69.5c-2.7,0-4.6-0.4-7.6-1.7l-0.7,1.4h-3.8l-2.3-9.8l4.5-0.9c1.4,1.6,1.9,2.2,2.6,2.8
		c1.6,1.5,4.1,2.3,6.4,2.3c2.8,0,5-1.1,5-2.4c0-1.4-1.5-2.2-5.1-2.7l-3.7-0.5c-6-0.8-9.3-3.8-9.3-8.6c0-5.9,5-10.1,11.8-10.1
		c2.7,0,4.4,0.5,7.4,1.9l0.7-1.4h3.7l1.1,8.6l-4.8,0.7c-2.2-3-4.6-4.5-7.5-4.5c-2.3,0-4,1-4,2.3s1.3,2,4.5,2.6l4.3,0.8
		c3.3,0.6,9.5,1.7,9.5,8.7C570.1,64.9,564.5,69.5,557.3,69.5z"/>
</g>
<g id="Layer_2" class="st2">
	<g class="st3">
		<path class="st0" d="M80.5,42.2c-2.2,0.4-3.5,1.7-4.8,5l-8,21h-7.5l-4.6-13.3L51,68.1h-7.2l-8.4-20.6c-1.4-3.5-1.7-4.2-4.2-5.2
			L30.6,42v-5h16.7v5l-0.8,0.1c-1.6,0.2-2.5,1.2-2.5,2.4c0,0.3,0.1,0.7,0.2,1.1l4.5,11.6l3.5-11.2L52,45.3c-0.9-2.4-1-2.5-2.6-3
			L48.7,42v-5H65v5L64,42.2c-1.4,0.2-2.5,0.9-2.5,2.2c0,0.4,0.1,0.7,0.2,1.2l3.7,10.8l4.1-10.8c0.1-0.4,0.2-0.7,0.2-1
			c0-1.2-1-1.9-2.7-2.4L66.4,42v-5h14.8v5L80.5,42.2z"/>
		<path class="st0" d="M82.9,68.1v-5l2-0.4c2.4-0.5,2.7-1.2,2.7-4.7V49c0-3.8-0.7-4.8-3.4-5.1l-1.3-0.1v-5L93.8,37h3.8v21
			c0,3.5,0.4,4.2,2.7,4.7l1.9,0.4v5H82.9z M92.9,32.5c-3.3,0-6-2.7-6-6c0-3.4,2.5-5.9,5.9-5.9c3.2,0,6,2.9,6,6.1
			C98.8,29.9,96.1,32.5,92.9,32.5z"/>
		<path class="st0" d="M125.7,68.1v-5l0.7-0.1c1-0.2,1.3-0.6,1.3-1.1s-0.2-1-0.6-1.5L123,54l-2.3,2V58c0,1.5,0,4.3,2.9,5l0.9,0.2v5
			h-18.3v-5l1.8-0.4c2.4-0.6,2.7-1.2,2.7-4.7V36.1c0-3.8-0.6-4.6-3.7-5l-0.9-0.1v-5c2.7,0,7.2-1.2,10.5-2.7h4v26l4-4.3
			c0.8-0.9,1.2-1.6,1.2-2c0-0.5-0.5-0.8-1.5-0.9l-0.7-0.1v-5h17.9v5l-0.9,0.1c-2.3,0.3-3.2,0.7-5.1,2l-5.5,4l8.4,11.8
			c1.2,1.7,2.8,2.9,4.9,3l1.1,0.1v5H125.7z"/>
		<path class="st0" d="M148,68.1v-5l2-0.4c2.4-0.5,2.7-1.2,2.7-4.7V49c0-3.8-0.7-4.8-3.4-5.1l-1.3-0.1v-5l10.9-1.8h3.8v21
			c0,3.5,0.4,4.2,2.7,4.7l1.9,0.4v5H148z M158,32.5c-3.3,0-6-2.7-6-6c0-3.4,2.5-5.9,5.9-5.9c3.2,0,6,2.9,6,6.1
			C163.9,29.9,161.2,32.5,158,32.5z"/>
	</g>
	<g class="st3">
		<path class="st4" d="M202.8,68.9v-5.1l1.2-0.1c3.5-0.4,4.2-1.2,4.2-5.2v-9.3h-15.7v9.3c0,4,0.7,4.8,4.2,5.2l1.2,0.1v5.1h-21.8
			v-5.1l1.2-0.1c3.5-0.4,4.2-1.2,4.2-5.2V37.1c0-4-0.7-4.8-4.2-5.2l-1.2-0.1v-5.1H198v5.1l-1.2,0.1c-3.5,0.4-4.2,1.2-4.2,5.2v6.1
			h15.7v-6.1c0-4-0.7-4.8-4.2-5.2l-1.2-0.1v-5.1h21.8v5.1l-1.2,0.1c-3.5,0.4-4.2,1.2-4.2,5.2v21.4c0,4,0.7,4.8,4.2,5.2l1.2,0.1v5.1
			H202.8z"/>
		<path class="st4" d="M245.9,69.4c-10.5,0-17.2-6.4-17.2-16.6c0-9.4,6.8-15.7,16.9-15.7c10.7,0,17.5,6.3,17.5,16.3
			C263,63.2,256.3,69.4,245.9,69.4z M245.9,43.5c-4,0-6,3.4-6,10.1c0,6.4,2,9.8,6,9.8c3.8,0,5.8-3.3,5.8-9.7
			C251.8,46.9,249.8,43.5,245.9,43.5z"/>
		<path class="st4" d="M315.4,42.9c-2.2,0.4-3.5,1.7-4.8,5l-8,21h-7.5l-4.6-13.3l-4.6,13.3h-7.2l-8.4-20.6c-1.4-3.5-1.7-4.2-4.2-5.2
			l-0.7-0.2v-5h16.7v5l-0.8,0.1c-1.6,0.2-2.5,1.2-2.5,2.4c0,0.3,0.1,0.7,0.2,1.1l4.5,11.6l3.5-11.2l-0.2-0.7c-0.9-2.4-1-2.5-2.6-3
			l-0.7-0.2v-5h16.2v5l-0.9,0.1c-1.4,0.2-2.5,0.9-2.5,2.2c0,0.4,0.1,0.7,0.2,1.2l3.7,10.8l4.1-10.8c0.1-0.4,0.2-0.7,0.2-1
			c0-1.2-1-1.9-2.7-2.4l-0.7-0.2v-5H316v5L315.4,42.9z"/>
	</g>
	<path class="st5" d="M346,68.9v-4.8l1.5-0.1c2.5-0.2,3.4-0.7,3.4-1.9c-0.1-0.6-0.2-1.3-0.6-2.4l-1.7-4.9H336l-1.9,5
		c-0.3,0.8-0.5,1.3-0.5,1.7c0,1.7,1.6,2.1,4.3,2.4l0.9,0.1v4.8h-17.9v-4.8l0.9-0.1c3.2-0.4,4.5-1.7,6.8-7.1l11.5-27.5h9l11.4,28.3
		c2.2,4.6,2.7,5.7,5.7,6.3l0.9,0.1v4.8H346z M342.3,38.7L337.9,50h8.7L342.3,38.7z"/>
	<path class="st5" d="M385.2,68.9v-4.7l1-0.3c2.2-0.6,2.6-1.2,2.6-4.5V49.3c0-2.4-0.9-3.7-2.6-3.7s-4.3,1-6.6,2.6v11.3
		c0,3.3,0.3,3.9,2.6,4.5l1,0.3v4.7h-17.2v-4.7l1.7-0.4c2.2-0.5,2.6-1.1,2.6-4.4v-8.4c0-3.5-0.6-4.5-3.2-4.8l-1-0.1v-4.7l9-1.7h3.6
		v2.5c3.8-2.1,6.9-3,10.6-3c4.2,0,9,1.9,9,9.2v10.9c0,3.3,0.3,3.9,2.6,4.4l1.7,0.4v4.7H385.2z"/>
	<path class="st5" d="M419.8,69.5c-2.7,0-4.6-0.4-7.6-1.7l-0.7,1.4h-3.8l-2.3-9.8l4.5-0.9c1.4,1.6,1.9,2.2,2.6,2.8
		c1.6,1.5,4.1,2.3,6.4,2.3c2.8,0,5-1.1,5-2.4c0-1.4-1.5-2.2-5.1-2.7l-3.7-0.5c-6-0.8-9.3-3.8-9.3-8.6c0-5.9,5-10.1,11.8-10.1
		c2.7,0,4.4,0.5,7.4,1.9l0.7-1.4h3.7l1.1,8.6l-4.8,0.7c-2.2-3-4.6-4.5-7.5-4.5c-2.3,0-4,1-4,2.3s1.3,2,4.5,2.6l4.3,0.8
		c3.3,0.6,9.5,1.7,9.5,8.7C432.6,64.9,427,69.5,419.8,69.5z"/>
	<path class="st5" d="M480.6,44.6c-2.1,0.3-3.3,1.6-4.5,4.7l-7.5,19.6h-7l-4.3-12.5L453,68.9h-6.7l-7.8-19.3
		c-1.3-3.3-1.6-3.9-3.9-4.9l-0.6-0.2v-4.7h15.6v4.7l-0.8,0.1c-1.5,0.2-2.3,1.1-2.3,2.2c0,0.3,0.1,0.6,0.2,1l4.2,10.8l3.3-10.5
		l-0.2-0.6c-0.9-2.3-0.9-2.3-2.4-2.8l-0.6-0.2v-4.7H466v4.7l-0.9,0.1c-1.3,0.2-2.3,0.8-2.3,2c0,0.3,0.1,0.7,0.2,1.2l3.5,10.1
		l3.8-10.1c0.1-0.3,0.2-0.6,0.2-0.9c0-1.2-0.9-1.8-2.5-2.2l-0.7-0.2v-4.7h13.9v4.7L480.6,44.6z"/>
	<path class="st5" d="M497.9,69.5c-9.2,0-15.8-6.4-15.8-15.2c0-8.8,6.3-15,15.3-15c5.6,0,10.3,2.4,12.5,6.4c1.1,2,1.5,4.3,1.5,8.5
		h-18.8c0,5.8,2.5,9,7,9c3,0,5.3-1.6,7.6-4.9l4.9,2.4C509.9,64.3,506.5,69.5,497.9,69.5z M497.4,44.6c-2.6,0-4.2,1.9-4.3,5.1h8.2
		C501.1,46.1,500,44.6,497.4,44.6z"/>
	<path class="st5" d="M536.2,49c-2.8,0-3.2-1.8-5-1.8c-0.9,0-1.5,0.2-2.3,0.9v11.3c0,3.3,0.3,3.9,2.6,4.4l1.7,0.4v4.7h-17.9v-4.7
		l1.7-0.4c2.2-0.5,2.6-1.1,2.6-4.4v-8.4c0-3.5-0.6-4.5-3.2-4.8l-1-0.1v-4.7l9-1.7h3.6v2.8c3.8-2.7,5.3-3.4,7.7-3.4
		c3,0,5.2,2.3,5.2,5.3C540.8,47.2,538.8,49,536.2,49z"/>
	<path class="st5" d="M557.3,69.5c-2.7,0-4.6-0.4-7.6-1.7l-0.7,1.4h-3.8l-2.3-9.8l4.5-0.9c1.4,1.6,1.9,2.2,2.6,2.8
		c1.6,1.5,4.1,2.3,6.4,2.3c2.8,0,5-1.1,5-2.4c0-1.4-1.5-2.2-5.1-2.7l-3.7-0.5c-6-0.8-9.3-3.8-9.3-8.6c0-5.9,5-10.1,11.8-10.1
		c2.7,0,4.4,0.5,7.4,1.9l0.7-1.4h3.7l1.1,8.6l-4.8,0.7c-2.2-3-4.6-4.5-7.5-4.5c-2.3,0-4,1-4,2.3s1.3,2,4.5,2.6l4.3,0.8
		c3.3,0.6,9.5,1.7,9.5,8.7C570.1,64.9,564.5,69.5,557.3,69.5z"/>
</g>
</svg>
