<svg id="Layer_2" data-name="Layer 2" xmlns="http://www.w3.org/2000/svg" viewBox="0 0 65.1 100"><defs><style>.cls-1{fill-rule:evenodd;}.cls-1,.cl-3{fill:#93b874}.cls-2{fill:#fff;}</style></defs><path class="cls-1" d="M19.06.15A12.33,12.33,0,0,0,5.57,7.43a14,14,0,0,0,.54,11.06c2.34,4.35,6.67,7.39,11,7.43,6.35,0,12.69-5.25,12.75-13.36C29.9,5.25,25.1,1,19.06.15Z"/><path class="cl-3" d="M43.65,58.28A164.9,164.9,0,0,1,38.4,42.15C36,33.74,34.5,27,27.33,27H25.12a12.33,12.33,0,0,1-8,3,11.77,11.77,0,0,1-7.37-3c-2.37,0-5.89.27-7.43,1.9a7,7,0,0,0-2.23,5.8c.24,3.81,7,7.62,7,7.62v53s.34,4.48,4.62,4.48a4.73,4.73,0,0,0,5-4.48V70.63c0-1.19-.19-2.89,1.39-2.89,1.79,0,1.4,2.78,1.44,3.24l.11,24.28s.14,4.43,4.44,4.45l9.46.18,0-59.24s-3.61-.87-3.06.67C32,45.7,35,56.57,36.52,61.28c1.16,3.5,3.11,7.91,7.5,4.5"/><path class="cls-1" d="M54.91,25.79h9.44c-1.24-1-3.37-9.64-3.66-11.12C60.21,9.72,59.15,6.92,56,4.94a9.55,9.55,0,0,0-4.71-1.77,4.59,4.59,0,0,0-.51-.1A12.49,12.49,0,0,0,47,3.14a9.73,9.73,0,0,0-6.18,2.74,9.79,9.79,0,0,0-3.12,5,19.11,19.11,0,0,0-.63,3.76c-.29,1.48-2.28,10.16-3.51,11.14H43c1.91,1.07,3.5,2.93,6,2.82C50.81,28.52,53.28,26.7,54.91,25.79Z"/><path class="cl-3" d="M25.72,65.78c4.49,2.27,5.38-2.17,6.37-5.62,1.66-5.79,3.3-11.85,5.08-17.62.37-1.21.65-2.22,1.89-1.76,1,.47.46,1.52.14,2.57-3.35,11.09-3,11.92-6.24,23.21H31.89c0,7.19-.19,33.33-.19,33.33l11.83,0c3.11,0,3.52-2.33,3.52-5.25,0-7.92,0-19.32.12-26.64,0,0,.27-1.64,1.43-1.64S50,68,50,68c.1,7.32.12,18.72.12,26.64,0,2.92.4,5.41,3.52,5.41,4.06,0,4.49-2.7,4.49-5.55,0-7.89,0-20.7,0-27.89h6.11C61,55.27,61.34,54.44,58,43.35c-.32-1.05-.86-2.1.13-2.57,0,0,12.84-11.48-3.22-11-1.63.91-4.1,2.73-5.93,2.81-2.51.12-4.1-1.74-6-2.81H36c-3.56,1.71-4.37,8.5-6.81,16.5-1.22,4-2.77,8.06-3.85,12"/><path class="cls-2" d="M34.36,31.2a8.48,8.48,0,0,0-9.29,5,9.64,9.64,0,0,0,.37,7.62C27.06,46.83,30,48.92,33,49a9,9,0,0,0,8.79-9.2A8.17,8.17,0,0,0,34.36,31.2Z"/><path class="cls-2" d="M47.44,57.61c-.19-3.07-.85-5.25-3.1-6.62a8.72,8.72,0,0,0-4.28-1.28v0H38.54A8.53,8.53,0,0,1,33,51.74a8.19,8.19,0,0,1-5.08-2.06A9.29,9.29,0,0,0,22.81,51c-2.25,1.37-2.91,3.55-3.09,6.62-.1,1.56-.07,18.74-.07,18.74A2.6,2.6,0,0,0,22.26,79c2.31,0,2.5-2.65,2.5-2.65l.06-16.14s-.11-1,.64-1,.65,1.12.65,1.12V96.76s.24,3.09,3.18,3.09a3.26,3.26,0,0,0,3.43-3.09v-17c0-.82-.13-2,1-2s1,1.91,1,2.23l.07,16.73a3.09,3.09,0,0,0,3.07,3.06c2.93,0,3.21-3.23,3.21-3.23V59.84c0-.33.19-.73.67-.73.75,0,.65,1,.65,1l0,16.14S42.59,79,44.9,79a2.6,2.6,0,0,0,2.61-2.6S47.53,59.17,47.44,57.61Z"/><path class="cl-3" d="M54.65,36.33c1,.84.29,1.59-.57,2.52-4.1,4.43-8.52,8.89-12.7,13.23"/><path class="cl-3" d="M.11,33.27c-.55,3.09,1.08,11.2,2.19,16.06.49,2.12.49,3.3,1.55,4a5.55,5.55,0,0,0,1.63.52c4.39,1.13,13.4,3.25,13.4,3.25s4.53,2.57,6.05-1.75c1.45-4.11-3-4.35-3-4.35L10.12,47,8.66,34.22"/><path class="cl-3" d="M55,34.22,53,46.56,41.56,50.87s-4.31.41-3.08,4.3c1.29,4.08,5.74,1.44,5.74,1.44l14.51-5.23s6.46-14.21,4.37-18.54l-1-1.29Z"/></svg>