<svg id="Layer_2" data-name="Layer 2" xmlns="http://www.w3.org/2000/svg" viewBox="0 0 100 100"><defs><style>.cls-1{fill-rule:evenodd;fill:#93b874}.cls-2{fill:none;stroke:#fff;stroke-width:1.17px;}</style></defs><path class="cls-1" d="M50,0a50,50,0,1,0,50,50A50,50,0,0,0,50,0ZM10.74,58.87c.45,0,.92,0,1.42-.09,8.39-.72,14.35-.94,18.6-.87A20.92,20.92,0,0,0,41.59,69l.88,20.51A40.38,40.38,0,0,1,10.74,58.87ZM50,61.09A11.09,11.09,0,1,1,61.09,50,11.09,11.09,0,0,1,50,61.09Zm7.53,28.45L58.4,69A20.9,20.9,0,0,0,69.24,57.91c4.25-.07,10.21.15,18.6.87.5,0,1,.08,1.42.09A40.38,40.38,0,0,1,57.53,89.54ZM69.17,41.89a20.82,20.82,0,0,0-38.34,0L10.14,47.3l-.29.28a40.22,40.22,0,0,1,80.3,0l-.29-.28Z"/><path class="cls-2" d="M95.38,50A45.38,45.38,0,1,1,50,4.62,45.38,45.38,0,0,1,95.38,50Z"/></svg>