<svg id="Layer_2" data-name="Layer 2" xmlns="http://www.w3.org/2000/svg" viewBox="0 0 100 97.52"><defs><style>.cls-1{fill-rule:evenodd;}.cls-1,.cls-3{fill:#93b874}.cls-2{fill:#fff;}</style></defs><rect class="cls-3" x="45.18" y="19.74" width="1.65" height="38.71" transform="translate(-9.93 16.37) rotate(-18.24)"/><rect class="cls-3" x="51.43" y="17.67" width="1.65" height="38.71" transform="translate(-8.96 18.22) rotate(-18.24)"/><rect class="cls-3" x="26.41" y="25.92" width="1.65" height="38.7" transform="translate(-12.8 10.8) rotate(-18.24)"/><rect class="cls-3" x="38.92" y="21.8" width="1.65" height="38.7" transform="translate(-10.88 14.51) rotate(-18.24)"/><rect class="cls-3" x="32.66" y="23.86" width="1.65" height="38.7" transform="translate(-11.84 12.66) rotate(-18.24)"/><rect class="cls-3" x="57.69" y="15.61" width="1.65" height="38.7" transform="translate(-8.01 20.08) rotate(-18.25)"/><rect class="cls-3" x="63.95" y="13.55" width="1.65" height="38.71" transform="translate(-7.05 21.93) rotate(-18.24)"/><path class="cls-3" d="M93.89,48.88l-15-45.36L77.78,0,74.26,1.16l-61,20.11L9.73,22.43,10.89,26l15,45.36L27,74.83l3.52-1.16,61-20.11,3.52-1.16ZM29.36,70.15,14.41,24.79l61-20.11L90.37,50Z"/><rect class="cls-3" x="76.46" y="9.43" width="1.65" height="38.71" transform="matrix(0.95, -0.31, 0.31, 0.95, -5.12, 25.64)"/><rect class="cls-3" x="70.2" y="11.49" width="1.65" height="38.71" transform="translate(-6.08 23.79) rotate(-18.25)"/><path class="cls-1" d="M100,88.6a8.93,8.93,0,0,1-8.93,8.92H8.93A8.93,8.93,0,0,1,0,88.6V39.78a8.93,8.93,0,0,1,8.93-8.93H91.07A8.93,8.93,0,0,1,100,39.78Z"/><path class="cls-1" d="M41.4,22l-4.57.6s-1.57.86-1.57,2.15v7.57h2.86V26.92s-.29-2,1.43-2h1.71Z"/><path class="cls-1" d="M58.6,22l4.57.6s1.57.86,1.57,2.15v7.57H61.89V26.92s.28-2-1.43-2H58.74Z"/><path class="cls-3" d="M41.57,20.16h17A1.79,1.79,0,0,1,60.38,22v3a1.79,1.79,0,0,1-1.79,1.79h-17a1.78,1.78,0,0,1-1.78-1.78V22A1.79,1.79,0,0,1,41.57,20.16Z"/><polygon class="cls-2" points="36.27 30.2 35.67 30.2 35.67 24.29 36.77 23 37.22 23.39 36.27 24.51 36.27 30.2"/><rect class="cls-2" x="41.55" y="21.01" width="16.34" height="1.19"/><polygon class="cls-2" points="62.95 30.3 62.35 30.3 62.35 25.76 61.04 24.93 61.36 24.43 62.95 25.43 62.95 30.3"/></svg>