<svg id="Layer_2" data-name="Layer 2" xmlns="http://www.w3.org/2000/svg" viewBox="0 0 90.9 100"><defs><style>.cls-1{fill-rule:evenodd;fill:#93b874}</style></defs><path class="cls-1" d="M90,63.94c-2.75-.49-1.9,2.29-6.35,2,.85.83-10.86-3.86-12-4.1a1.43,1.43,0,0,1-1.15-1.48s.19-17.46.33-17.46c.07-4.62-1.11-7.34-4.1-8.38C61.5,32,54.4,31.17,51.9,25.89H39c-2.5,5.28-9.6,6.1-14.72,8.59-3,1-4.18,3.76-4.11,8.38.14,0,.31,17.44.34,17.46a1.44,1.44,0,0,1-1.16,1.48c-1.18.24-12.89,4.93-12,4.1-4.44.33-3.6-2.45-6.34-2-1.8,3.75-.79,5.48.77,8.9,2,3.46,5.93,1,6.59,2.14C7.82,84,17,87,24.62,93.1c-1.31.82-6.09,4.78-3.62,6.43-.06.57,2.05.56,5.11.29a101.46,101.46,0,0,1,19.34-2.11,101.32,101.32,0,0,1,19.34,2.11c3.06.27,5.17.28,5.12-.29,2.47-1.65-2.31-5.61-3.63-6.43C73.91,87,83.08,84,82.58,75c.67-1.15,4.62,1.32,6.6-2.14C90.74,69.42,91.74,67.69,90,63.94ZM32.69,75a109.15,109.15,0,0,1-11.71-4s5.92-1.47,6.11-1.56a3.76,3.76,0,0,0,2-2.76l.72-7.56S32.94,67.22,32.69,75Zm25.52,0c-.25-7.76,2.9-15.92,2.9-15.92l.72,7.56a3.77,3.77,0,0,0,2,2.76c.19.09,6.11,1.56,6.11,1.56A108.31,108.31,0,0,1,58.21,75Z"/><path class="cls-1" d="M45.29,29.42c5.34.07,10.67-6,10.72-15.16C56.06,6,52,1.13,46.94.17c-5.55-1.06-9.73,3-11.34,8.27A21,21,0,0,0,36.06,21C38,25.93,41.66,29.38,45.29,29.42Z"/></svg>