<svg id="Layer_2" data-name="Layer 2" xmlns="http://www.w3.org/2000/svg" viewBox="0 0 81.34 100"><defs><style>.cls-1{fill-rule:evenodd;fill:#93b874}</style></defs><path class="cls-1" d="M75.7,23.84c-4.23-1.17-18.2-1.79-21.49,1A11.14,11.14,0,0,0,52.1,28c-.14.28-9.78,20.58-11.4,20.58l0,1,0-1C39,48.61,29.38,28.31,29.24,28a11,11,0,0,0-2.1-3.22c-3.3-2.76-17.27-2.14-21.5-1C2.49,24.72,0,25,0,29c0,2.35.12,28.36.12,35,0,2.39,3.15,2.57,5.38,2.58v29S5.83,100,10.05,100a4.54,4.54,0,0,0,4.06-2,4.09,4.09,0,0,0,3.7,2,4.65,4.65,0,0,0,4.9-4.41V44s0-1.44.84-1.74a1.54,1.54,0,0,1,1.66.63c.32.46,10.52,14.58,11,15,1.21,1.21,2.93,1,4.47,1s3.27.23,4.48-1c.46-.47,10.67-14.59,11-15a1.54,1.54,0,0,1,1.66-.63c.81.3.83,1.74.83,1.74v51.6A4.66,4.66,0,0,0,63.54,100a4.11,4.11,0,0,0,3.7-2,4.5,4.5,0,0,0,4.05,2c4.22,0,4.56-4.41,4.56-4.41v-29c2.22,0,5.37-.19,5.37-2.58,0-6.68.12-32.69.12-35C81.34,25,78.86,24.72,75.7,23.84ZM16.55,20.61A10.36,10.36,0,0,0,26.69,10c0-5.81-3.77-9.2-8.58-9.87A9.79,9.79,0,0,0,7.39,5.91a11.08,11.08,0,0,0,.43,8.8C9.68,18.16,13.11,20.58,16.55,20.61Zm48.43,0A10.36,10.36,0,0,0,75.12,10c0-5.81-3.78-9.2-8.58-9.87A9.81,9.81,0,0,0,55.81,5.91a11.17,11.17,0,0,0,.43,8.8C58.11,18.16,61.54,20.58,65,20.61Z"/></svg>