<svg id="Layer_2" data-name="Layer 2" xmlns="http://www.w3.org/2000/svg" viewBox="0 0 100 43.3"><defs><style>.cls-1,.cls-2{fill:#fff;}.cls-2{stroke:#231f20;}.cls-2,.cls-3{stroke-width:0.28px;}.cls-3{fill:none;stroke:#93b874;stroke-dasharray:0.55 0.55;}.cls-4{fill:#93b874}</style></defs><path class="cls-4" d="M54.38,1c-.83-2.18-4.7-.35-5.74.7,0,0-16.69,16.52-35.31,21.21,0,0,6.46,3.42,17.74-1.22,10-4.12,19.83-11.47,19.83-11.47S55.77,4.67,54.38,1Z"/><path class="cls-4" d="M12.55,22.93S-.1,25.15.12,29.71c0,0,4.48,3.13,13.13,5.31,0,0,8.43,2.26,22-1.91a112.18,112.18,0,0,1,26.87-5c9-.35,22.78,2.18,26.17,2.18,3.58,0,11.36.14,9.37-9.35a23.87,23.87,0,0,0-6.59-5c-5.15-2.75-13.17-4.39-13.17-4.39A69,69,0,0,1,54,14.24c-4.65-.39-4.17-2.09-4.17-2.09s-12,7.52-18.4,10.13C25.72,24.63,16.73,26.45,12.55,22.93Z"/><path class="cls-1" d="M19.63,34.88a26.39,26.39,0,0,1-6.19-.59,45.31,45.31,0,0,1-12.55-5c.45-2.61,7-4.76,11.46-5.59a11.53,11.53,0,0,0,7.06,1.92A34.87,34.87,0,0,0,31.75,23c5.48-2.25,14.84-7.93,17.68-9.68.66.92,2.18,1.49,4.54,1.68,1.51.13,3.08.2,4.67.2a71.77,71.77,0,0,0,19.3-2.78c1.24.27,8.22,1.85,12.78,4.28A24.81,24.81,0,0,1,97,21.32c.53,2.7.26,4.74-.82,6.06-1.77,2.19-5.47,2.2-7.69,2.2-1.3,0-3.71-.31-6.76-.69a154.75,154.75,0,0,0-17.77-1.52q-.95,0-1.83,0a111.74,111.74,0,0,0-27.07,5,52.63,52.63,0,0,1-15.39,2.49Z"/><path class="cls-4" d="M.12,30.41s-1.71,5,8,9.74C14,43,21.41,43.79,28.73,43c4.72-.5,6.91-1.16,17.71-3.77,14.63-3.53,33.19,3,42.58,2.28,6.22-.46,12.79-4.15,10.52-10.41L98,27.22s-.81,5.37-13.25,3.63A124.75,124.75,0,0,0,64.12,29a81.24,81.24,0,0,0-23.66,3.56C34.88,34.26,17.68,41.71.12,30.41Z"/><path class="cls-4" d="M78.31,11.23l.89-.43.92-.26c6.91-2.87,11.77-7.89,12.51-8,1.41-.19,2.22,1.38,2.22,1.38s3.79,4.78,2.84,16.61C97.69,20.55,94.2,14.32,78.31,11.23Z"/><path class="cls-2" d="M20.12,22.41A12.78,12.78,0,0,1,22.86,25s.74,1.29-.16,1.74c-.33.16-2.46-1-2.71-1.35L14.86,22.2c-.26-.36,2-1.84,2.26-1.49C17.12,20.71,18.66,21.49,20.12,22.41Z"/><path class="cls-2" d="M25.42,19.45c4.7,1.14,5.31,2.35,5.48,2.35,0,0,1.51,1.72.61,2.18a20.22,20.22,0,0,1-5.22-1.92l-7-1.56c-.26-.35,2.52-1.92,2.78-1.57A19.34,19.34,0,0,1,25.42,19.45Z"/><path class="cls-2" d="M27.07,24.42c.15.47-.23,1.85-.74,2s-1.58-1.31-1.58-1.31c-.18-.24-2.5-6.2-2.89-6.72l.09-.6c-.1.21,1.73-.79,1.73-.79.41.25.42,0,.68.82Z"/><path class="cls-2" d="M33,16.45c4.69,1.14,5.3,2.35,5.47,2.35,0,0,1.51,1.72.61,2.18a20.16,20.16,0,0,1-5.21-1.92l-7.92-1.71c-.26-.35,2.52-1.92,2.78-1.56A34,34,0,0,1,33,16.45Z"/><path class="cls-2" d="M39.12,12.93c4.69,1.13,5.3,2.35,5.48,2.35,0,0,1.51,1.72.61,2.17A20.06,20.06,0,0,1,40,15.54L32,13.9c-.26-.35,2.53-1.92,2.79-1.57A27.58,27.58,0,0,1,39.12,12.93Z"/><path class="cls-2" d="M44.25,10.15c4.69,1.13,5.3,2.35,5.47,2.35,0,0,1.51,1.72.61,2.17a20.13,20.13,0,0,1-5.21-1.91l-8.67-1.58c-.26-.35,2.53-1.92,2.79-1.57A29.2,29.2,0,0,1,44.25,10.15Z"/><path class="cls-2" d="M34.64,21.42c.15.31-.09,1.78-.6,1.9s-1.7-1-1.7-1c-.18-.24-2.6-6.71-3-7.24l.1-.6c-.11.21,1.72-.79,1.72-.79.41.25.42,0,.68.82Z"/><path class="cls-2" d="M18.29,25.05c0,.11-.13,1.93-1.56,1.8-.64-.11-1.09-2.32-1.09-2.32-.2-.22-.71-2.77-1-3.19l.05-.59,2.18-1.08c.44,0,.36-.06.59.69Z"/><path class="cls-2" d="M42.25,17.17c.24.25.4,2.13-.33,2.5S40,18.73,40,18.73c-.18-.24-3.41-7.47-3.8-8l.11-.57c-.1.2,1.72-1,1.72-1,.2,0,.43,0,.77.66Z"/><path class="cls-2" d="M47.79,14.08c.21.34.62,2.12-.25,2.55-.6.3-1.93-.84-1.93-.84-.2-.22-3.89-7.79-4.11-8.24l-.24-.43a18.33,18.33,0,0,1,1.52-1.53c.54,0,.86,0,1,.25Z"/><path class="cls-1" d="M38.55,35.74a68.27,68.27,0,0,1,15.18-4A100.53,100.53,0,0,1,71,31.58c1.32.2,5.13.36,5,3.22-.08,1.9-3.68,2.53-5.48,2.26-6.32-1-15.52-1.54-21.81-.36-4.44.84-11.49,3.58-11.88,2.15C36.53,37.81,36.44,36.71,38.55,35.74Z"/><path class="cls-1" d="M83.26,33s-4.07-.43-4.42,2.43c-.28,2.22,3.2,2.64,4.82,3a31.55,31.55,0,0,0,5.89.41c3,0,5.45-1.65,5.07-3.25-.53-2.22-1.72-2-4.46-2S85.49,33.16,83.26,33Z"/><text/><path class="cls-3" d="M13.68,24.5s-9.54,3.33-.43,6.65c0,0,3.17,1.7,4.26,4A53.42,53.42,0,0,1,1,29.85S-.43,26,12.55,22.93Z"/></svg>