<svg id="Layer_2" data-name="Layer 2" xmlns="http://www.w3.org/2000/svg" viewBox="0 0 100 64.51"><defs><style>.cls-1{fill:#fff;}.cls-2{fill:#93b874}</style></defs><path class="cls-2" d="M86.1,1c-12,4.29-38.2,17.1-41.58,18.76S14.67,33.64,3.8,40.27c-3,1.44-5.1,3.35-2.85,8.06A110.4,110.4,0,0,0,8.7,61.41c1.59,2.38,3.14,3.3,3.76,3.06,0,0,.9.07,0-2C11.89,61.26,6.62,49,6.62,49S6,47.71,6.53,47.11c.31,0,1,.14,1.48,1.22,0,0,6.75,13.22,6.86,13.45s.74,1,1.11,1l0,0,0,0h.06l0,0a2.59,2.59,0,0,0-.09-1.5C15.87,61,9.83,47.47,9.83,47.47c-.65-1.36-.13-1.9,0-2s1-.13,1.65,1.21l6.86,13.45c.1.22.74,1,1.1,1l0,0,0,0h.06l0,0a2.48,2.48,0,0,0-.1-1.49L13.29,45.82c-.65-1.35-.13-1.9,0-2s1-.14,1.65,1.21c0,0,6.74,13.21,6.85,13.45s.74,1,1.11,1l0,0s0,0,0,0H23a0,0,0,0,0,0,0,2.66,2.66,0,0,0-.1-1.5c-.11-.23-6.15-13.79-6.15-13.79-.64-1.35-.13-1.9,0-2s1-.13,1.65,1.21c0,0,6.75,13.21,6.86,13.45s.74,1,1.11,1l0,0,0,0h.06l0,0a2.62,2.62,0,0,0-.09-1.51c-.11-.22-6.15-13.78-6.15-13.78-.65-1.35-.13-1.9,0-2s1-.13,1.65,1.21L28.7,55.18c.1.22.74,1,1.1,1l0,0,0,0h.06l0,0a2.5,2.5,0,0,0-.1-1.5L23.65,40.87c-.64-1.35-.12-1.9,0-2s1-.14,1.65,1.21c0,0,6.74,13.21,6.85,13.45s.74,1,1.11,1l0,0s0,0,0,0h0a.1.1,0,0,0,0,0,2.63,2.63,0,0,0-.1-1.49c-.11-.23-6.15-13.8-6.15-13.8-.64-1.35-.13-1.89,0-2s1-.14,1.65,1.21c0,0,6.75,13.21,6.86,13.45s.74,1,1.1,1l0,0,0,0h.06l0,0a2.59,2.59,0,0,0-.09-1.5c-.11-.22-6.15-13.79-6.15-13.79-.65-1.35-.13-1.89,0-2s1-.14,1.65,1.21l6.86,13.45c.1.22.74,1,1.1,1l0,0a.1.1,0,0,0,0,0h.05v0a2.51,2.51,0,0,0-.1-1.5L34,35.91c-.64-1.35-.12-1.89,0-2s1-.14,1.65,1.21c0,0,6.74,13.21,6.85,13.45s.74,1,1.11,1l0,0s0,0,0,0h.05v0a2.68,2.68,0,0,0-.1-1.5c-.11-.22-6.15-13.79-6.15-13.79-.64-1.35-.13-1.89,0-2s1-.14,1.65,1.21c0,0,6.75,13.21,6.86,13.45s.74,1,1.1,1c0,0,0,0,0,0l0,0h.06l0,0a2.51,2.51,0,0,0-.1-1.5L40.94,32.61c-.65-1.35-.13-1.89,0-2s1-.13,1.65,1.22l6.86,13.45c.1.22.74,1,1.1,1,0,0,0,0,0,0s0,0,0,0h0s0,0,0,0a2.51,2.51,0,0,0-.1-1.5L44.39,31c-.64-1.35-.13-1.89,0-2s1-.14,1.64,1.21c0,0,6.75,13.21,6.86,13.45s.74,1,1.11,1l0,0s0,0,0,0h.06a.1.1,0,0,1,0,0,2.68,2.68,0,0,0-.1-1.5c-.11-.22-6.15-13.79-6.15-13.79-.72-1.52,0-2,0-2l.05,0s.86-.26,1.59,1.25c0,0,6.75,13.23,6.85,13.45s.74,1,1.11,1l0,0s0,0,0,0h0a.1.1,0,0,0,0,0,2.53,2.53,0,0,0-.1-1.5c-.12-.23-6.15-13.78-6.15-13.78-.64-1.35,0-1.94.09-2.05s.91-.09,1.55,1.26l6.86,13.45c.09.2.74,1,1.1,1a.06.06,0,0,1,0,0l0,0H61l0,0a2.41,2.41,0,0,0-.1-1.49L54.78,26c-.64-1.35,0-1.94.09-2.05s.91-.09,1.55,1.26l6.86,13.45c.09.2.74,1,1.1,1l0,0s0,0,0,0h0s0,0,0,0a2.52,2.52,0,0,0-.1-1.5L58.23,24.36c-.64-1.35,0-1.95.1-2.05s.9-.09,1.55,1.26c0,0,6.75,13.23,6.85,13.45s.74,1,1.11,1l0,0s0,0,0,0h0v0a2.61,2.61,0,0,0-.1-1.5c-.12-.23-6.15-13.78-6.15-13.78-.64-1.35,0-1.95.09-2.05s.91-.09,1.55,1.26l6.86,13.45c.1.2.74,1,1.1,1l0,0s0,0,0,0h.06l0,0a2.45,2.45,0,0,0-.1-1.5c-.11-.23-6.14-13.79-6.14-13.79-.65-1.34,0-1.94.09-2s.9-.09,1.55,1.26l6.86,13.45c.09.2.73,1,1.1,1l0,0s0,0,0,0h0s0,0,0,0a2.53,2.53,0,0,0-.1-1.5C74.64,33,68.6,19.4,68.6,19.4c-.64-1.34,0-1.94.1-2s.9-.09,1.55,1.26c0,0,6.75,13.23,6.85,13.45s.74,1,1.11,1l0,0,0,0h0a.1.1,0,0,1,0,0,2.61,2.61,0,0,0-.1-1.5c-.12-.23-6.15-13.79-6.15-13.79-.64-1.34,0-1.94.09-2s.91-.09,1.55,1.26c0,0,6.76,13.23,6.86,13.45s.74,1,1.1,1l0,0a.1.1,0,0,0,0-.05s0,0,.06,0l0,0a2.45,2.45,0,0,0-.1-1.5L75.52,16.1c-.65-1.34,0-1.94.09-2s.9-.09,1.55,1.26L84,28.77c.09.2.73,1,1.1,1l0,0a.1.1,0,0,0,0,0h0a.1.1,0,0,0,0,0,2.52,2.52,0,0,0-.1-1.5L79,14.45c-.64-1.34,0-1.94.09-2s.91-.09,1.56,1.26c0,0,6.75,13.23,6.85,13.45s.74,1,1.11,1l0,0,0-.05s0,0,0,0v0a2.6,2.6,0,0,0-.1-1.5c-.12-.24-6.15-13.79-6.15-13.79-.64-1.34,0-1.94.09-2s.91-.09,1.55,1.26l6.86,13.45c.09.2.74,1,1.1,1l0,0s0,0,0,0h.06l0,0a2.45,2.45,0,0,0-.1-1.5c-.11-.23-6.14-13.79-6.14-13.79-.65-1.34,0-1.94.09-2s.9-.09,1.55,1.26l6.86,13.45c.09.2.73,1,1.1,1l0,0s0,0,0,0,0,0,0,0a.1.1,0,0,0,0,0,2.52,2.52,0,0,0-.1-1.5L89.34,9.5c-.64-1.35,0-1.94.1-2,.94-.4,1.67,1.2,1.67,1.2s6.23,11.81,6.82,13c1,2,1.54,1.29,1.54,1.29.58-.34.83-2.12,0-4.85a111.51,111.51,0,0,0-5.3-14.25C91.91-.88,89.11-.46,86.1,1Z"/><path class="cls-1" d="M99,18.83a109.18,109.18,0,0,0-5.22-14C91.56.15,88.8.56,85.83,2,74,6.21,48.2,18.82,44.87,20.46S15.46,34.16,4.74,40.7c-3,1.41-5,3.3-2.81,7.94A109.08,109.08,0,0,0,9.57,61.53l.36.06A105.44,105.44,0,0,1,3.19,49.8C1,45.16,2.46,43.55,5.43,42.13,16.14,35.6,42.19,23.45,45.55,21.89S74.7,7.64,86.52,3.41c3-1.41,5.13-2,7.35,2.6"/></svg>