<svg id="Layer_2" data-name="Layer 2" xmlns="http://www.w3.org/2000/svg" viewBox="0 0 100.5 90.92"><defs><style>.cls-1{fill-rule:evenodd;fill:#93b874}.cls-2,.cls-5{fill:#fff;}.cls-2,.cls-3,.cls-4{stroke:#fff;}.cls-3,.cls-4,.cls-7{fill:none;}.cls-3{stroke-width:0.3px;}.cls-4{stroke-width:0.6px;}.cls-6,.cls-7{stroke:#93b874;stroke-width:1.2px;}</style></defs><path class="cls-1" d="M68.5,8.42l-3.42,8.15,8.46,2,17-8.42L85.52,0Zm.39,7.72a1.51,1.51,0,1,1-1.34-2.71,1.51,1.51,0,0,1,1.34,2.71Z"/><path class="cls-1" d="M93.47,76.78a8.35,8.35,0,0,1-8.35,8.35H8.35A8.35,8.35,0,0,1,0,76.78V31.16a8.35,8.35,0,0,1,8.35-8.35H85.12a8.35,8.35,0,0,1,8.35,8.35Z"/><path class="cls-2" d="M100,77.89c0,3.69-9.38,12.53-13.07,12.53-7.42,0-7.06.75-7.06-12.15,0-3.69,3.37-7.28,7.06-7.28C96.39,71,100,69.78,100,77.89Z"/><path class="cls-1" d="M95.33,79.49a6.68,6.68,0,1,1-6.67-6.68A6.67,6.67,0,0,1,95.33,79.49Z"/><path class="cls-1" d="M35.17,12.6l-4.27.56s-1.47.8-1.47,2v9.05H32.1v-7s-.27-1.89,1.33-1.89H35Z"/><path class="cls-1" d="M58.14,12.6l4.27.56s1.47.8,1.47,2v9.05H61.21v-7s.27-1.89-1.33-1.89H58.27Z"/><rect class="cls-1" x="33.66" y="10.85" width="26.15" height="6.12" rx="1.67"/><polyline class="cls-3" points="31.05 13.68 30.09 14.8 30.09 22.2"/><line class="cls-4" x1="57.47" y1="12.2" x2="35.3" y2="12.2"/><polyline class="cls-3" points="60.57 15.07 61.92 15.93 61.92 22.3"/><path class="cls-5" d="M87,8a1.67,1.67,0,0,1-.75,2.24l-12.07,6A1.66,1.66,0,0,1,72,15.43l-2-4.11a1.68,1.68,0,0,1,.76-2.24l12.06-6A1.69,1.69,0,0,1,85,3.87Z"/><line class="cls-6" x1="71.96" y1="10.72" x2="82.81" y2="5.35"/><line class="cls-6" x1="73.54" y1="13.91" x2="84.39" y2="8.55"/><line class="cls-7" x1="67.96" y1="15.09" x2="61.51" y2="18.28"/></svg>