<svg id="Layer_2" data-name="Layer 2" xmlns="http://www.w3.org/2000/svg" viewBox="0 0 100 96.64"><defs><style>.cls-1,.cls-2{fill-rule:evenodd;}.cls-1{fill:#93b874;}.cls-2{fill:#fff;}</style></defs><path class="cls-1" d="M98,1c-2.46-3.14-7,2.12-7,2.12S3.71,86.22,0,96.06c11.34-9.23,11.34-9.56,14.74-12.48C32,68.76,92,10.41,92,10.41,92.14,10.25,99.81,3.26,98,1ZM95.49,4a90.61,90.61,0,0,1-8.67,8.74c-.47.35-1.34.73-1.92.09a.9.9,0,0,1,.18-1.18c1.33-1.54,9.12-8.86,9.16-8.9.52-.54,1-.23,1-.23A1,1,0,0,1,95.49,4Z"/><path class="cls-2" d="M95.93,3.16s.42.46-.45,1.42c-1.82,2-7.93,8.71-9.23,9,0,0,.37.24,1.26-.44a37.1,37.1,0,0,0,4.82-4.58,44.74,44.74,0,0,0,3.4-3.81S96.62,3.85,95.93,3.16Z"/><path class="cls-1" d="M100,69.24c-.14.18-22.59,22.4-31.26,25.42C62.6,96.79,53.57,96.3,54.81,84.18c1.06-10.37,13.26-15.31,34-39.52,13.86-16.19,9-36.31,1.3-39.4-17.46-7-27.05,25.11-27.05,25.11l-.39.9S72.27-.82,89.74,6.16C97.46,9.25,102,27.61,88.17,43.79,67.43,68,55.56,72.08,53.92,84.35c-1.6,12.07,7.63,13.89,14.43,11.21C78.47,91.56,100,69.24,100,69.24Z"/><text/></svg>