<svg id="Layer_2" data-name="Layer 2" xmlns="http://www.w3.org/2000/svg" viewBox="0 0 44.61 100"><defs><style>.cls-1{fill:#93b874;}</style></defs><path class="cls-1" d="M4.28,46.9c6.37,4.25,7.28-1.52,7.28-1.52s0-44.22,0-44.44S11.36.6,11.3.57C-2.55-5.77-2.1,42.65,4.28,46.9Z"/><rect class="cls-1" x="4.08" y="40.83" width="7.53" height="11.83"/><rect class="cls-1" x="2.76" y="49.63" width="10.07" height="50.37" rx="5"/><rect class="cls-1" x="29.02" y="35.98" width="7.53" height="15.47"/><rect class="cls-1" x="27.76" y="49.63" width="10.07" height="50.37" rx="5"/><path class="cls-1" d="M21.05,30.27a2.91,2.91,0,0,0,2.92,3H41.61a2.92,2.92,0,0,0,2.93-3L43.92,3c0-1.65-1-3-2.18-3S39.6,1.35,39.56,3l-.39,17.28c0,1.65-.84,3-1.78,3s-1.75-1.35-1.78-3L35.21,3c0-1.65-1-3-2.2-3s-2.15,1.35-2.19,3l-.4,17.28c0,1.65-.84,3-1.78,3s-1.74-1.35-1.78-3L26.46,3c0-1.65-1.11-3-2.38-3S21.74,1.35,21.7,3l-.4,17.28c0,1.65-.11,4.35-.15,6Z"/><path class="cls-1" d="M21,30.89c0,5.87,5.29,10.63,11.82,10.63s11.82-4.76,11.82-10.63Z"/></svg>