<svg id="Layer_2" data-name="Layer 2" xmlns="http://www.w3.org/2000/svg" viewBox="0 0 100 89.14"><defs><style>.cls-1,.cls-2,.cls-3{fill-rule:evenodd;fill:#93b874}.cls-2{fill:#fff;}.cls-3{stroke:#fff;stroke-width:0.25px;}</style></defs><path class="cls-1" d="M8.84,0V52h82.1V0Zm78.8,48.65H12.14V3.3h75.5Z"/><path class="cls-1" d="M8.84,52.93.29,84.23H100l-9.06-31.3ZM91,72.23H8.88l4.3-16.71H86.82Z"/><path class="cls-2" d="M61,80.67a1.16,1.16,0,0,1-1.15,1.16h-20a1.16,1.16,0,0,1-1.16-1.16l1-6.6c0-.64.52-.95,1.16-.95h18c.64,0,1.15.31,1.15.95Z"/><path class="cls-3" d="M22.72,58.44c0,.11-.23.2-.46.2H14c-.24,0-.4-.09-.37-.2l.62-2.24c0-.11.24-.2.47-.2h8.09c.22,0,.39.09.37.2Z"/><path class="cls-3" d="M29.41,58.44c0,.11-.22.2-.45.2H24.07c-.23,0-.39-.09-.37-.2l.46-2.25c0-.11.22-.2.45-.2H29.4c.23,0,.4.08.39.19Z"/><path class="cls-3" d="M36.11,58.45c0,.11-.22.19-.45.19H30.78c-.23,0-.41-.09-.39-.2l.35-2.25c0-.11.22-.19.45-.19H36c.23,0,.41.09.39.19Z"/><path class="cls-3" d="M42.8,58.45c0,.11-.2.2-.44.2H37.49c-.24,0-.42-.09-.41-.2l.25-2.25c0-.11.21-.2.44-.2h4.79c.23,0,.4.09.4.2Z"/><path class="cls-3" d="M49.49,58.46c0,.1-.19.19-.42.19H44.19c-.23,0-.42-.09-.41-.2l.14-2.25c0-.1.2-.19.43-.19h4.79c.23,0,.41.09.41.19Z"/><path class="cls-3" d="M56.19,58.46c0,.11-.19.2-.42.2H50.89c-.23,0-.42-.09-.42-.19l0-2.26c0-.1.2-.19.42-.19h4.79c.23,0,.43.08.43.19Z"/><path class="cls-3" d="M62.88,58.46c0,.11-.17.2-.4.2H57.59c-.23,0-.42-.09-.43-.2l-.06-2.25c0-.11.17-.19.4-.19h4.79c.23,0,.42.08.43.19Z"/><path class="cls-3" d="M69.57,58.47c0,.11-.16.19-.39.19H64.29c-.23,0-.42-.09-.44-.2l-.17-2.25c0-.11.17-.19.4-.19h4.79c.23,0,.42.09.43.2Z"/><path class="cls-3" d="M76.26,58.47c0,.11-.15.19-.38.19H71c-.23,0-.42-.08-.44-.19l-.29-2.25c0-.11.17-.19.39-.19h4.8c.23,0,.43.08.44.19Z"/><path class="cls-3" d="M86.3,58.48c0,.11-.14.19-.37.19H77.69c-.23,0-.44-.08-.45-.18l-.39-2.26c0-.11.15-.19.37-.19h8.09c.23,0,.43.09.46.2Z"/><path class="cls-3" d="M18.66,61.53c0,.11-.23.19-.47.19h-5c-.25,0-.41-.09-.38-.19l.59-2.25c0-.12.24-.2.48-.2h4.9c.23,0,.4.09.38.2Z"/><path class="cls-3" d="M32.12,61.54c0,.1-.22.19-.46.19h-5c-.24,0-.41-.09-.39-.2l.39-2.25c0-.1.23-.19.46-.19H32c.24,0,.41.09.39.2Z"/><path class="cls-3" d="M25.29,61.53c0,.11-.24.2-.47.2h-5c-.24,0-.41-.08-.39-.19l.5-2.25c0-.11.23-.2.47-.2h4.9c.23,0,.4.08.38.19Z"/><path class="cls-3" d="M39,61.54c0,.1-.21.19-.45.19h-5c-.24,0-.41-.09-.4-.19l.29-2.25c0-.11.22-.2.45-.2h4.9c.24,0,.42.09.41.2Z"/><path class="cls-3" d="M45.79,61.54c0,.11-.2.2-.43.2h-5c-.24,0-.43-.09-.42-.19l.2-2.25c0-.11.2-.19.44-.2h4.9c.23,0,.41.08.41.19Z"/><path class="cls-3" d="M52.63,61.55c0,.1-.19.19-.43.19h-5c-.23,0-.42-.09-.42-.19l.09-2.26c0-.11.2-.19.43-.19h4.9c.23,0,.42.09.42.2Z"/><path class="cls-3" d="M59.46,61.55c0,.11-.18.2-.42.2h-5c-.24,0-.43-.08-.43-.19l0-2.25c0-.11.19-.2.42-.2h4.9c.24,0,.43.09.43.2Z"/><path class="cls-3" d="M66.3,61.55c0,.11-.18.2-.41.2h-5c-.24,0-.43-.09-.44-.2l-.12-2.25c0-.11.18-.2.42-.2h4.9c.23,0,.43.09.44.2Z"/><path class="cls-3" d="M73.13,61.56c0,.11-.16.19-.4.19h-5c-.24,0-.44-.09-.46-.19l-.21-2.25c0-.11.17-.2.4-.2h4.9c.23,0,.43.09.45.2Z"/><path class="cls-3" d="M80,61.56c0,.11-.16.2-.4.2h-5c-.24,0-.45-.08-.46-.19l-.32-2.25c0-.1.16-.19.39-.19h4.9c.23,0,.44.09.46.19Z"/><path class="cls-3" d="M87,61.57c0,.1-.15.19-.39.19H81.43c-.23,0-.44-.09-.46-.2l-.43-2.25c0-.1.16-.19.39-.19H86c.24,0,.44.09.47.2Z"/><path class="cls-3" d="M24.42,67.82c0,.1-.24.19-.48.19H11.64c-.25,0-.43-.09-.4-.2l.55-2.25c0-.11.25-.2.49-.2H24.39c.24,0,.43.08.41.19Z"/><path class="cls-3" d="M31.51,67.82c0,.1-.22.2-.47.2H25.86c-.24,0-.43-.09-.41-.19l.36-2.26c0-.11.23-.19.47-.19h5.1c.24,0,.43.08.42.19Z"/><path class="cls-3" d="M38.62,67.82c0,.11-.21.2-.46.2H33c-.25,0-.44-.09-.43-.19l.27-2.26c0-.1.22-.19.47-.19h5.1c.24,0,.43.09.42.2Z"/><path class="cls-3" d="M45.72,67.82c0,.11-.21.2-.45.2H40.09c-.25,0-.44-.09-.43-.2l.17-2.25c0-.11.22-.2.46-.2h5.1c.24,0,.44.09.43.2Z"/><path class="cls-3" d="M52.83,67.82c0,.11-.2.2-.45.2H47.21c-.26,0-.45-.09-.45-.2l.08-2.25c0-.11.21-.2.45-.2h5.1c.25,0,.45.08.45.19Z"/><path class="cls-3" d="M59.94,67.83c0,.1-.2.19-.45.19H54.32c-.25,0-.45-.09-.45-.2l0-2.25c0-.1.2-.19.45-.19h5.1c.24,0,.44.09.45.19Z"/><path class="cls-3" d="M67,67.83c0,.11-.18.19-.43.19H61.43c-.25,0-.45-.09-.46-.19l-.1-2.26c0-.1.19-.19.43-.19h5.1c.24,0,.45.09.46.19Z"/><path class="cls-3" d="M74.15,67.83c0,.11-.18.19-.43.19H68.54c-.24,0-.45-.09-.46-.19l-.2-2.25c0-.11.18-.2.42-.19h5.1c.25,0,.45.09.46.19Z"/><path class="cls-3" d="M31.13,71c0,.1-.23.19-.48.19H25.37c-.24,0-.44-.09-.42-.19l.35-2.26c0-.11.24-.2.48-.2H31c.24,0,.44.09.43.2Z"/><path class="cls-3" d="M16.66,71c0,.1-.24.19-.49.19H10.9c-.26,0-.44-.09-.41-.19L11,68.72c0-.11.24-.2.49-.2h5.2c.25,0,.43.09.41.2Z"/><path class="cls-3" d="M23.89,71c0,.1-.23.19-.48.19H18.13c-.25,0-.44-.09-.42-.19l.45-2.26c0-.11.24-.2.48-.2h5.2c.25,0,.43.09.42.2Z"/><path class="cls-3" d="M66.65,68.53H32.92c-.25,0-.46.1-.47.2L32.18,71c0,.1.18.19.44.19H66.84c.26,0,.46-.09.45-.19l-.18-2.25C67.11,68.62,66.9,68.53,66.65,68.53Z"/><path class="cls-3" d="M74.52,71c0,.1-.18.19-.44.19H68.81c-.25,0-.46-.09-.47-.19l-.19-2.25c0-.11.19-.2.44-.2h5.19c.25,0,.46.09.48.2Z"/><path class="cls-3" d="M79.89,71.05c0,.07-.12.12-.28.12H76.2c-.17,0-.3,0-.31-.12l-.12-1c0-.07.12-.12.28-.12h3.38c.16,0,.3.06.32.13Z"/><path class="cls-3" d="M84.56,71.05c0,.07-.11.12-.27.12H80.88c-.16,0-.31,0-.32-.12l-.14-.94c0-.07.12-.13.28-.13h3.39c.16,0,.3.06.31.13Z"/><path class="cls-3" d="M84.31,69.61c0,.06-.11.12-.27.12H80.66c-.16,0-.3-.06-.31-.12l-.14-.94c0-.08.1-.13.27-.13h3.36c.16,0,.29,0,.3.13Z"/><path class="cls-3" d="M89.25,71.05c0,.07-.11.12-.27.12H85.56c-.16,0-.31,0-.32-.12l-.16-.94c0-.07.11-.13.27-.13h3.39c.16,0,.3.06.32.13Z"/><path class="cls-3" d="M88.36,67.83c0,.11-.15.2-.41.2H75.66c-.26,0-.47-.08-.48-.19l-.29-2.25c0-.1.17-.19.41-.19H87.41c.25,0,.46.09.48.19Z"/><path class="cls-3" d="M21.09,64.69c0,.1-.23.19-.47.19H12.4c-.24,0-.41-.09-.39-.2l.58-2.25c0-.11.24-.2.48-.2h8.08c.23,0,.41.09.39.19Z"/><path class="cls-3" d="M28.42,64.69c0,.11-.22.2-.46.19H22.87c-.24,0-.42-.09-.4-.19l.43-2.25c0-.11.23-.2.47-.2h5c.24,0,.43.09.41.2Z"/><path class="cls-3" d="M35.4,64.69c0,.11-.22.2-.46.2H29.86c-.25,0-.43-.09-.42-.2l.34-2.25c0-.11.22-.2.46-.2h5c.24,0,.42.08.41.19Z"/><path class="cls-3" d="M42.38,64.69c0,.11-.21.2-.46.2H36.84c-.25,0-.43-.09-.41-.2l.22-2.25c0-.11.22-.19.46-.19h5c.25,0,.43.09.43.2Z"/><path class="cls-3" d="M49.34,64.7c0,.11-.19.19-.43.19H43.82c-.24,0-.44-.08-.43-.19l.14-2.25c0-.11.2-.2.44-.2h5c.24,0,.43.09.43.2Z"/><path class="cls-3" d="M56.33,64.7c0,.11-.2.2-.44.2H50.8c-.24,0-.44-.08-.43-.19l0-2.25c0-.11.2-.19.44-.2h5c.25,0,.44.08.45.2Z"/><path class="cls-3" d="M63.3,64.7c0,.11-.18.2-.42.2H57.79c-.25,0-.45-.09-.45-.2l-.06-2.24c0-.12.19-.2.43-.2h5c.24,0,.44.09.44.2Z"/><path class="cls-3" d="M70.27,64.71c0,.11-.17.19-.42.19H64.77c-.25,0-.45-.09-.45-.2l-.16-2.24c0-.11.17-.2.41-.2h5c.24,0,.44.09.46.2Z"/><path class="cls-3" d="M77.24,64.71c0,.11-.16.2-.41.19H71.75c-.24,0-.45-.08-.47-.19L71,62.46c0-.11.17-.2.41-.2h5c.25,0,.46.09.47.19Z"/><path class="cls-3" d="M87.7,64.72c0,.11-.15.19-.39.19H78.87c-.24,0-.45-.09-.47-.2l-.35-2.25c0-.1.16-.19.4-.19h8.29c.24,0,.45.09.48.2Z"/><path class="cls-1" d="M100,86.34c0,.64-3.23,1.15-3.87,1.15,0,0-20.64,1.65-45.88,1.65-25.89,0-46.53-1.65-46.53-1.65C3.09,87.49,0,87,0,86.34v-.55H100Z"/></svg>