<svg id="Layer_2" data-name="Layer 2" xmlns="http://www.w3.org/2000/svg" viewBox="0 0 82.69 100"><defs><style>.cls-1{fill:#93b874;}</style></defs><path class="cls-1" d="M75.47,34.38c-17.82-15.61-33.71,4.1-33.71,4.1S25.87,18.77,8,34.38c-13.67,12-11.42,49.13,18.51,64.88,4.95,2.61,12.87-2.53,15.21-2.4S52,101.76,57,99.26C83.6,86,89.14,46.34,75.47,34.38Z"/><path class="cls-1" d="M67.28,4.86c-.08-.62-.16-1.18-.21-1.71L66.77,0l-2.7,1.65A24.8,24.8,0,0,1,57.38,4.4l-1.11.18C50.76,5.42,37.85,7.39,39,33.8L39.09,36l2.21-.37c.75-.13,18.33-3.17,22.93-12.13A28,28,0,0,0,67.28,4.86ZM62.47,22.64C59.2,29,48,32.17,43.19,33.26c.17-2.65,1.58-7.18,8.4-13.56,8.58-8,10-9,12-12.06S65,4.26,64.81,3.85a25.54,25.54,0,0,1-5.67,7.39c-4.23,4-15.9,11.78-18.2,21.39C40.2,7,53.53,7.18,57.77,6.33a25.9,25.9,0,0,0,7-2.82.44.44,0,0,0,0,.34c.09-.18.16-.34.22-.47l.07,0C65.46,7.16,67.33,13.17,62.47,22.64Z"/></svg>