<svg id="Layer_2" data-name="Layer 2" xmlns="http://www.w3.org/2000/svg" viewBox="0 0 100 100"><defs><style>.cls-1{stroke:#fff;stroke-width:0.87px;}.cls-1,.cls-3{fill:#93b874}.cls-2{fill:#fff;}</style></defs><path class="cls-3" d="M97.25,2.75A9.37,9.37,0,0,0,84,2.75L55.36,34.41c-3.66,3.66-3.66,6.56,0,10.23s6.57,3.66,10.23,0L97.25,16A9.38,9.38,0,0,0,97.25,2.75ZM85.36,20.11a3.87,3.87,0,0,1-5.47-5.47L87.42,7.1a3.87,3.87,0,0,1,5.47,5.47Z"/><path class="cls-3" d="M54.94,53.38c-2.29,2.29-4.37.66-6.65-1.62h0c-2.29-2.29-3.91-4.37-1.63-6.65l6.65-6.65c2.29-2.29,4.52-.81,6.8,1.47h0c2.29,2.29,3.76,4.52,1.48,6.8Z"/><path class="cls-3" d="M1.26,98.75l-.09.08C1.35,99,1.35,99,1.26,98.75Zm66.39-34c1.31-1.64,1-2.21,1-2.21C61,65.11,53.8,55.36,52.77,54.92S54,53.15,54,53.15l-4.23-2.87-2.87-4.23s-1.33,2.22-1.77,1.18S34.89,39,37.43,31.31c0,0-.57-.27-2.21,1C27.83,38.26,11.05,57.7,11.05,57.7S1.74,69.34.58,79.7c-1.49,13.27.32,18.07.68,19h0c1,.36,5.77,2.17,19,.68C30.66,98.26,42.3,89,42.3,89S61.74,72.17,67.65,64.78ZM1.17,98.83l.08-.09C1,98.65,1,98.65,1.17,98.83Z"/><polyline class="cls-1" points="53.96 41.49 48.41 47.05 47.9 48.56"/><path class="cls-1" d="M34.26,36.44S16.33,54.88,12,60.18C10.22,62.42,4,71.8,3.19,78.11c-.85,7.14-.5,18.7-.5,18.7"/><path class="cls-2" d="M46,54.32S13.85,78.78,10.05,81s-5.75.28-6.46-1.85C3,77.44,3.26,91.38,2.9,96.69,2.9,96.69,30.51,66,46,54.32Z"/><path class="cls-1" d="M96.11,4.21S90.17.47,86,4.21,55.86,37.85,55.86,37.85"/><path class="cls-1" d="M95.54,8.39s1.1,2.85.66,4.18S86.09,22.68,86.09,22.68"/></svg>