<svg id="Layer_2" data-name="Layer 2" xmlns="http://www.w3.org/2000/svg" viewBox="0 0 28.66 100"><defs><style>.cls-1{fill-rule:evenodd;fill:#93b874}</style></defs><path class="cls-1" d="M23.53,63.68c-.2.25-.12.21,0,.71.76,5.85.6,9.16,1.28,16.13.52,5.25-.17,11,.63,13.72.71,2.47,3.83,3.1,3.16,5.57-3.57.86-4.18-1.42-6.43-2-.19-2.27-.53-1.23,0-2.78,0,0,0,0-.15-.47-2-20.58-5.61-31.33-7.8-29.62-2-.93-5.05,20.86-5.83,28.66a1.66,1.66,0,0,1-.45.17c.25,1.06-.11,1.26.05,2.35-2,1.53-3.88,3.2-7.49,3.12C-.87,96.6,4.5,96.07,4.68,93.49a4.48,4.48,0,0,1-.17-1.43c1.56-9.2-1.16-28.92,2.18-37.73.26-2.14.45.51-.17-.73,0,0-.2-.2-.14-.36A110.91,110.91,0,0,0,6.53,40C6.1,35,.45,22.84.45,22.84-.48,20.19-.32,13,4.37,4.08,4.3,4.21,6.23.59,6.38.54,7.11.3,7.08.31,7.52.42c.17.1,1.37-.65,1.66-.35C11.62,2.7,9.5,4.6,6.47,7.75,5.06,12,4.2,16.91,5,19.56s4.73,8.79,8.11,11.23c.07-.33-.67-1.07-.62-1.4.29-4.62.13-7.19,3.23-8.82.25-.14,0,0,1-1-.66,1-.35.67-.35.68,2.57-.26,4.35.23,5.21,1.84a6,6,0,0,1,1,4.21c-.06.48-.65,3.7-.78,4.17a3.84,3.84,0,0,1-.31-1.72c-1.46,2.69-2.07,4-3.49,4.17,4.11,2.53,5.23,3.31,5.73,7.47.62,5.29.16,15,1.87,21C25.66,63.6,24.15,63.37,23.53,63.68Z"/></svg>