<svg id="Layer_2" data-name="Layer 2" xmlns="http://www.w3.org/2000/svg" viewBox="0 0 100 89.73"><defs><style>.cls-1{fill:#93b874}</style></defs><path class="cls-1" d="M46.6,14.26c.74,8.35-3.26,15.53-8.94,16S26.79,24.43,26.05,16.08,29.31.54,35,0,45.86,5.9,46.6,14.26Z"/><path class="cls-1" d="M19.31,27.63c2.87,7.28,1.19,14.77-3.76,16.71S4.27,42,1.4,34.69.21,19.93,5.16,18,16.45,20.35,19.31,27.63Z"/><path class="cls-1" d="M77.38,15.85c-.55,8.37-5.62,14.84-11.3,14.47s-9.85-7.47-9.29-15.84S62.4-.36,68.09,0,77.93,7.48,77.38,15.85Z"/><path class="cls-1" d="M98.42,39.88c-3,6.93-9.21,10.92-13.89,8.9s-6.07-9.27-3.08-16.21,9.21-10.93,13.9-8.91S101.41,32.94,98.42,39.88Z"/><path class="cls-1" d="M48.75,44c-11,0-24.68,9.65-26.92,24-1.53,9.74-.55,16,7.62,20.64a10.25,10.25,0,0,0,9.43-.22c4.94-2.92,6.91-9.6,14.14-9.87,5.83-.23,7.13,2.58,8.3,3.36s3.37,4,8.75,3.82C81.8,85.26,79.5,44,48.75,44Z"/></svg>