<svg id="Layer_2" data-name="Layer 2" xmlns="http://www.w3.org/2000/svg" viewBox="0 0 100 68.24"><defs><style>.cls-1{stroke:#fff;stroke-width:0.75px;fill:#93b874}</style></defs><path class="cls-1" d="M94.38,56.14S57.48,28.42,55.5,27L43.79,22.81a149.25,149.25,0,0,1-9.52-12.3S27.72,0,18.6,0,2.8,6.2.94,15.47c-1,5-3,13.3,5.36,20,0,0,10.12,11.7,36.1-6.75,0,0-22.81,14.88-33.72,5.56,0,0-9.13-7.34-2.78-16.27,0,0,9.33-11.11,30.55,10.71,0,0,8.74,1.39,15.67,6,8.93,5.95,22.82,23,30.56,33.47,0,0-1.39-10.31-2-13.09C80.69,55.15,93,55.15,94.38,56.14Z"/><path class="cls-1" d="M38,30.35S24.35,37.3,16.61,36.3C13.85,36,1.74,33.13,6.1,19.64c0,0,5.16,14.28,26.19,6.94A20.83,20.83,0,0,0,38,30.35Z"/><path class="cls-1" d="M5.62,56.14S42.52,28.42,44.5,27l11.71-4.23a149.25,149.25,0,0,0,9.52-12.3S72.28,0,81.4,0,97.2,6.2,99.06,15.47c1,5,3,13.3-5.36,20,0,0-10.12,11.7-36.1-6.75,0,0,22.81,14.88,33.72,5.56,0,0,9.13-7.34,2.78-16.27,0,0-9.33-11.11-30.55,10.71,0,0-8.74,1.39-15.67,6-8.93,5.95-22.82,23-30.56,33.47,0,0,1.39-10.31,2-13.09C19.31,55.15,7,55.15,5.62,56.14Z"/><path class="cls-1" d="M62,30.35S75.65,37.3,83.38,36.3C86.15,36,98.26,33.13,93.9,19.64c0,0-5.16,14.28-26.19,6.94A20.83,20.83,0,0,1,62,30.35Z"/><path class="cls-1" d="M58.75,27.44c0,6-2.55,12.4-8.57,12.4-6.38,0-8.57-6.36-8.57-12.4s1.83-11,8.57-11C57.29,16.49,58.75,21.39,58.75,27.44Z"/></svg>