<svg id="Layer_2" data-name="Layer 2" xmlns="http://www.w3.org/2000/svg" viewBox="0 0 101 71.59"><defs><style>.cls-1{fill:#93b874}.cls-1,.cls-2,.cls-3,.cls-4{stroke:#93b874;}.cls-2{fill:#fff;}.cls-3,.cls-4{fill:none;}.cls-3{stroke-width:1.13px;}.cls-4{stroke-width:2.81px;}</style></defs><polygon class="cls-1" points="100.5 71.09 95.46 71.09 5.54 71.09 0.5 71.09 0.5 66.05 0.5 5.54 0.5 0.5 5.54 0.5 95.46 0.5 100.5 0.5 100.5 5.54 100.5 66.05 100.5 71.09 100.5 71.09"/><rect class="cls-2" x="5.54" y="5.54" width="89.91" height="60.5"/><line class="cls-3" x1="4.7" y1="13.53" x2="95.88" y2="13.53"/><line class="cls-3" x1="4.7" y1="22.35" x2="95.88" y2="22.35"/><line class="cls-3" x1="4.7" y1="31.17" x2="95.88" y2="31.17"/><line class="cls-3" x1="4.7" y1="40" x2="95.88" y2="40"/><line class="cls-3" x1="4.7" y1="48.82" x2="95.88" y2="48.82"/><line class="cls-3" x1="4.7" y1="57.64" x2="95.88" y2="57.64"/><polyline class="cls-4" points="4.28 65.63 33.41 36.5 41.61 44.69 63.46 22.84 70.81 30.2 85.38 15.63"/><polygon class="cls-1" points="84.42 16.8 77.59 9.98 91.44 9.73 91.24 23.62 84.42 16.8"/></svg>