<svg id="Layer_2" data-name="Layer 2" xmlns="http://www.w3.org/2000/svg" viewBox="0 0 101.17 71.58"><defs><style>.cls-6{fill:#93b874}.cls-1,.cls-3,.cls-4{fill:#fff;}.cls-1{stroke:#93b874;}.cls-1,.cls-2{stroke-width:1.17px;}.cls-2{stroke:#fff;fill:#93b874}.cls-4{font-size:36.09px;font-family:Chalkboard-Bold, Chalkboard;font-weight:700;}.cls-5{letter-spacing:0.02em;}</style></defs><polygon class="cls-1" points="100.58 71 95.56 71 5.6 71 0.58 71 0.58 65.98 0.58 5.6 0.58 0.58 5.6 0.58 95.56 0.58 100.58 0.58 100.58 5.6 100.58 65.98 100.58 71 100.58 71"/><polygon class="cls-6" points="100.58 70.28 95.56 70.28 5.6 70.28 0.58 70.28 0.58 70.13 0.58 68.41 0.58 68.26 5.6 68.26 95.56 68.26 100.58 68.26 100.58 68.41 100.58 70.13 100.58 70.28 100.58 70.28"/><rect class="cls-6" x="5.6" y="5.6" width="89.96" height="58.77"/><rect class="cls-2" x="60.93" y="57.08" width="25.11" height="10.04"/><rect class="cls-3" x="60.93" y="63.67" width="25.11" height="4.39"/><text class="cls-4" transform="translate(30.48 45.44) rotate(-9.58)"><tspan class="cls-5">A</tspan><tspan x="24.72" y="0">-</tspan></text></svg>