<svg id="Layer_2" data-name="Layer 2" xmlns="http://www.w3.org/2000/svg" viewBox="0 0 101.2 83.01"><defs><style>.cls-1{fill:#93b874}.cls-1,.cls-3{stroke:#fff;}.cls-1{stroke-width:1.2px;}.cls-2{fill:#fff;}.cls-3{fill:none;stroke-width:0.93px;}</style></defs><path class="cls-1" d="M92.32,67.13c-11.68,6.09-28.11-10-28.11-10C59.56,52.51,44,21.33,44,21.33S57,22.46,66.15,17.62l.64-.33C76,12.58,82.56,1.23,82.56,1.23s16.6,30.66,17.68,37.08c0,0,2.94,23.17-7.92,28.82Z"/><path class="cls-2" d="M71.28,36.08s-4.73-2.7-7.71,1.55c-4,5.75-.71,9.91-.71,9.91s.18-5.8,3.66-8.76S71.28,36.08,71.28,36.08Z"/><path class="cls-3" d="M65.13,25.45a26.19,26.19,0,0,1-3.43,7.67,38.78,38.78,0,0,1-5.16,6.62"/><path class="cls-2" d="M79.14,32a5.27,5.27,0,0,1,5.16-5.21,9,9,0,0,1,9.07,4.89s-4.86-3.19-9.28-2S79.14,32,79.14,32Z"/><path class="cls-3" d="M74.05,20.81a26.09,26.09,0,0,0,8.21,1.6A44.94,44.94,0,0,0,90.67,22"/><path class="cls-2" d="M95.45,47.24S88.82,41,81,45s-6.57,13.21-6.57,13.21C74.49,55.47,92.39,46.43,95.45,47.24Z"/><path class="cls-1" d="M11.11,81.6c-12.18-5-10.42-28-10.42-28C1.18,47.13,15,15.11,15,15.11s7.55,10.72,17.14,14.58l.67.27c9.52,4,22.43,1.72,22.43,1.72s-12.75,32.45-17,37.41c0,0-15.82,17.17-27.14,12.51Z"/><path class="cls-2" d="M20.56,47.16s-.39-4.31-3.34-5.53a8.12,8.12,0,0,0-9.45,2.21,14,14,0,0,1,7.74.75C20.1,46.48,20.56,47.16,20.56,47.16Z"/><path class="cls-3" d="M25.05,38A9.49,9.49,0,0,0,18.17,34c-5.84-.59-9.93,4-9.93,4"/><path class="cls-2" d="M28.7,50.51S32,47.72,35,48.94a8.12,8.12,0,0,1,5.15,8.22,14.05,14.05,0,0,0-6-4.92C29.49,50.35,28.7,50.51,28.7,50.51Z"/><path class="cls-3" d="M31.94,40.86a9.51,9.51,0,0,1,7.73,2A11.43,11.43,0,0,1,44,51.57"/><path class="cls-2" d="M9.86,54l-3,2.77a3.08,3.08,0,0,1,2-.77S6.48,70.7,14.55,74.11s16.57-8.88,16.57-8.88A3,3,0,0,1,32,67.17l-.21-4.11C29.67,64.77,10.16,56.73,9.86,54Z"/></svg>