<?xml version="1.0" encoding="UTF-8"?>
<svg width="32px" height="32px" viewBox="0 0 32 32" version="1.1" xmlns="http://www.w3.org/2000/svg" xmlns:xlink="http://www.w3.org/1999/xlink">
    <!-- Generator: Sketch 63.1 (92452) - https://sketch.com -->
    <title>2 Trending How To Articles Copy 7</title>
    <desc>Created with Sketch.</desc>
    <g id="2-Trending-How-To-Articles-Copy-7" stroke="none" stroke-width="1" fill="none" fill-rule="evenodd">
        <g id="trending-how-to-articles-copy" fill-rule="nonzero">
            <path d="M5.1277704,0 L26.8722296,0 C28.6552671,0 29.3018396,0.185651222 29.9536914,0.534265408 C30.6055433,0.882879593 31.1171204,1.39445674 31.4657346,2.04630859 C31.8143488,2.69816044 32,3.34473292 32,5.1277704 L32,26.8722296 C32,28.6552671 31.8143488,29.3018396 31.4657346,29.9536914 C31.1171204,30.6055433 30.6055433,31.1171204 29.9536914,31.4657346 C29.3018396,31.8143488 28.6552671,32 26.8722296,32 L5.1277704,32 C3.34473292,32 2.69816044,31.8143488 2.04630859,31.4657346 C1.39445674,31.1171204 0.882879593,30.6055433 0.534265408,29.9536914 C0.185651222,29.3018396 0,28.6552671 0,26.8722296 L0,5.1277704 C0,3.34473292 0.185651222,2.69816044 0.534265408,2.04630859 C0.882879593,1.39445674 1.39445674,0.882879593 2.04630859,0.534265408 C2.69816044,0.185651222 3.34473292,0 5.1277704,0 Z" id="Rectangle-Copy-2" fill="#97BA78"></path>
            <path d="M10,8 L22,8 C22.5522847,8 23,8.44771525 23,9 L23,23.8257794 C23,24.3780641 22.5522847,24.8257794 22,24.8257794 C21.7612887,24.8257794 21.5304517,24.7403872 21.3492086,24.585036 L16.6507914,20.5578212 C16.2763016,20.23683 15.7236984,20.23683 15.3492086,20.5578212 L10.6507914,24.585036 C10.2314655,24.9444581 9.60016555,24.8958966 9.2407434,24.4765707 C9.08539216,24.2953276 9,24.0644906 9,23.8257794 L9,9 C9,8.44771525 9.44771525,8 10,8 Z" id="expert" fill="#FFFFFF"></path>
        </g>
    </g>
</svg>