<svg width="32" height="32" viewBox="0 0 32 32" xmlns="http://www.w3.org/2000/svg"><title>9 Education Resource</title><g fill="none" fill-rule="nonzero"><path d="M5.128 0h21.744c1.783 0 2.43.186 3.082.534.652.349 1.163.86 1.512 1.512.348.652.534 1.299.534 3.082v21.744c0 1.783-.186 2.43-.534 3.082a3.635 3.635 0 0 1-1.512 1.512c-.652.348-1.299.534-3.082.534H5.128c-1.783 0-2.43-.186-3.082-.534a3.635 3.635 0 0 1-1.512-1.512C.186 29.302 0 28.655 0 26.872V5.128c0-1.783.186-2.43.534-3.082A3.635 3.635 0 0 1 2.046.534C2.698.186 3.345 0 5.128 0z" fill="#97BA78"/><g fill="#FFF"><path d="M6.826 7.845c-.087.3-.134.616-.134.944V19.23l.005.173a3.385 3.385 0 0 0 3.06 3.196l.362.04c.83.104 1.563.287 2.2.544.497.2.935.446 1.32.737l-6.947.002A1.692 1.692 0 0 1 5 22.231V9.538c0-.934.758-1.692 1.692-1.692zm18.482.001c.934 0 1.692.758 1.692 1.692v12.693c0 .934-.758 1.692-1.692 1.692l-6.947-.002a5.743 5.743 0 0 1 1.32-.737c.728-.294 1.582-.49 2.562-.584l.172-.02a3.385 3.385 0 0 0 2.893-3.35V8.79l-.004-.17a3.377 3.377 0 0 0-.13-.774l.134.001z"/><path d="M10.077 7.096c.068 0 .136.004.204.013.99.12 1.88.34 2.673.66.846.342 1.58.798 2.2 1.368v13.846a7.209 7.209 0 0 0-2.2-1.368c-.888-.358-1.9-.592-3.037-.7a1.692 1.692 0 0 1-1.532-1.684V8.789c0-.935.757-1.693 1.692-1.693zm13.526 1.488c.008.068.012.136.012.205V19.23c0 .873-.663 1.602-1.532 1.685-1.137.107-2.149.34-3.037.7a7.21 7.21 0 0 0-2.2 1.366V9.136a7.209 7.209 0 0 1 2.2-1.367 8.68 8.68 0 0 1 .339-.128v5.342a.423.423 0 0 0 .793.205l.476-.857.476.857a.423.423 0 0 0 .793-.205V7.096c.845 0 1.576.63 1.68 1.488z"/></g></g></svg>