<svg width="32" height="32" viewBox="0 0 32 32" xmlns="http://www.w3.org/2000/svg"><title>5 Expert Interviews Copy 5</title><g fill-rule="nonzero" fill="none"><path d="M5.128 0h21.744c1.783 0 2.43.186 3.082.534.652.349 1.163.86 1.512 1.512.348.652.534 1.299.534 3.082v21.744c0 1.783-.186 2.43-.534 3.082a3.635 3.635 0 0 1-1.512 1.512c-.652.348-1.299.534-3.082.534H5.128c-1.783 0-2.43-.186-3.082-.534a3.635 3.635 0 0 1-1.512-1.512C.186 29.302 0 28.655 0 26.872V5.128c0-1.783.186-2.43.534-3.082A3.635 3.635 0 0 1 2.046.534C2.698.186 3.345 0 5.128 0z" fill="#5F8344"/><path d="M16 6c1.419 0 2.665.739 3.375 1.852a3.996 3.996 0 0 1 3.696 1.077 3.997 3.997 0 0 1 1.077 3.696A3.996 3.996 0 0 1 26 16a3.997 3.997 0 0 1-1.852 3.375 3.996 3.996 0 0 1-1.077 3.696 3.997 3.997 0 0 1-3.696 1.077A3.996 3.996 0 0 1 16 26a3.988 3.988 0 0 1-2.866-1.21c-1.927 2.04-6.246 1.99-5.467 1.21.555-.556 1.11-1.389 1.666-2.5l.076-.022a3.997 3.997 0 0 1-1.557-4.104A3.996 3.996 0 0 1 6 16c0-1.419.739-2.665 1.852-3.375A3.996 3.996 0 0 1 8.93 8.929a3.997 3.997 0 0 1 3.696-1.077A3.996 3.996 0 0 1 16 6zm2.496 6.535l-3.508 3.81-1.524-1.251c-.321-.345-.918-.345-1.278.036l-.925.979a.972.972 0 0 0 0 1.325l3.238 2.745a.917.917 0 0 0 1.258-.07l4.982-5.27a.97.97 0 0 0 0-1.325l-.926-.979a.902.902 0 0 0-1.317 0z" fill="#FFF"/></g></svg>