<?xml version="1.0" encoding="UTF-8"?>
<svg width="32px" height="32px" viewBox="0 0 32 32" version="1.1" xmlns="http://www.w3.org/2000/svg" xmlns:xlink="http://www.w3.org/1999/xlink">
    <!-- Generator: Sketch 63.1 (92452) - https://sketch.com -->
    <title>2 Trending How To Articles Copy 10</title>
    <desc>Created with Sketch.</desc>
    <g id="2-Trending-How-To-Articles-Copy-10" stroke="none" stroke-width="1" fill="none" fill-rule="evenodd">
        <g id="trending-how-to-articles-copy" fill-rule="nonzero">
            <path d="M5.1277704,0 L26.8722296,0 C28.6552671,0 29.3018396,0.185651222 29.9536914,0.534265408 C30.6055433,0.882879593 31.1171204,1.39445674 31.4657346,2.04630859 C31.8143488,2.69816044 32,3.34473292 32,5.1277704 L32,26.8722296 C32,28.6552671 31.8143488,29.3018396 31.4657346,29.9536914 C31.1171204,30.6055433 30.6055433,31.1171204 29.9536914,31.4657346 C29.3018396,31.8143488 28.6552671,32 26.8722296,32 L5.1277704,32 C3.34473292,32 2.69816044,31.8143488 2.04630859,31.4657346 C1.39445674,31.1171204 0.882879593,30.6055433 0.534265408,29.9536914 C0.185651222,29.3018396 0,28.6552671 0,26.8722296 L0,5.1277704 C0,3.34473292 0.185651222,2.69816044 0.534265408,2.04630859 C0.882879593,1.39445674 1.39445674,0.882879593 2.04630859,0.534265408 C2.69816044,0.185651222 3.34473292,0 5.1277704,0 Z" id="Rectangle-Copy-2" fill="#97BA78"></path>
            <g id="bubble" transform="translate(6.000000, 6.000000)" fill="#FFFFFF">
                <path d="M10,-1.48029737e-14 C11.4187392,-1.48029737e-14 12.6649645,0.738619778 13.375115,1.85229841 C14.6644219,1.56681396 16.0678861,1.92575052 17.0710678,2.92893219 C18.0742495,3.93211386 18.433186,5.33557811 18.1478775,6.62520053 C19.2613802,7.33503549 20,8.5812608 20,10 C20,11.4187392 19.2613802,12.6649645 18.1477016,13.375115 C18.433186,14.6644219 18.0742495,16.0678861 17.0710678,17.0710678 C16.0678861,18.0742495 14.6644219,18.433186 13.3747995,18.1478775 C12.6649645,19.2613802 11.4187392,20 10,20 C8.87621182,20 7.86066366,19.5365694 7.13404083,18.7903935 C5.20715049,20.8298028 0.887574727,20.7790919 1.66666667,20 C2.22222222,19.4444444 2.77777778,18.6111111 3.33333333,17.5 C3.35873099,17.4927435 3.38402201,17.4855463 3.40920641,17.4784083 C3.24029724,17.3587236 3.0800718,17.2222074 2.92893219,17.0710678 C1.92575052,16.0678861 1.56681396,14.6644219 1.85212251,13.3747995 C0.738619778,12.6649645 0,11.4187392 0,10 C0,8.5812608 0.738619778,7.33503549 1.85229841,6.62488499 C1.56681396,5.33557811 1.92575052,3.93211386 2.92893219,2.92893219 C3.93211386,1.92575052 5.33557811,1.56681396 6.62520053,1.85212251 C7.33503549,0.738619778 8.5812608,-1.48029737e-14 10,-1.48029737e-14 Z M12.4959579,6.53548874 L8.98766667,10.345 L7.46443773,9.09392725 C7.14296014,8.7490775 6.54591893,8.7490775 6.18604157,9.12972915 L5.26050152,10.108697 C4.91316616,10.4760826 4.91316616,11.0661166 5.26050152,11.4335023 L8.498656,14.1787679 C8.87014146,14.4933241 9.42270418,14.4626702 9.75711653,14.1089535 L14.7392116,8.83926184 C15.0872976,8.47194493 15.0870491,7.88162084 14.7380825,7.51423463 L13.8127538,6.53548874 C13.4528765,6.15483709 12.8558353,6.15483709 12.4959579,6.53548874 Z" id="Combined-Shape"></path>
            </g>
        </g>
    </g>
</svg>