<?xml version="1.0" encoding="UTF-8"?>
<svg width="32px" height="32px" viewBox="0 0 32 32" version="1.1" xmlns="http://www.w3.org/2000/svg" xmlns:xlink="http://www.w3.org/1999/xlink">
    <!-- Generator: Sketch 63.1 (92452) - https://sketch.com -->
    <title>2 Trending How To Articles Copy 8</title>
    <desc>Created with Sketch.</desc>
    <g id="2-Trending-How-To-Articles-Copy-8" stroke="none" stroke-width="1" fill="none" fill-rule="evenodd">
        <g id="trending-how-to-articles-copy" fill-rule="nonzero">
            <path d="M5.1277704,0 L26.8722296,0 C28.6552671,0 29.3018396,0.185651222 29.9536914,0.534265408 C30.6055433,0.882879593 31.1171204,1.39445674 31.4657346,2.04630859 C31.8143488,2.69816044 32,3.34473292 32,5.1277704 L32,26.8722296 C32,28.6552671 31.8143488,29.3018396 31.4657346,29.9536914 C31.1171204,30.6055433 30.6055433,31.1171204 29.9536914,31.4657346 C29.3018396,31.8143488 28.6552671,32 26.8722296,32 L5.1277704,32 C3.34473292,32 2.69816044,31.8143488 2.04630859,31.4657346 C1.39445674,31.1171204 0.882879593,30.6055433 0.534265408,29.9536914 C0.185651222,29.3018396 0,28.6552671 0,26.8722296 L0,5.1277704 C0,3.34473292 0.185651222,2.69816044 0.534265408,2.04630859 C0.882879593,1.39445674 1.39445674,0.882879593 2.04630859,0.534265408 C2.69816044,0.185651222 3.34473292,0 5.1277704,0 Z" id="Rectangle-Copy-2" fill="#97BA78"></path>
            <path d="M16.7966824,5.77361584 L16.9414835,5.84944938 C17.2703729,6.04040377 17.534644,6.327664 17.697328,6.67426142 L19.629297,10.7903122 L23.9864175,11.4560209 C25.0100724,11.6124215 25.7131209,12.5690454 25.5567204,13.5927003 C25.4975787,13.9797875 25.3187304,14.3386452 25.0452708,14.6189201 L21.8352582,17.9089338 L22.5887938,22.5284801 C22.7555057,23.5505063 22.0621364,24.5141689 21.0401101,24.6808808 C20.6250228,24.7485894 20.1992246,24.674778 19.8311455,24.4713089 L16,22.3535037 L12.1688545,24.4713089 C11.2625716,24.9722897 10.1217589,24.6437275 9.62077809,23.7374447 C9.41730897,23.3693656 9.3434976,22.9435673 9.41120621,22.5284801 L10.1647418,17.9089338 L6.9547292,14.6189201 C6.23156311,13.877731 6.24617364,12.6906366 6.98736274,11.9674705 C7.26763763,11.6940109 7.62649538,11.5151626 8.01358253,11.4560209 L12.370703,10.7903122 L14.302672,6.67426142 C14.7206678,5.78372349 15.7493049,5.37527903 16.6548341,5.71390209 L16.7966824,5.77361584 Z" id="Star" fill="#FFFFFF"></path>
        </g>
    </g>
</svg>