<svg width="32" height="32" viewBox="0 0 32 32" xmlns="http://www.w3.org/2000/svg"><title>3 Featured How To Articles Copy 5</title><g fill-rule="nonzero" fill="none"><path d="M5.128 0h21.744c1.783 0 2.43.186 3.082.534.652.349 1.163.86 1.512 1.512.348.652.534 1.299.534 3.082v21.744c0 1.783-.186 2.43-.534 3.082a3.635 3.635 0 0 1-1.512 1.512c-.652.348-1.299.534-3.082.534H5.128c-1.783 0-2.43-.186-3.082-.534a3.635 3.635 0 0 1-1.512-1.512C.186 29.302 0 28.655 0 26.872V5.128c0-1.783.186-2.43.534-3.082A3.635 3.635 0 0 1 2.046.534C2.698.186 3.345 0 5.128 0z" fill="#5F8344"/><path d="M16.797 5.774l.144.075c.33.191.594.479.756.825l1.932 4.116 4.357.666a1.875 1.875 0 0 1 1.06 3.163l-3.21 3.29.753 4.62a1.875 1.875 0 0 1-2.758 1.942L16 22.354l-3.831 2.117a1.875 1.875 0 0 1-2.758-1.943l.754-4.62-3.21-3.29a1.875 1.875 0 0 1 1.059-3.162l4.357-.666 1.932-4.116a1.875 1.875 0 0 1 2.352-.96l.142.06z" fill="#FFF"/></g></svg>