<svg width="32" height="32" viewBox="0 0 32 32" xmlns="http://www.w3.org/2000/svg"><title>7 Browse Categories Copy 9</title><g fill-rule="nonzero" fill="none"><path d="M5.128 0h21.744c1.783 0 2.43.186 3.082.534.652.349 1.163.86 1.512 1.512.348.652.534 1.299.534 3.082v21.744c0 1.783-.186 2.43-.534 3.082a3.635 3.635 0 0 1-1.512 1.512c-.652.348-1.299.534-3.082.534H5.128c-1.783 0-2.43-.186-3.082-.534a3.635 3.635 0 0 1-1.512-1.512C.186 29.302 0 28.655 0 26.872V5.128c0-1.783.186-2.43.534-3.082A3.635 3.635 0 0 1 2.046.534C2.698.186 3.345 0 5.128 0z" fill="#5F8344"/><g fill="#FFF"><path d="M16 6c5.937 0 10.75 4.477 10.75 10S21.937 26 16 26 5.25 21.523 5.25 16 10.063 6 16 6zm0 2c-4.75 0-8.6 3.582-8.6 8s3.85 8 8.6 8 8.6-3.582 8.6-8-3.85-8-8.6-8z" stroke="#FFF" stroke-width=".5"/><path d="M7 15h18v2H7z"/><path d="M15.4 6.2C12.467 8.4 11 11.7 11 16c0 4.3 1.467 7.6 4.4 9.8a1 1 0 0 0 1.2-1.6C14.2 22.4 13 19.7 13 16c0-3.7 1.2-6.4 3.6-8.2a1 1 0 0 0-1.2-1.6z"/><path d="M16.6 6.2C19.533 8.4 21 11.7 21 16c0 4.3-1.467 7.6-4.4 9.8a1 1 0 0 1-1.2-1.6c2.4-1.8 3.6-4.5 3.6-8.2 0-3.7-1.2-6.4-3.6-8.2a1 1 0 0 1 1.2-1.6z"/></g></g></svg>