<?xml version="1.0" encoding="UTF-8"?>
<svg width="32px" height="32px" viewBox="0 0 32 32" version="1.1" xmlns="http://www.w3.org/2000/svg" xmlns:xlink="http://www.w3.org/1999/xlink">
    <!-- Generator: Sketch 63.1 (92452) - https://sketch.com -->
    <title>7 Browse Categories Copy 10</title>
    <desc>Created with Sketch.</desc>
    <g id="7-Browse-Categories-Copy-10" stroke="none" stroke-width="1" fill="none" fill-rule="evenodd">
        <g id="trending-how-to-articles-copy" fill="#97BA78" fill-rule="nonzero">
            <path d="M5.1277704,0 L26.8722296,0 C28.6552671,0 29.3018396,0.185651222 29.9536914,0.534265408 C30.6055433,0.882879593 31.1171204,1.39445674 31.4657346,2.04630859 C31.8143488,2.69816044 32,3.34473292 32,5.1277704 L32,26.8722296 C32,28.6552671 31.8143488,29.3018396 31.4657346,29.9536914 C31.1171204,30.6055433 30.6055433,31.1171204 29.9536914,31.4657346 C29.3018396,31.8143488 28.6552671,32 26.8722296,32 L5.1277704,32 C3.34473292,32 2.69816044,31.8143488 2.04630859,31.4657346 C1.39445674,31.1171204 0.882879593,30.6055433 0.534265408,29.9536914 C0.185651222,29.3018396 0,28.6552671 0,26.8722296 L0,5.1277704 C0,3.34473292 0.185651222,2.69816044 0.534265408,2.04630859 C0.882879593,1.39445674 1.39445674,0.882879593 2.04630859,0.534265408 C2.69816044,0.185651222 3.34473292,0 5.1277704,0 Z" id="Rectangle-Copy-2"></path>
        </g>
        <g id="globe-icon-with-depth" transform="translate(6.000000, 6.000000)" fill="#FFFFFF" fill-rule="nonzero">
            <path d="M10,0 C15.5228475,0 20,4.4771525 20,10 C20,15.5228475 15.5228475,20 10,20 C4.4771525,20 0,15.5228475 0,10 C0,4.4771525 4.4771525,0 10,0 Z M10,2 C5.581722,2 2,5.581722 2,10 C2,14.418278 5.581722,18 10,18 C14.418278,18 18,14.418278 18,10 C18,5.581722 14.418278,2 10,2 Z" id="Oval-Copy"></path>
            <rect id="Rectangle" x="1" y="9" width="18" height="2"></rect>
            <path d="M9.4,0.2 C6.46692049,2.39980963 5,5.70038073 5,10 C5,14.2996193 6.46692049,17.6001904 9.4,19.8 C9.8418278,20.1313708 10.4686292,20.0418278 10.8,19.6 C11.1313708,19.1581722 11.0418278,18.5313708 10.6,18.2 C8.19974618,16.3998096 7,13.7003807 7,10 C7,6.29961927 8.19974618,3.60019037 10.6,1.8 C11.0418278,1.46862915 11.1313708,0.8418278 10.8,0.4 C10.4686292,-0.0418277999 9.8418278,-0.13137085 9.4,0.2 Z" id="Path-2"></path>
            <path d="M13.4,0.2 C10.4669205,2.39980963 9,5.70038073 9,10 C9,14.2996193 10.4669205,17.6001904 13.4,19.8 C13.8418278,20.1313708 14.4686292,20.0418278 14.8,19.6 C15.1313708,19.1581722 15.0418278,18.5313708 14.6,18.2 C12.1997462,16.3998096 11,13.7003807 11,10 C11,6.29961927 12.1997462,3.60019037 14.6,1.8 C15.0418278,1.46862915 15.1313708,0.8418278 14.8,0.4 C14.4686292,-0.0418277999 13.8418278,-0.13137085 13.4,0.2 Z" id="Path-2-Copy" transform="translate(12.000029, 10.000000) scale(-1, 1) translate(-12.000029, -10.000000) "></path>
        </g>
    </g>
</svg>