<?xml version="1.0" encoding="UTF-8"?>
<svg width="32px" height="32px" viewBox="0 0 32 32" version="1.1" xmlns="http://www.w3.org/2000/svg" xmlns:xlink="http://www.w3.org/1999/xlink">
    <!-- Generator: Sketch 63.1 (92452) - https://sketch.com -->
    <title>8 wikiHow Newsletter Copy 2</title>
    <desc>Created with Sketch.</desc>
    <g id="8-wikiHow-Newsletter-Copy-2" stroke="none" stroke-width="1" fill="none" fill-rule="evenodd">
        <g id="trending-how-to-articles-copy" fill="#97BA78" fill-rule="nonzero">
            <path d="M5.1277704,0 L26.8722296,0 C28.6552671,0 29.3018396,0.185651222 29.9536914,0.534265408 C30.6055433,0.882879593 31.1171204,1.39445674 31.4657346,2.04630859 C31.8143488,2.69816044 32,3.34473292 32,5.1277704 L32,26.8722296 C32,28.6552671 31.8143488,29.3018396 31.4657346,29.9536914 C31.1171204,30.6055433 30.6055433,31.1171204 29.9536914,31.4657346 C29.3018396,31.8143488 28.6552671,32 26.8722296,32 L5.1277704,32 C3.34473292,32 2.69816044,31.8143488 2.04630859,31.4657346 C1.39445674,31.1171204 0.882879593,30.6055433 0.534265408,29.9536914 C0.185651222,29.3018396 0,28.6552671 0,26.8722296 L0,5.1277704 C0,3.34473292 0.185651222,2.69816044 0.534265408,2.04630859 C0.882879593,1.39445674 1.39445674,0.882879593 2.04630859,0.534265408 C2.69816044,0.185651222 3.34473292,0 5.1277704,0 Z" id="Rectangle-Copy-2"></path>
        </g>
        <g id="envelope" transform="translate(6.000000, 9.000000)" fill-rule="nonzero" stroke="#FFFFFF" stroke-linecap="round" stroke-linejoin="round" stroke-width="2">
            <rect id="Rectangle" x="0" y="0" width="20" height="14" rx="2"></rect>
            <path d="M19,1 L12.0068942,8.19379522 C10.8659793,9.22061864 9.13402071,9.22061864 7.99310581,8.19379522 L1,1" id="Path"></path>
            <line x1="1" y1="12" x2="6" y2="7" id="Path"></line>
            <line x1="19" y1="12" x2="14" y2="7" id="Path-2"></line>
        </g>
    </g>
</svg>