<svg width="32" height="32" viewBox="0 0 32 32" xmlns="http://www.w3.org/2000/svg"><title>8 wikiHow Newsletter Copy</title><g fill="none" fill-rule="nonzero"><path d="M5.128 0h21.744c1.783 0 2.43.186 3.082.534.652.349 1.163.86 1.512 1.512.348.652.534 1.299.534 3.082v21.744c0 1.783-.186 2.43-.534 3.082a3.635 3.635 0 0 1-1.512 1.512c-.652.348-1.299.534-3.082.534H5.128c-1.783 0-2.43-.186-3.082-.534a3.635 3.635 0 0 1-1.512-1.512C.186 29.302 0 28.655 0 26.872V5.128c0-1.783.186-2.43.534-3.082A3.635 3.635 0 0 1 2.046.534C2.698.186 3.345 0 5.128 0z" fill="#5F8344"/><g transform="translate(6 9)" stroke="#FFF" stroke-linecap="round" stroke-linejoin="round" stroke-width="2"><rect width="20" height="14" rx="2"/><path d="M19 1l-6.993 7.194a3 3 0 0 1-4.014 0L1 1M1 12l5-5M19 12l-5-5"/></g></g></svg>