<svg width="32" height="32" viewBox="0 0 32 32" xmlns="http://www.w3.org/2000/svg"><title>2 Trending How To Articles Copy 5</title><g fill-rule="nonzero" fill="none"><path d="M5.128 0h21.744c1.783 0 2.43.186 3.082.534.652.349 1.163.86 1.512 1.512.348.652.534 1.299.534 3.082v21.744c0 1.783-.186 2.43-.534 3.082a3.635 3.635 0 0 1-1.512 1.512c-.652.348-1.299.534-3.082.534H5.128c-1.783 0-2.43-.186-3.082-.534a3.635 3.635 0 0 1-1.512-1.512C.186 29.302 0 28.655 0 26.872V5.128c0-1.783.186-2.43.534-3.082A3.635 3.635 0 0 1 2.046.534C2.698.186 3.345 0 5.128 0z" fill="#5F8344"/><g fill="#FFF"><path d="M11.5 18.886l2.182 2.182a1.688 1.688 0 0 0 2.386 0l7.875-7.875a1.688 1.688 0 0 0-2.386-2.386l-6.682 6.682-2.182-2.182a1.687 1.687 0 0 0-2.386 0l-4.5 4.5a1.688 1.688 0 0 0 2.386 2.386l3.307-3.307z"/><path d="M23.875 9.75h-7.409a1.125 1.125 0 0 0-.796 1.92l7.41 7.41a1.125 1.125 0 0 0 1.92-.796v-7.409c0-.621-.504-1.125-1.125-1.125z"/></g></g></svg>