<?xml version="1.0" encoding="UTF-8"?>
<svg width="32px" height="32px" viewBox="0 0 32 32" version="1.1" xmlns="http://www.w3.org/2000/svg" xmlns:xlink="http://www.w3.org/1999/xlink">
    <!-- Generator: Sketch 63.1 (92452) - https://sketch.com -->
    <title>2 Trending How To Articles Copy 6</title>
    <desc>Created with Sketch.</desc>
    <g id="2-Trending-How-To-Articles-Copy-6" stroke="none" stroke-width="1" fill="none" fill-rule="evenodd">
        <g id="trending-how-to-articles-copy" fill-rule="nonzero">
            <path d="M5.1277704,0 L26.8722296,0 C28.6552671,0 29.3018396,0.185651222 29.9536914,0.534265408 C30.6055433,0.882879593 31.1171204,1.39445674 31.4657346,2.04630859 C31.8143488,2.69816044 32,3.34473292 32,5.1277704 L32,26.8722296 C32,28.6552671 31.8143488,29.3018396 31.4657346,29.9536914 C31.1171204,30.6055433 30.6055433,31.1171204 29.9536914,31.4657346 C29.3018396,31.8143488 28.6552671,32 26.8722296,32 L5.1277704,32 C3.34473292,32 2.69816044,31.8143488 2.04630859,31.4657346 C1.39445674,31.1171204 0.882879593,30.6055433 0.534265408,29.9536914 C0.185651222,29.3018396 0,28.6552671 0,26.8722296 L0,5.1277704 C0,3.34473292 0.185651222,2.69816044 0.534265408,2.04630859 C0.882879593,1.39445674 1.39445674,0.882879593 2.04630859,0.534265408 C2.69816044,0.185651222 3.34473292,0 5.1277704,0 Z" id="Rectangle-Copy-2" fill="#97BA78"></path>
            <g id="Group" transform="translate(5.000000, 9.000000)" fill="#FFFFFF">
                <path d="M6.5,9.88648539 L8.68175731,12.0682427 C9.34076705,12.7272524 10.409233,12.7272524 11.0682427,12.0682427 L18.9432427,4.19324269 C19.6022524,3.53423295 19.6022524,2.46576705 18.9432427,1.80675731 C18.284233,1.14774756 17.215767,1.14774756 16.5567573,1.80675731 L9.875,8.48851461 L7.69324269,6.30675731 C7.03423295,5.64774756 5.96576705,5.64774756 5.30675731,6.30675731 L0.806757307,10.8067573 C0.147747564,11.465767 0.147747564,12.534233 0.806757307,13.1932427 C1.46576705,13.8522524 2.53423295,13.8522524 3.19324269,13.1932427 L6.5,9.88648539 Z" id="Path"></path>
                <path d="M18.875,0.75 L11.4659903,0.75 C10.8446699,0.75 10.3409903,1.25367966 10.3409903,1.875 C10.3409903,2.17336855 10.4595167,2.4595167 10.6704951,2.67049513 L18.0795049,10.0795049 C18.5188447,10.5188447 19.2311553,10.5188447 19.6704951,10.0795049 C19.8814736,9.86852645 20,9.58237829 20,9.28400974 L20,1.875 C20,1.25367966 19.4963203,0.75 18.875,0.75 Z" id="Path-2"></path>
            </g>
        </g>
    </g>
</svg>