<?xml version="1.0" encoding="UTF-8"?>
<svg width="32px" height="32px" viewBox="0 0 32 32" version="1.1" xmlns="http://www.w3.org/2000/svg" xmlns:xlink="http://www.w3.org/1999/xlink">
    <!-- Generator: Sketch 63.1 (92452) - https://sketch.com -->
    <title>2 Trending How To Articles Copy 9</title>
    <desc>Created with Sketch.</desc>
    <defs>
        <path d="M20.8722296,8 C22.6552671,8 23.3018396,8.18565122 23.9536914,8.53426541 C24.6055433,8.88287959 25.1171204,9.39445674 25.4657346,10.0463086 C25.8143488,10.6981604 26,11.3447329 26,13.1277704 L26,18.8722296 C26,20.6552671 25.8143488,21.3018396 25.4657346,21.9536914 C25.1171204,22.6055433 24.6055433,23.1171204 23.9536914,23.4657346 C23.3018396,23.8143488 22.6552671,24 20.8722296,24 L11.1277704,24 C9.34473292,24 8.69816044,23.8143488 8.04630859,23.4657346 C7.39445674,23.1171204 6.88287959,22.6055433 6.53426541,21.9536914 C6.18565122,21.3018396 6,20.6552671 6,18.8722296 L6,13.1277704 C6,11.3447329 6.18565122,10.6981604 6.53426541,10.0463086 C6.88287959,9.39445674 7.39445674,8.88287959 8.04630859,8.53426541 C8.69816044,8.18565122 9.34473292,8 11.1277704,8 L20.8722296,8 Z M13,11.618034 C12.4477153,11.618034 12,12.0657492 12,12.618034 L12,12.618034 L12,19.381966 C12,19.5372111 12.0361451,19.6903242 12.1055728,19.8291796 C12.3525621,20.3231581 12.9532351,20.5233825 13.4472136,20.2763932 L13.4472136,20.2763932 L20.2111456,16.8944272 C20.404673,16.7976635 20.5615955,16.640741 20.6583592,16.4472136 C20.9053485,15.9532351 20.7051241,15.3525621 20.2111456,15.1055728 L20.2111456,15.1055728 L13.4472136,11.7236068 C13.3083582,11.6541791 13.1552451,11.618034 13,11.618034 Z" id="path-1"></path>
    </defs>
    <g id="2-Trending-How-To-Articles-Copy-9" stroke="none" stroke-width="1" fill="none" fill-rule="evenodd">
        <g id="trending-how-to-articles-copy">
            <path d="M5.1277704,0 L26.8722296,0 C28.6552671,0 29.3018396,0.185651222 29.9536914,0.534265408 C30.6055433,0.882879593 31.1171204,1.39445674 31.4657346,2.04630859 C31.8143488,2.69816044 32,3.34473292 32,5.1277704 L32,26.8722296 C32,28.6552671 31.8143488,29.3018396 31.4657346,29.9536914 C31.1171204,30.6055433 30.6055433,31.1171204 29.9536914,31.4657346 C29.3018396,31.8143488 28.6552671,32 26.8722296,32 L5.1277704,32 C3.34473292,32 2.69816044,31.8143488 2.04630859,31.4657346 C1.39445674,31.1171204 0.882879593,30.6055433 0.534265408,29.9536914 C0.185651222,29.3018396 0,28.6552671 0,26.8722296 L0,5.1277704 C0,3.34473292 0.185651222,2.69816044 0.534265408,2.04630859 C0.882879593,1.39445674 1.39445674,0.882879593 2.04630859,0.534265408 C2.69816044,0.185651222 3.34473292,0 5.1277704,0 Z" id="Rectangle-Copy-2" fill="#97BA78" fill-rule="nonzero"></path>
            <mask id="mask-2" fill="white">
                <use xlink:href="#path-1"></use>
            </mask>
            <use id="Combined-Shape" fill="#FFFFFF" fill-rule="nonzero" xlink:href="#path-1"></use>
        </g>
    </g>
</svg>