<svg width="32" height="32" viewBox="0 0 32 32" xmlns="http://www.w3.org/2000/svg" xmlns:xlink="http://www.w3.org/1999/xlink"><title>4 Featured Videos Copy 5</title><defs><path d="M20.872 8c1.783 0 2.43.186 3.082.534.652.349 1.163.86 1.512 1.512.348.652.534 1.299.534 3.082v5.744c0 1.783-.186 2.43-.534 3.082a3.635 3.635 0 0 1-1.512 1.512c-.652.348-1.299.534-3.082.534h-9.744c-1.783 0-2.43-.186-3.082-.534a3.635 3.635 0 0 1-1.512-1.512C6.186 21.302 6 20.655 6 18.872v-5.744c0-1.783.186-2.43.534-3.082a3.635 3.635 0 0 1 1.512-1.512C8.698 8.186 9.345 8 11.128 8h9.744zM13 11.618a1 1 0 0 0-1 1v6.764a1 1 0 0 0 1.447.894l6.764-3.382a1 1 0 0 0 0-1.788l-6.764-3.382a1 1 0 0 0-.447-.106z" id="a"/></defs><g fill-rule="nonzero" fill="none"><path d="M5.128 0h21.744c1.783 0 2.43.186 3.082.534.652.349 1.163.86 1.512 1.512.348.652.534 1.299.534 3.082v21.744c0 1.783-.186 2.43-.534 3.082a3.635 3.635 0 0 1-1.512 1.512c-.652.348-1.299.534-3.082.534H5.128c-1.783 0-2.43-.186-3.082-.534a3.635 3.635 0 0 1-1.512-1.512C.186 29.302 0 28.655 0 26.872V5.128c0-1.783.186-2.43.534-3.082A3.635 3.635 0 0 1 2.046.534C2.698.186 3.345 0 5.128 0z" fill="#5F8344"/><use fill="#FFF" xlink:href="#a"/></g></svg>