<?xml version="1.0" encoding="utf-8"?><svg xmlns="http://www.w3.org/2000/svg" width="34.762" height="28.243" viewBox="0 0 34.762 28.243"><g fill="#93b874"><path d="M14.636 16.221l.017-10.951-.691-.693a2.464 2.464 0 0 0-1.752-.724c-.633 0-1.265.24-1.746.719l-9.74 9.71a2.48 2.48 0 0 0-.005 3.498l9.71 9.74a2.464 2.464 0 0 0 1.752.724c.633 0 1.265-.24 1.746-.719l7.438-7.415-2.856-.004a3.885 3.885 0 0 1-3.873-3.885zm-6.725.933a1.565 1.565 0 1 1-2.213-2.214 1.565 1.565 0 0 1 2.213 2.214zm5.391 5.39a1.565 1.565 0 1 1-2.213-2.214 1.565 1.565 0 0 1 2.213 2.214zm0-10.781a1.565 1.565 0 1 1-2.213-2.214 1.565 1.565 0 0 1 2.213 2.214z"/><path d="M32.293.021L18.54 0h-.004a2.48 2.48 0 0 0-2.473 2.469l-.003 2.22-.002.993-.002.993-.013 8.505-.001.656-.001.385c0 .048.011.092.014.139.04.724.393 1.362.928 1.789.422.337.949.548 1.528.549l4.261.007.994.002.974.002 7.525.012h.004a2.48 2.48 0 0 0 2.473-2.469l.021-13.753a2.482 2.482 0 0 0-2.47-2.478zM21.784 2.674a1.565 1.565 0 1 1 0 3.13 1.565 1.565 0 0 1 0-3.13zm-1.565 6.687c0-.15.028-.293.068-.431a1.56 1.56 0 0 1 3.062.431 1.56 1.56 0 0 1-1.139 1.499 1.536 1.536 0 0 1-.426.066 1.572 1.572 0 0 1-1.565-1.565zm1.565 6.686a1.565 1.565 0 0 1 0-3.13 1.572 1.572 0 0 1 1.565 1.565 1.565 1.565 0 0 1-1.565 1.565zm7.236 0a1.565 1.565 0 1 1 0-3.13 1.565 1.565 0 0 1 0 3.13zm0-5.121a1.565 1.565 0 1 1 0-3.13 1.565 1.565 0 0 1 0 3.13zm0-5.122a1.565 1.565 0 1 1 0-3.13 1.565 1.565 0 0 1 0 3.13z"/></g></svg>
