<?xml version="1.0" encoding="utf-8"?><svg xmlns="http://www.w3.org/2000/svg" width="8.946" height="18.219" viewBox="0 0 8.946 18.219"><circle fill="none" cx="4.473" cy="3.652" r="1.008"/><path fill="#93B874" d="M8.252 3.811l-3.177-2.78a.963.963 0 0 0-1.233.002L.692 3.808c-.338.299-.615.911-.615 1.362v12.229c0 .451.369.82.82.82h7.152c.451 0 .82-.369.82-.82V5.17c0-.451-.278-1.063-.617-1.359zM4.473 2.644a1.008 1.008 0 1 1 0 2.015 1.008 1.008 0 0 1 0-2.015zm-.184 11.395a.806.806 0 0 1-1.144 0L1.105 12l1.144-1.144 1.468 1.467 3.071-3.071 1.144 1.144-3.643 3.643z"/></svg>
