<?xml version="1.0" encoding="utf-8"?><svg xmlns="http://www.w3.org/2000/svg" width="12.554" height="12.218" viewBox="0 0 12.554 12.218"><g fill="#93B874"><path d="M4.455 5.296H.998A1 1 0 0 1 0 4.298v-3.3A1 1 0 0 1 .998 0h3.457a1 1 0 0 1 .998.998v3.3c-.001.549-.45.998-.998.998zM4.455 12.218H.998A1 1 0 0 1 0 11.22v-3.3a1 1 0 0 1 .998-.998h3.457a1 1 0 0 1 .998.998v3.3c-.001.549-.45.998-.998.998zM11.556 5.296H8.099a1 1 0 0 1-.998-.998v-3.3A1 1 0 0 1 8.099 0h3.457a1 1 0 0 1 .998.998v3.3a1 1 0 0 1-.998.998zM11.556 12.218H8.099a1 1 0 0 1-.998-.998v-3.3a1 1 0 0 1 .998-.998h3.457a1 1 0 0 1 .998.998v3.3a1 1 0 0 1-.998.998z"/></g></svg>
