<?xml version="1.0" encoding="utf-8"?><svg xmlns="http://www.w3.org/2000/svg" width="15.431" height="14.117" viewBox="0 0 15.431 14.117"><path fill="none" d="M9.431 4.569c0-.393-.158-.686-.482-.89.191-.196.287-.445.287-.747 0-.29-.101-.537-.299-.736-.246-.245-.617-.374-1.071-.374H6.078v3.937h1.839c.933 0 1.514-.452 1.514-1.19zM7.126 2.81h.661c.179 0 .391.038.391.232 0 .167-.147.252-.436.252h-.616V2.81zm0 1.447h.751c.496 0 .496.186.496.257 0 .17-.152.257-.451.257h-.796v-.514zM5.433 5.759l-1.73-3.962h-.86l-1.73 3.961h1.114l.36-.843h1.357l.354.843h1.135zM3.001 3.928l.263-.613.265.613h-.528zM12.772 4.416c-.269.249-.494.394-.852.394-.531 0-.931-.438-.931-1.03 0-.576.4-1.01.931-1.01.297 0 .544.112.827.375l.168.156.683-.787-.153-.147c-.295-.282-.734-.606-1.52-.606-1.153 0-2.024.872-2.024 2.038 0 1.132.878 2.018 1.999 2.018.643 0 1.114-.206 1.578-.687l.149-.155-.697-.706-.158.147z"/><path fill="#93B874" d="M8.179 3.042c0-.193-.213-.232-.391-.232h-.662v.483h.616c.29 0 .437-.085.437-.251z"/><path fill="#93B874" d="M14.678 0H.753A.755.755 0 0 0 0 .753v12.61c0 .414.339.753.753.753h13.925a.755.755 0 0 0 .753-.753V.753A.755.755 0 0 0 14.678 0zm-8.6 1.822h1.788c.454 0 .824.129 1.071.375.199.199.299.446.299.736 0 .302-.096.551-.287.746.324.204.482.497.482.89 0 .738-.58 1.19-1.514 1.19H6.078V1.822zM2.587 4.915l-.36.843H1.112l1.73-3.961h.861l1.729 3.961H4.298l-.354-.843H2.587zm4.759 7.212a.806.806 0 0 1-1.144 0l-2.04-2.039 1.144-1.144 1.468 1.467L9.845 7.34l1.144 1.144-3.643 3.643zm6.131-6.996c-.463.482-.935.687-1.578.687-1.12 0-1.999-.887-1.999-2.018 0-1.166.87-2.038 2.024-2.038.786 0 1.225.324 1.52.606l.153.147-.683.787-.168-.156c-.283-.263-.53-.375-.827-.375-.531 0-.931.434-.931 1.01 0 .592.4 1.03.931 1.03.358 0 .583-.145.852-.394l.158-.148.697.707-.149.155z"/><path fill="#93B874" d="M3.001 3.928h.527l-.264-.613zM8.373 4.514c0-.071 0-.257-.496-.257h-.751v.514h.796c.299 0 .451-.087.451-.257z"/></svg>
