<?xml version="1.0" encoding="utf-8"?><svg xmlns="http://www.w3.org/2000/svg" width="32.009" height="32.009" viewBox="0 0 32.009 32.009"><path fill="#93B874" d="M16.004 32.009C7.18 32.009 0 24.829 0 16.004S7.18 0 16.004 0s16.004 7.18 16.004 16.004-7.179 16.005-16.004 16.005zm0-28.009C9.385 4 4 9.385 4 16.004s5.385 12.004 12.004 12.004 12.004-5.385 12.004-12.004S22.624 4 16.004 4z"/><path fill="#93B874" d="M18.737 8.894l-.732 8.456a2.008 2.008 0 0 1-4 0l-.732-8.456a2.743 2.743 0 1 1 5.464 0z"/><circle fill="#93B874" cx="16.005" cy="23.803" r="2.213"/></svg>
