<?xml version="1.0" encoding="utf-8"?>
<!-- Generator: Adobe Illustrator 21.1.0, SVG Export Plug-In . SVG Version: 6.00 Build 0)  -->
<svg version="1.1" id="Layer_1" xmlns="http://www.w3.org/2000/svg" xmlns:xlink="http://www.w3.org/1999/xlink" x="0px" y="0px"
	 viewBox="0 0 49.9 46.9" style="enable-background:new 0 0 49.9 46.9;" xml:space="preserve">
<style type="text/css">
	.st0{fill:#93B874;}
</style>
<title>Asset5</title>
<g id="Layer_2">
	<g id="Layer_5">
		<path class="st0" d="M45.7,0.2H4.2c-2.2,0-4,1.8-4,4v29.8c0,2.2,1.8,4,4,4h2.5c0.2,0,0.3,0.1,0.3,0.3c0,0,0,0.1,0,0.1l-1.7,5.5
			c-0.4,1.2,0.3,2.4,1.5,2.8c0.6,0.2,1.3,0.1,1.8-0.2l15-8.3c0.2-0.1,0.3-0.1,0.5-0.1h21.6c2.2,0,4-1.8,4-4V4.1
			C49.7,2,47.9,0.2,45.7,0.2z M26.2,32.2c-5.3,0.6-10.4-2-13.2-6.5l-0.1,1.5c0,0.2-0.2,0.3-0.3,0.3l-1.6-0.1c-0.2,0-0.3-0.2-0.3-0.3
			l0.5-6.6c0-0.2,0.2-0.3,0.3-0.3c0,0,0,0,0,0l6.2,1.5c0.2,0,0.3,0.2,0.2,0.4l-0.4,1.5c0,0.2-0.2,0.3-0.4,0.2c0,0,0,0,0,0l-1.5-0.4
			c2.7,5,8.9,6.8,13.9,4.1c3-1.6,5-4.6,5.3-8c0-0.2,0.2-0.4,0.4-0.4c0,0,0,0,0,0l2.7,0.2c0.2,0,0.4,0.2,0.4,0.4c0,0,0,0,0,0
			C37.8,26.4,32.7,31.5,26.2,32.2z M38.1,16.4c0,0.2-0.2,0.3-0.4,0.3c0,0,0,0-0.1,0l-6.4-1.8c-0.2,0-0.3-0.2-0.2-0.4c0,0,0,0,0,0
			l0.4-1.6c0-0.2,0.2-0.3,0.4-0.2l1.7,0.5c-3-4.8-9.3-6.3-14.1-3.3c-2.6,1.6-4.3,4.3-4.7,7.3c0,0.2-0.2,0.4-0.4,0.3c0,0,0,0,0,0
			l-2.7-0.3c-0.2,0-0.4-0.2-0.4-0.5c1-7.5,7.9-12.8,15.5-11.8c3.9,0.5,7.4,2.7,9.6,6l0.2-1.6c0-0.2,0.2-0.3,0.4-0.3c0,0,0,0,0,0
			l1.6,0.2c0.2,0,0.3,0.2,0.3,0.4c0,0,0,0,0,0L38.1,16.4z"/>
	</g>
</g>
</svg>
