<?xml version="1.0" encoding="UTF-8"?><svg width="20px" height="20px" viewBox="0 0 20 20" version="1.1" xmlns="http://www.w3.org/2000/svg"><g id="Page-1" stroke="none" stroke-width="1" fill="none" fill-rule="evenodd"><g id="puzzle-piece-icon" fill="#93B874" fill-rule="nonzero"><path d="M1.7079131,10.0448891 L0.997595264,8.81458256 C0.445310514,7.85799732 0.773060825,6.6348165 1.72964607,6.08253175 L4.06895216,4.73193275 L2.99122731,3.48017708 C2.27053768,2.64311062 2.36487975,1.38029982 3.2019462,0.659610193 C3.29660657,0.578110393 3.39869394,0.505657866 3.5068702,0.443202274 L4.2469066,0.0159420574 C5.20349185,-0.536342692 6.42667266,-0.208592382 6.97895741,0.747992865 C7.041413,0.856169123 7.09359699,0.969958533 7.13482537,1.08786962 L7.68001516,2.64708456 L10.3899001,1.08253175 C11.3464854,0.530247005 12.5696662,0.857997315 13.1219509,1.81458256 L14.5288769,4.2514499 L16.2381665,2.76005541 C17.0704606,2.03385965 18.3338663,2.11986936 19.0600621,2.95216347 C19.1450824,3.04960543 19.2204516,3.15506371 19.2851111,3.26705721 L19.798727,4.15666609 C20.3510117,5.11325134 20.0232614,6.33643215 19.0666762,6.8887169 C18.9546827,6.95337638 18.8366819,7.00702134 18.7143312,7.04889838 L16.5681009,7.78348934 L19.1219509,12.2068874 C19.6742357,13.1634727 19.3464854,14.3866535 18.3899001,14.9389382 L16.9746632,15.7560256 C16.4963706,16.032168 15.8847802,15.8682928 15.6086378,15.3900002 C15.57741,15.3359121 15.551318,15.2790174 15.5307038,15.2200618 L15.1348254,14.0878696 C15.093597,13.9699585 15.041413,13.8561691 14.9789574,13.7479929 C14.4266727,12.7914076 13.2034918,12.4636573 12.2469066,13.0159421 L11.5068702,13.4432023 C11.3986939,13.5056579 11.2966066,13.5781104 11.2019462,13.6596102 C10.3648797,14.3802998 10.2705377,15.6431106 10.9912273,16.4801771 L11.7737953,17.389114 C12.1341401,17.8076472 12.0869691,18.4390526 11.6684358,18.7993974 C11.6211057,18.8401473 11.570062,18.8763736 11.5159738,18.9076014 L9.72964607,19.9389382 C8.77306082,20.491223 7.54988001,20.1634727 6.99759526,19.2068874 L4.90345064,15.5797225 C4.62730827,15.1014299 4.79118342,14.4898395 5.26947605,14.2136971 C5.32356418,14.1824693 5.38045888,14.1563773 5.43941442,14.1357631 L6.34866386,13.8178381 C6.46657495,13.7766097 6.58036436,13.7244257 6.68854061,13.6619701 C7.64512586,13.1096854 7.97287617,11.8865045 7.42059142,10.9299193 L6.99333121,10.1898829 C6.93087561,10.0817066 6.85842309,9.97961928 6.77692329,9.8849589 C6.05623366,9.04789245 4.79342286,8.95355039 3.9563564,9.67424001 L3.2264005,10.3027106 C2.80786728,10.6630554 2.17646187,10.6158844 1.81611706,10.1973511 C1.77536716,10.150021 1.7391409,10.0989773 1.7079131,10.0448891 Z" id="Path"/></g></g></svg>