<?xml version="1.0" encoding="utf-8"?>
<!DOCTYPE svg PUBLIC "-//W3C//DTD SVG 1.1//EN" "http://www.w3.org/Graphics/SVG/1.1/DTD/svg11.dtd">
<svg version="1.1" xmlns="http://www.w3.org/2000/svg" xmlns:xlink="http://www.w3.org/1999/xlink" x="0px" y="0px"
	 width="22.733px" height="28.243px" viewBox="0 0 22.733 28.243" enable-background="new 0 0 22.733 28.243" xml:space="preserve">
<g id="Layer_1">
</g>
<g id="Layer_2">
	<g>
		<path fill="#93B874" d="M11.202,13.713c3.452,0,6.261-3.075,6.261-6.856S14.654,0,11.202,0C7.749,0,4.94,3.075,4.94,6.856
			S7.749,13.713,11.202,13.713z"/>
		<path fill="#93B874" d="M18.899,12.955c-0.196-0.231-0.487-0.356-0.789-0.358c-0.304,0.005-0.59,0.145-0.778,0.382
			c-1.548,1.941-3.751,3.053-6.046,3.053c-2.296,0-4.501-1.113-6.048-3.055c-0.189-0.238-0.475-0.378-0.779-0.383
			c-0.291,0.029-0.594,0.128-0.789,0.359C1.863,15.088,0.867,23.942,0.867,26.83c0,0.099,0.005,0.196,0.011,0.294l0.007,0.134
			c0.017,0.548,0.466,0.984,1.015,0.984h18.773c0.546,0,0.994-0.432,1.014-0.977l0.007-0.128c0.006-0.102,0.012-0.204,0.012-0.307
			C21.705,23.942,20.709,15.088,18.899,12.955z M17.723,19.755c-0.259,0-0.428,0.016-0.509,0.048
			c-0.081,0.032-0.151,0.083-0.21,0.152c-0.075,0.101-0.159,0.278-0.25,0.529l-2.155,5.72h-2.123l-1.192-3.21l-1.211,3.21H7.934
			l-2.107-5.72c-0.075-0.203-0.166-0.371-0.272-0.505c-0.064-0.091-0.132-0.149-0.204-0.176c-0.072-0.027-0.239-0.043-0.501-0.048
			v-1.546h4.238v1.546H8.911c-0.203,0-0.334,0.021-0.392,0.064c-0.075,0.054-0.112,0.126-0.112,0.216
			c0,0.08,0.024,0.195,0.072,0.344l1.119,3.454l0.969-2.704l-0.253-0.75c-0.075-0.224-0.167-0.382-0.276-0.473
			c-0.11-0.091-0.271-0.142-0.485-0.152v-1.546h4.029v1.546h-0.329c-0.182,0-0.308,0.027-0.377,0.08
			c-0.07,0.054-0.104,0.131-0.104,0.232c0,0.096,0.032,0.235,0.096,0.417l0.964,2.871l0.976-2.872
			c0.064-0.187,0.096-0.328,0.096-0.425c0-0.101-0.039-0.177-0.115-0.228c-0.077-0.051-0.237-0.076-0.48-0.076h-0.182v-1.546h3.597
			V19.755z"/>
	</g>
</g>
</svg>
