<svg xmlns="http://www.w3.org/2000/svg" width="32" height="32" viewBox="0 0 32 32"><g data-name="Group 2164"><path data-name="Path 2183" d="M24.676 12.55L14.618 22.608a.572.572 0 0 1-.816 0l-6.615-5.346c-.544-.544-.544-.816 0-1.359l1.812-1.812c.725-.725.906-.544 1.45 0l3.262 2.537a.479.479 0 0 0 .725-.091l7.158-7.34c.544-.544.816-.634 1.359 0l1.812 1.812c.544.725.634.816-.091 1.54z" fill="#fff"/><g data-name="Ellipse 443" fill="none" stroke="#fff" stroke-width="2"><circle cx="16" cy="16" r="16" stroke="none"/><circle cx="16" cy="16" r="15"/></g></g></svg>