<?xml version="1.0" encoding="UTF-8"?><svg width="30px" height="31px" viewBox="0 0 30 31" version="1.1" xmlns="http://www.w3.org/2000/svg"><g id="Page-1" stroke="none" stroke-width="1" fill="none" fill-rule="evenodd"><g id="book-icon" transform="translate(-1.000000, -1.000000)" fill="#FFFFFF" fill-rule="nonzero"><path d="M15,1.57332099 L15,30.9073754 C10.9033568,30.5654097 6.80671438,30.6840872 2.71007285,31.2634078 L2.71007724,31.2634388 C1.88979415,31.379438 1.13078743,30.808503 1.01478828,29.98822 C1.00494885,29.9186408 1.0000109,29.8484563 1.0000109,29.7781849 L0.999978022,3.00912281 C0.999978022,2.27749122 1.52779513,1.6525905 2.24912052,1.5302203 C6.49941368,0.809173674 10.7497068,0.823540571 15,1.57332099 Z M17,1.5554529 C20.8843725,0.818084338 25.1294228,0.814863167 29.7351509,1.54578939 L29.7351457,1.54582212 C30.4636767,1.66143954 31.0000109,2.28960159 31.0000109,3.02724974 L31.0000045,29.778196 C31.0000045,30.6066196 30.3284345,31.2781896 29.5000109,31.2781896 C29.429741,31.2781896 29.359558,31.2732518 29.2899804,31.2634125 C25.1933194,30.6840872 21.0966592,30.5654085 16.9999998,30.9073766 L17,1.5554529 Z" id="Combined-Shape"/></g></g></svg>