<svg xmlns="http://www.w3.org/2000/svg" viewBox="0 0 88.07 71.73"><defs><style>.cls-1{fill:none;stroke:#94b777;stroke-miterlimit:10;stroke-width:5.4px;}.cls-2{fill:#94b777;}.cls-3{fill:#c3dba9;}</style></defs><title>open source</title><g id="Layer_2" data-name="Layer 2"><g id="Layer_1-2" data-name="Layer 1"><rect class="cls-1" x="2.7" y="2.7" width="82.67" height="66.33" rx="6" ry="6"/><line class="cls-1" x1="2.7" y1="17.03" x2="85.37" y2="17.03"/><circle class="cls-2" cx="12.33" cy="9.74" r="2.21"/><circle class="cls-2" cx="18.67" cy="9.74" r="2.21"/><circle class="cls-2" cx="25" cy="9.74" r="2.21"/><rect class="cls-2" x="30.04" y="38.03" width="27.59" height="20.92" rx="4.8" ry="4.8"/><path class="cls-2" d="M36.8,41a2,2,0,0,1-2-2V35A9.33,9.33,0,0,1,52.73,31.4,2,2,0,1,1,49,33,5.33,5.33,0,0,0,38.8,35v4A2,2,0,0,1,36.8,41Z"/><path class="cls-3" d="M47.63,46.64a3.77,3.77,0,0,1-2.47,3.53v4.18a1.32,1.32,0,1,1-2.63,0V50.19a3.78,3.78,0,1,1,5.1-3.55Z"/></g></g></svg>