<svg xmlns="http://www.w3.org/2000/svg" viewBox="0 0 95.42 95.42"><defs><style>.cls-1{fill:#c3dba9;}.cls-2{fill:none;stroke:#94b777;stroke-linecap:round;stroke-linejoin:round;stroke-width:8px;}</style></defs><title>universal</title><g id="Layer_2" data-name="Layer 2"><g id="Layer_1-2" data-name="Layer 1"><path class="cls-1" d="M62.36,9.38s-7.64.42-8.44,10.54c-1,13-.27,20.11,4,18.64,2.7-.92,5.94-5.94.87,8.94C54.57,60,70.37,72.22,76.28,58.3s-.46-21,3.76-22.44a10.57,10.57,0,0,0,5.81-4.58L76.38,17.83l-14-8.45Z"/><path class="cls-1" d="M16.84,73.34s3.56-21.15,10.84-18c5.31,2.27.42,9.28,4.21,15.18s8.2,2.61,9.28,9.28C42.77,89.62,22.91,86.84,16.84,73.34Z"/><path class="cls-2" d="M91.42,47.71A43.71,43.71,0,1,1,47.71,4,43.71,43.71,0,0,1,91.42,47.71Z"/><path class="cls-1" d="M43.1,37A10.26,10.26,0,1,1,32.85,26.72,10.25,10.25,0,0,1,43.1,37Z"/></g></g></svg>