<svg xmlns="http://www.w3.org/2000/svg" viewBox="0 0 85.88 86.82"><defs><style>.cls-1{fill:#94b777;}</style></defs><title>Asset 3</title><g id="Layer_2" data-name="Layer 2"><g id="Layer_1-2" data-name="Layer 1"><path class="cls-1" d="M55.92,86.82c-11.71,0-30.1-3.88-34.65-7.11a3.76,3.76,0,0,1-1.6-3.07V39.74a3.78,3.78,0,0,1,1.44-3,117.36,117.36,0,0,1,13.82-9.2c8.59-4.72,14.51-11.36,15.92-15.48C52.59,7,55,0,62.72,0A8.84,8.84,0,0,1,71,5.69C74.2,13,70.82,23.2,65.18,31.25c3.8.89,8.51,2,11.28,2.91,5.15,1.61,8.63,5.34,9.3,10S84,53.63,79.07,57.31c-3.64,9.9-10,25.59-14.61,28.16C62.75,86.42,59.68,86.82,55.92,86.82ZM27.26,74.4c7.21,3,29.24,6.17,33.43,4.5,2.21-2,7.77-14.58,11.65-25.26a3.76,3.76,0,0,1,1.45-1.86c3.14-2.09,4.76-4.49,4.46-6.58-.25-1.68-1.77-3.12-4.07-3.84-4.76-1.49-16.45-4.06-16.57-4.09a3.77,3.77,0,0,1-2-6.26c8.52-9.13,10-18.54,8.38-22.3-.5-1.16-1-1.16-1.31-1.16-1.87,0-2.75,1.3-4.68,7C55.78,21.14,48,29,38.6,34.18A107.68,107.68,0,0,0,27.26,41.6Z"/><path id="_Path_" data-name="&lt;Path&gt;" class="cls-1" d="M12.34,77V39.3A6.17,6.17,0,0,0,0,39.3V77a6.17,6.17,0,0,0,12.34,0Z"/></g></g></svg>