<?xml version="1.0" encoding="utf-8"?>
<!-- Generator: Adobe Illustrator 15.1.0, SVG Export Plug-In . SVG Version: 6.00 Build 0)  -->
<!DOCTYPE svg PUBLIC "-//W3C//DTD SVG 1.1//EN" "http://www.w3.org/Graphics/SVG/1.1/DTD/svg11.dtd">
<svg version="1.1" id="Layer_1" xmlns="http://www.w3.org/2000/svg" xmlns:xlink="http://www.w3.org/1999/xlink" x="0px" y="0px"
	 width="54.307px" height="45.61px" viewBox="0 0 54.307 45.61" enable-background="new 0 0 54.307 45.61" xml:space="preserve">
<g>
	<path fill="none" d="M4.438,20.713c-0.058,0.073-0.113,0.145-0.167,0.216C4.375,20.813,4.434,20.721,4.438,20.713z"/>
	<path fill="#CDCDCD" d="M2.674,21.313c0.82,0.304,1.35-0.105,1.599-0.384c0.054-0.071,0.109-0.143,0.167-0.216l0.003-0.004h0.001
		c0.917-1.187,3.163-3.771,4.546-5c1.418-1.261,5.236-3.351,5.236-4.576V3.066C14.224,1.557,10.631,0,4.838,0
		C1.509,0-0.399,9.662,0.071,11.7c0.402,1.742,4.796,1.364,4.984,1.741c0.103,0.312-3.114,4.155-3.36,6.524
		C1.682,20.44,1.851,21.01,2.674,21.313z"/>
	<polygon fill="#5D5D5D" points="4.438,20.713 4.441,20.709 4.441,20.709 	"/>
	<path fill="#CDCDCD" d="M15.847,2.771c0.141,0.331,0.237,0.72,0.237,1.174v3.431v3.429c0,0.456-0.098,0.843-0.237,1.174
		c-0.001,0.002,0.002,0.004,0.001,0.006c-0.098,0.26-0.366,0.642,0,1.053c0.267,0.3,0.659,0.163,0.854,0.064
		c0.889-0.481,1.741-1.418,1.741-3.191V7.374V4.841c0-1.775-0.854-2.71-1.741-3.193c-0.195-0.096-0.589-0.232-0.854,0.066
		c-0.366,0.411-0.098,0.793,0,1.051C15.849,2.768,15.847,2.769,15.847,2.771z"/>
</g>
<g>
	<path fill="none" d="M49.877,0.706c0.058-0.073,0.113-0.146,0.166-0.215C49.939,0.607,49.881,0.699,49.877,0.706z"/>
	<path fill="#CDCDCD" d="M51.637,0.107c-0.818-0.303-1.346,0.105-1.596,0.385c-0.053,0.069-0.108,0.142-0.166,0.215L49.873,0.71l0,0
		c-0.916,1.183-3.158,3.764-4.539,4.992c-1.416,1.259-5.228,3.344-5.228,4.566v8.055c0,1.506,3.586,3.061,9.37,3.061
		c3.323,0,5.229-9.646,4.759-11.68c-0.401-1.741-4.786-1.363-4.977-1.74c-0.104-0.311,3.109-4.147,3.354-6.513
		C52.629,0.978,52.459,0.41,51.637,0.107z"/>
	<polygon fill="#5D5D5D" points="49.877,0.706 49.873,0.71 49.875,0.71 	"/>
	<path fill="#CDCDCD" d="M38.488,18.616c-0.142-0.33-0.24-0.718-0.24-1.173v-3.422v-3.424c0-0.456,0.1-0.842,0.24-1.172
		c0-0.002-0.003-0.004-0.002-0.006c0.096-0.258,0.365-0.639,0-1.049c-0.266-0.299-0.66-0.162-0.854-0.066
		c-0.889,0.483-1.738,1.416-1.738,3.188v2.528v2.527c0,1.771,0.851,2.705,1.736,3.188c0.195,0.097,0.59,0.232,0.854-0.065
		c0.365-0.41,0.097-0.791,0-1.049C38.485,18.62,38.488,18.618,38.488,18.616z"/>
</g>
<g>
	<path fill="#93B874" d="M49.878,23.798c0.057-0.073,0.113-0.146,0.166-0.215C49.94,23.699,49.882,23.791,49.878,23.798z"/>
	<path fill="#93B874" d="M51.637,23.199c-0.818-0.303-1.344,0.105-1.594,0.384c-0.053,0.07-0.109,0.142-0.166,0.215l-0.004,0.004
		l0,0c-0.916,1.183-3.158,3.764-4.54,4.992c-1.415,1.259-5.228,3.344-5.228,4.567v8.054c0,1.507,3.586,3.061,9.371,3.061
		c3.324,0,5.229-9.646,4.758-11.68c-0.4-1.741-4.785-1.363-4.975-1.74c-0.104-0.31,3.109-4.147,3.354-6.513
		C52.63,24.071,52.46,23.502,51.637,23.199z"/>
	<polygon fill="#93B874" points="49.878,23.798 49.874,23.802 49.876,23.802 	"/>
	<path fill="#93B874" d="M38.488,41.709c-0.142-0.331-0.239-0.717-0.239-1.172v-3.423v-3.424c0-0.456,0.098-0.842,0.239-1.172
		c0-0.002-0.003-0.004-0.001-0.006c0.096-0.258,0.365-0.639,0-1.049c-0.266-0.299-0.66-0.162-0.854-0.066
		c-0.888,0.483-1.739,1.416-1.739,3.188v2.528v2.527c0,1.772,0.852,2.705,1.738,3.188c0.194,0.096,0.588,0.232,0.854-0.066
		c0.365-0.41,0.097-0.791,0-1.049C38.485,41.713,38.488,41.711,38.488,41.709z"/>
</g>
<g>
	<path fill="#CC8969" d="M4.438,43.2c-0.057,0.073-0.113,0.145-0.167,0.216C4.374,43.3,4.434,43.208,4.438,43.2z"/>
	<path fill="#CC8969" d="M2.673,43.8c0.82,0.303,1.349-0.106,1.598-0.384c0.054-0.071,0.11-0.143,0.167-0.216l0.003-0.004h0.001
		c0.917-1.186,3.163-3.771,4.546-5c1.418-1.261,5.236-3.35,5.236-4.576v-8.067c0-1.509-3.594-3.065-9.387-3.065
		c-3.329,0-5.236,9.662-4.767,11.7c0.402,1.743,4.796,1.365,4.984,1.742c0.103,0.312-3.114,4.155-3.36,6.524
		C1.682,42.927,1.851,43.497,2.673,43.8z"/>
	<polygon fill="#CC8969" points="4.438,43.2 4.441,43.197 4.441,43.197 	"/>
	<path fill="#CC8969" d="M15.847,25.258c0.141,0.331,0.238,0.719,0.238,1.174v3.43v3.429c0,0.456-0.098,0.843-0.238,1.174
		c-0.001,0.002,0.002,0.004,0.001,0.006c-0.097,0.259-0.366,0.641,0,1.052c0.267,0.3,0.66,0.163,0.855,0.065
		c0.889-0.482,1.741-1.418,1.741-3.192v-2.533v-2.533c0-1.775-0.853-2.71-1.741-3.193c-0.195-0.096-0.589-0.233-0.855,0.066
		c-0.366,0.411-0.097,0.793,0,1.051C15.849,25.255,15.847,25.256,15.847,25.258z"/>
</g>
</svg>