<?xml version="1.0" encoding="UTF-8" standalone="no"?><!DOCTYPE svg PUBLIC "-//W3C//DTD SVG 1.1//EN" "http://www.w3.org/Graphics/SVG/1.1/DTD/svg11.dtd"><svg width="100%" height="100%" viewBox="0 0 24 24" version="1.1" xmlns="http://www.w3.org/2000/svg" xmlns:xlink="http://www.w3.org/1999/xlink" xml:space="preserve" xmlns:serif="http://www.serif.com/" style="fill-rule:evenodd;clip-rule:evenodd;stroke-linecap:round;stroke-linejoin:round;stroke-miterlimit:1.5;"><g><path d="M3.5,20.5l0,-5c0,0 7.895,-7.895 11.381,-11.381c0.43,-0.43 1.013,-0.671 1.621,-0.671c0.608,0 1.191,0.241 1.62,0.671c0.564,0.564 1.195,1.195 1.759,1.759c0.43,0.429 0.671,1.012 0.671,1.62c0,0.608 -0.241,1.191 -0.671,1.621c-3.486,3.486 -11.381,11.381 -11.381,11.381l-5,0Z" style="fill:none;stroke:#545454;stroke-width:1px;"/><path d="M14,5l5,5" style="fill:none;stroke:#545454;stroke-width:1px;"/><path d="M3.5,15.5l2.981,0.002l0.015,1.974l2.058,0.042l-0.054,2.982" style="fill:none;stroke:#545454;stroke-width:1px;"/><path d="M6.5,15.5l8.759,-8.759" style="fill:none;stroke:#545454;stroke-width:1px;"/><path d="M8.5,17.5l8.759,-8.759" style="fill:none;stroke:#545454;stroke-width:1px;"/><path d="M3.791,18.495l1.62,1.728l-1.639,0l0.019,-1.728Z"/></g></svg>