<?xml version="1.0" encoding="UTF-8" standalone="no"?><!DOCTYPE svg PUBLIC "-//W3C//DTD SVG 1.1//EN" "http://www.w3.org/Graphics/SVG/1.1/DTD/svg11.dtd"><svg width="100%" height="100%" viewBox="0 0 1500 1500" version="1.1" xmlns="http://www.w3.org/2000/svg" xmlns:xlink="http://www.w3.org/1999/xlink" xml:space="preserve" xmlns:serif="http://www.serif.com/" style="fill-rule:evenodd;clip-rule:evenodd;stroke-linejoin:round;stroke-miterlimit:1.41421;"><circle cx="760.5" cy="757.5" r="639.5" style="fill:#94b777;"/><path d="M620.289,833.48c4.763,4.764 11.224,7.44 17.96,7.44c6.737,0 13.198,-2.676 17.961,-7.44c65.192,-65.192 289.457,-289.457 364.87,-364.87c13.789,-13.789 36.145,-13.789 49.934,0c25.311,25.312 64.256,64.256 89.567,89.567c13.789,13.789 13.789,36.145 0,49.934c-91.251,91.251 -406.114,406.114 -497.365,497.365c-13.789,13.789 -36.145,13.789 -49.933,0c-60.415,-60.415 -213.951,-213.95 -274.365,-274.365c-13.789,-13.789 -13.789,-36.145 0,-49.934c25.311,-25.311 64.255,-64.255 89.567,-89.567c6.622,-6.622 15.602,-10.342 24.967,-10.342c9.364,0 18.345,3.72 24.967,10.342c37.814,37.815 108.709,108.709 141.87,141.87Z" style="fill:#fff;"/></svg>