<?xml version="1.0" encoding="UTF-8" standalone="no"?><!DOCTYPE svg PUBLIC "-//W3C//DTD SVG 1.1//EN" "http://www.w3.org/Graphics/SVG/1.1/DTD/svg11.dtd"><svg width="100%" height="100%" viewBox="0 0 1500 1500" version="1.1" xmlns="http://www.w3.org/2000/svg" xmlns:xlink="http://www.w3.org/1999/xlink" xml:space="preserve" xmlns:serif="http://www.serif.com/" style="fill-rule:evenodd;clip-rule:evenodd;stroke-linejoin:round;stroke-miterlimit:1.41421;"><circle cx="760.5" cy="757.5" r="639.5" style="fill:#e04006;"/><path d="M403.065,1025.37c-13.789,-13.788 -13.789,-36.144 0,-49.933c100.501,-100.501 474.868,-474.868 575.369,-575.369c13.789,-13.789 36.145,-13.789 49.933,0c25.312,25.312 64.256,64.256 89.568,89.568c13.789,13.788 13.789,36.144 0,49.933c-100.501,100.501 -474.868,474.868 -575.369,575.369c-13.789,13.789 -36.145,13.789 -49.933,0c-25.312,-25.312 -64.256,-64.256 -89.568,-89.568Z" style="fill:#fff;"/><path d="M492.633,400.065c13.788,-13.789 36.144,-13.789 49.933,0c100.501,100.501 474.868,474.868 575.369,575.369c13.789,13.789 13.789,36.145 0,49.933c-25.312,25.312 -64.256,64.256 -89.568,89.568c-13.788,13.789 -36.144,13.789 -49.933,0c-100.501,-100.501 -474.868,-474.868 -575.369,-575.369c-13.789,-13.789 -13.789,-36.145 0,-49.933c25.312,-25.312 64.256,-64.256 89.568,-89.568Z" style="fill:#fff;"/></svg>