<svg xmlns="http://www.w3.org/2000/svg" viewBox="0 0 25.844 26.68" enable-background="new 0 0 25.844 26.68"><style>.style0{fill: #3E3D3C;}</style><path d="M20.574 22.715a2 2 0 01-1.412-3.416c1.704-1.7 2.682-4.025 2.682-6.377 0-4.92-4.002-8.922-8.922-8.922S4 8 4 12.922c0 2.3 1 4.7 2.7 6.4.777.8.8 2.052-.016 2.828a1.997 1.997 0 01-2.828-.016C1.403 19.6 0 16.3 0 12.9 0 5.8 5.8 0 12.9 0s12.922 5.8 12.9 12.922c0 3.407-1.406 6.764-3.857 9.2a1.896 1.896 0 01-1.343.593z" class="style0"/><path d="M12.922 26.68a2 2 0 01-2-2V13.603a2 2 0 014 0V24.68c0 1.12-.922 2.02-2.022 2z" class="style0"/><path d="M17.504 15.623a1.992 1.992 0 01-1.414-.586l-3.168-3.167-3.168 3.2a2 2 0 11-2.828-2.828l5.996-5.996 5.996 5.996c.781.8.8 2 0 2.8a2.294 2.294 0 01-1.418.581z" class="style0"/></svg>
