<svg xmlns="http://www.w3.org/2000/svg" viewBox="0 0 36.49 29.701" enable-background="new 0 0 36.49 29.701"><path fill="#3E3D3C" d="M33.497 2.441c-3.547-3.255-9.296-3.255-12.844 0l-2.408 2.211-2.409-2.211C12.29-.814 6.54-.814 2.993 2.441c-3.99 3.662-3.99 9.599 0 13.262l15.252 13.998 15.252-13.998c3.99-3.662 3.99-9.6 0-13.262zm-5.19 8.577c-.404 0-.669.025-.795.075a.82.82 0 00-.328.238c-.118.159-.248.434-.391.826l-3.369 8.942h-3.318l-1.864-5.019-1.893 5.019h-3.344L9.71 12.158a2.82 2.82 0 00-.426-.789c-.1-.142-.207-.234-.319-.275-.113-.042-.374-.067-.783-.075V8.601h6.625v2.417h-.276c-.317 0-.522.034-.614.1a.394.394 0 00-.175.338c0 .125.038.305.113.539l1.749 5.4 1.514-4.227-.396-1.173c-.117-.351-.261-.597-.432-.739-.171-.142-.424-.221-.758-.238V8.601h6.299v2.417h-.514c-.284 0-.481.042-.589.125a.43.43 0 00-.163.363c0 .15.05.367.15.651l1.507 4.489 1.526-4.489c.1-.292.15-.513.15-.664a.4.4 0 00-.18-.357c-.12-.079-.37-.119-.75-.119h-.285V8.601h5.623v2.417z"/></svg>