<?xml version="1.0" encoding="utf-8"?>
<!-- Generator: Adobe Illustrator 19.1.0, SVG Export Plug-In . SVG Version: 6.00 Build 0)  -->
<!DOCTYPE svg PUBLIC "-//W3C//DTD SVG 1.1//EN" "http://www.w3.org/Graphics/SVG/1.1/DTD/svg11.dtd">
<svg version="1.1" xmlns="http://www.w3.org/2000/svg" xmlns:xlink="http://www.w3.org/1999/xlink" x="0px" y="0px" width="19.2px"
	 height="19.2px" viewBox="0 0 19.2 19.2" enable-background="new 0 0 19.2 19.2" xml:space="preserve">
<g id="Layer_1">
</g>
<g id="Layer_2">
	<g>
		<path fill="#93B874" d="M9.6,0C4.298,0,0,4.298,0,9.6s4.298,9.6,9.6,9.6c5.301,0,9.6-4.298,9.6-9.601C19.2,4.298,14.901,0,9.6,0z
			 M9.6,17.199c-4.197,0-7.6-3.402-7.6-7.6S5.402,2,9.6,2c4.197,0,7.601,3.402,7.601,7.6S13.797,17.199,9.6,17.199z M7.101,9.35
			C7.929,9.35,8.6,8.567,8.6,7.6S7.928,5.85,7.1,5.85S5.6,6.633,5.6,7.6S6.272,9.35,7.101,9.35z M12.1,9.35
			c0.829,0,1.5-0.783,1.5-1.75s-0.672-1.75-1.5-1.75s-1.5,0.784-1.5,1.75S11.272,9.35,12.1,9.35z M13.941,10.936
			c-0.363-0.186-0.815-0.043-1.008,0.32c-0.034,0.066-0.869,1.593-3.332,1.593c-2.451,0-3.291-1.513-3.333-1.592
			c-0.188-0.365-0.632-0.514-1.004-0.329c-0.37,0.186-0.52,0.636-0.335,1.007c0.05,0.099,1.248,2.414,4.672,2.414
			c3.425,0,4.621-2.316,4.67-2.415C14.455,11.567,14.307,11.124,13.941,10.936z"/>
	</g>
</g>
</svg>
