<?xml version="1.0" encoding="utf-8"?>
<!-- Generator: Adobe Illustrator 19.1.0, SVG Export Plug-In . SVG Version: 6.00 Build 0)  -->
<!DOCTYPE svg PUBLIC "-//W3C//DTD SVG 1.1//EN" "http://www.w3.org/Graphics/SVG/1.1/DTD/svg11.dtd">
<svg version="1.1" xmlns="http://www.w3.org/2000/svg" xmlns:xlink="http://www.w3.org/1999/xlink" x="0px" y="0px"
	 width="19.201px" height="19.201px" viewBox="0 0 19.201 19.201" enable-background="new 0 0 19.201 19.201" xml:space="preserve">
<g id="Layer_1">
</g>
<g id="Layer_2">
	<g>
		<path fill="#8A8A8A" d="M9.601,0C4.298,0,0,4.298,0,9.6c0,5.303,4.298,9.601,9.601,9.601c5.301,0,9.6-4.298,9.6-9.601
			C19.2,4.298,14.901,0,9.601,0z M9.6,17.199c-4.197,0-7.6-3.402-7.6-7.6c0-4.197,3.402-7.6,7.6-7.6c4.197,0,7.6,3.402,7.6,7.6
			S13.797,17.199,9.6,17.199z M12.101,9.35c0.828,0,1.5-0.783,1.5-1.75s-0.672-1.75-1.5-1.75s-1.5,0.783-1.5,1.75
			S11.272,9.35,12.101,9.35z M7.101,9.35c0.828,0,1.5-0.783,1.5-1.75s-0.672-1.75-1.5-1.75s-1.5,0.783-1.5,1.75
			S6.272,9.35,7.101,9.35z M9.602,10.85c-3.424,0-4.622,2.315-4.672,2.414c-0.186,0.371-0.035,0.821,0.335,1.007
			C5.373,14.324,5.487,14.35,5.6,14.35c0.275,0,0.54-0.151,0.672-0.414c0.008-0.017,0.822-1.586,3.33-1.586
			c2.463,0,3.298,1.527,3.328,1.585c0.184,0.37,0.635,0.523,1.006,0.336c0.371-0.184,0.521-0.636,0.336-1.006
			C14.223,13.166,13.026,10.85,9.602,10.85z"/>
	</g>
</g>
</svg>
