<svg xmlns="http://www.w3.org/2000/svg" viewBox="0 0 330 245.332"><g transform="translate(-71.193 -2917.809)" opacity=".607"><path d="M92.794 3162.766H377.52" fill="none" stroke="rgba(112,112,112,0.4)" stroke-linecap="round" stroke-width=".75"/><path d="M316.926 2917.809h38.534c.471 0 .853 3.368.853 7.522v229.956c0 4.155-.382 7.522-.853 7.522h-38.534c-.471 0-.854-3.367-.854-7.522v-229.956c0-4.154.383-7.522.854-7.522z" fill="#77c0dd"/><path d="M345.685 2917.809h10.4a61.72 61.72 0 01.23 7.522v229.956a61.7 61.7 0 01-.23 7.522h-10.4a61.568 61.568 0 01-.231-7.522v-229.956a61.587 61.587 0 01.231-7.522z" fill="#5ab1d0" opacity=".81"/><path d="M116.926 2917.809h38.534c.471 0 .853 3.368.853 7.522v229.956c0 4.155-.382 7.522-.853 7.522h-38.534c-.471 0-.854-3.367-.854-7.522v-229.956c0-4.154.383-7.522.854-7.522z" fill="#77c0dd"/><path d="M145.685 2917.809h10.4a61.709 61.709 0 01.23 7.522v229.956a61.69 61.69 0 01-.23 7.522h-10.4a61.562 61.562 0 01-.231-7.522v-229.956a61.581 61.581 0 01.231-7.522z" fill="#5ab1d0" opacity=".81"/><rect width="40.241" height="15.018" transform="translate(116.072 3123.631)" fill="#3ea2c1" opacity=".38" style="mix-blend-mode:multiply;isolation:isolate"/><rect width="40.241" height="15.018" transform="translate(316.072 3123.631)" fill="#3ea2c1" opacity=".38" style="mix-blend-mode:multiply;isolation:isolate"/><path d="M78.193 2929.681h316c3.866 0 7 2.789 7 6.229v190.408c0 3.439-3.134 6.228-7 6.228h-316c-3.866 0-7-2.788-7-6.228V2935.91c0-3.44 3.134-6.229 7-6.229z" fill="#92cde8"/><path d="M78.044 2929.681h309.3c3.784 0 6.852 2.733 6.852 6.1v186.626c0 3.372-3.068 6.1-6.852 6.1h-309.3c-3.784 0-6.851-2.732-6.851-6.1v-186.621c0-3.372 3.067-6.105 6.851-6.105z" fill="#d5f2ff"/><path d="M136.303 2947.913a12.317 12.317 0 00-1.01 5.036v11.931c-.274.207-1.5.442-1.668.7v-8.619c-1.266 6.13-4.682 5.537-4.682 10.691h4.35v1.668h-4.35c0 1.107 1.2 2 2.673 2h2.677c0 .973.414 1.341 1 1.341h1.67c.584 0 1-.368 1-1.336h.668c0 .969.419 1.336 1 1.336h1.67c.584 0 1-.368 1-1.336h2.673c1.476 0 2.673-.9 2.673-2h-4.34v-1.673h4.346c0-5.153-3.416-4.561-4.68-10.693v8.619c-.168-.256-1.394-.491-1.668-.7v-11.93a12.317 12.317 0 00-1.012-5.035c-.581-1.239-1.327-1.979-1.994-1.979s-1.415.739-1.996 1.979zm3.665 4.368c0 .185-.158.668-.342.668h-2.673c-.185 0-.326-.484-.326-.668 0-1.332 3.341-1.334 3.341 0z" fill="#5ab1d0"/><path d="M336.303 2947.913a12.317 12.317 0 00-1.01 5.036v11.931c-.274.207-1.5.442-1.668.7v-8.619c-1.266 6.13-4.682 5.537-4.682 10.691h4.35v1.668h-4.35c0 1.107 1.2 2 2.673 2h2.677c0 .973.414 1.341 1 1.341h1.67c.584 0 1-.368 1-1.336h.668c0 .969.419 1.336 1 1.336h1.67c.584 0 1-.368 1-1.336h2.673c1.476 0 2.673-.9 2.673-2h-4.34v-1.673h4.346c0-5.153-3.416-4.561-4.68-10.693v8.619c-.168-.256-1.394-.491-1.668-.7v-11.93a12.317 12.317 0 00-1.012-5.035c-.581-1.239-1.327-1.979-1.994-1.979s-1.415.739-1.996 1.979zm3.665 4.368c0 .185-.158.668-.342.668h-2.673c-.185 0-.326-.484-.326-.668 0-1.332 3.341-1.334 3.341 0z" fill="#5ab1d0"/></g></svg>