<svg xmlns="http://www.w3.org/2000/svg" viewBox="0 0 330 245.332"><g transform="translate(-71.193 -2917.809)" opacity=".749"><path d="M92.794 3162.766H377.52" fill="none" stroke="rgba(112,112,112,0.4)" stroke-linecap="round" stroke-width=".75"/><path d="M316.926 2917.809h38.534c.471 0 .853 3.368.853 7.522v229.956c0 4.155-.382 7.522-.853 7.522h-38.534c-.471 0-.854-3.367-.854-7.522v-229.956c0-4.154.383-7.522.854-7.522z" fill="#f7cf72"/><path d="M345.685 2917.809h10.4a61.72 61.72 0 01.23 7.522v229.956a61.7 61.7 0 01-.23 7.522h-10.4a61.568 61.568 0 01-.231-7.522v-229.956a61.587 61.587 0 01.231-7.522z" fill="#ffb30f" opacity=".81"/><path d="M116.926 2917.809h38.534c.471 0 .853 3.368.853 7.522v229.956c0 4.155-.382 7.522-.853 7.522h-38.534c-.471 0-.854-3.367-.854-7.522v-229.956c0-4.154.383-7.522.854-7.522z" fill="#f7cf72"/><path d="M145.685 2917.809h10.4a61.709 61.709 0 01.23 7.522v229.956a61.69 61.69 0 01-.23 7.522h-10.4a61.562 61.562 0 01-.231-7.522v-229.956a61.581 61.581 0 01.231-7.522z" fill="#ffb30f" opacity=".81"/><rect width="40.241" height="15.018" transform="translate(116.072 3123.631)" fill="#ffa00a" opacity=".38" style="mix-blend-mode:multiply;isolation:isolate"/><rect width="40.241" height="15.018" transform="translate(316.072 3123.631)" fill="#ffa00a" opacity=".38" style="mix-blend-mode:multiply;isolation:isolate"/><path d="M78.193 2929.681h316c3.866 0 7 2.789 7 6.229v190.408c0 3.439-3.134 6.228-7 6.228h-316c-3.866 0-7-2.788-7-6.228V2935.91c0-3.44 3.134-6.229 7-6.229z" fill="#ffe679"/><path d="M78.044 2929.681h309.3c3.784 0 6.852 2.733 6.852 6.1v186.626c0 3.372-3.068 6.1-6.852 6.1h-309.3c-3.784 0-6.851-2.732-6.851-6.1v-186.621c0-3.372 3.067-6.105 6.851-6.105z" fill="#fff6d0"/><path d="M338.193 2963.409l7.933 4.788-2.105-9.024 7.008-6.071-9.229-.783-3.607-8.51-3.607 8.51-9.229.783 7.008 6.071-2.108 9.024z" fill="#ffc64b"/><path d="M137.193 2963.409l7.933 4.788-2.105-9.024 7.008-6.071-9.229-.783-3.607-8.51-3.607 8.51-9.229.783 7.008 6.071-2.108 9.024z" fill="#ffc64b"/></g></svg>