<?xml version="1.0" encoding="utf-8"?><svg id="Layer_1" xmlns="http://www.w3.org/2000/svg" viewBox="0 0 300 300"><style>.st0{fill:#92b971}.st1{fill:#fff}</style><circle class="st0" cx="149.8" cy="149.8" r="147.2"/><path class="st1" d="M82 184.7v10c0 11.1 8.9 20 20 20h100c11 0 20-9 20-20v-10s0-10-10-10-10 10-10 10c0 5.5-4.5 10-10 10h-80c-5.5 0-10-4.5-10-10 0 0 0-10-10-10s-10 10-10 10"/><path class="st1" d="M104.9 131.8c3.9 3.9 10.2 3.9 14.1 0l22.9-22.9v65.9c0 5.5 4.5 10 10 10s10-4.5 10-10v-65.9l22.9 22.9c3.9 3.9 10.2 3.9 14.1 0 3.9-3.9 3.9-10.2 0-14.1l-40-40c-.9-.9-2-1.7-3.3-2.2-1.2-.5-2.5-.8-3.8-.8-1.3 0-2.6.3-3.8.8-1.2.5-2.3 1.2-3.3 2.2l-40 40c-3.7 3.8-3.7 10.1.2 14.1"/></svg>
