<?xml version="1.0" encoding="UTF-8"?>
<svg width="13px" height="16px" viewBox="0 0 13 16" version="1.1" xmlns="http://www.w3.org/2000/svg" xmlns:xlink="http://www.w3.org/1999/xlink">
    <!-- Generator: Sketch 55.1 (78136) - https://sketchapp.com -->
    <title>Combined Shape Copy 3@2x</title>
    <desc>Created with Sketch.</desc>
    <g id="Page-1" stroke="none" stroke-width="1" fill="none" fill-rule="evenodd">
        <g id="positive-copy" transform="translate(0.000000, -7.000000)" fill="#327733">
            <path d="M11.1157125,7.08009476 C11.6961047,7.30680582 11.8161372,7.73179554 11.804134,8.08570423 C11.631146,9.85599589 9.36253237,12.7261729 9.435964,12.9588698 C9.570824,13.2409492 12.6669556,12.9581215 12.950091,14.2607749 C13.2819454,15.782657 11.9361697,23 9.58988798,23 C5.50595984,23 2.97398087,21.8365158 2.97398087,20.7096945 L2.97398087,14.6827717 C2.97398087,13.7684452 5.66553241,12.2084038 6.66533225,11.2663931 C7.64041952,10.3475773 9.22343592,8.41641806 9.8701991,7.53127222 L9.87161124,7.52902756 C9.9125635,7.4744074 9.95139753,7.41978724 9.98881942,7.36815997 C10.1653377,7.158658 10.5381445,6.8533837 11.1157125,7.08009476 Z M1.83155422,20.9289234 C1.83155422,20.9304198 1.829436,20.9319162 1.82872993,20.9326645 C1.89721904,21.1257056 2.08644669,21.4107779 1.82872993,21.7175486 C1.64232657,21.9397704 1.3634276,21.8387605 1.2257433,21.766183 C0.600868405,21.4047921 -1.77635684e-15,20.7059534 -1.77635684e-15,19.3808534 L-1.77635684e-15,17.4900981 L-1.77635684e-15,15.5985946 C-1.77635684e-15,14.2727464 0.599456258,13.5746559 1.22715545,13.213265 C1.36413368,13.1414358 1.64232657,13.0389294 1.83014207,13.2626476 C2.08785884,13.5694184 1.89792511,13.8544907 1.83014207,14.0475318 C1.829436,14.0490282 1.83155422,14.0505247 1.83155422,14.0520211 C1.73270395,14.2989342 1.66209662,14.5877476 1.66209662,14.9289365 L1.66209662,17.4908463 L1.66209662,20.0512597 C1.66209662,20.3917004 1.73129181,20.6820103 1.83155422,20.9289234 Z" id="Combined-Shape-Copy-3"></path>
        </g>
    </g>
</svg>