<?xml version="1.0" encoding="UTF-8" standalone="no"?><!DOCTYPE svg PUBLIC "-//W3C//DTD SVG 1.1//EN" "http://www.w3.org/Graphics/SVG/1.1/DTD/svg11.dtd"><svg width="100%" height="100%" viewBox="0 0 70 70" version="1.1" xmlns="http://www.w3.org/2000/svg" xmlns:xlink="http://www.w3.org/1999/xlink" xml:space="preserve" xmlns:serif="http://www.serif.com/" style="fill-rule:evenodd;clip-rule:evenodd;stroke-linejoin:round;stroke-miterlimit:1.41421;"><g><path d="M68,3.832c0,-1.011 -0.821,-1.832 -1.832,-1.832l-62.336,0c-1.011,0 -1.832,0.821 -1.832,1.832l0,62.336c0,1.011 0.821,1.832 1.832,1.832l62.336,0c1.011,0 1.832,-0.821 1.832,-1.832l0,-62.336Z" style="fill:#fff;"/><path d="M52.85,49.777l-35.7,0c-1.299,0 -2.368,-1.075 -2.368,-2.382l0,-24.796c0,-1.307 1.069,-2.383 2.368,-2.383l35.7,0c1.299,0 2.368,1.076 2.368,2.383l0,24.796c0,1.307 -1.069,2.382 -2.368,2.382Zm-9.67,-14.42l5.879,-5.858c0.331,-0.33 0.518,-0.781 0.518,-1.251c0,-0.47 -0.187,-0.922 -0.518,-1.252l-0.33,-0.326c-0.693,-0.684 -1.819,-0.684 -2.512,0l-10.732,10.697l-0.971,0l-10.733,-10.697c-0.692,-0.684 -1.816,-0.684 -2.508,0l-0.33,0.326c-0.332,0.33 -0.518,0.782 -0.518,1.252c0,0.47 0.186,0.921 0.518,1.251l5.958,5.938l-5.863,5.014c-0.394,0.334 -0.621,0.827 -0.621,1.346c0,0.422 0.15,0.83 0.424,1.15l0.3,0.351c0.638,0.736 1.759,0.825 2.504,0.199l6.114,-5.221l2.171,2.161c0.217,0.214 0.484,0.37 0.778,0.45c0.236,0.113 0.494,0.172 0.756,0.171l3.084,0c0.252,0.001 0.501,-0.055 0.729,-0.163c0.306,-0.076 0.586,-0.233 0.811,-0.456l2.329,-2.31l6.007,5.133c0.742,0.625 1.861,0.536 2.497,-0.198l0.246,-0.288c0.272,-0.319 0.421,-0.725 0.421,-1.145c0,-0.517 -0.226,-1.009 -0.618,-1.343l-5.79,-4.931Z" style="fill:#94b777;"/></g></svg>