<?xml version="1.0" encoding="UTF-8" standalone="no"?><!DOCTYPE svg PUBLIC "-//W3C//DTD SVG 1.1//EN" "http://www.w3.org/Graphics/SVG/1.1/DTD/svg11.dtd"><svg width="100%" height="100%" viewBox="0 0 70 70" version="1.1" xmlns="http://www.w3.org/2000/svg" xmlns:xlink="http://www.w3.org/1999/xlink" xml:space="preserve" xmlns:serif="http://www.serif.com/" style="fill-rule:evenodd;clip-rule:evenodd;stroke-linejoin:round;stroke-miterlimit:1.41421;"><g><path d="M68,3.832c0,-1.011 -0.821,-1.832 -1.832,-1.832l-62.336,0c-1.011,0 -1.832,0.821 -1.832,1.832l0,62.336c0,1.011 0.821,1.832 1.832,1.832l62.336,0c1.011,0 1.832,-0.821 1.832,-1.832l0,-62.336Z" style="fill:#fff;"/><path d="M35.393,39.625l0,-7.981l19.393,0c0.254,1.391 0.382,2.802 0.384,4.216l0.014,0.006c0,6.278 -2.248,11.563 -6.145,15.15l-6.663,-5.174c2.161,-1.429 3.64,-3.665 4.109,-6.217l-11.092,0Z" style="fill:#4285f4;"/><path d="M49.021,51.016c-3.411,3.143 -8.07,4.984 -13.628,4.984c-7.788,-0.002 -14.923,-4.399 -18.425,-11.354l6.886,-5.338l-0.002,-0.002l0.002,0c1.632,4.878 6.171,8.496 11.533,8.496c2.774,0 5.133,-0.731 6.979,-1.967l6.655,5.181Z" style="fill:#34a853;"/><path d="M16.968,44.647c-2.919,-5.815 -2.921,-12.681 0,-18.512l0.01,0l6.874,5.329l0,0.01c-0.862,2.539 -0.862,5.293 0,7.832l-6.884,5.34l0,0.001Z" style="fill:#fbbc05;"/><path d="M16.976,26.133c3.492,-6.952 10.637,-11.357 18.417,-11.355c5.547,0 10.214,2.044 13.789,5.371l-5.911,5.911c-2.135,-2.042 -4.848,-3.083 -7.878,-3.083l0.002,-0.002c-5.369,0 -9.917,3.626 -11.533,8.497l-6.886,-5.339Z" style="fill:#ea4335;"/></g></svg>