<?xml version="1.0" encoding="UTF-8" standalone="no"?><!DOCTYPE svg PUBLIC "-//W3C//DTD SVG 1.1//EN" "http://www.w3.org/Graphics/SVG/1.1/DTD/svg11.dtd"><svg width="100%" height="100%" viewBox="0 0 90 90" version="1.1" xmlns="http://www.w3.org/2000/svg" xmlns:xlink="http://www.w3.org/1999/xlink" xml:space="preserve" xmlns:serif="http://www.serif.com/" style="fill-rule:evenodd;clip-rule:evenodd;stroke-linejoin:round;stroke-miterlimit:1.41421;"><g><path d="M88,4.387c0,-1.317 -1.07,-2.387 -2.387,-2.387l-81.226,0c-1.317,0 -2.387,1.07 -2.387,2.387l0,81.226c0,1.317 1.07,2.387 2.387,2.387l81.226,0c1.317,0 2.387,-1.07 2.387,-2.387l0,-81.226Z" style="fill:#fff;"/><path d="M45.505,50.946l0,-10.261l24.934,0c0.326,1.788 0.491,3.602 0.494,5.42l0.018,0.008c0,8.072 -2.891,14.867 -7.901,19.48l-8.567,-6.653c2.778,-1.837 4.68,-4.713 5.284,-7.994l-14.262,0Z" style="fill:#4285f4;"/><path d="M63.027,65.593c-4.386,4.04 -10.376,6.407 -17.522,6.407c-10.013,-0.003 -19.186,-5.656 -23.688,-14.597l8.853,-6.864l-0.003,-0.003l0.003,0c2.098,6.272 7.934,10.924 14.827,10.924c3.567,0 6.6,-0.94 8.974,-2.529l8.556,6.662Z" style="fill:#34a853;"/><path d="M21.816,57.403c-3.753,-7.477 -3.756,-16.304 0,-23.801l0.013,0l8.838,6.852l0,0.012c-1.108,3.265 -1.108,6.806 0,10.07l-8.85,6.867l-0.001,0Z" style="fill:#fbbc05;"/><path d="M21.826,33.599c4.491,-8.938 13.676,-14.602 23.679,-14.599c7.132,0 13.132,2.628 17.729,6.906l-7.599,7.6c-2.746,-2.626 -6.234,-3.964 -10.13,-3.964l0.003,-0.002c-6.904,0 -12.75,4.662 -14.828,10.924l-8.854,-6.865Z" style="fill:#ea4335;"/></g></svg>