<?xml version="1.0" encoding="UTF-8" standalone="no"?><!DOCTYPE svg PUBLIC "-//W3C//DTD SVG 1.1//EN" "http://www.w3.org/Graphics/SVG/1.1/DTD/svg11.dtd"><svg width="100%" height="100%" viewBox="0 0 70 70" version="1.1" xmlns="http://www.w3.org/2000/svg" xmlns:xlink="http://www.w3.org/1999/xlink" xml:space="preserve" xmlns:serif="http://www.serif.com/" style="fill-rule:evenodd;clip-rule:evenodd;stroke-linejoin:round;stroke-miterlimit:1.41421;"><g><path d="M68,3.832c0,-1.011 -0.821,-1.832 -1.832,-1.832l-62.336,0c-1.011,0 -1.832,0.821 -1.832,1.832l0,62.336c0,1.011 0.821,1.832 1.832,1.832l62.336,0c1.011,0 1.832,-0.821 1.832,-1.832l0,-62.336Z" style="fill:#fff;"/><path d="M55.04,39.383c-2.024,8.959 -10.118,15.657 -19.796,15.657c-11.203,0 -20.284,-8.413 -20.284,-19.48c0,-11.067 9.085,-20.6 20.284,-20.6c9.686,0 17.772,6.698 19.796,15.657l-5.244,0c-1.994,-6.333 -7.913,-10.663 -14.552,-10.647c-8.39,0 -15.213,6.743 -15.213,15.03c0,8.287 6.823,15.03 15.213,15.03c6.639,0.016 12.558,-4.314 14.552,-10.647l5.244,0Zm-14.859,-7.303c0,-0.006 0,-0.013 0,-0.019c0,-2.837 -2.334,-5.171 -5.171,-5.171c-2.837,0 -5.171,2.334 -5.171,5.171c0,1.976 1.132,3.786 2.909,4.65l0,6.364l4.539,0l0,-6.364c1.771,-0.859 2.9,-2.662 2.902,-4.631l-0.008,0Z" style="fill:#3fac3b;fill-rule:nonzero;"/></g></svg>