<?xml version="1.0" encoding="UTF-8" standalone="no"?><!DOCTYPE svg PUBLIC "-//W3C//DTD SVG 1.1//EN" "http://www.w3.org/Graphics/SVG/1.1/DTD/svg11.dtd"><svg width="100%" height="100%" viewBox="0 0 90 90" version="1.1" xmlns="http://www.w3.org/2000/svg" xmlns:xlink="http://www.w3.org/1999/xlink" xml:space="preserve" xmlns:serif="http://www.serif.com/" style="fill-rule:evenodd;clip-rule:evenodd;stroke-linejoin:round;stroke-miterlimit:1.41421;"><g><path d="M88,4.387c0,-1.317 -1.07,-2.387 -2.387,-2.387l-81.226,0c-1.317,0 -2.387,1.07 -2.387,2.387l0,81.226c0,1.317 1.07,2.387 2.387,2.387l81.226,0c1.317,0 2.387,-1.07 2.387,-2.387l0,-81.226Z" style="fill:#fff;"/><path d="M70.765,50.636c-2.601,11.518 -13.009,20.129 -25.452,20.129c-14.403,0 -26.078,-10.816 -26.078,-25.045c0,-14.229 11.68,-26.485 26.078,-26.485c12.454,0 22.851,8.611 25.452,20.129l-6.742,0c-2.564,-8.141 -10.174,-13.709 -18.71,-13.688c-10.786,0 -19.559,8.669 -19.559,19.324c0,10.655 8.773,19.324 19.559,19.324c8.536,0.021 16.146,-5.547 18.71,-13.688l6.742,0Zm-19.104,-9.39c0,-0.008 0,-0.016 0,-0.025c0,-3.647 -3.001,-6.648 -6.648,-6.648c-3.648,0 -6.649,3.001 -6.649,6.648c0,2.541 1.456,4.868 3.741,5.979l0,8.182l5.835,0l0,-8.182c2.277,-1.105 3.73,-3.423 3.731,-5.954l-0.01,0Z" style="fill:#3fac3b;fill-rule:nonzero;"/></g></svg>