<?xml version="1.0" encoding="UTF-8" standalone="no"?><!DOCTYPE svg PUBLIC "-//W3C//DTD SVG 1.1//EN" "http://www.w3.org/Graphics/SVG/1.1/DTD/svg11.dtd"><svg width="100%" height="100%" viewBox="0 0 90 90" version="1.1" xmlns="http://www.w3.org/2000/svg" xmlns:xlink="http://www.w3.org/1999/xlink" xml:space="preserve" xmlns:serif="http://www.serif.com/" style="fill-rule:evenodd;clip-rule:evenodd;stroke-linejoin:round;stroke-miterlimit:1.41421;"><g><path d="M88,4.387c0,-1.317 -1.07,-2.387 -2.387,-2.387l-81.226,0c-1.317,0 -2.387,1.07 -2.387,2.387l0,81.226c0,1.317 1.07,2.387 2.387,2.387l81.226,0c1.317,0 2.387,-1.07 2.387,-2.387l0,-81.226Z" style="fill:#fff;"/><path d="M70.459,70.318c-0.407,-6.964 -4.05,-14.821 -8.482,-19.541c-0.688,-0.739 -1.757,-0.561 -2.445,0.154c-4.636,4.948 -10.163,5.918 -14.443,5.918c-3.922,0 -10.112,-0.816 -14.697,-5.867c-0.688,-0.74 -1.758,-0.919 -2.445,-0.179c-4.407,4.719 -8.05,12.576 -8.483,19.515c-0.051,0.919 0.663,1.709 1.58,1.709l47.811,0c0.917,0 1.655,-0.79 1.604,-1.709Zm-25.37,-50.331c8.435,0 15.283,6.95 15.283,15.51c0,8.56 -6.848,15.51 -15.283,15.51c-8.435,0 -15.283,-6.95 -15.283,-15.51c0,-8.56 6.848,-15.51 15.283,-15.51Z" style="fill:#93b771;"/></g></svg>