<?xml version="1.0" encoding="UTF-8" standalone="no"?><!DOCTYPE svg PUBLIC "-//W3C//DTD SVG 1.1//EN" "http://www.w3.org/Graphics/SVG/1.1/DTD/svg11.dtd"><svg width="100%" height="100%" viewBox="0 0 70 70" version="1.1" xmlns="http://www.w3.org/2000/svg" xmlns:xlink="http://www.w3.org/1999/xlink" xml:space="preserve" xmlns:serif="http://www.serif.com/" style="fill-rule:evenodd;clip-rule:evenodd;stroke-linejoin:round;stroke-miterlimit:1.41421;"><path d="M66.143,2c1.066,0.042 1.857,0.858 1.857,1.857l0,62.286c0,1.025 -0.832,1.857 -1.857,1.857l-18.74,0l0,-23.083l7.895,0l1.181,-9.174l-9.076,0l0,-5.844c0,-2.654 0.738,-4.462 4.543,-4.462l4.854,0l0,-8.21c-2.349,-0.249 -4.709,-0.37 -7.071,-0.362c-6.999,0 -11.79,4.272 -11.79,12.117l0,6.76l-7.918,0l0,9.173l7.916,0l0,23.085l-34.08,0c-1.025,0 -1.857,-0.832 -1.857,-1.857l0,-62.286c0,-0.999 0.791,-1.815 1.857,-1.857l62.286,0Z" style="fill:#fff;"/></svg>