<?xml version="1.0" encoding="UTF-8" standalone="no"?><!DOCTYPE svg PUBLIC "-//W3C//DTD SVG 1.1//EN" "http://www.w3.org/Graphics/SVG/1.1/DTD/svg11.dtd"><svg width="100%" height="100%" viewBox="0 0 90 90" version="1.1" xmlns="http://www.w3.org/2000/svg" xmlns:xlink="http://www.w3.org/1999/xlink" xml:space="preserve" xmlns:serif="http://www.serif.com/" style="fill-rule:evenodd;clip-rule:evenodd;stroke-linejoin:round;stroke-miterlimit:1.41421;"><g><path d="M88,4.387c0,-1.317 -1.07,-2.387 -2.387,-2.387l-81.226,0c-1.317,0 -2.387,1.07 -2.387,2.387l0,81.226c0,1.317 1.07,2.387 2.387,2.387l81.226,0c1.317,0 2.387,-1.07 2.387,-2.387l0,-81.226Z" style="fill:#fff;"/><path d="M67.95,63.999l-45.9,0c-1.671,0 -3.045,-1.382 -3.045,-3.063l0,-31.88c0,-1.681 1.374,-3.064 3.045,-3.064l45.9,0c1.671,0 3.045,1.383 3.045,3.064l0,31.88c0,1.681 -1.374,3.063 -3.045,3.063Zm-12.433,-18.54l7.559,-7.531c0.426,-0.426 0.666,-1.005 0.666,-1.61c0,-0.604 -0.24,-1.184 -0.666,-1.609l-0.424,-0.419c-0.891,-0.88 -2.339,-0.88 -3.23,0l-13.799,13.753l-1.248,0l-13.799,-13.753c-0.89,-0.879 -2.336,-0.879 -3.225,0l-0.424,0.419c-0.427,0.425 -0.667,1.005 -0.667,1.609c0,0.605 0.24,1.184 0.667,1.61l7.661,7.633l-7.539,6.447c-0.506,0.43 -0.799,1.064 -0.799,1.731c0,0.542 0.194,1.067 0.545,1.478l0.386,0.452c0.82,0.946 2.262,1.06 3.22,0.255l7.861,-6.712l2.791,2.778c0.278,0.276 0.623,0.476 1,0.58c0.303,0.145 0.635,0.22 0.972,0.219l3.966,0c0.323,0.001 0.643,-0.07 0.936,-0.209c0.394,-0.098 0.754,-0.301 1.043,-0.587l2.994,-2.97l7.724,6.6c0.954,0.804 2.393,0.689 3.21,-0.255l0.317,-0.371c0.349,-0.41 0.541,-0.932 0.541,-1.472c0,-0.664 -0.291,-1.296 -0.795,-1.726l-7.444,-6.34Z" style="fill:#94b777;"/></g></svg>