<?xml version="1.0" encoding="UTF-8" standalone="no"?><!DOCTYPE svg PUBLIC "-//W3C//DTD SVG 1.1//EN" "http://www.w3.org/Graphics/SVG/1.1/DTD/svg11.dtd"><svg width="100%" height="100%" viewBox="0 0 70 70" version="1.1" xmlns="http://www.w3.org/2000/svg" xmlns:xlink="http://www.w3.org/1999/xlink" xml:space="preserve" xmlns:serif="http://www.serif.com/" style="fill-rule:evenodd;clip-rule:evenodd;stroke-linejoin:round;stroke-miterlimit:1.41421;"><g><path d="M68,3.832c0,-1.011 -0.821,-1.832 -1.832,-1.832l-62.336,0c-1.011,0 -1.832,0.821 -1.832,1.832l0,62.336c0,1.011 0.821,1.832 1.832,1.832l62.336,0c1.011,0 1.832,-0.821 1.832,-1.832l0,-62.336Z" style="fill:#fff;"/><path d="M54.802,54.692c-0.317,-5.417 -3.15,-11.528 -6.598,-15.198c-0.534,-0.576 -1.367,-0.437 -1.901,0.119c-3.606,3.849 -7.905,4.603 -11.234,4.603c-3.051,0 -7.865,-0.635 -11.431,-4.564c-0.535,-0.575 -1.367,-0.714 -1.902,-0.139c-3.427,3.671 -6.26,9.782 -6.597,15.179c-0.04,0.714 0.515,1.329 1.228,1.329l37.187,0c0.713,0 1.287,-0.615 1.248,-1.329Zm-19.733,-39.147c6.561,0 11.887,5.406 11.887,12.064c0,6.658 -5.326,12.063 -11.887,12.063c-6.56,0 -11.887,-5.405 -11.887,-12.063c0,-6.658 5.327,-12.064 11.887,-12.064Z" style="fill:#93b771;"/></g></svg>