<?xml version="1.0" encoding="UTF-8" standalone="no"?><!DOCTYPE svg PUBLIC "-//W3C//DTD SVG 1.1//EN" "http://www.w3.org/Graphics/SVG/1.1/DTD/svg11.dtd"><svg width="100%" height="100%" viewBox="0 0 90 90" version="1.1" xmlns="http://www.w3.org/2000/svg" xmlns:xlink="http://www.w3.org/1999/xlink" xml:space="preserve" xmlns:serif="http://www.serif.com/" style="fill-rule:evenodd;clip-rule:evenodd;stroke-linejoin:round;stroke-miterlimit:1.41421;"><path d="M85.613,2c1.37,0.054 2.387,1.103 2.387,2.387l0,81.226c0,1.317 -1.07,2.387 -2.387,2.387l-24.666,0l0,-30.25l10.15,0l1.519,-11.794l-11.669,0l0,-7.514c0,-3.413 0.948,-5.738 5.84,-5.738l6.241,0l0,-10.555c-3.019,-0.32 -6.054,-0.475 -9.091,-0.465c-8.998,0 -15.158,5.492 -15.158,15.578l0,8.691l-10.18,0l0,11.795l10.177,0l0,30.252l-44.389,0c-1.317,0 -2.387,-1.07 -2.387,-2.387l0,-81.226c0,-1.284 1.017,-2.333 2.387,-2.387l81.226,0Z" style="fill:#fff;"/></svg>