<svg xmlns="http://www.w3.org/2000/svg" viewBox="0 0 13 15.51"><defs><style>.cls-1{fill:#97ba78;}</style></defs><g id="Layer_2" data-name="Layer 2"><g id="noun_Book_2993109" data-name="noun Book 2993109"><path id="Path_1915" data-name="Path 1915" class="cls-1" d="M12.35 4.46H2.6c-.68 0-1.3-.62-1.3-1.65 0-1.21.62-1.69 1.3-1.65h9.75A.62.62 0 0013 .58a.62.62 0 00-.65-.58H2.6C1.25-.07.09 1.46 0 3.31v10.38a2.5 2.5 0 002.6 1.81h9.75a.61.61 0 00.65-.57V5a.62.62 0 00-.65-.54zM2.6 14.35a1.23 1.23 0 01-1.3-1.16v-7.9a3 3 0 001.3.33h9.1v8.73zM13 2.81a.62.62 0 01-.65.58H2.6a.62.62 0 01-.6-.58.62.62 0 01.65-.58h9.75a.62.62 0 01.6.58z"/></g></g></svg>