<svg xmlns="http://www.w3.org/2000/svg" viewBox="0 0 15 15"><defs><style>.cls-1{fill:#97ba78;}</style></defs><g id="Layer_2" data-name="Layer 2"><path class="cls-1" d="M7.5 0A7.5 7.5 0 1015 7.5 7.5 7.5 0 007.5 0zm-.09 12.08a1.19 1.19 0 111.19-1.19 1.19 1.19 0 01-1.19 1.19zm2.81-6.48c0 1.56-1.76 2-1.76 2.69V9H6.41V8c0-1.12 1.76-1.74 1.76-2.41a.81.81 0 00-.82-.76c-.4 0-.81.39-1.16.79a.33.33 0 01-.48 0l-.81-.73a.34.34 0 01-.05-.44A3.32 3.32 0 017.6 2.92a2.56 2.56 0 012.62 2.48z" id="Layer_1-2" data-name="Layer 1"/></g></svg>