<svg xmlns="http://www.w3.org/2000/svg" viewBox="0 0 13.04 13.05"><defs><style>.cls-1{fill:#97ba78;}</style></defs><g id="Layer_2" data-name="Layer 2"><g id="Layer_1-2" data-name="Layer 1"><path class="cls-1" d="M.16 10.39l2.67 2.66H.3a.31.31 0 01-.3-.3v-2.52z"/><path class="cls-1" d="M11 5.17l-7.13 7.09a.32.32 0 01-.46 0L.78 9.63a.32.32 0 010-.46l7.1-7.09.21.21L10.75 5z"/><path class="cls-1" d="M13 3.18l-1.34 1.29-3.09-3.08L9.86.09a.33.33 0 01.21-.09.31.31 0 01.21.09L13 2.76a.29.29 0 010 .42z"/></g></g></svg>