<svg xmlns="http://www.w3.org/2000/svg" width="184.661" height="163.606" viewBox="0 0 184.661 163.606"><path data-name="Path 2866" d="M42.455 32.859l46.347-1.91s1.749 6.32 2.987 7.68-49.334-5.77-49.334-5.77z" fill="#ffcb78"/><path data-name="Path 2867" d="M86.587 106.37l-49.508-3.819a4.854 4.854 0 0 1-4.186-5.418l4.6-59.562a4.854 4.854 0 0 1 4.967-4.712l49.509 3.82-.556 4.03a517.785 517.785 0 0 0-4.821 65.661z" fill="#fffbe7"/><path data-name="Path 2868" d="M42.556 32.831l46.246-1.907s1.749 6.321 2.987 7.68c.958 1.051-37.456-1.875-51.118-3.754-2.2-.3-1.74-.87-.877-1.319a6.547 6.547 0 0 1 2.762-.7z" fill="#ffcb78"/><g data-name="Group 2219"><path data-name="Rectangle 1543" fill="#d4cbf1" d="M26.189 45.585l45.984-4.019.692 7.92-45.984 4.02z"/><path data-name="Path 2869" d="M77.867 46.148l-7.467.653-37.155 3.247c-3.269.285-5.237-.322-5.808-.666l-.126-1.451c.5-.438 2.334-1.376 5.6-1.662l39.329-3.437-.336-3.854-39.33 3.437c-4.757.416-9.429 2.3-9.144 5.564l5.359 61.229c1.083 12.392 5.54 13.363 22.642 11.868l42.373-3.7-6.3-72.063z" fill="#927fd6"/><path data-name="Rectangle 1544" fill="#eeeaf9" d="M35.106 60.38l45.12-3.944 1.48 16.942-45.12 3.943z"/></g><g data-name="Group 2220"><path data-name="Rectangle 1545" fill="#e3f0d9" d="M70.537 25.706l45.596 7.189-1.412 8.951-45.595-7.189z"/><path data-name="Path 2870" d="M120.445 39.414l-7.4-1.168-36.837-5.807c-3.242-.512-4.989-1.682-5.451-2.209l.259-1.639c.6-.359 2.622-.934 5.865-.423l39 6.148.686-4.356-39-6.148c-4.718-.744-9.737.159-10.319 3.85l-10.91 69.2c-2.208 14.005 1.854 16.209 18.812 18.883l42.016 6.624 12.84-81.443z" fill="#93b874"/><path data-name="Rectangle 1546" fill="#cce4ba" d="M75.285 44.358l44.74 7.054-2.134 13.532-44.74-7.054z"/><path data-name="Rectangle 1547" fill="#cce4ba" d="M71.989 65.259l44.74 7.054-.686 4.346-44.74-7.054z"/></g><g data-name="Group 2221"><path data-name="Path 2871" d="M165.537 52.086c-3.354-4.317-7.832-6.849-11.52-6.33-2.9.373-4.715 2.373-5.457 5.611a2.992 2.992 0 0 1-1.865 2.093 3.407 3.407 0 0 1-2.871-.353 11.282 11.282 0 0 0-9.925-1.209 14.333 14.333 0 0 0-7.111 6.23c-6.084 9.787-5.027 25.26 6.261 31.95 10.578 6.264 25.133 1.609 32.5-10.23 8.815-14.181 2.136-24.897-.012-27.762zM142.664 84.84a3.877 3.877 0 0 1-5.179 1.226 3.591 3.591 0 0 1-1.268-5.044 3.867 3.867 0 0 1 5.178-1.237 3.675 3.675 0 0 1 1.269 5.055zm-5.4-15.842a3.233 3.233 0 0 1-.778-.58 4.06 4.06 0 0 1-1.161-2.657c0-.122.007-.234.015-.357a6.025 6.025 0 0 1 2.14-4.262c2.449-2.112 5.753-2.358 7.634-.52a3.946 3.946 0 0 1 1.146 3.014 6.016 6.016 0 0 1-2.139 4.261c-2.129 1.811-4.921 2.244-6.856 1.101zm15.728 15.441a3.879 3.879 0 0 1-5.179 1.237 3.6 3.6 0 0 1-1.269-5.054 3.851 3.851 0 0 1 5.168-1.227 3.668 3.668 0 0 1 1.281 5.044zm7.909-6.855a3.8 3.8 0 0 1-5.178 1.237 3.675 3.675 0 0 1-1.269-5.055 3.866 3.866 0 0 1 5.178-1.226 3.663 3.663 0 0 1 1.27 5.044zm3.17-8.934a3.813 3.813 0 0 1-5.179 1.237 3.6 3.6 0 0 1-1.269-5.054 3.851 3.851 0 0 1 5.169-1.225 3.658 3.658 0 0 1 1.28 5.042z" fill="#fff"/><path data-name="Path 2872" d="M164.072 68.65a3.813 3.813 0 0 1-5.179 1.237 3.6 3.6 0 0 1-1.269-5.054c1.051-1.7 4.667-3.291 6.416-2.247s1.093 4.362.032 6.064z" fill="#ffda35"/><path data-name="Path 2873" d="M160.902 77.584a3.8 3.8 0 0 1-5.178 1.237c-1.748-1.034-3.494-3.422-2.433-5.134s4.593-2.191 6.342-1.147a3.663 3.663 0 0 1 1.269 5.044z" fill="#927fd6"/><path data-name="Path 2874" d="M152.993 84.439a3.879 3.879 0 0 1-5.179 1.237 3.6 3.6 0 0 1-1.269-5.054 3.851 3.851 0 0 1 5.168-1.227 3.668 3.668 0 0 1 1.28 5.044z" fill="#92cde8"/><path data-name="Path 2875" d="M142.664 84.84a3.877 3.877 0 0 1-5.179 1.226 3.591 3.591 0 0 1-1.268-5.044 3.867 3.867 0 0 1 5.178-1.237 3.675 3.675 0 0 1 1.269 5.055z" fill="#ffda35"/><path data-name="Path 2876" d="M146.261 63.636c-.079 1.553-2.119 5.215-3.472 6.38-2.129 1.811-3.589.125-5.524-1.018a3.233 3.233 0 0 1-.778-.58 4.06 4.06 0 0 1-1.161-2.657c0-.122.007-.234.015-.357a6.025 6.025 0 0 1 2.14-4.262c2.449-2.112 5.753-2.358 7.634-.52a3.946 3.946 0 0 1 1.146 3.014z" fill="#a0c185"/><path data-name="Path 2877" d="M160.579 55.603a2.593 2.593 0 0 1-3.533.843c-1.193-.705-2.384-2.334-1.66-3.5s3.134-1.495 4.327-.783a2.5 2.5 0 0 1 .866 3.44z" fill="#bedaa9"/></g><g data-name="Group 2223" fill-rule="evenodd"><path data-name="Path 2878" d="M157.126 11.608a14.264 14.264 0 0 1 .288-2.612c.025-.09.056-.177.086-.264q.353-.943.7-1.886a5.871 5.871 0 0 1 1.906-2.259 3.882 3.882 0 0 1 1.669-1.07 2.2 2.2 0 0 1 .967-.441q.538-.105 1.081-.193a9.985 9.985 0 0 1 1.136-.2h.215l2.073.19a.869.869 0 0 1 .154.026 3.359 3.359 0 0 1 .372.114 9.306 9.306 0 0 1 6.757-3c12.914-.544 13.782 19.524.847 20.07a9.611 9.611 0 0 1-5.807-1.5 5.851 5.851 0 0 1-2.232 1.2l-2.05.364a7.724 7.724 0 0 1-3.958-.893l-1.621-1.147a7.752 7.752 0 0 1-2.138-3.337 12.385 12.385 0 0 1-.445-3.162z" fill="#a0c186" opacity=".51"/><path data-name="Path 2879" d="M151.013 29.082c5.236 1.842 8.769-3.262 10.214-9.411a26.564 26.564 0 0 1-11.705-5.41 10.561 10.561 0 0 0-2.178 3.61c-2.114 6.003.285 10.018 3.669 11.211z" fill="#dd7620"/><path data-name="Path 2880" d="M146.879 30.015l-22.623 67.512 2.177.764 2.417.849 24.433-66.478a9.407 9.407 0 0 1-3.267-.751 5.838 5.838 0 0 1-3.137-1.896z" fill="#c7590c"/><path data-name="Path 2881" d="M149.522 14.261c2.717 2.409 5.311 7.456 11.705 5.41 1.42-6.056.8-13.141-2.252-15.591-1.548 4.993-6.33 6.706-9.453 10.181z" fill="#a0c185"/><g data-name="Group 2222"><path data-name="Path 2882" d="M125.085 29.938a6.688 6.688 0 0 0 6.158 4.944c4.194.081 6.165-3.419 6.567-7.857.027-.25.044-.49.051-.748a5.353 5.353 0 0 1-3.134.15c-6.55-1.574-6.566 2.856-9.642 3.511z" fill="#dd7620"/><path data-name="Path 2883" d="M127.724 36.988l-.374 69.031 2.236.045 2.484.049 2.353-68.629a9.111 9.111 0 0 1-3.236.3 5.667 5.667 0 0 1-3.463-.796z" fill="#c7590c"/><path data-name="Path 2884" d="M125.085 29.938c3.076-.655 3.092-5.085 9.642-3.511a5.353 5.353 0 0 0 3.134-.15c.361-6.748-2.679-15.269-6.863-16.842.12 6.547-6.4 9.686-6.527 16.228a12.008 12.008 0 0 0 .614 4.275z" fill="#ffda35"/></g></g><g data-name="Group 2224"><path data-name="Path 2885" d="M16.903 122.292V98.543l89.058-15.258h15.6l42.395 24.509v22.847z" fill="#ffefa8"/><path data-name="Path 2886" d="M16.903 111.087H90.43a3.5 3.5 0 0 0 2.913-1.559l14.594-21.89v75.97H16.903z" fill="#ffc414"/><path data-name="Path 2887" d="M163.957 163.608h-56.02v-75.97l14.593 21.89a3.5 3.5 0 0 0 2.915 1.559h38.514z" fill="#ffa00a"/><path data-name="Path 2888" d="M126.317 107.794l-16.339-24.509h54.607l16.341 24.509z" fill="#ffa00a"/><path data-name="Path 2889" d="M16.345 83.285h89.62l-16.339 24.509H0z" fill="#ffc414"/></g><text data-name="Art Camp" transform="translate(39.344 145.069)" fill="#fff9dd" font-size="14" font-family="Helvetica"><tspan x="0" y="0">Art Camp</tspan></text><path data-name="Line 236" fill="none" stroke="#ffefaa" stroke-miterlimit="10" d="M37.344 148.069h56.863"/><g data-name="Group 2225"><path data-name="Path 2890" d="M24.945 122.292h3.837v1.286h-.16a.753.753 0 0 0-.355.053.207.207 0 0 0-.1.18.968.968 0 0 0 .065.287l1.013 2.873.877-2.249-.229-.624a.842.842 0 0 0-.25-.393.777.777 0 0 0-.439-.127v-1.286h3.641v1.286h-.3a.617.617 0 0 0-.341.067.222.222 0 0 0-.1.193 1.069 1.069 0 0 0 .087.347l.873 2.388.883-2.389a1.119 1.119 0 0 0 .087-.353.21.21 0 0 0-.1-.19.969.969 0 0 0-.434-.063h-.155v-1.286h3.256v1.286a1.641 1.641 0 0 0-.461.04.485.485 0 0 0-.19.127 1.784 1.784 0 0 0-.226.439l-1.951 4.758h-1.928l-1.079-2.67-1.1 2.67h-1.929l-1.907-4.758a1.469 1.469 0 0 0-.247-.419.4.4 0 0 0-.185-.147 1.928 1.928 0 0 0-.453-.04z" fill="#642d06"/><path data-name="Path 2891" d="M40.519 122.132v4.924a1.227 1.227 0 0 0 .043.433.282.282 0 0 0 .156.124 1.778 1.778 0 0 0 .5.043h.392v1.286h-4.478v-1.286h.385a1.862 1.862 0 0 0 .482-.037.278.278 0 0 0 .156-.123.775.775 0 0 0 .051-.346v-3.179h-1.074v-1.253a9.258 9.258 0 0 0 1.1-.113 8.034 8.034 0 0 0 .939-.206 4.9 4.9 0 0 0 .66-.267zm-1.174-2.972a1.338 1.338 0 0 1 .939.357 1.16 1.16 0 0 1 0 1.732 1.413 1.413 0 0 1-1.878 0 1.143 1.143 0 0 1 .011-1.726 1.336 1.336 0 0 1 .928-.363" fill="#642d06"/><path data-name="Path 2892" d="M45.766 119.16v6l1.392-1.083a2.287 2.287 0 0 0 .265-.223.163.163 0 0 0 .04-.1.149.149 0 0 0-.1-.13 1.1 1.1 0 0 0-.417-.05h-.276v-1.286h4.431v1.286a2.329 2.329 0 0 0-.652.06 4.461 4.461 0 0 0-.762.44l-1.408.945 2 2.14a1.589 1.589 0 0 0 .5.41 2.484 2.484 0 0 0 .757.083v1.286h-4.5v-1.286h.251a.884.884 0 0 0 .358-.047.137.137 0 0 0 .087-.12.894.894 0 0 0-.232-.373l-.831-.98-.909.62v.36a.911.911 0 0 0 .043.344.324.324 0 0 0 .149.143.776.776 0 0 0 .33.053h.254v1.286h-4.157v-1.286c.145 0 .256-.007.334-.007a1.638 1.638 0 0 0 .522-.05.31.31 0 0 0 .167-.17 2.422 2.422 0 0 0 .036-.579v-5.837h-1.059v-1.3a9.545 9.545 0 0 0 2.683-.553z" fill="#642d06"/><path data-name="Path 2893" d="M55.668 122.132v4.924a1.217 1.217 0 0 0 .044.433.282.282 0 0 0 .156.124 1.778 1.778 0 0 0 .5.043h.391v1.286h-4.481v-1.286h.384a1.862 1.862 0 0 0 .482-.037.278.278 0 0 0 .156-.123.775.775 0 0 0 .051-.346v-3.179h-1.073v-1.253a9.241 9.241 0 0 0 1.1-.113 7.944 7.944 0 0 0 .939-.206 4.9 4.9 0 0 0 .66-.267zm-1.175-2.972a1.339 1.339 0 0 1 .94.357 1.162 1.162 0 0 1 0 1.732 1.415 1.415 0 0 1-1.879 0 1.143 1.143 0 0 1 .011-1.726 1.337 1.337 0 0 1 .928-.363" fill="#642d06"/><path data-name="Path 2894" d="M58.615 119.647h4.939v1.286h-.455a1.256 1.256 0 0 0-.511.07.4.4 0 0 0-.195.2 1.693 1.693 0 0 0-.058.564v1.619h3.684v-1.739a1.422 1.422 0 0 0-.043-.434.36.36 0 0 0-.2-.219 1.9 1.9 0 0 0-.609-.06h-.384v-1.286h4.953v1.286h-.414a1.588 1.588 0 0 0-.558.063.362.362 0 0 0-.192.187 1.827 1.827 0 0 0-.055.583v5.041a1.631 1.631 0 0 0 .069.6.388.388 0 0 0 .211.193 2.218 2.218 0 0 0 .649.057h.29v1.286h-4.953v-1.286h.326a1.886 1.886 0 0 0 .62-.067.4.4 0 0 0 .225-.193 1.721 1.721 0 0 0 .061-.593v-1.966h-3.68v1.969a2.21 2.21 0 0 0 .044.58.378.378 0 0 0 .223.22 2.258 2.258 0 0 0 .613.053h.339v1.286h-4.939v-1.286h.336a1.77 1.77 0 0 0 .59-.067.413.413 0 0 0 .23-.186 1.379 1.379 0 0 0 .062-.527v-5.05a1.888 1.888 0 0 0-.062-.617.409.409 0 0 0-.193-.21 1.3 1.3 0 0 0-.511-.066h-.452z" fill="#fff"/><path data-name="Path 2895" d="M74.407 122.132a4.911 4.911 0 0 1 2.161.446 3.419 3.419 0 0 1 1.418 1.217 3.484 3.484 0 0 1-.606 4.334 4.286 4.286 0 0 1-2.944.973 4.354 4.354 0 0 1-2.988-.98 3.172 3.172 0 0 1-1.073-2.525 3.231 3.231 0 0 1 .489-1.8 3.472 3.472 0 0 1 1.418-1.21 4.76 4.76 0 0 1 2.125-.456m.029 1.459a1.44 1.44 0 0 0-.776.227 1.479 1.479 0 0 0-.562.666 2.722 2.722 0 0 0-.2 1.12 2.981 2.981 0 0 0 .2 1.159 1.451 1.451 0 0 0 .541.68 1.382 1.382 0 0 0 .757.22 1.436 1.436 0 0 0 1.1-.5 2.218 2.218 0 0 0 .457-1.542 2.335 2.335 0 0 0-.424-1.523 1.348 1.348 0 0 0-1.084-.51" fill="#fff"/><path data-name="Path 2896" d="M79.001 122.292h3.836v1.286h-.159a.761.761 0 0 0-.356.053.208.208 0 0 0-.1.18.969.969 0 0 0 .065.287l1.013 2.873.877-2.249-.229-.624a.842.842 0 0 0-.25-.393.777.777 0 0 0-.439-.127v-1.286h3.648v1.286h-.3a.623.623 0 0 0-.342.067.223.223 0 0 0-.094.193 1.069 1.069 0 0 0 .087.347l.873 2.388.883-2.389a1.119 1.119 0 0 0 .087-.353.21.21 0 0 0-.1-.19.972.972 0 0 0-.434-.063h-.165v-1.286h3.256v1.286a1.641 1.641 0 0 0-.461.04.485.485 0 0 0-.19.127 1.814 1.814 0 0 0-.227.439l-1.951 4.758h-1.924l-1.079-2.67-1.1 2.67H81.79l-1.907-4.758a1.469 1.469 0 0 0-.247-.419.4.4 0 0 0-.185-.147 1.928 1.928 0 0 0-.453-.04z" fill="#fff"/></g><path data-name="Path 2897" d="M32.698 137.222a.745.745 0 0 1-.642-.116.678.678 0 0 1-.256-.586 1.467 1.467 0 0 0-.788-1.6 3.072 3.072 0 0 0-2.91.621 5.575 5.575 0 0 0-1.91 6.12c.769 3.108 3.578 5.11 6.281 4.441 2.887-.715 4.176-4.058 3.54-6.624a3.249 3.249 0 0 0-1.1-1.851 2.482 2.482 0 0 0-2.215-.405zm-4.8 1.039a.86.86 0 0 1 1.028.62.849.849 0 1 1-1.648.408.86.86 0 0 1 .621-1.028zm-.554 3.21a.849.849 0 1 1 1.028.62.844.844 0 0 1-1.027-.62zm2.259 2.664a.849.849 0 1 1 .62-1.028.844.844 0 0 1-.619 1.028zm2.192.781a.849.849 0 1 1 .62-1.028.843.843 0 0 1-.619 1.028zm1.88-4.413a.92.92 0 0 1-.454.587.657.657 0 0 1-.206.076 1.346 1.346 0 0 1-1.4-.7 1.405 1.405 0 0 1-.17-1.086.925.925 0 0 1 .455-.587 1.259 1.259 0 0 1 1.6.627 1.405 1.405 0 0 1 .176 1.088z" fill="#ffefaa"/></svg>