<svg xmlns="http://www.w3.org/2000/svg" width="184.661" height="163.606" viewBox="0 0 184.661 163.606"><path data-name="Path 2838" d="M42.455 32.859l46.347-1.911s1.749 6.321 2.987 7.68-49.334-5.769-49.334-5.769z" fill="#ffcb78"/><path data-name="Path 2839" d="M86.587 106.369l-49.508-3.819a4.853 4.853 0 0 1-4.186-5.418l4.6-59.562a4.853 4.853 0 0 1 4.967-4.711l49.509 3.819-.556 4.031a517.768 517.768 0 0 0-4.821 65.66z" fill="#fffbe7"/><path data-name="Path 2840" d="M42.556 32.839l46.246-1.906s1.749 6.32 2.987 7.679c.958 1.051-37.456-1.875-51.118-3.753-2.2-.3-1.74-.871-.877-1.32a6.547 6.547 0 0 1 2.762-.7z" fill="#ffcb78"/><g data-name="Group 2212"><path data-name="Rectangle 1536" fill="#d4cbf1" d="M26.189 45.584l45.984-4.019.692 7.92-45.984 4.02z"/><path data-name="Path 2841" d="M77.867 46.148L70.4 46.8l-37.155 3.247c-3.269.286-5.237-.321-5.808-.666l-.126-1.45c.5-.439 2.334-1.377 5.6-1.663l39.329-3.437-.336-3.854-39.33 3.437c-4.757.416-9.429 2.3-9.144 5.564l5.351 61.225c1.083 12.393 5.54 13.363 22.642 11.869l42.373-3.7-6.3-72.064z" fill="#927fd6"/><path data-name="Rectangle 1537" fill="#eeeaf9" d="M35.106 60.38l45.12-3.944 1.48 16.942-45.12 3.943z"/></g><g data-name="Group 2213"><path data-name="Rectangle 1538" fill="#e3f0d9" d="M70.537 25.705l45.596 7.189-1.412 8.951-45.595-7.189z"/><path data-name="Path 2842" d="M120.445 39.413l-7.4-1.167-36.837-5.808c-3.242-.511-4.989-1.682-5.451-2.208l.259-1.64c.6-.358 2.622-.934 5.865-.423l39 6.149.686-4.356-39-6.149c-4.718-.743-9.737.159-10.319 3.851l-10.91 69.194c-2.208 14.006 1.854 16.21 18.812 18.883l42.016 6.625 12.84-81.444z" fill="#93b874"/><path data-name="Rectangle 1539" fill="#cce4ba" d="M75.285 44.357l44.74 7.054-2.134 13.532-44.74-7.054z"/><path data-name="Rectangle 1540" fill="#cce4ba" d="M71.989 65.259l44.74 7.054-.686 4.346-44.74-7.054z"/></g><g data-name="Group 2215" fill-rule="evenodd"><path data-name="Path 2843" d="M157.126 11.605a14.282 14.282 0 0 1 .288-2.612c.025-.089.056-.176.086-.264q.353-.942.7-1.885a5.874 5.874 0 0 1 1.906-2.26 3.881 3.881 0 0 1 1.669-1.069 2.176 2.176 0 0 1 .967-.441q.538-.106 1.081-.193a10.21 10.21 0 0 1 1.136-.2h.215l2.073.19a.865.865 0 0 1 .154.025 3.353 3.353 0 0 1 .372.114 9.309 9.309 0 0 1 6.757-3c12.914-.545 13.782 19.523.847 20.069a9.6 9.6 0 0 1-5.807-1.5 5.852 5.852 0 0 1-2.232 1.195l-2.05.364a7.724 7.724 0 0 1-3.958-.893l-1.621-1.146a7.755 7.755 0 0 1-2.138-3.338 12.379 12.379 0 0 1-.445-3.156z" fill="#a0c186" opacity=".51"/><path data-name="Path 2844" d="M151.013 29.085c5.236 1.842 8.769-3.263 10.214-9.412a26.564 26.564 0 0 1-11.705-5.41 10.566 10.566 0 0 0-2.178 3.611c-2.114 5.999.285 10.011 3.669 11.211z" fill="#dd7620"/><path data-name="Path 2845" d="M146.879 30.015l-22.623 67.511 2.177.764 2.417.85 24.433-66.479a9.4 9.4 0 0 1-3.267-.75 5.85 5.85 0 0 1-3.137-1.896z" fill="#c7590c"/><path data-name="Path 2846" d="M149.522 14.26c2.717 2.409 5.311 7.456 11.705 5.41 1.42-6.056.8-13.14-2.252-15.59-1.548 4.993-6.33 6.705-9.453 10.18z" fill="#a0c185"/><g data-name="Group 2214"><path data-name="Path 2847" d="M125.085 29.938a6.69 6.69 0 0 0 6.16 4.947c4.194.081 6.165-3.42 6.567-7.858.027-.249.044-.49.051-.748a5.344 5.344 0 0 1-3.134.151c-6.552-1.578-6.568 2.855-9.644 3.508z" fill="#dd7620"/><path data-name="Path 2848" d="M127.724 36.985l-.374 69.031 2.236.044 2.484.049 2.353-68.628a9.11 9.11 0 0 1-3.236.3 5.667 5.667 0 0 1-3.463-.796z" fill="#c7590c"/><path data-name="Path 2849" d="M125.085 29.938c3.076-.655 3.092-5.086 9.642-3.511a5.344 5.344 0 0 0 3.134-.151c.361-6.748-2.679-15.268-6.863-16.842.12 6.547-6.4 9.686-6.527 16.228a12.018 12.018 0 0 0 .614 4.276z" fill="#ffda35"/></g></g><g data-name="Group 2216" transform="translate(-53.555 -675.415)"><rect data-name="Rectangle 1541" width="17.397" height="12.178" rx="1.74" transform="rotate(-9.785 4483.49 -749.526)" fill="#eeeaf9"/><path data-name="Path 2850" d="M205.693 734.816c.233 1.354-.191 2.557-.949 2.688l-10.972 1.896c-.757.131-1.561-.861-1.794-2.215-.234-1.354.191-2.558.949-2.688L203.9 732.6c.756-.13 1.559.862 1.793 2.216z" fill="#8772d2" fill-rule="evenodd"/><path data-name="Path 2851" d="M200.526 732.852l-4.337.748.364-8.89.652-.112z" fill="#c7bced" fill-rule="evenodd"/><path data-name="Path 2852" d="M208 740.047a14.353 14.353 0 0 0-2.97-1.561c-.367-.136-.675-.23-.9-.3l-9.549 1.647c-.188.137-.447.328-.748.58a14.392 14.392 0 0 0-2.276 2.465 12.767 12.767 0 0 0-2.168 9.994L192 768.038a5.177 5.177 0 0 0 6.006 4.169l13.732-2.368A5.171 5.171 0 0 0 216 763.9l-2.614-15.162a12.766 12.766 0 0 0-5.386-8.691zm3.561 18.547a1.729 1.729 0 0 1-1.424 1.98l-13.715 2.365a1.729 1.729 0 0 1-2.005-1.389l-1.452-8.423a1.723 1.723 0 0 1 1.423-1.98l13.715-2.365a1.724 1.724 0 0 1 2.005 1.389z" fill="#b0a1e5" fill-rule="evenodd"/><path data-name="Rectangle 1542" fill="#b0a1e5" d="M196.628 753.912l10.286-1.774.887 5.143-10.286 1.774z"/></g><g data-name="Group 2217"><path data-name="Path 2853" d="M16.903 122.291V98.542l89.058-15.257h15.6l42.395 24.509v22.847z" fill="#ffefa8"/><path data-name="Path 2854" d="M16.903 111.085H90.43a3.5 3.5 0 0 0 2.913-1.559l14.594-21.89v75.969H16.903z" fill="#ffc414"/><path data-name="Path 2855" d="M163.957 163.606h-56.02V87.637l14.593 21.89a3.5 3.5 0 0 0 2.915 1.558h38.514z" fill="#ffa00a"/><path data-name="Path 2856" d="M126.317 107.794l-16.339-24.509h54.607l16.341 24.509z" fill="#ffa00a"/><path data-name="Path 2857" d="M16.345 83.285h89.62l-16.339 24.509H0z" fill="#ffc414"/></g><text data-name="Craft Camp" transform="translate(36.344 145.069)" fill="#fff9dd" font-size="13" font-family="Helvetica" letter-spacing="-.01em"><tspan x="0" y="0">Craft Camp</tspan></text><path data-name="Line 235" fill="none" stroke="#ffefaa" stroke-miterlimit="10" d="M37.344 148.069h56.863"/><g data-name="Group 2218"><path data-name="Path 2858" d="M24.945 122.291h3.837v1.286h-.16a.737.737 0 0 0-.355.054.2.2 0 0 0-.1.18.964.964 0 0 0 .065.286l1.013 2.873.877-2.249-.229-.624a.852.852 0 0 0-.25-.393.784.784 0 0 0-.439-.127v-1.286h3.641v1.286h-.3a.626.626 0 0 0-.341.067.223.223 0 0 0-.1.193 1.069 1.069 0 0 0 .087.347l.873 2.388.883-2.388a1.125 1.125 0 0 0 .087-.353.208.208 0 0 0-.1-.19.964.964 0 0 0-.434-.064h-.155v-1.286h3.256v1.286a1.683 1.683 0 0 0-.461.04.487.487 0 0 0-.19.127 1.777 1.777 0 0 0-.226.44l-1.951 4.757h-1.928l-1.079-2.67-1.1 2.67h-1.929l-1.907-4.756a1.46 1.46 0 0 0-.247-.42.413.413 0 0 0-.185-.147 1.991 1.991 0 0 0-.453-.04z" fill="#642d06"/><path data-name="Path 2859" d="M40.519 122.131v4.925a1.235 1.235 0 0 0 .043.433.285.285 0 0 0 .156.123 1.775 1.775 0 0 0 .5.043h.392v1.286h-4.478v-1.286h.385a1.93 1.93 0 0 0 .482-.036.286.286 0 0 0 .156-.123.78.78 0 0 0 .051-.347v-3.178h-1.074v-1.253a9.463 9.463 0 0 0 1.1-.114 8.021 8.021 0 0 0 .939-.206 4.643 4.643 0 0 0 .66-.267zm-1.174-2.971a1.342 1.342 0 0 1 .939.356 1.162 1.162 0 0 1 0 1.733 1.416 1.416 0 0 1-1.878 0 1.143 1.143 0 0 1 .011-1.726 1.336 1.336 0 0 1 .928-.363" fill="#642d06"/><path data-name="Path 2860" d="M45.766 119.16v6l1.392-1.084a2.184 2.184 0 0 0 .265-.223.159.159 0 0 0 .04-.1.15.15 0 0 0-.1-.13 1.1 1.1 0 0 0-.417-.05h-.276v-1.286h4.431v1.286a2.332 2.332 0 0 0-.652.06 4.533 4.533 0 0 0-.762.44l-1.408.945 2 2.14a1.574 1.574 0 0 0 .5.41 2.484 2.484 0 0 0 .757.083v1.286h-4.5v-1.282h.251a.889.889 0 0 0 .358-.046.137.137 0 0 0 .087-.12.888.888 0 0 0-.232-.373l-.831-.981-.909.621v.36a.9.9 0 0 0 .043.343.315.315 0 0 0 .149.143.762.762 0 0 0 .33.053h.254v1.286h-4.157v-1.286c.145 0 .256-.006.334-.006a1.668 1.668 0 0 0 .522-.05.313.313 0 0 0 .167-.17 2.439 2.439 0 0 0 .036-.58v-5.837h-1.059v-1.3a9.582 9.582 0 0 0 2.683-.553z" fill="#642d06"/><path data-name="Path 2861" d="M55.668 122.131v4.925a1.225 1.225 0 0 0 .044.433.285.285 0 0 0 .156.123 1.775 1.775 0 0 0 .5.043h.391v1.286h-4.481v-1.286h.384a1.93 1.93 0 0 0 .482-.036.286.286 0 0 0 .156-.123.781.781 0 0 0 .051-.347v-3.178h-1.073v-1.253a9.446 9.446 0 0 0 1.1-.114 7.931 7.931 0 0 0 .939-.206 4.642 4.642 0 0 0 .66-.267zm-1.175-2.971a1.342 1.342 0 0 1 .94.356 1.164 1.164 0 0 1 0 1.733 1.418 1.418 0 0 1-1.879 0 1.143 1.143 0 0 1 .011-1.726 1.337 1.337 0 0 1 .928-.363" fill="#642d06"/><path data-name="Path 2862" d="M58.615 119.646h4.939v1.286h-.455a1.256 1.256 0 0 0-.511.07.4.4 0 0 0-.195.2 1.681 1.681 0 0 0-.058.563v1.62h3.684v-1.74a1.418 1.418 0 0 0-.043-.433.359.359 0 0 0-.2-.22 1.9 1.9 0 0 0-.609-.06h-.384v-1.286h4.953v1.286h-.414a1.588 1.588 0 0 0-.558.063.37.37 0 0 0-.192.187 1.828 1.828 0 0 0-.055.583v5.037a1.624 1.624 0 0 0 .069.6.389.389 0 0 0 .211.194 2.228 2.228 0 0 0 .649.056h.29v1.286h-4.953v-1.283h.326a1.923 1.923 0 0 0 .62-.066.409.409 0 0 0 .225-.193 1.728 1.728 0 0 0 .061-.594v-1.965h-3.68v1.965a2.2 2.2 0 0 0 .044.58.375.375 0 0 0 .223.22 2.22 2.22 0 0 0 .613.053h.339v1.286h-4.939v-1.286h.336a1.806 1.806 0 0 0 .59-.066.418.418 0 0 0 .23-.187 1.373 1.373 0 0 0 .062-.526v-5.051a1.88 1.88 0 0 0-.062-.616.4.4 0 0 0-.193-.21 1.28 1.28 0 0 0-.511-.067h-.452z" fill="#fff"/><path data-name="Path 2863" d="M74.407 122.131a4.9 4.9 0 0 1 2.161.447 3.416 3.416 0 0 1 1.418 1.216 3.251 3.251 0 0 1 .5 1.8 3.216 3.216 0 0 1-1.1 2.532 4.286 4.286 0 0 1-2.944.973 4.353 4.353 0 0 1-2.988-.979 3.174 3.174 0 0 1-1.073-2.526 3.231 3.231 0 0 1 .489-1.8 3.463 3.463 0 0 1 1.412-1.209 4.759 4.759 0 0 1 2.125-.457m.029 1.46a1.438 1.438 0 0 0-.776.226 1.476 1.476 0 0 0-.562.667 2.717 2.717 0 0 0-.2 1.119 2.986 2.986 0 0 0 .2 1.16 1.447 1.447 0 0 0 .541.679 1.374 1.374 0 0 0 .757.22 1.435 1.435 0 0 0 1.1-.5 2.22 2.22 0 0 0 .457-1.543 2.336 2.336 0 0 0-.424-1.523 1.35 1.35 0 0 0-1.084-.509" fill="#fff"/><path data-name="Path 2864" d="M79.001 122.291h3.836v1.286h-.159a.744.744 0 0 0-.356.054.206.206 0 0 0-.1.18.964.964 0 0 0 .065.286l1.013 2.873.877-2.249-.229-.624a.852.852 0 0 0-.25-.393.784.784 0 0 0-.439-.127v-1.286h3.648v1.286h-.3a.632.632 0 0 0-.342.067.224.224 0 0 0-.094.193 1.069 1.069 0 0 0 .087.347l.873 2.388.883-2.388a1.125 1.125 0 0 0 .087-.353.208.208 0 0 0-.1-.19.967.967 0 0 0-.434-.064h-.165v-1.286h3.256v1.286a1.684 1.684 0 0 0-.461.04.487.487 0 0 0-.19.127 1.807 1.807 0 0 0-.227.44l-1.951 4.757h-1.924l-1.079-2.67-1.1 2.67H81.79l-1.907-4.757a1.46 1.46 0 0 0-.247-.42.413.413 0 0 0-.185-.147 1.991 1.991 0 0 0-.453-.04z" fill="#fff"/></g><path data-name="Path 2865" d="M32.045 142.408a1.831 1.831 0 1 0 1.83 1.83 1.83 1.83 0 0 0-1.83-1.83zm0 2.44a.61.61 0 1 1 .61-.61.61.61 0 0 1-.61.61zm-4.271-2.44a1.831 1.831 0 1 0 1.831 1.83 1.83 1.83 0 0 0-1.83-1.83zm0 2.44a.61.61 0 1 1 .61-.61.61.61 0 0 1-.609.61zm2.441-2.44v-6.1a6.451 6.451 0 0 1 1.717 3.319 2.372 2.372 0 0 1-1.663 2.768zm-.665-.014a2.373 2.373 0 0 1-1.663-2.768 6.446 6.446 0 0 1 1.718-3.319v6.1z" fill="#ffefaa"/></svg>