<svg xmlns="http://www.w3.org/2000/svg" width="233.156" height="124.749" viewBox="0 0 233.156 124.749"><g data-name="Group 2244"><g data-name="Group 2048" transform="translate(46.005 60.958)"><path data-name="Path 2185" d="M44.161 28.287c-.432-.636-.841-1.239-1.227-1.83 5.637-2.375 7.83-11.5 2.455-22.4-1.852-3.3 2.239-3.887 3.762-1.614 1.329 1.978 7.182 21.867-4.99 25.844z" fill="#6d8b55"/><path data-name="Path 2186" d="M3.381 51.589c-.486-1.167-1.333-8.042.294-13.8a13.47 13.47 0 0 0 1.976 2.868 30.755 30.755 0 0 0 1.241 10.174c1.085 3.24-2.555 3.038-3.511.758z" fill="#6d8b55"/><path data-name="Path 2187" d="M34.104 44.256c-7.444.239-17.024 1.409-21.923.318a12.7 12.7 0 0 1-6.535-3.921 13.048 13.048 0 0 1-1.966-2.864 13.78 13.78 0 0 1-.58-10.956c1.875-5.512 7.478-11.058 9.524-18.57C14.863.126 24.796-3.5 31.365 4.399c3.534 4.262 3.455 9.671 11.569 22.059.386.591.8 1.193 1.227 1.83.08.114.17.239.25.364 4.786 6.944.637 15.24-10.307 15.604z" fill="#93b875" opacity=".6"/><path data-name="Path 2188" d="M2.571 13.011a12.955 12.955 0 0 1 2.841-3.157 54.565 54.565 0 0 1 11.849-6.272 58.345 58.345 0 0 1 7.82-2.556 11.258 11.258 0 0 1 10.59 2.383 13.313 13.313 0 0 1 3.874 7.8 81.433 81.433 0 0 1 .934 17.227 48.09 48.09 0 0 1-1.269 9.227c-1.376 5.236-4.987 7.925-8.867 8.321a9.86 9.86 0 0 1-1.466.042 10.4 10.4 0 0 1-2.3-.363 11.377 11.377 0 0 1-5.662-3.65A52.85 52.85 0 0 0 8.168 31.537a233.224 233.224 0 0 0-3.464-2.106c-6.455-3.866-5.349-11.514-2.133-16.42z" fill="#93b875" opacity=".6"/><path d="M2.571 13.01C3.01 6.499 7.649 1.335 14.007 2.59a22.235 22.235 0 0 1 3.254.991c2.981 1.054 6.548 2.081 17.165-.076a5.172 5.172 0 0 1 1.242-.1c6.3.259 13.1 11.525 8.926 19.361a32.649 32.649 0 0 1-4.117 5.667c-2.855 3.342-6.113 6.8-8.057 11.333a12.607 12.607 0 0 1-5.851 5.895 14.655 14.655 0 0 1-5.286 1.607c-.418.039-.834.058-1.246.057-3.515-.034-6.655-1.73-7.774-5.8a57.434 57.434 0 0 0-4.1-9.987c-2.12-4.358-4.325-8.885-5.377-14.762a15.526 15.526 0 0 1-.215-3.766z" fill="#93b875" opacity=".6"/><path data-name="top" d="M2.571 13.01C3.01 6.499 7.649 1.335 14.007 2.59a22.235 22.235 0 0 1 3.254.991c2.981 1.054 6.548 2.081 17.165-.076a5.172 5.172 0 0 1 1.242-.1c6.3.259 13.1 11.525 8.926 19.361a32.649 32.649 0 0 1-4.117 5.667c-2.855 3.342-6.113 6.8-8.057 11.333a12.607 12.607 0 0 1-5.851 5.895 14.655 14.655 0 0 1-5.286 1.607c-.418.039-.834.058-1.246.057-3.515-.034-6.655-1.73-7.774-5.8a57.434 57.434 0 0 0-4.1-9.987c-2.12-4.358-4.325-8.885-5.377-14.762a15.526 15.526 0 0 1-.215-3.766z" fill="#93b875" opacity=".6"/><path data-name="Path 2189" d="M27.13 25.534a2.726 2.726 0 0 1-4.665.61l-.275-.293" fill="none" stroke="#63804c" stroke-linecap="round" stroke-linejoin="round" stroke-width=".866"/><g data-name="Group 2046" transform="translate(27.429 12.824)"><circle data-name="Ellipse 450" cx="3.921" cy="3.921" r="3.921" fill="#fff"/><circle data-name="Ellipse 451" cx="1.882" cy="1.882" r="1.882" transform="translate(1.606 .689)" fill="#444f45"/></g><g data-name="Group 2047" transform="translate(12.65 14.744)"><circle data-name="Ellipse 452" cx="3.921" cy="3.921" r="3.921" fill="#fff"/><circle data-name="Ellipse 453" cx="1.882" cy="1.882" r="1.882" transform="translate(1.64 .692)" fill="#444f45"/></g><ellipse data-name="Ellipse 454" cx="2.267" cy="3.549" rx="2.267" ry="3.549" transform="rotate(-87.534 29.622 -7.172)" fill="#bed4ac" opacity=".95" style="mix-blend-mode:multiply;isolation:isolate"/><ellipse data-name="Ellipse 455" cx="3.543" cy="2.271" rx="3.543" ry="2.271" transform="rotate(-11.899 102.752 -12.945)" fill="#bed4ac" opacity=".95" style="mix-blend-mode:multiply;isolation:isolate"/><path data-name="Path 2190" d="M18.486 59.839c.107-.682.2-9.224.3-12.592l.142.023a5.12 5.12 0 0 0 .808.043c.117.014.236.022.356.03.086 4.133.3 14.736.026 14.933-.5.364-6.469 2.134-6.375 1.29.282-2.52 4.594-2.766 4.743-3.727z" fill="#6d8b55"/><path data-name="Path 2191" d="M30.694 45.933c.44 3.079 1.473 13.132 1.674 13.862.258.938 4.433.981 4.645 3.507.07.846-2.841-.513-5.963-.706-.366-.023-1.323-12.908-1.668-16.595a3.948 3.948 0 0 0 1.312-.068z" fill="#6d8b55"/><g data-name="Glasses old" stroke="#63804c" stroke-width="1.09"><path data-name="Path 2192" d="M24.797 15.838a7.154 7.154 0 0 0 5.629 8.407c3.877.767 7.48-.946 8.247-4.822s-1.593-8.446-5.469-9.213c-6.028-1.194-7.64 1.752-8.407 5.628z" fill="rgba(255,255,255,0.33)" stroke-miterlimit="10"/><path data-name="Path 2193" d="M21.984 15.346a7.156 7.156 0 0 1-3.194 9.6c-3.533 1.77-7.463 1.075-9.233-2.458s-.708-8.567 2.825-10.336c5.495-2.755 7.833-.339 9.602 3.194z" fill="rgba(255,255,255,0.33)" stroke-miterlimit="10"/><path data-name="Path 2194" d="M24.937 14.278l-.534-.058a4.253 4.253 0 0 0-2.188.347l-.516.231" fill="none" stroke-linecap="round" stroke-linejoin="round"/></g></g><g data-name="Group 2049" opacity=".77"><path data-name="Path 2195" d="M7.43 10.16L14.482 0l15.136 3.756-7.053 10.162z" fill="#a7d6e9"/><path data-name="Path 2196" d="M38.392 17.606l-14.8-3.452 7.047-10.156" fill="#3ea2c1"/><path data-name="Path 2197" d="M7.051 10.704l-7.052 10.16 15.136 3.756 7.052-10.16z" fill="#a7d6e9"/><path data-name="Path 2198" d="M38.013 18.15l-14.8-3.452-7.052 10.16" fill="#3ea2c1"/></g><path data-name="Path 2199" d="M119.632 67.412c10.9 5.384 30.367 15.039 26.044 3.961-3.486-8.933-27.777-2.648-11.582 12.88s57.315-5.528 57.315-5.528" fill="none" stroke="#ffa00a" stroke-miterlimit="10" stroke-width="1.1" stroke-dasharray="1.466 2.199"/><path data-name="Path 2200" d="M42.7 19.377s16.641 4.782 25.1 16.113q1.5 2 2.911 3.8" fill="none" stroke="#ffa00a" stroke-miterlimit="10" stroke-width="1.1" stroke-dasharray="1.466 2.199"/><g data-name="Group 2050"><path data-name="Path 2201" d="M88.775 68.358l-.059-8.516 28.372 7.178z" fill="#5ab1d0"/><path data-name="Path 2202" d="M115.627 44.514l-11.007 1.205 13.435 20.445z" fill="#3ea2c1"/><path data-name="Path 2203" d="M115.776 66.153L75.111 39.287 88.949 59.31z" fill="#a7d6e9"/><path data-name="Path 2204" d="M116.59 65.428L75.927 38.562l27.89 7.545z" fill="#a7d6e9"/></g><g data-name="Group 2051"><path data-name="Path 2205" d="M227.113 43.772l-5.127-1.056-2.55 2.158a1.059 1.059 0 0 0-.37.7l-1.617 15.32-14.573-1.328.087-.459 22.873-35.645a.6.6 0 0 1 1.111.322z" fill="#3ea2c1"/><path data-name="Path 2206" d="M233.156 46.164l-.3.022-11.994-.963a.213.213 0 0 1-.12-.361l1.225-1.227a.189.189 0 0 1 .169-.053l10.46 1.925z" fill="#3ea2c1"/><path data-name="Path 2207" d="M226.646 53.201l-.733 1.134-2.136-7.746h3.533z" fill="#3ea2c1"/><path data-name="Path 2208" d="M229.899 70.279l-1.912-.217-6.425-23.751 1.827.165v.342l-.391.107z" fill="#3ea2c1"/><path data-name="Path 2209" d="M228.015 73.186l-6.294-.518-.367-5.255z" fill="#3ea2c1"/><path data-name="Path 2210" d="M221.353 66.11l-3.342-1.211 1.984-18.7.919.078 7.073 25.588z" fill="#91cce3"/><path data-name="Path 2211" d="M217.355 61.86l-.293 2.795-13.913-4.082z" fill="#3ea2c1"/><path data-name="Path 2212" d="M221.009 76.538l-22.773 40.33a.6.6 0 0 1-1.13-.257l-2.345-35.157 4.237-9.075 21.318-5.79z" fill="#5ab1d0"/><path data-name="Path 2213" d="M218.448 66.023l-19.174 5.346 3.078-9.323z" fill="#a1d4eb"/><path data-name="Path 2214" d="M198.348 72.354l-1.613 2.841-31.168-12.082a.405.405 0 0 1 .189-.781l34.612 3.65z" fill="#3ea2c1"/></g></g></svg>