<svg xmlns="http://www.w3.org/2000/svg" width="180.925" height="160.174" viewBox="0 0 180.925 160.174"><path data-name="Path 2807" d="M86.587 102.937l-49.508-3.819a4.853 4.853 0 0 1-4.186-5.418l4.6-59.562a4.853 4.853 0 0 1 4.967-4.711l49.509 3.819-.556 4.031a517.769 517.769 0 0 0-4.821 65.66z" fill="#fffbe7"/><path data-name="Path 2808" d="M42.556 29.418l46.246-1.907s1.749 6.321 2.987 7.68c.958 1.051-37.456-1.875-51.118-3.754-2.2-.3-1.74-.87-.877-1.319a6.546 6.546 0 0 1 2.762-.7z" fill="#ffcb78"/><g data-name="Group 2204"><path data-name="Rectangle 1529" fill="#c3e3f2" d="M26.189 42.152l45.984-4.019.692 7.92-45.984 4.02z"/><path data-name="Path 2809" d="M77.867 42.718l-7.467.652-37.155 3.248c-3.269.286-5.237-.321-5.808-.666l-.126-1.45c.5-.439 2.334-1.377 5.6-1.663l39.329-3.437-.336-3.854-39.33 3.437c-4.757.416-9.429 2.3-9.144 5.564l5.351 61.225c1.083 12.393 5.54 13.363 22.642 11.869l42.373-3.7-6.3-72.064z" fill="#92cde8"/><path data-name="Rectangle 1530" fill="#e7f4fa" d="M35.106 56.948l45.12-3.944 1.48 16.942-45.12 3.943z"/></g><g data-name="Group 2205"><path data-name="Rectangle 1531" fill="#e3f0d9" d="M70.537 22.273l45.596 7.189-1.412 8.951-45.595-7.189z"/><path data-name="Path 2810" d="M120.445 35.981l-7.4-1.167-36.837-5.808c-3.242-.511-4.989-1.682-5.451-2.208l.259-1.64c.6-.358 2.622-.934 5.865-.423l39 6.149.686-4.356-39-6.149c-4.718-.743-9.737.159-10.319 3.851l-10.91 69.194c-2.208 14.006 1.854 16.21 18.812 18.883l42.016 6.625 12.84-81.444z" fill="#93b874"/><path data-name="Rectangle 1532" fill="#cce4ba" d="M75.285 40.925l44.74 7.054-2.134 13.532-44.74-7.054z"/></g><g data-name="Group 2206"><path data-name="Rectangle 1533" fill="#e3f0d9" d="M70.537 22.273l45.596 7.189-1.412 8.951-45.595-7.189z"/><path data-name="Path 2811" d="M120.445 35.981l-7.4-1.167-36.837-5.808c-3.242-.511-4.989-1.682-5.451-2.208l.259-1.64c.6-.358 2.622-.934 5.865-.423l39 6.149.686-4.356-39-6.149c-4.718-.743-9.737.159-10.319 3.851l-10.91 69.194c-2.208 14.006 1.854 16.21 18.812 18.883l42.016 6.625 12.84-81.444z" fill="#93b874"/><path data-name="Rectangle 1534" fill="#cce4ba" d="M75.285 40.925l44.74 7.054-2.134 13.532-44.74-7.054z"/><path data-name="Rectangle 1535" fill="#cce4ba" d="M71.989 61.827l44.74 7.054-.686 4.346-44.74-7.054z"/></g><path data-name="Path 2812" d="M167.895 48.388a17.522 17.522 0 0 0-24.5 2.84 17.2 17.2 0 0 0 .64 22.32l-8.67 10.78a3.075 3.075 0 1 0 4.82 3.82l8.67-10.78a17.2 17.2 0 0 0 21.88-4.48 17.523 17.523 0 0 0-2.84-24.5zm.16 22.38a14.02 14.02 0 1 1-2.29-19.7 14.023 14.023 0 0 1 2.29 19.7z" fill="#93b874"/><path data-name="Path 2813" d="M168.055 70.768a14.02 14.02 0 1 1-2.29-19.7 14.023 14.023 0 0 1 2.29 19.7z" fill="#daebcd"/><path data-name="Path 2018" d="M156.465 58.939a.486.486 0 0 0-.271.485.475.475 0 1 0 .569-.519l-.055-.472a2.622 2.622 0 0 0 .955-.379l.279.379a.451.451 0 0 0-.08.319.475.475 0 1 0 .417-.526.307.307 0 0 0-.09.019l-.27-.372a2.558 2.558 0 0 0 .644-.813l.433.186a.317.317 0 0 0 0 .092.48.48 0 0 0 .526.417.467.467 0 0 0 .41-.516.48.48 0 0 0-.527-.417.458.458 0 0 0-.293.151l-.432-.185a2.642 2.642 0 0 0 .15-1.016l.472-.055a.486.486 0 0 0 .485.271.475.475 0 1 0-.519-.569l-.472.055a2.617 2.617 0 0 0-.379-.954l.378-.279a.455.455 0 0 0 .32.08.475.475 0 1 0-.526-.417.308.308 0 0 0 .019.09l-.379.279a2.558 2.558 0 0 0-.813-.644l.185-.433a.355.355 0 0 0 .092 0 .479.479 0 1 0-.52-.435v.008a.453.453 0 0 0 .151.293l-.185.433a2.662 2.662 0 0 0-1.016-.151l-.055-.472a.485.485 0 0 0 .271-.484.475.475 0 1 0-.569.519l.055.472a2.61 2.61 0 0 0-.954.379l-.28-.379a.461.461 0 0 0 .081-.32.475.475 0 1 0-.417.527.353.353 0 0 0 .09-.019l.279.379a2.558 2.558 0 0 0-.644.813l-.432-.185a.354.354 0 0 0 0-.092.475.475 0 1 0-.417.526.456.456 0 0 0 .293-.151l.433.185a2.662 2.662 0 0 0-.151 1.016l-.472.055a.487.487 0 0 0-.484-.272.475.475 0 1 0 .519.569l.472-.054a2.6 2.6 0 0 0 .379.954l-.379.28a.456.456 0 0 0-.32-.081.475.475 0 1 0 .527.417.352.352 0 0 0-.019-.09l.371-.269a2.583 2.583 0 0 0 .813.644l-.185.432a.352.352 0 0 0-.092 0 .475.475 0 1 0 .526.417.453.453 0 0 0-.151-.292l.185-.433a2.662 2.662 0 0 0 1.016.151l.053.455z" fill="#445045" opacity=".79"/><path data-name="Path 2018" d="M165.599 63.635a.319.319 0 0 0-.177.317.311.311 0 1 0 .372-.34l-.036-.308a1.706 1.706 0 0 0 .625-.249l.182.248a.306.306 0 0 0-.052.21.311.311 0 1 0 .273-.345.239.239 0 0 0-.059.012l-.177-.243a1.655 1.655 0 0 0 .422-.532l.283.122a.241.241 0 0 0 0 .06.315.315 0 0 0 .345.273.306.306 0 0 0 .268-.338.315.315 0 0 0-.345-.273.3.3 0 0 0-.191.1l-.284-.121a1.73 1.73 0 0 0 .1-.665l.309-.036a.319.319 0 0 0 .317.178.311.311 0 1 0-.34-.373l-.309.036a1.689 1.689 0 0 0-.248-.624l.248-.183a.3.3 0 0 0 .209.053.311.311 0 1 0-.344-.273.194.194 0 0 0 .012.059l-.248.183a1.669 1.669 0 0 0-.532-.422l.122-.283a.242.242 0 0 0 .06 0 .314.314 0 1 0-.341-.285v.006a.3.3 0 0 0 .1.191l-.121.283a1.747 1.747 0 0 0-.665-.1l-.036-.309a.319.319 0 0 0 .178-.317.311.311 0 1 0-.373.34l.036.308a1.717 1.717 0 0 0-.624.248l-.183-.247a.3.3 0 0 0 .052-.21.311.311 0 1 0-.272.345.232.232 0 0 0 .058-.012l.183.247a1.688 1.688 0 0 0-.421.532l-.283-.121a.242.242 0 0 0 0-.06.311.311 0 1 0-.273.345.3.3 0 0 0 .191-.1l.283.121a1.745 1.745 0 0 0-.1.664l-.309.036a.319.319 0 0 0-.317-.177.311.311 0 1 0 .34.372l.308-.036a1.722 1.722 0 0 0 .248.625l-.247.183a.3.3 0 0 0-.21-.053.311.311 0 1 0 .345.273.293.293 0 0 0-.012-.059l.243-.176a1.673 1.673 0 0 0 .531.421l-.121.283a.2.2 0 0 0-.06 0 .311.311 0 1 0 .345.272.3.3 0 0 0-.1-.191l.122-.283a1.727 1.727 0 0 0 .664.1l.035.3z" fill="#445045" opacity=".61"/><path data-name="Path 2018" d="M154.468 72.51a.661.661 0 0 0-.369.659.646.646 0 1 0 .774-.706l-.074-.642a3.556 3.556 0 0 0 1.3-.515l.38.515a.617.617 0 0 0-.11.435.646.646 0 1 0 .568-.716.471.471 0 0 0-.123.025l-.367-.505a3.47 3.47 0 0 0 .876-1.1l.589.251a.444.444 0 0 0 0 .126.652.652 0 0 0 .716.567.634.634 0 0 0 .557-.7.652.652 0 0 0-.716-.567.622.622 0 0 0-.4.206l-.588-.252a3.608 3.608 0 0 0 .2-1.382l.642-.074a.664.664 0 0 0 .659.369.646.646 0 1 0-.706-.774l-.642.074a3.544 3.544 0 0 0-.515-1.3l.515-.38a.628.628 0 0 0 .435.11.646.646 0 1 0-.716-.568.473.473 0 0 0 .025.123l-.515.38a3.465 3.465 0 0 0-1.106-.877l.252-.589a.435.435 0 0 0 .125 0 .652.652 0 1 0-.707-.591v.011a.624.624 0 0 0 .206.4l-.252.588a3.626 3.626 0 0 0-1.381-.205l-.075-.642a.664.664 0 0 0 .369-.659.646.646 0 1 0-.774.706l.074.642a3.551 3.551 0 0 0-1.3.516l-.38-.515a.63.63 0 0 0 .11-.435.646.646 0 1 0-.568.716.473.473 0 0 0 .123-.026l.38.515a3.5 3.5 0 0 0-.876 1.106l-.588-.252a.437.437 0 0 0 0-.125.646.646 0 1 0-.567.716.624.624 0 0 0 .4-.206l.588.252a3.628 3.628 0 0 0-.205 1.382l-.641.074a.662.662 0 0 0-.659-.368.646.646 0 1 0 .706.774l.641-.075a3.561 3.561 0 0 0 .516 1.3l-.515.38a.624.624 0 0 0-.435-.109.646.646 0 1 0 .716.567.458.458 0 0 0-.026-.122l.505-.367a3.5 3.5 0 0 0 1.106.876l-.252.588a.435.435 0 0 0-.125 0 .646.646 0 1 0 .716.567.624.624 0 0 0-.206-.4l.252-.588a3.628 3.628 0 0 0 1.382.2l.072.619z" fill="#445045"/><g data-name="Group 2207"><path data-name="Path 2814" d="M144.488 63.764a14.821 14.821 0 0 0-11.375-7.2l-.668-.07-2.063-14.164a1.958 1.958 0 0 0-2.23-1.654l-2.715.409a1.959 1.959 0 0 0-1.646 2.22l2.065 14.137-.767.361a15.336 15.336 0 1 0 19.4 5.961zm-12.855-3.118a1.77 1.77 0 0 1 1.985 1.489 1.789 1.789 0 0 1-1.489 2.031 1.816 1.816 0 0 1-2.031-1.489 1.79 1.79 0 0 1 1.535-2.031zm1.715 24.731a13.328 13.328 0 0 1-15.164-11.282 13.692 13.692 0 0 1 .045-4.288l25.092-3.655a13.3 13.3 0 0 1-9.973 19.225z" fill="#fff"/><path data-name="Path 2815" d="M133.618 62.135a1.789 1.789 0 0 1-1.489 2.031 1.816 1.816 0 0 1-2.031-1.489 1.79 1.79 0 0 1 1.535-2.031 1.77 1.77 0 0 1 1.985 1.489z" fill="#f5ab86"/><path data-name="Path 2816" d="M129.426 50.546a1.63 1.63 0 0 1-1.355 1.849 1.654 1.654 0 0 1-1.85-1.356 1.631 1.631 0 0 1 1.4-1.85 1.613 1.613 0 0 1 1.805 1.357z" fill="#f6b595"/><path data-name="Path 2817" d="M129.585 39.781a1.791 1.791 0 0 1-1.49 2.033 1.817 1.817 0 0 1-2.033-1.49 1.791 1.791 0 0 1 1.536-2.033 1.771 1.771 0 0 1 1.987 1.49z" fill="#ffce80"/><path data-name="Path 2818" d="M121.576 38.604a1.792 1.792 0 0 1-1.49 2.033 1.818 1.818 0 0 1-2.033-1.491 1.791 1.791 0 0 1 1.536-2.033 1.773 1.773 0 0 1 1.987 1.491z" fill="#ffa00a"/><path data-name="Path 2819" d="M120.287 26.802a4.728 4.728 0 0 1-3.933 5.363 4.794 4.794 0 0 1-5.364-3.933 4.726 4.726 0 0 1 4.052-5.364 4.676 4.676 0 0 1 5.245 3.934z" fill="#ffb136"/><path data-name="Path 2820" d="M136.476 7.783a9.244 9.244 0 0 1-7.692 10.49 9.377 9.377 0 0 1-10.492-7.692A9.245 9.245 0 0 1 126.218.089a9.147 9.147 0 0 1 10.258 7.694z" fill="#ffc414"/><path data-name="Path 2821" d="M144.63 70.218a13.394 13.394 0 0 0-1.309-4.062l-25.092 3.655a13.692 13.692 0 0 0-.045 4.288 13.365 13.365 0 0 0 26.446-3.881zm-16.427 3.835a1.474 1.474 0 0 1-1.67-1.218 1.508 1.508 0 0 1 1.264-1.67 1.458 1.458 0 0 1 .406 2.888z" fill="#f9e8d9"/><path data-name="Path 2822" d="M138.226 71.962a2.607 2.607 0 0 1-2.211 2.979 2.566 2.566 0 0 1-2.934-2.212 2.6 2.6 0 1 1 5.145-.767z" fill="#e87100"/><path data-name="Path 2823" d="M129.421 72.38a1.44 1.44 0 0 1-1.218 1.669 1.474 1.474 0 0 1-1.67-1.218 1.508 1.508 0 0 1 1.264-1.67 1.43 1.43 0 0 1 1.624 1.219z" fill="#e87100"/><path data-name="Path 2824" d="M135.622 79.448a2.608 2.608 0 0 1-2.212 2.978 2.563 2.563 0 0 1-2.933-2.211 2.6 2.6 0 1 1 5.145-.767z" fill="#e87100"/></g><g data-name="Group 2211"><g data-name="Group 2208"><path data-name="Path 2825" d="M16.903 118.859V95.11l89.058-15.258h15.6l42.395 24.509v22.847z" fill="#ffefa8"/><path data-name="Path 2826" d="M16.903 107.654H90.43a3.5 3.5 0 0 0 2.913-1.559l14.594-21.89v75.969H16.903z" fill="#ffc414"/><path data-name="Path 2827" d="M163.957 160.174h-56.02V84.205l14.593 21.89a3.5 3.5 0 0 0 2.915 1.559h38.514z" fill="#ffa00a"/><path data-name="Path 2828" d="M126.317 104.362l-16.339-24.509h54.607l16.341 24.509z" fill="#ffa00a"/><path data-name="Path 2829" d="M16.345 79.853h89.62l-16.339 24.509H0z" fill="#ffc414"/></g><text data-name="Science" transform="translate(39.344 141.637)" fill="#fff9dd" font-size="14" font-family="Helvetica"><tspan x="0" y="0">Science</tspan></text><path data-name="Line 234" fill="none" stroke="#ffefaa" stroke-miterlimit="10" d="M37.344 144.637h56.863"/><path data-name="Path 2830" d="M30.772 130.518a1.938 1.938 0 0 0-1.349.622 4.821 4.821 0 0 0-.987 1.544c-.069.161-.134.332-.2.507a7.824 7.824 0 0 0-.536-.086 6.136 6.136 0 0 0-.978-.045 3.772 3.772 0 0 0-.853.131 1.772 1.772 0 0 0-1.348 2.336 4.807 4.807 0 0 0 .842 1.625c.105.14.22.285.341.426a8.29 8.29 0 0 0-.341.421 4.8 4.8 0 0 0-.842 1.625 1.775 1.775 0 0 0 1.348 2.341 4.832 4.832 0 0 0 1.831.08c.175-.021.353-.046.536-.08q.093.261.2.5a4.859 4.859 0 0 0 .987 1.553 1.774 1.774 0 0 0 2.7 0 4.861 4.861 0 0 0 .988-1.549c.068-.161.134-.328.195-.5.184.034.362.059.537.08a4.828 4.828 0 0 0 1.83-.08 1.776 1.776 0 0 0 1.349-2.341 4.82 4.82 0 0 0-.843-1.625 8.29 8.29 0 0 0-.341-.421c.121-.141.236-.286.341-.426a4.829 4.829 0 0 0 .843-1.625 1.774 1.774 0 0 0-1.349-2.336 3.763 3.763 0 0 0-.853-.131 6.118 6.118 0 0 0-.977.045 7.95 7.95 0 0 0-.537.086 8.51 8.51 0 0 0-.195-.507 4.823 4.823 0 0 0-.988-1.544 1.938 1.938 0 0 0-1.351-.626zm0 .642a1.281 1.281 0 0 1 .9.436 4.245 4.245 0 0 1 .847 1.339c.054.125.106.26.155.4a12.809 12.809 0 0 0-1.9.662 12.77 12.77 0 0 0-1.9-.662c.049-.136.1-.271.155-.4a4.246 4.246 0 0 1 .848-1.339 1.281 1.281 0 0 1 .895-.437zm-4.016 2.547a5.516 5.516 0 0 1 .872.035c.137.016.278.04.421.065a12.849 12.849 0 0 0-.381 1.976 12.968 12.968 0 0 0-1.524 1.318 8.936 8.936 0 0 1-.261-.33 4.318 4.318 0 0 1-.742-1.409 1.277 1.277 0 0 1 .071-.993 1.3 1.3 0 0 1 .832-.562 3.249 3.249 0 0 1 .712-.101zm7.616 0c.146 0 .283-.006.416 0a3.249 3.249 0 0 1 .712.1 1.3 1.3 0 0 1 .833.562 1.278 1.278 0 0 1 .07.993 4.318 4.318 0 0 1-.742 1.409 7.22 7.22 0 0 1-.261.33 12.888 12.888 0 0 0-1.524-1.318 12.849 12.849 0 0 0-.381-1.976c.144-.025.284-.049.421-.065.157-.024.311-.031.456-.036zm-5.7.236a11.53 11.53 0 0 1 1.3.421c-.27.136-.541.275-.812.431s-.526.321-.778.486a11.982 11.982 0 0 1 .294-1.339zm4.192 0a11.76 11.76 0 0 1 .286 1.338c-.252-.165-.508-.33-.777-.486s-.542-.3-.813-.431a11.529 11.529 0 0 1 1.308-.422zm-2.1.752c.424.193.855.409 1.284.657s.83.512 1.208.782c.045.466.075.946.075 1.444s-.025.98-.07 1.444q-.568.405-1.213.777c-.429.248-.86.469-1.284.662-.424-.193-.854-.414-1.283-.662s-.835-.507-1.214-.777c-.045-.464-.07-.949-.07-1.444s.03-.978.075-1.444c.378-.27.78-.535 1.209-.782s.864-.465 1.291-.658zm0 1.76a1.123 1.123 0 1 0 1.123 1.123 1.128 1.128 0 0 0-1.115-1.124zm-3.179.2c-.017.3-.03.609-.03.923s.013.621.03.922a11.629 11.629 0 0 1-1.018-.922 11.644 11.644 0 0 1 1.026-.924zm6.358 0a11.644 11.644 0 0 1 1.018.923 11.629 11.629 0 0 1-1.018.922 16.322 16.322 0 0 0 .008-1.846zm-7.807 1.4a12.857 12.857 0 0 0 1.524 1.314 12.849 12.849 0 0 0 .376 1.975 7.59 7.59 0 0 1-.416.066 4.231 4.231 0 0 1-1.584-.066 1.138 1.138 0 0 1-.9-1.554 4.318 4.318 0 0 1 .742-1.409c.082-.108.169-.216.261-.326zm9.256 0c.093.11.18.218.261.326a4.318 4.318 0 0 1 .742 1.409 1.136 1.136 0 0 1-.9 1.554 4.23 4.23 0 0 1-1.584.066 7.59 7.59 0 0 1-.416-.066 12.849 12.849 0 0 0 .376-1.975 12.778 12.778 0 0 0 1.524-1.314zm-7.015 1.82a15.708 15.708 0 0 0 1.595.918 11.743 11.743 0 0 1-1.3.421 11.927 11.927 0 0 1-.291-1.339zm4.774 0a11.5 11.5 0 0 1-.291 1.339 11.742 11.742 0 0 1-1.3-.421 15.666 15.666 0 0 0 1.595-.918zm-2.387 1.289a12.809 12.809 0 0 0 1.9.662c-.049.135-.1.266-.155.391a4.257 4.257 0 0 1-.847 1.339 1.134 1.134 0 0 1-1.795 0 4.257 4.257 0 0 1-.848-1.339 7.965 7.965 0 0 1-.155-.391 12.77 12.77 0 0 0 1.908-.664z" fill="#ffefaa"/><g data-name="Group 2210"><path data-name="Path 2831" d="M24.945 118.859h3.837v1.286h-.16a.737.737 0 0 0-.355.054.2.2 0 0 0-.1.18.963.963 0 0 0 .065.286l1.013 2.873.877-2.249-.229-.624a.852.852 0 0 0-.25-.393.776.776 0 0 0-.439-.127v-1.286h3.641v1.286h-.3a.626.626 0 0 0-.341.067.223.223 0 0 0-.1.193 1.069 1.069 0 0 0 .087.347l.873 2.388.883-2.388a1.126 1.126 0 0 0 .087-.353.208.208 0 0 0-.1-.19.965.965 0 0 0-.434-.064h-.155v-1.286h3.256v1.286a1.683 1.683 0 0 0-.461.04.486.486 0 0 0-.19.127 1.777 1.777 0 0 0-.226.44l-1.951 4.757h-1.928l-1.079-2.67-1.1 2.67h-1.929l-1.907-4.757a1.461 1.461 0 0 0-.247-.42.413.413 0 0 0-.185-.147 1.987 1.987 0 0 0-.453-.04z" fill="#642d06"/><path data-name="Path 2832" d="M40.519 118.699v4.925a1.235 1.235 0 0 0 .043.433.285.285 0 0 0 .156.123 1.776 1.776 0 0 0 .5.043h.392v1.286h-4.478v-1.291h.385a1.931 1.931 0 0 0 .482-.036.286.286 0 0 0 .156-.123.78.78 0 0 0 .051-.347v-3.178h-1.074v-1.253a9.47 9.47 0 0 0 1.1-.114 8.021 8.021 0 0 0 .939-.206 4.647 4.647 0 0 0 .66-.267zm-1.174-2.971a1.342 1.342 0 0 1 .939.356 1.162 1.162 0 0 1 0 1.733 1.416 1.416 0 0 1-1.878 0 1.143 1.143 0 0 1 .011-1.726 1.336 1.336 0 0 1 .928-.363" fill="#642d06"/><path data-name="Path 2833" d="M45.766 115.728v6l1.392-1.084a2.187 2.187 0 0 0 .265-.223.159.159 0 0 0 .04-.1.15.15 0 0 0-.1-.13 1.1 1.1 0 0 0-.417-.05h-.276v-1.286h4.431v1.286a2.331 2.331 0 0 0-.652.06 4.531 4.531 0 0 0-.762.44l-1.408.945 2 2.14a1.573 1.573 0 0 0 .5.41 2.484 2.484 0 0 0 .757.083v1.286h-4.5v-1.287h.251a.889.889 0 0 0 .358-.046.137.137 0 0 0 .087-.12.888.888 0 0 0-.232-.373l-.831-.981-.909.621v.36a.9.9 0 0 0 .043.343.314.314 0 0 0 .149.143.761.761 0 0 0 .33.053h.254v1.286h-4.157v-1.286c.145 0 .256-.006.334-.006a1.668 1.668 0 0 0 .522-.05.313.313 0 0 0 .167-.17 2.44 2.44 0 0 0 .036-.58v-5.837h-1.059v-1.3a9.582 9.582 0 0 0 2.683-.553z" fill="#642d06"/><path data-name="Path 2834" d="M55.668 118.699v4.925a1.225 1.225 0 0 0 .044.433.285.285 0 0 0 .156.123 1.776 1.776 0 0 0 .5.043h.391v1.286h-4.481v-1.291h.384a1.931 1.931 0 0 0 .482-.036.286.286 0 0 0 .156-.123.78.78 0 0 0 .051-.347v-3.178h-1.073v-1.253a9.452 9.452 0 0 0 1.1-.114 7.931 7.931 0 0 0 .939-.206 4.647 4.647 0 0 0 .66-.267zm-1.175-2.971a1.343 1.343 0 0 1 .94.356 1.164 1.164 0 0 1 0 1.733 1.418 1.418 0 0 1-1.879 0 1.143 1.143 0 0 1 .011-1.726 1.337 1.337 0 0 1 .928-.363" fill="#642d06"/><path data-name="Path 2835" d="M58.615 116.218h4.939v1.286h-.455a1.256 1.256 0 0 0-.511.07.4.4 0 0 0-.195.2 1.681 1.681 0 0 0-.058.563v1.619h3.684v-1.738a1.419 1.419 0 0 0-.043-.433.359.359 0 0 0-.2-.22 1.9 1.9 0 0 0-.609-.06h-.384v-1.287h4.953v1.286h-.414a1.587 1.587 0 0 0-.558.063.369.369 0 0 0-.192.187 1.827 1.827 0 0 0-.055.583v5.037a1.624 1.624 0 0 0 .069.6.389.389 0 0 0 .211.194 2.228 2.228 0 0 0 .649.056h.29v1.286h-4.953v-1.292h.326a1.921 1.921 0 0 0 .62-.066.409.409 0 0 0 .225-.193 1.728 1.728 0 0 0 .061-.594V121.4h-3.68v1.965a2.2 2.2 0 0 0 .044.58.375.375 0 0 0 .223.22 2.218 2.218 0 0 0 .613.053h.339v1.286h-4.939v-1.286h.336a1.8 1.8 0 0 0 .59-.066.418.418 0 0 0 .23-.187 1.373 1.373 0 0 0 .062-.526v-5.051a1.88 1.88 0 0 0-.062-.616.4.4 0 0 0-.193-.21 1.28 1.28 0 0 0-.511-.067h-.452z" fill="#fff"/><path data-name="Path 2836" d="M74.407 118.699a4.9 4.9 0 0 1 2.161.447 3.409 3.409 0 0 1 1.418 1.216 3.251 3.251 0 0 1 .5 1.8 3.216 3.216 0 0 1-1.1 2.532 4.286 4.286 0 0 1-2.944.973 4.353 4.353 0 0 1-2.988-.979 3.174 3.174 0 0 1-1.073-2.526 3.231 3.231 0 0 1 .489-1.8 3.462 3.462 0 0 1 1.418-1.209 4.759 4.759 0 0 1 2.125-.457m.029 1.46a1.438 1.438 0 0 0-.776.226 1.476 1.476 0 0 0-.562.667 2.717 2.717 0 0 0-.2 1.119 2.986 2.986 0 0 0 .2 1.16 1.453 1.453 0 0 0 .541.679 1.374 1.374 0 0 0 .757.22 1.435 1.435 0 0 0 1.1-.5 2.22 2.22 0 0 0 .457-1.543 2.337 2.337 0 0 0-.424-1.523 1.35 1.35 0 0 0-1.084-.509" fill="#fff"/><path data-name="Path 2837" d="M79.001 118.859h3.836v1.286h-.159a.745.745 0 0 0-.356.054.206.206 0 0 0-.1.18.964.964 0 0 0 .065.286l1.013 2.873.877-2.249-.229-.624a.852.852 0 0 0-.25-.393.776.776 0 0 0-.439-.127v-1.286h3.648v1.286h-.3a.632.632 0 0 0-.342.067.225.225 0 0 0-.094.193 1.069 1.069 0 0 0 .087.347l.873 2.388.883-2.388a1.125 1.125 0 0 0 .087-.353.208.208 0 0 0-.1-.19.967.967 0 0 0-.434-.064h-.165v-1.286h3.256v1.286a1.684 1.684 0 0 0-.461.04.486.486 0 0 0-.19.127 1.806 1.806 0 0 0-.227.44l-1.951 4.757h-1.924l-1.079-2.67-1.1 2.67H81.79l-1.907-4.757a1.46 1.46 0 0 0-.247-.42.413.413 0 0 0-.185-.147 1.987 1.987 0 0 0-.453-.04z" fill="#fff"/></g></g></svg>