<?xml version="1.0" encoding="utf-8"?>
<!DOCTYPE svg PUBLIC "-//W3C//DTD SVG 1.1//EN" "http://www.w3.org/Graphics/SVG/1.1/DTD/svg11.dtd">
<svg version="1.1" id="Layer_1" xmlns="http://www.w3.org/2000/svg" xmlns:xlink="http://www.w3.org/1999/xlink" x="0px" y="0px"
	 width="100px" height="87.912px" viewBox="0 0 100 87.912" enable-background="new 0 0 100 87.912" xml:space="preserve">
<path fill="#BBBBBB" d="M99.974,43.73c-0.025-0.549-0.265-1.128-0.851-1.712l-0.004,0.005c-0.289-0.358-0.597-0.667-0.836-0.906
	l-40.002-40c-1.487-1.488-4.093-1.488-5.581,0l-6.511,6.512c-0.745,0.744-1.154,1.736-1.154,2.791s0.41,2.047,1.154,2.791
	l22.175,22.176H3.947C1.771,35.386,0,37.156,0,39.332v9.209c0,2.177,1.771,3.947,3.947,3.947h64.417L46.189,74.664
	c-0.745,0.744-1.154,1.735-1.154,2.79s0.41,2.047,1.154,2.791l6.513,6.512c0.743,0.744,1.735,1.155,2.79,1.155
	s2.047-0.411,2.79-1.155l40.001-40.001c0.258-0.258,0.595-0.596,0.899-0.989l0.017,0.015C99.899,45.081,100.075,44.381,99.974,43.73
	z"/>
</svg>
