<?xml version="1.0" encoding="utf-8"?>
<!DOCTYPE svg PUBLIC "-//W3C//DTD SVG 1.1//EN" "http://www.w3.org/Graphics/SVG/1.1/DTD/svg11.dtd">
<svg version="1.1" id="Layer_1" xmlns="http://www.w3.org/2000/svg" xmlns:xlink="http://www.w3.org/1999/xlink" x="0px" y="0px"
	 width="100px" height="93.924px" viewBox="0 0 100 93.924" enable-background="new 0 0 100 93.924" xml:space="preserve">
<path fill-rule="evenodd" clip-rule="evenodd" fill="#F2EEEB" d="M31.015,93.924c-2.687-3.995-6.079-7.406-9.189-11.048
	c-6.957-8.151-13.994-16.235-21.041-24.31c-0.929-1.065-1.144-1.861-0.036-2.924c0.949-0.909,1.414-2.204,3.268-1.116
	c7.156,4.199,14.44,8.18,21.626,12.33c1.223,0.706,1.776,0.522,2.566-0.57c12.128-16.773,25.72-32.245,41.206-46.01
	c8.351-7.423,17.238-14.117,26.859-19.845c2.145-1.276,2.209,0.615,3.051,1.376c1.019,0.922,0.834,1.656-0.224,2.612
	C71.519,29.337,50.66,59.2,34.497,92.5c-0.217,0.445-0.587,0.859-0.417,1.424C33.058,93.924,32.037,93.924,31.015,93.924z"/>
</svg>
