<?xml version="1.0" encoding="UTF-8" standalone="no"?><!DOCTYPE svg PUBLIC "-//W3C//DTD SVG 1.1//EN" "http://www.w3.org/Graphics/SVG/1.1/DTD/svg11.dtd"><svg width="100%" height="100%" viewBox="0 0 24 24" version="1.1" xmlns="http://www.w3.org/2000/svg" xmlns:xlink="http://www.w3.org/1999/xlink" xml:space="preserve" xmlns:serif="http://www.serif.com/" style="fill-rule:evenodd;clip-rule:evenodd;stroke-linejoin:round;stroke-miterlimit:1.41421;"><circle cx="12" cy="12" r="12" style="fill:#a1aab1;"/><path d="M13.99,12l4.58,-4.58c0.551,-0.55 0.551,-1.441 0,-1.991c-0.55,-0.55 -1.44,-0.55 -1.99,0l-4.581,4.581l-4.58,-4.581c-0.55,-0.55 -1.441,-0.55 -1.99,0c-0.55,0.549 -0.55,1.441 0,1.99l4.581,4.581l-4.581,4.581c-0.55,0.549 -0.55,1.44 0,1.99c0.275,0.275 0.635,0.412 0.995,0.412c0.361,0 0.721,-0.137 0.996,-0.412l4.579,-4.58l4.581,4.581c0.275,0.274 0.635,0.412 0.996,0.412c0.36,0 0.72,-0.138 0.995,-0.412c0.55,-0.55 0.55,-1.441 0,-1.991l-4.581,-4.581Z" style="fill:#fff;fill-rule:nonzero;"/></svg>