<?xml version="1.0" encoding="utf-8"?>
<!DOCTYPE svg PUBLIC "-//W3C//DTD SVG 1.1//EN" "http://www.w3.org/Graphics/SVG/1.1/DTD/svg11.dtd">
<svg version="1.1" id="Layer_1" xmlns="http://www.w3.org/2000/svg" xmlns:xlink="http://www.w3.org/1999/xlink" x="0px" y="0px"
	 width="38.949px" height="38.949px" viewBox="0 0 38.949 38.949" enable-background="new 0 0 38.949 38.949" xml:space="preserve">
<path fill="#686868" d="M23.01,19.474L38.216,4.268c0.977-0.976,0.977-2.559,0-3.535c-0.977-0.977-2.559-0.977-3.535,0
	L19.474,15.939L4.268,0.732c-0.977-0.977-2.559-0.977-3.535,0c-0.977,0.976-0.977,2.559,0,3.535l15.207,15.207L0.733,34.681
	c-0.977,0.976-0.977,2.559,0,3.535c0.488,0.488,1.128,0.732,1.768,0.732s1.279-0.244,1.768-0.732L19.474,23.01l15.207,15.207
	c0.488,0.488,1.128,0.732,1.768,0.732s1.279-0.244,1.768-0.732c0.977-0.976,0.977-2.559,0-3.535L23.01,19.474z"/>
</svg>