<?xml version="1.0" encoding="utf-8"?>
<!DOCTYPE svg PUBLIC "-//W3C//DTD SVG 1.1//EN" "http://www.w3.org/Graphics/SVG/1.1/DTD/svg11.dtd">
<svg version="1.1" id="Layer_1" xmlns="http://www.w3.org/2000/svg" xmlns:xlink="http://www.w3.org/1999/xlink" x="0px" y="0px"
	 width="100.187px" height="90.393px" viewBox="0 0 100.187 90.393" enable-background="new 0 0 100.187 90.393"
	 xml:space="preserve">
<path fill="#3E632F" d="M8.3,75.272c4.573-2.699,19.772-9.305,19.772-9.305l0.291-4.943c0,0-3.867-7.123-4.361-8.142
	s-0.582-4.071-0.582-4.071s-6.105-1.163-3.779-1.453c2.326-0.291,4.07-0.001,3.779-1.164c-0.291-1.162-1.744-2.035-2.326-2.907
	s0-4.362,0-5.525s-1.163-4.943-1.744-7.851c-0.582-2.908,2.617-14.54,2.617-14.54s6.105-9.595,10.178-10.177
	c4.07-0.582,4.361-2.908,4.361-2.908s8.723-4.943,16.283-0.29c7.561,4.652,7.561,4.07,9.887,5.815
	c3.489,2.907,5.816,17.737,5.816,17.737s1.453,9.887,0.29,12.213c-1.163,2.327-3.489,3.78-4.362,5.234
	c-0.872,1.454-2.326,2.617-2.617,6.397c0.291,2.326,3.199,1.744,3.199,1.744s-1.163,2.036-3.779,2.036
	c-4.072-0.872-2.036,0.291-1.746,1.163c0.291,0.872-1.744,4.361-1.744,4.361l2.326,2.908c0,0,18.217,5.964,24.135,9.305
	s15.993,19.482,15.993,19.482H0C0,90.393,3.727,77.973,8.3,75.272z"/>
<rect y="0" fill="none" width="100" height="90.393"/>
</svg>
