<?xml version="1.0" encoding="utf-8"?>
<!DOCTYPE svg PUBLIC "-//W3C//DTD SVG 1.1//EN" "http://www.w3.org/Graphics/SVG/1.1/DTD/svg11.dtd">
<svg version="1.1" id="Layer_1" xmlns="http://www.w3.org/2000/svg" xmlns:xlink="http://www.w3.org/1999/xlink" x="0px" y="0px"
	 width="300px" height="48.792px" viewBox="0 0 300 48.792" enable-background="new 0 0 300 48.792" xml:space="preserve">
<g>
	<path fill="#485448" d="M0,15.37h17.299v6.311H16.58c-0.829,0-1.362,0.087-1.603,0.262c-0.305,0.218-0.457,0.512-0.457,0.882
		c0,0.328,0.098,0.796,0.294,1.406l4.567,14.101l3.955-11.038l-1.033-3.063c-0.306-0.915-0.681-1.558-1.128-1.93
		c-0.447-0.37-1.107-0.576-1.978-0.621V15.37h16.449v6.311h-1.343c-0.743,0-1.256,0.11-1.54,0.327
		c-0.283,0.219-0.425,0.534-0.425,0.948c0,0.395,0.131,0.962,0.393,1.703l3.934,11.722l3.985-11.724
		c0.262-0.764,0.392-1.341,0.392-1.733c0-0.414-0.157-0.724-0.471-0.933c-0.313-0.208-0.967-0.311-1.958-0.311h-0.744V15.37h14.684
		v6.311c-1.055,0-1.748,0.066-2.078,0.196c-0.33,0.131-0.615,0.339-0.856,0.623c-0.308,0.414-0.649,1.133-1.023,2.158l-8.798,23.35
		h-8.665l-4.867-13.106l-4.942,13.106H12.59l-8.601-23.35c-0.305-0.829-0.675-1.517-1.111-2.06c-0.262-0.372-0.54-0.611-0.834-0.721
		C1.75,21.769,1.068,21.703,0,21.681V15.37z"/>
	<path fill="#485448" d="M70.899,14.585v24.167c0,1.156,0.065,1.864,0.196,2.125s0.365,0.463,0.703,0.605
		c0.338,0.142,1.096,0.212,2.273,0.212h1.765v6.312H55.627v-6.312h1.733c1.133,0,1.859-0.06,2.175-0.18
		c0.315-0.119,0.55-0.322,0.703-0.604c0.152-0.285,0.229-0.851,0.229-1.701v-15.6h-4.84v-6.147c1.722-0.087,3.374-0.274,4.955-0.557
		c1.581-0.282,2.992-0.621,4.234-1.013c0.806-0.262,1.799-0.698,2.976-1.308H70.899z M65.601,0c1.657,0,3.069,0.584,4.236,1.75
		c1.166,1.165,1.749,2.578,1.749,4.235c0,1.679-0.583,3.103-1.749,4.268c-1.167,1.166-2.579,1.749-4.236,1.749
		c-1.656,0-3.069-0.583-4.234-1.749c-1.166-1.166-1.749-2.578-1.749-4.236c0-1.634,0.599-3.046,1.798-4.235
		C62.613,0.594,64.01,0,65.601,0z"/>
	<path fill="#485448" d="M95.23,0v29.453l6.278-5.318c0.676-0.567,1.074-0.932,1.194-1.096c0.119-0.163,0.179-0.322,0.179-0.473
		c0-0.263-0.146-0.475-0.441-0.638c-0.294-0.164-0.92-0.246-1.88-0.246h-1.243V15.37h19.98v6.311c-1.439,0-2.419,0.099-2.943,0.294
		c-0.697,0.284-1.841,1.003-3.433,2.159l-6.349,4.636l9.031,10.506c0.915,1.091,1.662,1.76,2.24,2.011
		c0.577,0.25,1.716,0.388,3.417,0.408v6.312h-20.274v-6.312h1.129c0.816,0,1.356-0.077,1.616-0.229
		c0.263-0.152,0.393-0.348,0.393-0.588c0-0.305-0.348-0.917-1.046-1.831l-3.751-4.812l-4.097,3.046v1.766
		c0,0.829,0.064,1.389,0.196,1.684c0.131,0.294,0.355,0.528,0.67,0.703c0.316,0.175,0.812,0.261,1.488,0.261h1.144v6.312H79.958
		v-6.312c0.654-0.021,1.156-0.032,1.504-0.032c1.222,0,2.007-0.082,2.354-0.245c0.349-0.165,0.601-0.442,0.752-0.834
		c0.11-0.284,0.164-1.232,0.164-2.846V9.091h-4.775V2.714C83.664,2.54,87.697,1.635,92.058,0H95.23z"/>
	<path fill="#485448" d="M139.215,14.585v24.167c0,1.156,0.065,1.864,0.196,2.125s0.365,0.463,0.703,0.605s1.096,0.212,2.273,0.212
		h1.766v6.312h-20.21v-6.312h1.733c1.133,0,1.859-0.06,2.174-0.18c0.315-0.119,0.551-0.322,0.703-0.604
		c0.152-0.285,0.229-0.851,0.229-1.701v-15.6h-4.84v-6.147c1.722-0.087,3.374-0.274,4.955-0.557
		c1.581-0.282,2.991-0.621,4.235-1.013c0.806-0.262,1.798-0.698,2.976-1.308H139.215z M133.916,0c1.657,0,3.07,0.584,4.236,1.75
		c1.166,1.165,1.75,2.578,1.75,4.235c0,1.679-0.583,3.103-1.75,4.268c-1.166,1.166-2.579,1.749-4.236,1.749
		c-1.656,0-3.069-0.583-4.234-1.749c-1.166-1.166-1.749-2.578-1.749-4.236c0-1.634,0.599-3.046,1.798-4.235
		C130.929,0.594,132.326,0,133.916,0z"/>
	<path fill="#FFFFFF" d="M152.838,2.387h22.271v6.312h-2.048c-1.127,0-1.897,0.114-2.309,0.344
		c-0.413,0.229-0.705,0.556-0.878,0.981c-0.174,0.425-0.261,1.345-0.261,2.764v7.946h16.613v-8.536c0-1.046-0.065-1.754-0.196-2.125
		c-0.174-0.523-0.469-0.882-0.883-1.08c-0.414-0.196-1.33-0.294-2.747-0.294h-1.733V2.387h22.336v6.312h-1.863
		c-1.266,0-2.105,0.103-2.519,0.311c-0.413,0.208-0.703,0.512-0.866,0.916c-0.164,0.403-0.246,1.357-0.246,2.862v24.722
		c0,1.526,0.104,2.514,0.311,2.96c0.207,0.446,0.523,0.763,0.948,0.948s1.401,0.277,2.928,0.277h1.308v6.312h-22.336v-6.312h1.473
		c1.373,0,2.305-0.109,2.795-0.327c0.49-0.218,0.829-0.535,1.014-0.948c0.186-0.414,0.278-1.385,0.278-2.911v-9.646h-16.613v9.646
		c0,1.526,0.066,2.475,0.194,2.845c0.217,0.544,0.553,0.905,1.008,1.08c0.456,0.175,1.377,0.261,2.764,0.261h1.529v6.312h-22.271
		v-6.312h1.514c1.271,0,2.161-0.109,2.665-0.327c0.503-0.218,0.85-0.523,1.035-0.916c0.187-0.393,0.28-1.254,0.28-2.584V13.081
		c0-1.549-0.094-2.556-0.28-3.025c-0.186-0.468-0.476-0.812-0.872-1.03c-0.393-0.217-1.162-0.327-2.302-0.327h-2.04V2.387z"/>
	<path fill="#FFFFFF" d="M226.059,14.585c3.729,0,6.977,0.73,9.746,2.19c2.768,1.46,4.9,3.451,6.394,5.968
		c1.493,2.519,2.239,5.467,2.239,8.847c0,5.101-1.656,9.243-4.97,12.426c-3.315,3.184-7.739,4.774-13.277,4.774
		c-5.646,0-10.138-1.602-13.474-4.806c-3.227-3.054-4.84-7.184-4.84-12.395c0-3.423,0.736-6.366,2.207-8.83
		c1.472-2.464,3.603-4.442,6.394-5.936C219.269,15.333,222.462,14.585,226.059,14.585z M226.191,21.748
		c-1.243,0-2.409,0.37-3.499,1.112c-1.091,0.741-1.935,1.831-2.535,3.269c-0.6,1.44-0.898,3.271-0.898,5.495
		c0,2.29,0.293,4.186,0.883,5.69c0.588,1.505,1.4,2.617,2.437,3.336c1.034,0.719,2.174,1.079,3.417,1.079
		c1.918,0,3.564-0.812,4.938-2.436c1.374-1.625,2.061-4.147,2.061-7.57c0-3.314-0.638-5.806-1.914-7.473
		C229.804,22.581,228.174,21.748,226.191,21.748z"/>
	<path fill="#FFFFFF" d="M247.447,15.37h17.3v6.311h-0.72c-0.829,0-1.361,0.087-1.603,0.262c-0.305,0.218-0.458,0.512-0.458,0.882
		c0,0.328,0.1,0.796,0.295,1.406l4.567,14.101l3.955-11.038l-1.033-3.063c-0.306-0.915-0.682-1.558-1.128-1.93
		c-0.447-0.37-1.108-0.576-1.979-0.621V15.37h16.45v6.311h-1.344c-0.743,0-1.255,0.11-1.54,0.327
		c-0.283,0.219-0.425,0.534-0.425,0.948c0,0.395,0.131,0.962,0.393,1.703l3.934,11.722l3.985-11.724
		c0.262-0.764,0.393-1.341,0.393-1.733c0-0.414-0.157-0.724-0.472-0.933c-0.312-0.208-0.966-0.311-1.957-0.311h-0.743V15.37H300
		v6.311c-1.056,0-1.749,0.066-2.079,0.196c-0.329,0.131-0.615,0.339-0.855,0.623c-0.308,0.414-0.649,1.133-1.023,2.158l-8.798,23.35
		h-8.665l-4.867-13.106l-4.943,13.106h-8.73l-8.603-23.35c-0.305-0.829-0.675-1.517-1.111-2.06
		c-0.262-0.372-0.539-0.611-0.833-0.721c-0.296-0.108-0.977-0.174-2.045-0.196V15.37z"/>
</g>
</svg>
