<?xml version="1.0" encoding="utf-8"?>
<!DOCTYPE svg PUBLIC "-//W3C//DTD SVG 1.1//EN" "http://www.w3.org/Graphics/SVG/1.1/DTD/svg11.dtd">
<svg version="1.1" id="Layer_1" xmlns="http://www.w3.org/2000/svg" xmlns:xlink="http://www.w3.org/1999/xlink" x="0px" y="0px"
	 width="300px" height="97.34px" viewBox="0 0 300 97.34" enable-background="new 0 0 300 97.34" xml:space="preserve">
<g>
	<path fill="#485448" d="M0,15.37h17.299v6.311H16.58c-0.829,0-1.362,0.087-1.603,0.262c-0.305,0.218-0.457,0.512-0.457,0.882
		c0,0.328,0.098,0.796,0.294,1.406l4.567,14.101l3.955-11.038l-1.033-3.063c-0.306-0.915-0.681-1.558-1.128-1.93
		c-0.447-0.37-1.107-0.576-1.978-0.621V15.37h16.449v6.311h-1.343c-0.743,0-1.256,0.11-1.54,0.327
		c-0.283,0.219-0.425,0.534-0.425,0.948c0,0.395,0.131,0.962,0.393,1.703l3.934,11.722l3.985-11.724
		c0.262-0.764,0.392-1.341,0.392-1.733c0-0.414-0.157-0.724-0.471-0.933c-0.313-0.208-0.967-0.311-1.958-0.311h-0.744V15.37h14.684
		v6.311c-1.055,0-1.748,0.066-2.078,0.196c-0.33,0.131-0.615,0.339-0.856,0.623c-0.308,0.414-0.649,1.133-1.023,2.158l-8.798,23.35
		h-8.665l-4.867-13.106l-4.942,13.106H12.59l-8.601-23.35c-0.305-0.829-0.675-1.517-1.111-2.06c-0.262-0.372-0.54-0.611-0.834-0.721
		C1.75,21.769,1.068,21.703,0,21.681V15.37z"/>
	<path fill="#485448" d="M70.899,14.585v24.167c0,1.156,0.065,1.864,0.196,2.125s0.365,0.463,0.703,0.605
		c0.338,0.142,1.096,0.212,2.273,0.212h1.765v6.312H55.627v-6.312h1.733c1.133,0,1.859-0.06,2.175-0.18
		c0.315-0.119,0.55-0.322,0.703-0.604c0.152-0.285,0.229-0.851,0.229-1.701v-15.6h-4.84v-6.147c1.722-0.087,3.374-0.274,4.955-0.557
		c1.581-0.282,2.992-0.621,4.234-1.013c0.806-0.262,1.799-0.698,2.976-1.308H70.899z M65.601,0c1.657,0,3.069,0.584,4.236,1.75
		c1.166,1.165,1.749,2.578,1.749,4.235c0,1.679-0.583,3.103-1.749,4.268c-1.167,1.166-2.579,1.749-4.236,1.749
		c-1.656,0-3.069-0.583-4.234-1.749c-1.166-1.166-1.749-2.578-1.749-4.236c0-1.634,0.599-3.046,1.798-4.235
		C62.613,0.594,64.01,0,65.601,0z"/>
	<path fill="#485448" d="M95.23,0v29.453l6.278-5.318c0.676-0.567,1.074-0.932,1.194-1.096c0.119-0.163,0.179-0.322,0.179-0.473
		c0-0.263-0.146-0.475-0.441-0.638c-0.294-0.164-0.92-0.246-1.88-0.246h-1.243V15.37h19.98v6.311c-1.439,0-2.419,0.099-2.943,0.294
		c-0.697,0.284-1.841,1.003-3.433,2.159l-6.349,4.636l9.031,10.506c0.915,1.091,1.662,1.76,2.24,2.011
		c0.577,0.25,1.716,0.388,3.417,0.408v6.312h-20.274v-6.312h1.129c0.816,0,1.356-0.077,1.616-0.229
		c0.263-0.152,0.393-0.348,0.393-0.588c0-0.305-0.348-0.917-1.046-1.831l-3.751-4.812l-4.097,3.046v1.766
		c0,0.829,0.064,1.389,0.196,1.684c0.131,0.294,0.355,0.528,0.67,0.703c0.316,0.175,0.812,0.261,1.488,0.261h1.144v6.312H79.958
		v-6.312c0.654-0.021,1.156-0.032,1.504-0.032c1.222,0,2.007-0.082,2.354-0.245c0.349-0.165,0.601-0.442,0.752-0.834
		c0.11-0.284,0.164-1.232,0.164-2.846V9.091h-4.775V2.714C83.664,2.54,87.697,1.635,92.058,0H95.23z"/>
	<path fill="#485448" d="M139.215,14.585v24.167c0,1.156,0.065,1.864,0.196,2.125s0.365,0.463,0.703,0.605s1.096,0.212,2.273,0.212
		h1.766v6.312h-20.21v-6.312h1.733c1.133,0,1.859-0.06,2.174-0.18c0.315-0.119,0.551-0.322,0.703-0.604
		c0.152-0.285,0.229-0.851,0.229-1.701v-15.6h-4.84v-6.147c1.722-0.087,3.374-0.274,4.955-0.557
		c1.581-0.282,2.991-0.621,4.235-1.013c0.806-0.262,1.798-0.698,2.976-1.308H139.215z M133.916,0c1.657,0,3.07,0.584,4.236,1.75
		c1.166,1.165,1.75,2.578,1.75,4.235c0,1.679-0.583,3.103-1.75,4.268c-1.166,1.166-2.579,1.749-4.236,1.749
		c-1.656,0-3.069-0.583-4.234-1.749c-1.166-1.166-1.749-2.578-1.749-4.236c0-1.634,0.599-3.046,1.798-4.235
		C130.929,0.594,132.326,0,133.916,0z"/>
	<path fill="#FFFFFF" d="M152.838,2.387h22.271v6.312h-2.048c-1.127,0-1.897,0.114-2.309,0.344
		c-0.413,0.229-0.705,0.556-0.878,0.981c-0.174,0.425-0.261,1.345-0.261,2.764v7.946h16.613v-8.536c0-1.046-0.065-1.754-0.196-2.125
		c-0.174-0.523-0.469-0.882-0.883-1.08c-0.414-0.196-1.33-0.294-2.747-0.294h-1.733V2.387h22.336v6.312h-1.863
		c-1.266,0-2.105,0.103-2.519,0.311c-0.413,0.208-0.703,0.512-0.866,0.916c-0.164,0.403-0.246,1.357-0.246,2.862v24.722
		c0,1.526,0.104,2.514,0.311,2.96c0.207,0.446,0.523,0.763,0.948,0.948s1.401,0.277,2.928,0.277h1.308v6.312h-22.336v-6.312h1.473
		c1.373,0,2.305-0.109,2.795-0.327c0.49-0.218,0.829-0.535,1.014-0.948c0.186-0.414,0.278-1.385,0.278-2.911v-9.646h-16.613v9.646
		c0,1.526,0.066,2.475,0.194,2.845c0.217,0.544,0.553,0.905,1.008,1.08c0.456,0.175,1.377,0.261,2.764,0.261h1.529v6.312h-22.271
		v-6.312h1.514c1.271,0,2.161-0.109,2.665-0.327c0.503-0.218,0.85-0.523,1.035-0.916c0.187-0.393,0.28-1.254,0.28-2.584V13.081
		c0-1.549-0.094-2.556-0.28-3.025c-0.186-0.468-0.476-0.812-0.872-1.03c-0.393-0.217-1.162-0.327-2.302-0.327h-2.04V2.387z"/>
	<path fill="#FFFFFF" d="M226.059,14.585c3.729,0,6.977,0.73,9.746,2.19c2.768,1.46,4.9,3.451,6.394,5.968
		c1.493,2.519,2.239,5.467,2.239,8.847c0,5.101-1.656,9.243-4.97,12.426c-3.315,3.184-7.739,4.774-13.277,4.774
		c-5.646,0-10.138-1.602-13.474-4.806c-3.227-3.054-4.84-7.184-4.84-12.395c0-3.423,0.736-6.366,2.207-8.83
		c1.472-2.464,3.603-4.442,6.394-5.936C219.269,15.333,222.462,14.585,226.059,14.585z M226.191,21.748
		c-1.243,0-2.409,0.37-3.499,1.112c-1.091,0.741-1.935,1.831-2.535,3.269c-0.6,1.44-0.898,3.271-0.898,5.495
		c0,2.29,0.293,4.186,0.883,5.69c0.588,1.505,1.4,2.617,2.437,3.336c1.034,0.719,2.174,1.079,3.417,1.079
		c1.918,0,3.564-0.812,4.938-2.436c1.374-1.625,2.061-4.147,2.061-7.57c0-3.314-0.638-5.806-1.914-7.473
		C229.804,22.581,228.174,21.748,226.191,21.748z"/>
	<path fill="#FFFFFF" d="M247.447,15.37h17.3v6.311h-0.72c-0.829,0-1.361,0.087-1.603,0.262c-0.305,0.218-0.458,0.512-0.458,0.882
		c0,0.328,0.1,0.796,0.295,1.406l4.567,14.101l3.955-11.038l-1.033-3.063c-0.306-0.915-0.682-1.558-1.128-1.93
		c-0.447-0.37-1.108-0.576-1.979-0.621V15.37h16.45v6.311h-1.344c-0.743,0-1.255,0.11-1.54,0.327
		c-0.283,0.219-0.425,0.534-0.425,0.948c0,0.395,0.131,0.962,0.393,1.703l3.934,11.722l3.985-11.724
		c0.262-0.764,0.393-1.341,0.393-1.733c0-0.414-0.157-0.724-0.472-0.933c-0.312-0.208-0.966-0.311-1.957-0.311h-0.743V15.37H300
		v6.311c-1.056,0-1.749,0.066-2.079,0.196c-0.329,0.131-0.615,0.339-0.855,0.623c-0.308,0.414-0.649,1.133-1.023,2.158l-8.798,23.35
		h-8.665l-4.867-13.106l-4.943,13.106h-8.73l-8.603-23.35c-0.305-0.829-0.675-1.517-1.111-2.06
		c-0.262-0.372-0.539-0.611-0.833-0.721c-0.296-0.108-0.977-0.174-2.045-0.196V15.37z"/>
</g>
<g>
	<path fill="#FFFFFF" d="M28.235,66.244h1.25v5.986h5.23v1.761h-5.23v10.618c0,0.904,0.08,1.55,0.238,1.937
		c0.159,0.388,0.43,0.704,0.81,0.951c0.381,0.246,0.808,0.37,1.277,0.37c1.116,0,2.348-0.5,3.698-1.497v1.708
		c-1.541,1.045-3.1,1.566-4.675,1.566c-0.895,0-1.703-0.199-2.427-0.598c-0.723-0.398-1.217-0.869-1.48-1.408
		c-0.266-0.54-0.397-1.479-0.397-2.818V73.991h-3.082v-1.479c0.99-0.223,1.787-0.569,2.395-1.039
		c0.606-0.469,1.098-1.081,1.475-1.831C27.692,68.89,28,67.756,28.235,66.244z"/>
	<path fill="#FFFFFF" d="M46.178,71.806c1.727,0,3.22,0.36,4.481,1.074c1.261,0.717,2.256,1.762,2.984,3.135
		c0.729,1.373,1.093,2.941,1.093,4.702s-0.373,3.328-1.118,4.702c-0.747,1.373-1.762,2.421-3.046,3.143
		c-1.286,0.723-2.82,1.082-4.606,1.082c-2.841,0-4.974-0.887-6.4-2.658s-2.14-3.856-2.14-6.252c0-1.748,0.37-3.301,1.109-4.656
		c0.74-1.356,1.775-2.406,3.109-3.152C42.977,72.179,44.488,71.806,46.178,71.806z M46.038,73.515c-1.339,0-2.472,0.528-3.4,1.585
		c-1.172,1.315-1.76,3.229-1.76,5.74c0,2.419,0.499,4.261,1.497,5.529c0.904,1.127,2.131,1.69,3.68,1.69
		c0.997,0,1.886-0.264,2.668-0.793c0.781-0.527,1.41-1.371,1.894-2.526c0.481-1.155,0.722-2.516,0.722-4.077
		c0-1.525-0.258-2.893-0.775-4.103c-0.399-0.962-1.001-1.71-1.805-2.244C47.955,73.781,47.048,73.515,46.038,73.515z"/>
	<path fill="#FFFFFF" d="M79.988,66.366V64.87c0.798-0.071,1.529-0.21,2.192-0.414c0.663-0.206,1.494-0.562,2.492-1.065h1.32V84.75
		c0,0.986,0.024,1.586,0.071,1.796c0.117,0.446,0.316,0.758,0.599,0.934c0.281,0.177,0.827,0.264,1.637,0.264h0.757v1.479
		l-6.11,0.282v-2.8c-1.173,1.068-2.274,1.824-3.301,2.271c-1.028,0.447-2.058,0.668-3.091,0.668c-2.125,0-3.89-0.854-5.292-2.562
		c-1.403-1.708-2.104-3.766-2.104-6.173c0-1.713,0.372-3.283,1.118-4.709c0.746-1.427,1.729-2.516,2.95-3.268
		c1.221-0.75,2.56-1.127,4.015-1.127c1.116,0,2.148,0.195,3.099,0.582c0.951,0.388,1.82,0.969,2.606,1.743v-7.766H79.988z
		 M82.946,84.961v-6.655c0-0.952-0.179-1.729-0.537-2.335c-0.359-0.604-0.945-1.128-1.762-1.575c-0.815-0.447-1.651-0.67-2.509-0.67
		c-1.021,0-1.963,0.279-2.826,0.838c-0.863,0.557-1.538,1.361-2.025,2.411c-0.487,1.051-0.731,2.322-0.731,3.812
		c0,1.409,0.227,2.626,0.678,3.654c0.452,1.026,1.059,1.807,1.822,2.341c0.764,0.535,1.544,0.803,2.343,0.803
		c0.786,0,1.679-0.227,2.676-0.679C81.073,86.456,82.031,85.806,82.946,84.961z"/>
	<path fill="#FFFFFF" d="M100.273,71.806c1.726,0,3.221,0.36,4.482,1.074c1.262,0.717,2.257,1.762,2.984,3.135
		c0.729,1.373,1.092,2.941,1.092,4.702s-0.372,3.328-1.118,4.702c-0.746,1.373-1.76,2.421-3.046,3.143
		c-1.285,0.723-2.82,1.082-4.604,1.082c-2.842,0-4.975-0.887-6.401-2.658s-2.14-3.856-2.14-6.252c0-1.748,0.37-3.301,1.109-4.656
		c0.739-1.356,1.777-2.406,3.108-3.152S98.583,71.806,100.273,71.806z M100.133,73.515c-1.338,0-2.472,0.528-3.398,1.585
		c-1.174,1.315-1.762,3.229-1.762,5.74c0,2.419,0.5,4.261,1.497,5.529c0.905,1.127,2.131,1.69,3.681,1.69
		c0.997,0,1.887-0.264,2.667-0.793c0.781-0.527,1.411-1.371,1.893-2.526c0.481-1.155,0.722-2.516,0.722-4.077
		c0-1.525-0.258-2.893-0.775-4.103c-0.398-0.962-1.001-1.71-1.805-2.244C102.049,73.781,101.142,73.515,100.133,73.515z"/>
	<path fill="#FFFFFF" d="M135.789,79.027l0.003-1.92c0-1.303-0.365-2.233-1.096-2.79c-0.729-0.559-1.757-0.837-3.087-0.837
		c-0.659,0-1.234,0.08-1.729,0.237c-0.495,0.159-0.892,0.376-1.192,0.651c-0.301,0.275-0.521,0.59-0.662,0.942
		c-0.059,0.13-0.199,0.628-0.423,1.497c-0.271,1.057-0.816,1.584-1.638,1.584c-0.468,0-0.848-0.155-1.136-0.467
		c-0.288-0.311-0.431-0.73-0.431-1.258c0-0.775,0.288-1.535,0.862-2.28c0.576-0.747,1.453-1.362,2.633-1.849
		c1.18-0.487,2.574-0.732,4.182-0.732c1.503,0,2.789,0.232,3.856,0.695c1.068,0.465,1.855,1.129,2.36,1.997
		c0.352,0.597,0.528,1.688,0.528,3.272v6.771c0,0.962,0.029,1.588,0.088,1.882c0.129,0.504,0.354,0.882,0.677,1.134
		c0.324,0.254,0.743,0.379,1.259,0.379c0.54,0,1.187-0.125,1.938-0.373v1.535c-0.975,0.281-1.849,0.423-2.624,0.423
		c-0.833,0-1.535-0.118-2.104-0.353c-0.57-0.234-1.037-0.578-1.4-1.03c-0.363-0.45-0.598-0.987-0.705-1.61
		c-1.409,1.103-2.682,1.877-3.821,2.324c-1.138,0.446-2.29,0.669-3.451,0.669c-1.62,0-2.935-0.44-3.944-1.321
		c-1.01-0.881-1.516-1.913-1.516-3.1c0-0.715,0.185-1.396,0.555-2.042c0.371-0.646,0.935-1.216,1.693-1.708
		c0.758-0.492,1.947-0.928,3.569-1.303C130.658,79.671,132.908,79.333,135.789,79.027z M135.778,80.559
		c-2.724,0.399-4.41,0.675-5.056,0.827c-1.281,0.295-2.198,0.617-2.748,0.969c-0.552,0.352-0.947,0.73-1.182,1.136
		c-0.235,0.405-0.353,0.837-0.353,1.295c0,0.457,0.133,0.899,0.396,1.328s0.638,0.767,1.12,1.013c0.482,0.247,0.992,0.37,1.533,0.37
		c0.763,0,1.626-0.183,2.589-0.546c0.964-0.363,2.197-1.074,3.7-2.131L135.778,80.559z"/>
	<path fill="#FFFFFF" d="M144.049,74.748v-1.461c1.045-0.117,1.826-0.258,2.343-0.423c0.517-0.165,1.261-0.519,2.235-1.058h1.269
		v3.347c1.548-1.303,2.868-2.187,3.966-2.649c1.095-0.465,2.205-0.697,3.332-0.697c0.961,0,1.812,0.162,2.549,0.485
		c0.739,0.323,1.34,0.759,1.803,1.312c0.463,0.551,0.771,1.179,0.924,1.884c0.094,0.434,0.14,1.092,0.14,1.972v7.748
		c0,0.927,0.069,1.522,0.204,1.788c0.134,0.264,0.35,0.455,0.642,0.571c0.293,0.117,1.015,0.176,2.166,0.176v1.479h-9.051v-1.479
		h0.493c0.844,0,1.42-0.075,1.725-0.229c0.306-0.151,0.526-0.376,0.66-0.669c0.135-0.293,0.203-0.893,0.203-1.797v-6.479
		c0-1.338-0.108-2.265-0.326-2.782s-0.587-0.936-1.108-1.259c-0.522-0.323-1.183-0.484-1.981-0.484c-0.951,0-1.966,0.244-3.046,0.73
		c-1.081,0.487-2.126,1.206-3.135,2.158v8.116c0,0.916,0.069,1.526,0.204,1.832c0.134,0.306,0.354,0.535,0.659,0.687
		c0.212,0.117,0.775,0.176,1.69,0.176h0.511v1.479h-9.086v-1.479h0.442c0.875,0,1.471-0.072,1.789-0.22
		c0.32-0.146,0.543-0.407,0.674-0.783c0.07-0.188,0.106-0.834,0.106-1.938V74.748H144.049z"/>
	<path fill="#FFFFFF" d="M166.342,72.23h8.553v1.479h-0.705c-0.669,0-1.068,0.018-1.197,0.053c-0.152,0.047-0.281,0.145-0.388,0.291
		c-0.105,0.146-0.158,0.332-0.158,0.556c0,0.317,0.158,0.852,0.476,1.604l4.092,9.597l3.785-9.176
		c0.447-1.081,0.67-1.797,0.67-2.148c0-0.271-0.1-0.467-0.301-0.591c-0.199-0.122-0.65-0.185-1.355-0.185h-0.827V72.23h7.192v1.479
		h-0.424c-0.704,0-1.161,0.047-1.373,0.142c-0.211,0.093-0.418,0.283-0.615,0.57c-0.201,0.286-0.518,0.94-0.951,1.96l-6.453,15.061
		c-0.469,1.081-0.992,2.08-1.567,3.002c-0.574,0.923-1.296,1.636-2.165,2.14c-0.87,0.505-1.826,0.758-2.87,0.758
		c-1.21,0-2.178-0.276-2.906-0.828c-0.623-0.469-0.933-1.056-0.933-1.761c0-0.434,0.135-0.795,0.404-1.083
		c0.271-0.288,0.588-0.431,0.951-0.431c0.281,0,0.546,0.059,0.792,0.176c0.152,0.059,0.47,0.305,0.95,0.739
		c0.588,0.517,1.002,0.833,1.242,0.95s0.479,0.177,0.713,0.177c0.482,0,0.957-0.165,1.427-0.493s0.87-0.793,1.197-1.391
		c0.47-0.857,0.856-1.662,1.162-2.412l0.731-1.74l-5.82-13.034c-0.411-0.916-0.758-1.532-1.038-1.85
		c-0.282-0.316-0.564-0.51-0.847-0.581c-0.151-0.047-0.633-0.07-1.443-0.07V72.23z"/>
	<path fill="#FFFFFF" d="M191.963,66.244h1.25v5.986h5.23v1.761h-5.23v10.618c0,0.904,0.08,1.55,0.238,1.937
		c0.158,0.388,0.428,0.704,0.811,0.951c0.381,0.246,0.807,0.37,1.275,0.37c1.116,0,2.35-0.5,3.698-1.497v1.708
		c-1.541,1.045-3.099,1.566-4.675,1.566c-0.895,0-1.703-0.199-2.426-0.598s-1.219-0.869-1.482-1.408
		c-0.266-0.54-0.397-1.479-0.397-2.818V73.991h-3.081v-1.479c0.988-0.223,1.787-0.569,2.395-1.039
		c0.605-0.469,1.098-1.081,1.475-1.831C191.421,68.89,191.728,67.756,191.963,66.244z"/>
	<path fill="#FFFFFF" d="M201.014,66.383V64.87c1.139-0.153,2.025-0.333,2.659-0.538s1.296-0.52,1.989-0.941h1.373v11.639
		c1.328-1.115,2.588-1.93,3.773-2.447c1.188-0.516,2.323-0.775,3.404-0.775c1.574,0,2.875,0.471,3.896,1.409
		c1.012,0.939,1.518,2.085,1.518,3.435v8.646c0,0.856,0.068,1.417,0.202,1.682c0.136,0.265,0.362,0.458,0.679,0.581
		s1.027,0.185,2.13,0.185v1.479h-9.103v-1.479h0.668c0.857,0,1.421-0.067,1.689-0.202c0.271-0.135,0.468-0.358,0.592-0.669
		c0.122-0.31,0.184-0.953,0.184-1.929v-6.005c0-1.325-0.045-2.189-0.141-2.588c-0.176-0.681-0.539-1.227-1.091-1.638
		s-1.257-0.615-2.114-0.615c-0.962,0-1.969,0.236-3.02,0.713c-1.05,0.475-2.141,1.188-3.268,2.139v8.822
		c0,0.658,0.061,1.099,0.178,1.32c0.117,0.223,0.311,0.388,0.581,0.494c0.271,0.104,0.81,0.157,1.62,0.157h0.722v1.479h-9.122
		v-1.479h0.545c0.857,0,1.48-0.104,1.869-0.316c0.209-0.106,0.362-0.311,0.456-0.616c0.095-0.307,0.142-1.15,0.142-2.535V66.383
		H201.014z"/>
	<path fill="#FFFFFF" d="M224.681,74.748v-1.461c0.976-0.116,1.794-0.278,2.456-0.488c0.663-0.207,1.418-0.539,2.263-0.992h1.286
		v14.123c0,0.493,0.07,0.863,0.212,1.109c0.14,0.247,0.336,0.425,0.589,0.537c0.254,0.113,0.713,0.167,1.383,0.167h0.828v1.479
		h-9.017v-1.479h0.722c0.786,0,1.314-0.07,1.586-0.21c0.27-0.143,0.459-0.342,0.57-0.6c0.113-0.258,0.168-0.863,0.168-1.814V74.748
		H224.681z M229.154,63.865c0.563,0,1.046,0.197,1.443,0.591c0.399,0.394,0.6,0.871,0.6,1.435s-0.2,1.045-0.6,1.444
		c-0.397,0.398-0.88,0.599-1.443,0.599s-1.046-0.2-1.444-0.599c-0.398-0.399-0.599-0.881-0.599-1.444s0.2-1.041,0.599-1.435
		S228.59,63.865,229.154,63.865z"/>
	<path fill="#FFFFFF" d="M235.651,74.748v-1.461c1.047-0.117,1.826-0.258,2.343-0.423c0.518-0.165,1.261-0.519,2.236-1.058h1.269
		v3.347c1.547-1.303,2.869-2.187,3.965-2.649c1.096-0.465,2.206-0.697,3.332-0.697c0.962,0,1.812,0.162,2.55,0.485
		c0.739,0.323,1.34,0.759,1.802,1.312c0.464,0.551,0.771,1.179,0.924,1.884c0.095,0.434,0.141,1.092,0.141,1.972v7.748
		c0,0.927,0.067,1.522,0.202,1.788c0.135,0.264,0.351,0.455,0.644,0.571c0.292,0.117,1.015,0.176,2.165,0.176v1.479h-9.05v-1.479
		h0.492c0.846,0,1.42-0.075,1.727-0.229c0.306-0.151,0.524-0.376,0.659-0.669s0.203-0.893,0.203-1.797v-6.479
		c0-1.338-0.108-2.265-0.326-2.782s-0.588-0.936-1.108-1.259c-0.522-0.323-1.183-0.484-1.982-0.484c-0.95,0-1.966,0.244-3.046,0.73
		c-1.08,0.487-2.124,1.206-3.134,2.158v8.116c0,0.916,0.068,1.526,0.202,1.832c0.135,0.306,0.354,0.535,0.66,0.687
		c0.212,0.117,0.774,0.176,1.69,0.176h0.511v1.479h-9.087v-1.479h0.443c0.875,0,1.471-0.072,1.789-0.22
		c0.318-0.146,0.543-0.407,0.674-0.783c0.07-0.188,0.105-0.834,0.105-1.938V74.748H235.651z"/>
	<path fill="#FFFFFF" d="M273.071,73.621c0.528-0.623,1.065-1.08,1.612-1.373c0.545-0.293,1.047-0.441,1.505-0.441
		c0.422,0,0.777,0.127,1.065,0.379c0.287,0.253,0.431,0.561,0.431,0.924c0,0.377-0.13,0.693-0.387,0.952
		c-0.258,0.257-0.587,0.388-0.986,0.388c-0.165,0-0.387-0.029-0.669-0.089c-0.329-0.081-0.605-0.124-0.828-0.124
		c-0.293,0-0.599,0.135-0.916,0.403c0.729,0.881,1.093,1.915,1.093,3.101c0,1.621-0.683,3.023-2.046,4.21
		c-1.364,1.187-3.087,1.778-5.167,1.778c-1.153,0-2.311-0.242-3.475-0.729c-0.774,0.552-1.216,0.895-1.322,1.023
		c-0.165,0.201-0.247,0.412-0.247,0.636c0,0.341,0.177,0.623,0.528,0.847c0.446,0.295,1.329,0.542,2.645,0.742l5.097,0.757
		c1.129,0.176,2.262,0.47,3.402,0.881c1.14,0.411,1.966,0.944,2.476,1.603c0.513,0.658,0.768,1.444,0.768,2.358
		c0,1.551-0.717,2.789-2.151,3.717c-1.821,1.186-4.522,1.778-8.106,1.778c-1.882,0-3.408-0.2-4.583-0.599
		c-1.176-0.399-2.086-0.963-2.732-1.691c-0.47-0.527-0.705-1.074-0.705-1.637c0-0.729,0.237-1.438,0.714-2.131
		c0.476-0.693,1.577-1.68,3.303-2.958c-1.116-0.282-1.914-0.611-2.396-0.989c-0.61-0.482-0.915-1.03-0.915-1.641
		c0-0.308,0.056-0.594,0.167-0.857c0.112-0.265,0.294-0.529,0.547-0.795c0.251-0.264,0.713-0.633,1.384-1.103
		c0.422-0.294,0.724-0.513,0.899-0.654c-0.858-0.608-1.506-1.292-1.94-2.048s-0.652-1.586-0.652-2.488
		c0-1.488,0.576-2.789,1.729-3.902c1.398-1.359,3.284-2.041,5.659-2.041c1.058,0,1.981,0.134,2.768,0.396
		C271.424,72.468,272.236,72.941,273.071,73.621z M264.904,88.73c-1.128,0.962-1.877,1.742-2.247,2.341
		c-0.372,0.599-0.557,1.175-0.557,1.726c0,0.469,0.185,0.926,0.555,1.365c0.372,0.441,1.003,0.802,1.897,1.082
		c0.893,0.283,2.015,0.424,3.366,0.424c1.599,0,2.972-0.175,4.119-0.52c1.146-0.346,1.966-0.79,2.458-1.33
		c0.365-0.422,0.548-0.922,0.548-1.497c0-0.492-0.15-0.908-0.449-1.25c-0.301-0.341-0.865-0.636-1.692-0.89
		c-0.83-0.252-1.604-0.437-2.32-0.553L264.904,88.73z M267.708,73.445c-1.152,0-2.129,0.416-2.929,1.247
		c-0.801,0.833-1.2,1.862-1.2,3.094c0,0.819,0.182,1.561,0.548,2.224c0.364,0.662,0.876,1.183,1.535,1.562
		c0.658,0.381,1.352,0.572,2.081,0.572s1.427-0.194,2.092-0.58c0.664-0.387,1.176-0.909,1.535-1.564
		c0.358-0.656,0.538-1.395,0.538-2.214c0-1.289-0.391-2.335-1.175-3.138C269.953,73.845,268.944,73.445,267.708,73.445z"/>
</g>
</svg>
