<?xml version="1.0" encoding="utf-8"?>
<!-- Generator: Adobe Illustrator 16.0.0, SVG Export Plug-In . SVG Version: 6.00 Build 0)  -->
<!DOCTYPE svg PUBLIC "-//W3C//DTD SVG 1.1//EN" "http://www.w3.org/Graphics/SVG/1.1/DTD/svg11.dtd">
<svg version="1.1" id="Layer_1" xmlns="http://www.w3.org/2000/svg" xmlns:xlink="http://www.w3.org/1999/xlink" x="0px" y="0px"
	 width="128px" height="98.429px" viewBox="0 0 128 98.429" enable-background="new 0 0 128 98.429" xml:space="preserve">
<g>
	<path fill-rule="evenodd" clip-rule="evenodd" fill="#577142" d="M0,66.069c11.618,0.003,23.241-0.179,34.853,0.1
		c4.778,0.114,8.215-1.714,11.205-5.072c5.227-5.872,9.017-12.708,13.048-19.381c3.689-6.11,7.385-12.208,12.04-17.663
		c5.878-6.887,12.976-10.42,22.366-10.42c9.722,0-0.087,0.054,9.711,0.054c1.485,0,1.953-0.461,1.953-1.959
		c0-11.56-0.028,0.154-0.028-11.727c3.205,2.919,5.917,5.374,8.611,7.848c4.136,3.797,8.254,7.614,12.397,11.404
		c0.526,0.482-0.019-0.002,1.838,1.676c0,0,0,0,0-0.001c-7.441,6.765-14.884,14.101-22.846,21.339
		c0-11.053,0.052-0.387,0.052-11.135c0-2.215-0.654-2.669-2.739-2.669c-9.798,0-0.084,0.007-9.981,0.007
		c-3.411,0-6.057,1.149-8.386,3.477c-4.21,4.208-7.274,9.244-10.358,14.261c-4.622,7.524-8.82,15.329-14.411,22.216
		c-4.752,5.854-10.167,10.819-17.987,12.153c-1.208,0.207-2.453,0.277-3.681,0.281C25.104,80.896,12.552,80.907,0,80.925
		C0,75.973,0,71.021,0,66.069z"/>
	<path fill-rule="evenodd" clip-rule="evenodd" fill="#577142" d="M105.203,98.429c0-3.205,0-6.719,0-10.531
		c0-2.883-0.535-3.906-3.635-3.799c-4.922,0.17-9.893,0.533-14.798-0.345c-7.331-1.313-12.746-5.564-17.176-11.316
		c-0.656-0.853-0.464-1.532,0.053-2.315c2.606-3.951,5.193-7.915,7.993-12.188c1.755,2.558,3.19,4.983,5.076,7.073
		c2.622,2.905,5.687,4.377,9.757,4.377c10.332,0,0.094,0,10.269,0c1.796,0,2.406-0.408,2.406-2.371c0-7.729,0-7.179,0-11.415
		c7.905,7.183,15.376,13.397,22.846,20.184c0.013,0,0-0.012,0-0.001L105.203,98.429z"/>
	<path fill-rule="evenodd" clip-rule="evenodd" fill="#577142" d="M0,16.928c12.566,0.018,25.132,0.038,37.699,0.055
		c6.815,0.01,12.539,2.695,17.495,7.196c0.787,0.715,1.792,1.406,0.868,2.859c-2.59,4.076-5.054,8.231-7.583,12.382
		c-1.36-1.53-2.473-2.963-3.771-4.204c-2.418-2.311-5.211-3.535-8.722-3.494C23.992,31.86,11.996,31.781,0,31.785
		C0,26.833,0,21.88,0,16.928z"/>
</g>
</svg>
