<?xml version="1.0" encoding="UTF-8" standalone="no"?><!DOCTYPE svg PUBLIC "-//W3C//DTD SVG 1.1//EN" "http://www.w3.org/Graphics/SVG/1.1/DTD/svg11.dtd"><svg width="100%" height="100%" viewBox="0 0 98 99" version="1.1" xmlns="http://www.w3.org/2000/svg" xmlns:xlink="http://www.w3.org/1999/xlink" xml:space="preserve" xmlns:serif="http://www.serif.com/" style="fill-rule:evenodd;clip-rule:evenodd;stroke-linejoin:round;stroke-miterlimit:1.41421;"><path d="M54.622,66.809c-5.435,3.294 -11.809,5.191 -18.622,5.191c-19.869,0 -36,-16.131 -36,-36c0,-19.869 16.131,-36 36,-36c19.869,0 36,16.131 36,36c0,7.33 -2.196,14.152 -5.965,19.843l29.649,29.648c3.088,3.089 3.088,8.104 0,11.193c-3.089,3.088 -8.104,3.088 -11.193,0l-29.698,-29.699c-0.058,-0.058 -0.115,-0.117 -0.171,-0.176Zm-18.622,-54.809c13.246,0 24,10.754 24,24c0,13.246 -10.754,24 -24,24c-13.246,0 -24,-10.754 -24,-24c0,-13.246 10.754,-24 24,-24Z" style="fill:#757575;"/></svg>