<?xml version="1.0" encoding="utf-8"?>
<!DOCTYPE svg PUBLIC "-//W3C//DTD SVG 1.1//EN" "http://www.w3.org/Graphics/SVG/1.1/DTD/svg11.dtd">
<svg version="1.1" id="Layer_1" xmlns="http://www.w3.org/2000/svg" xmlns:xlink="http://www.w3.org/1999/xlink" x="0px" y="0px"
	 width="81.214px" height="100px" viewBox="0 0 81.214 100" enable-background="new 0 0 81.214 100" xml:space="preserve">
<path fill="#FFFFFF" d="M81.214,90.095L63.015,61.601c6.201-6.553,10.039-15.365,10.039-25.076C73.054,16.384,56.664,0,36.523,0
	C16.385,0,0,16.384,0,36.525s16.385,36.53,36.523,36.53c3.797,0,7.464-0.584,10.906-1.667L65.701,100L81.214,90.095z M13.805,36.525
	c0-12.551,10.174-22.721,22.718-22.721c12.551,0,22.725,10.169,22.725,22.721c0,12.556-10.174,22.725-22.725,22.725
	C23.979,59.25,13.805,49.081,13.805,36.525z"/>
</svg>
