<?xml version="1.0" encoding="utf-8"?>
<!DOCTYPE svg PUBLIC "-//W3C//DTD SVG 1.1//EN" "http://www.w3.org/Graphics/SVG/1.1/DTD/svg11.dtd">
<svg version="1.1" id="Layer_1" xmlns="http://www.w3.org/2000/svg" xmlns:xlink="http://www.w3.org/1999/xlink" x="0px" y="0px"
	 width="90.192px" height="100px" viewBox="0 0 90.192 100" enable-background="new 0 0 90.192 100" xml:space="preserve">
<path fill="#FFFFFF" d="M23.408,57.446c0,0,6.231,3.107,4.154,9.682c-2.072,6.575-11.072,19.724-6.574,26.298
	C25.49,100,28.604,100,28.604,100s3.805-16.262,10.373-18.682c6.574-2.426,3.467-10.723,14.882-22.149l8.131-8.125H88.11h2.082
	V11.769H71.505c0,0-26.99-15.918-47.056-10.729c0,0-7.959,2.775-6.23,10.729c0,0-10.381-1.728-7.609,12.456
	c0,0-10.725,3.113-4.15,15.918c0,0-12.461,7.611-2.768,17.304H23.408z"/>
</svg>
