<?xml version="1.0" encoding="utf-8"?>
<!DOCTYPE svg PUBLIC "-//W3C//DTD SVG 1.1//EN" "http://www.w3.org/Graphics/SVG/1.1/DTD/svg11.dtd">
<svg version="1.1" id="Layer_1" xmlns="http://www.w3.org/2000/svg" xmlns:xlink="http://www.w3.org/1999/xlink" x="0px" y="0px"
	 width="100.001px" height="88.017px" viewBox="0 0 100.001 88.017" enable-background="new 0 0 100.001 88.017"
	 xml:space="preserve">
<path fill="#BBBBBB" d="M98.924,80.069L81.345,49.62c-2.523-4.37-6.653-11.523-9.177-15.894L54.589,3.278
	c-2.524-4.371-6.653-4.371-9.177,0L27.833,33.726C25.31,38.097,21.18,45.25,18.656,49.62L1.078,80.069
	c-2.524,4.37-0.459,7.947,4.588,7.947h35.158c5.047,0,13.306,0,18.353,0h35.159C99.383,88.017,101.447,84.439,98.924,80.069z
	 M56.585,72.15c-0.256,3.431-3.313,6.014-6.91,5.838c-3.56-0.172-6.32-3.122-6.166-6.591c0.153-3.457,3.152-6.203,6.691-6.124
	C53.918,65.354,56.856,68.519,56.585,72.15z M52.429,53.67c-0.573,2.267,0.757,6.414-2.506,6.435
	c-2.67,0.014-1.666-4.026-2.227-6.229c-1.468-5.765-2.633-11.607-3.834-17.437c-0.554-2.688-1.215-5.497,0.649-7.951
	c1.932-2.543,4.496-3.633,7.662-2.507c3.09,1.097,4.642,3.319,4.545,7.852C55.486,39.671,54.184,46.728,52.429,53.67z"/>
</svg>
