<?xml version="1.0" encoding="utf-8"?><svg xmlns="http://www.w3.org/2000/svg" width="32.545" height="32.911" viewBox="0 0 32.545 32.911"><path fill="#FFF" d="M31.798 28.562l-9.776-9.776a11.985 11.985 0 0 0 2.064-6.743C24.086 5.392 18.694 0 12.043 0 5.392 0 0 5.392 0 12.043c0 6.651 5.392 12.043 12.043 12.043 2.309 0 4.459-.662 6.292-1.789.013.013.021.029.034.042l9.827 9.826a2.541 2.541 0 0 0 1.801.746 2.548 2.548 0 0 0 1.801-4.349zM12.043 19.84c-4.299 0-7.797-3.498-7.797-7.797s3.498-7.797 7.797-7.797c4.299 0 7.797 3.498 7.797 7.797s-3.498 7.797-7.797 7.797z"/></svg>
