<?xml version="1.0" encoding="UTF-8"?><svg viewBox="0 0 35 35" xmlns="http://www.w3.org/2000/svg"><g fill="none" fill-rule="evenodd"><circle fill="#5F8344" cx="17.5" cy="17.5" r="17.5"/><path d="M21.51 26.25h-8.02a4.745 4.745 0 0 1-4.74-4.74v-8.02a4.745 4.745 0 0 1 4.74-4.74h8.02a4.745 4.745 0 0 1 4.74 4.74v8.02a4.745 4.745 0 0 1-4.74 4.74zm-8.02-16.042a3.285 3.285 0 0 0-3.282 3.282v8.02a3.285 3.285 0 0 0 3.282 3.282h8.02a3.285 3.285 0 0 0 3.282-3.281V13.49a3.285 3.285 0 0 0-3.282-3.282h-8.02z" fill="#FFFFFF" fill-rule="nonzero"/><path d="M17.5 21.875a4.38 4.38 0 0 1-4.375-4.375 4.38 4.38 0 0 1 4.375-4.375 4.38 4.38 0 0 1 4.375 4.375 4.38 4.38 0 0 1-4.375 4.375zm0-7.292a2.92 2.92 0 0 0-2.917 2.917 2.92 2.92 0 0 0 2.917 2.917 2.92 2.92 0 0 0 2.917-2.917 2.92 2.92 0 0 0-2.917-2.917z" fill="#FFFFFF" fill-rule="nonzero"/><circle fill="#FFFFFF" cx="22.148" cy="12.852" r="1.003"/></g></svg>