<?xml version="1.0" encoding="utf-8"?><svg height="128" viewBox="0 0 128 128" width="128" xmlns="http://www.w3.org/2000/svg"><circle cx="64" cy="64" fill="#6f8460" r="64"/><path d="M82.333 104H45.667C33.72 104 24 94.281 24 82.333V45.667C24 33.719 33.72 24 45.667 24h36.666C94.281 24 104 33.719 104 45.667v36.667C104 94.281 94.281 104 82.333 104zM45.667 30.667c-8.271 0-15 6.729-15 15v36.667c0 8.271 6.729 15 15 15h36.666c8.271 0 15-6.729 15-15V45.667c0-8.271-6.729-15-15-15H45.667z" fill="#FFF"/><path d="M64 84c-11.028 0-20-8.973-20-20 0-11.029 8.972-20 20-20s20 8.971 20 20c0 11.027-8.972 20-20 20zm0-33.333c-7.352 0-13.333 5.981-13.333 13.333 0 7.353 5.981 13.333 13.333 13.333S77.333 71.353 77.333 64c0-7.352-5.98-13.333-13.333-13.333z" fill="#FFF"/><circle cx="85.25" cy="42.75" fill="#FFF" r="4.583"/></svg>
