<?xml version="1.0" encoding="UTF-8"?><svg viewBox="0 0 35 35" xmlns="http://www.w3.org/2000/svg"><g fill="none" fill-rule="evenodd"><circle fill="#5F8344" cx="17.5" cy="17.5" r="17.5"/><path d="M26.25 11.886c-.583.323-1.295.516-1.943.58.713-.45 1.23-1.16 1.49-2-.648.388-1.36.71-2.202.904-.647-.71-1.49-1.162-2.46-1.162-1.878 0-3.432 1.614-3.432 3.678 0 .259 0 .581.064.84-2.849-.13-5.374-1.614-7.058-3.808-.323.516-.453 1.162-.453 1.871 0 1.291.583 2.388 1.49 3.033-.583 0-1.101-.193-1.555-.451v.064c0 1.742 1.166 3.227 2.72 3.614-.259.064-.583.129-.906.129-.195 0-.454 0-.648-.065.453 1.484 1.684 2.517 3.173 2.517-1.166.968-2.655 1.548-4.21 1.548-.258 0-.517 0-.84-.064 1.488 1.032 3.302 1.678 5.244 1.678 6.281 0 9.713-5.55 9.713-10.39v-.451c.777-.645 1.36-1.29 1.813-2.065z" fill="#FFFFFF"/></g></svg>