<?xml version="1.0" encoding="UTF-8"?><svg viewBox="0 0 35 35" xmlns="http://www.w3.org/2000/svg"><g fill="none" fill-rule="evenodd"><circle fill="#5F8344" cx="17.5" cy="17.5" r="17.5"/><path d="M25.667 13.49c0-.073 0-.146-.073-.22v-.072a1.576 1.576 0 0 0-1.532-1.094h.146s-2.843-.437-6.708-.437c-3.792 0-6.708.437-6.708.437h.146c-.73 0-1.313.438-1.532 1.094v.073c0 .073 0 .146-.073.219-.073.729-.291 2.26-.291 4.01s.218 3.281.291 4.01c0 .073 0 .146.073.22v.072a1.576 1.576 0 0 0 1.531 1.094h-.145s2.843.437 6.708.437c3.792 0 6.708-.437 6.708-.437h-.145c.729 0 1.312-.438 1.53-1.094v-.073c0-.073 0-.146.074-.219.073-.729.291-2.26.291-4.01s-.145-3.281-.291-4.01zm-5.688 4.375l-3.427 2.479c-.073.073-.146.073-.219.073-.073 0-.145 0-.218-.073a.401.401 0 0 1-.22-.365v-4.958c0-.146.074-.292.22-.365a.465.465 0 0 1 .437 0l3.427 2.48a.557.557 0 0 1 .146.364c.073.146 0 .292-.146.365z" fill="#FFFFFF" fill-rule="nonzero"/></g></svg>