<svg id="Layer_1" data-name="Layer 1" xmlns="http://www.w3.org/2000/svg" viewBox="0 0 667.65 393.75"><defs><style>.cls-1{fill:#585858;}</style></defs><title>Vector Smart Object</title><path class="cls-1" d="M163.6,215.44a207.15,207.15,0,0,0-69.86,1.71C71.45,221.45,49,229.51,30.9,243.54,14,256.68,2.26,274.93.23,296.53c-1.54,16.4,4.59,30.25,16.42,41.52,16,15.26,37.85,24.15,58.61,30.74,28.7,9.11,58.59,14.33,88.45,17.86,58.19,6.88,117.11,7.86,175.65,6.66,49.27-1,98.7-3.48,147.68-9.11,16.66-1.91,33.49-3.63,50-6.39,18.41-3.08,37.35-8.37,52-20.42,16.76-13.76,23.51-35.43,22.37-56.63-1.07-20-11.37-37.56-25-51.64C570.8,233,551,221.05,530.87,211.4A396.43,396.43,0,0,0,464.76,187c-57.41-15.83-117.61-19.72-176.94-17.7A931.29,931.29,0,0,0,116.3,191.58q-12.52,2.8-24.94,6c-5.9,1.54.72,8.09,5,7a897,897,0,0,1,139.33-24.3c64-6.24,129.78-6.67,193.13,5.39,41.88,8,84.57,21.41,121,43.89,17,10.47,33.33,23.66,43.39,41.2s11.41,39.66,4.2,58.58c-13.9,36.45-57.48,40.94-91,44.81-40.56,4.69-81,8.41-121.82,10.27-56.13,2.56-112.49,3-168.6-.33a791.79,791.79,0,0,1-79.57-8.32C108.18,371.2,79.57,365,53.31,353.2c-15-6.73-31.62-16.31-39.56-31.43s-3.81-34.69,4-49c10-18.32,28.36-30.64,47.17-38.62,21-8.89,44.1-13,66.79-13.51a185.34,185.34,0,0,1,32.09,1.94c6.51,1,5.19-6.31-.23-7.13h0Z"/><path class="cls-1" d="M586.24,210.56c14.58-7.27,27.74-18.25,39-29.88,24.48-25.32,39.75-58.3,42.09-93.55,1.9-28.78-4.41-57.48-14.75-84.2-1.78-4.6-11.7-3.55-9.75,1.48,16,41.42,21.42,87.56,3.08,129.16-10.9,24.7-29.08,45.94-51,61.58-3.32,2.37-6.72,4.62-10.23,6.68-1,.57-1.95,1.11-2.92,1.66-1.44.81,0.53-.25-0.13,0.08-5.82,2.9-.18,9.4,4.63,7h0Z"/><path class="cls-1" d="M582.41,167.33c-2.3,6.08-4.89,12.06-7.63,17.95-4.31,9.27-8.93,19.43-16.09,26.89-2.14,2.23-1.32,6.35,1.88,7.1,19.24,4.53,42.08,8,61.35,2.34,5.23-1.55,3-9.75-2.26-8.2-17.8,5.27-39,1.84-56.83-2.34l1.88,7.1c7.7-8,12.77-18.63,17.42-28.61,3.05-6.55,5.92-13.22,8.48-20,1.94-5.12-6.27-7.33-8.2-2.26h0Z"/></svg>