<svg id="Layer_1" data-name="Layer 1" xmlns="http://www.w3.org/2000/svg" viewBox="0 0 463.47 76.32"><defs><style>.cls-1{fill:#444f45;}.cls-2{fill:#93b874;}</style></defs><title>logo</title><path class="cls-1" d="M0,24H27.06v9.87H25.93a4.9,4.9,0,0,0-2.51.41,1.61,1.61,0,0,0-.72,1.38,7.85,7.85,0,0,0,.46,2.2L30.31,60,36.5,42.69,34.88,37.9a6.56,6.56,0,0,0-1.76-3,5.17,5.17,0,0,0-3.1-1V24H55.75v9.87h-2.1a4.12,4.12,0,0,0-2.41.51,1.76,1.76,0,0,0-.67,1.48,8.8,8.8,0,0,0,.61,2.66L57.35,56.9l6.23-18.34a9.24,9.24,0,0,0,.61-2.71,1.63,1.63,0,0,0-.74-1.46,6.32,6.32,0,0,0-3.06-.49H59.23V24h23v9.87a10.73,10.73,0,0,0-3.25.31,3.38,3.38,0,0,0-1.34,1A14.27,14.27,0,0,0,76,38.57L62.25,75.09H48.69l-7.61-20.5-7.73,20.5H19.69L6.24,38.57A11.5,11.5,0,0,0,4.5,35.34a2.92,2.92,0,0,0-1.3-1.12A12.68,12.68,0,0,0,0,33.91V24Z"/><path class="cls-1" d="M109.85,22.81v37.8a10.25,10.25,0,0,0,.31,3.33,2,2,0,0,0,1.1.95,11.57,11.57,0,0,0,3.56.33h2.76v9.87H86V65.22h2.71a12.33,12.33,0,0,0,3.4-.28,2,2,0,0,0,1.1-1,6.45,6.45,0,0,0,.36-2.66V36.93H86V27.31a61.18,61.18,0,0,0,7.75-.87,53.06,53.06,0,0,0,6.62-1.58,31.9,31.9,0,0,0,4.65-2h4.86ZM101.56,0a9,9,0,0,1,6.62,2.74,9,9,0,0,1,2.74,6.62A9.09,9.09,0,0,1,108.18,16a9.39,9.39,0,0,1-13.25,0A9,9,0,0,1,92.2,9.41,9,9,0,0,1,95,2.79,9,9,0,0,1,101.56,0"/><path class="cls-1" d="M146.85,0V46.07l9.82-8.32A15.84,15.84,0,0,0,158.54,36a1.27,1.27,0,0,0,.28-0.74,1.13,1.13,0,0,0-.69-1,7.17,7.17,0,0,0-2.94-.38h-1.94V24H184.5v9.87a15.2,15.2,0,0,0-4.6.46,31,31,0,0,0-5.37,3.38L164.59,45l14.13,16.43a11.45,11.45,0,0,0,3.5,3.15,16.25,16.25,0,0,0,5.34.64v9.87h-31.7V65.22h1.77a5.79,5.79,0,0,0,2.53-.36,1,1,0,0,0,.61-0.92q0-.72-1.64-2.86l-5.87-7.53-6.41,4.76v2.76a7.46,7.46,0,0,0,.31,2.63,2.33,2.33,0,0,0,1,1.1,5,5,0,0,0,2.33.41h1.79v9.87H123V65.22q1.54,0,2.35-.05a10.79,10.79,0,0,0,3.68-.38,2.29,2.29,0,0,0,1.18-1.31,20.2,20.2,0,0,0,.26-4.45V14.22H123v-10A62.69,62.69,0,0,0,141.89,0h5Z"/><path class="cls-1" d="M216.7,22.81v37.8a10.17,10.17,0,0,0,.31,3.33,2,2,0,0,0,1.1.95,11.57,11.57,0,0,0,3.56.33h2.76v9.87H192.81V65.22h2.71a12.33,12.33,0,0,0,3.4-.28A2,2,0,0,0,200,64a6.45,6.45,0,0,0,.36-2.66V36.93h-7.57V27.31a61.18,61.18,0,0,0,7.75-.87,53,53,0,0,0,6.62-1.58,31.89,31.89,0,0,0,4.65-2h4.86ZM208.41,0A9,9,0,0,1,215,2.74a9,9,0,0,1,2.74,6.62A9.08,9.08,0,0,1,215,16a9.39,9.39,0,0,1-13.25,0A9,9,0,0,1,199,9.38a9,9,0,0,1,2.81-6.62A9,9,0,0,1,208.41,0"/><path class="cls-2" d="M237.48,3.73h34.83V13.6h-3.2a8.25,8.25,0,0,0-3.61.54,3,3,0,0,0-1.37,1.53,14.13,14.13,0,0,0-.41,4.32V32.43h26V19.08a11.78,11.78,0,0,0-.31-3.33A2.69,2.69,0,0,0,288,14.07a12.32,12.32,0,0,0-4.3-.46H281V3.73h34.94V13.6H313a10.31,10.31,0,0,0-3.94.49,2.71,2.71,0,0,0-1.36,1.43,15.49,15.49,0,0,0-.38,4.48V58.67a13.56,13.56,0,0,0,.49,4.63,2.86,2.86,0,0,0,1.48,1.48,14.53,14.53,0,0,0,4.58.43h2v9.87H281V65.22h2.3a12.37,12.37,0,0,0,4.37-.51,3,3,0,0,0,1.59-1.48,14.29,14.29,0,0,0,.43-4.55V43.58h-26V58.67a18.48,18.48,0,0,0,.31,4.45,2.77,2.77,0,0,0,1.58,1.69,14.48,14.48,0,0,0,4.32.41h2.39v9.87H237.48V65.22h2.37a11.69,11.69,0,0,0,4.17-.51,3,3,0,0,0,1.62-1.43,11.53,11.53,0,0,0,.44-4V20.46a15.8,15.8,0,0,0-.44-4.73,3.06,3.06,0,0,0-1.36-1.61,8.46,8.46,0,0,0-3.6-.51h-3.19V3.73h0Z"/><path class="cls-2" d="M348.87,22.81a32.22,32.22,0,0,1,15.24,3.43,24.75,24.75,0,0,1,10,9.33,26.62,26.62,0,0,1,3.5,13.84q0,12-7.77,19.44t-20.77,7.47q-13.25,0-21.07-7.52-7.57-7.16-7.57-19.39a26.44,26.44,0,0,1,3.45-13.81,25.13,25.13,0,0,1,10-9.28,31.28,31.28,0,0,1,15-3.5m0.2,11.2a9.57,9.57,0,0,0-5.47,1.74,11.17,11.17,0,0,0-4,5.12,22.52,22.52,0,0,0-1.41,8.59,24.66,24.66,0,0,0,1.38,8.9,11,11,0,0,0,3.81,5.22,9.17,9.17,0,0,0,5.34,1.69,9.8,9.8,0,0,0,7.72-3.81q3.22-3.81,3.22-11.84,0-7.77-3-11.69a9.23,9.23,0,0,0-7.6-3.94"/><path class="cls-2" d="M381.27,24h27.06v9.87h-1.12a4.91,4.91,0,0,0-2.51.41,1.61,1.61,0,0,0-.7,1.42,7.86,7.86,0,0,0,.46,2.2L411.59,60l6.18-17.27-1.62-4.79a6.57,6.57,0,0,0-1.76-3,5.17,5.17,0,0,0-3.09-1V24H437v9.87h-2.1a4.13,4.13,0,0,0-2.41.51,1.76,1.76,0,0,0-.67,1.48,8.8,8.8,0,0,0,.61,2.66l6.15,18.33,6.23-18.34a9.25,9.25,0,0,0,.61-2.71,1.63,1.63,0,0,0-.74-1.46,6.32,6.32,0,0,0-3.06-.49H440.5V24h23v9.87a10.73,10.73,0,0,0-3.25.31,3.37,3.37,0,0,0-1.34,1,14.33,14.33,0,0,0-1.6,3.37L443.52,75.09H430l-7.61-20.5-7.73,20.5H401L387.51,38.57a11.5,11.5,0,0,0-1.74-3.22,2.93,2.93,0,0,0-1.3-1.12,12.68,12.68,0,0,0-3.2-.31V24h0Z"/></svg>