<?xml version="1.0" encoding="UTF-8" standalone="no"?><!DOCTYPE svg PUBLIC "-//W3C//DTD SVG 1.1//EN" "http://www.w3.org/Graphics/SVG/1.1/DTD/svg11.dtd"><svg width="100%" height="100%" viewBox="0 0 32 32" version="1.1" xmlns="http://www.w3.org/2000/svg" xmlns:xlink="http://www.w3.org/1999/xlink" xml:space="preserve" xmlns:serif="http://www.serif.com/" style="fill-rule:evenodd;clip-rule:evenodd;stroke-linejoin:round;stroke-miterlimit:2;"><g><g><path d="M17.962,13.549l-3.92,0l0,7.84l-2.941,0l4.899,5.881l4.899,-5.881l-2.937,0l0,-7.84Z" style="fill-rule:nonzero;"/><path d="M27.354,12.778c-0.909,-2.413 -3.236,-4.128 -5.965,-4.128c-0.627,0 -1.235,0.089 -1.808,0.259c-1.555,-2.509 -4.333,-4.179 -7.501,-4.179c-4.806,0 -8.717,3.846 -8.819,8.627c-1.757,1.017 -2.941,2.921 -2.941,5.094c0,3.245 2.634,5.879 5.882,5.879l4.409,0l-1.635,-1.962l-2.781,0c-2.16,0 -3.917,-1.754 -3.917,-3.92c0,-1.856 1.29,-3.411 3.024,-3.818c-0.057,-0.352 -0.086,-0.713 -0.086,-1.081c0,-3.789 3.072,-6.861 6.861,-6.861c3.097,0 5.718,2.054 6.566,4.877c0.755,-0.599 1.706,-0.957 2.743,-0.957c2.268,0 4.14,1.715 4.384,3.92l0.028,0c2.16,0 3.917,1.754 3.917,3.92c0,2.16 -1.753,3.92 -3.917,3.92l-2.78,0l-1.636,1.962l4.41,0c3.245,0 5.882,-2.64 5.882,-5.882c0.006,-2.707 -1.828,-4.989 -4.32,-5.67Z" style="fill-rule:nonzero;"/></g></g></svg>