<?xml version="1.0" encoding="utf-8"?><svg xmlns="http://www.w3.org/2000/svg" width="28.642" height="28.642" viewBox="0 0 28.642 28.642"><path fill="#93b874" d="M14.294 0C6.4 0 0 6.4 0 14.294s6.4 14.294 14.294 14.294 14.294-6.4 14.294-14.294C28.589 6.4 22.189 0 14.294 0zm-1.295 23.926c-1.148 0-2.1-.854-2.1-2.051 0-1.172.952-2.027 2.1-2.027s2.124.854 2.124 2.027c0 1.197-.976 2.051-2.124 2.051zm3.458-8.717c-1.583.463-1.914 1.512-1.918 2.945l-.017.186H11.35l-.017-.185c0-3.023.007-4.278 2.968-5.551l1.2-.51.043-.021c1.269-.689 1.37-1.326 1.37-2.087 0-1.207-1.13-2.118-2.627-2.118-1.371 0-2.376.829-2.587 2.071H8.469c.207-3.223 2.444-5.276 5.818-5.276 3.544 0 5.833 2.101 5.833 5.353 0 2.545-1.372 4.488-3.663 5.193z"/></svg>