<?xml version="1.0" encoding="utf-8"?><svg xmlns="http://www.w3.org/2000/svg" viewBox="0 0 28.25 28.25"><title>Untitled-1</title><g fill="#fff"><path d="M12.25 20.68h3.24v3.35h-3.24zM14.14 5.18a5.67 5.67 0 0 0-4.33 1.69 6.19 6.19 0 0 0-1.58 4.4v.45h3v-.43a5.2 5.2 0 0 1 .44-2.16 2.43 2.43 0 0 1 2.39-1.22 2.47 2.47 0 0 1 2 .69 2.58 2.58 0 0 1 .6 1.72 2.47 2.47 0 0 1-.42 1.36 3.66 3.66 0 0 1-.63.75l-1 .93a7.55 7.55 0 0 0-1.89 2.52 8.11 8.11 0 0 0-.43 2.88v.45h3v-.45a5.24 5.24 0 0 1 .31-2.06A6.43 6.43 0 0 1 17 15a15.83 15.83 0 0 0 2.17-2.36 4.07 4.07 0 0 0 .59-2.27 4.89 4.89 0 0 0-1.56-3.72 5.73 5.73 0 0 0-4.06-1.47z"/><path d="M14.13 0a14.13 14.13 0 1 0 14.12 14.13A14.14 14.14 0 0 0 14.13 0zm0 25.92a11.79 11.79 0 1 1 11.79-11.79 11.81 11.81 0 0 1-11.79 11.79z"/></g></svg>