<?xml version="1.0" encoding="UTF-8"?><svg viewBox="0 0 32 32" xmlns="http://www.w3.org/2000/svg"><g fill="none" fill-rule="evenodd"><circle stroke="#FFFFFF" stroke-width="2" cx="16" cy="16" r="15"/><path d="M15.408 22.75h1.484a1 1 0 0 1 1 1V25a1 1 0 0 1-1 1h-1.484a1 1 0 0 1-1-1v-1.25a1 1 0 0 1 1-1zm-5.134-9.412c0-.953.143-1.82.429-2.6a5.521 5.521 0 0 1 1.248-2.002 5.618 5.618 0 0 1 1.976-1.287c.771-.303 1.634-.455 2.587-.455a6.83 6.83 0 0 1 2.223.351 5.363 5.363 0 0 1 1.794 1.014c.511.442.914.992 1.209 1.651.295.659.442 1.404.442 2.236 0 .607-.065 1.131-.195 1.573-.13.442-.303.823-.52 1.144-.217.32-.464.607-.741.858-.277.251-.555.498-.832.741-.33.277-.633.546-.91.806s-.52.55-.728.871c-.208.32-.368.698-.481 1.131-.113.433-.169.962-.169 1.586h-2.808c0-.763.039-1.408.117-1.937.078-.529.204-.992.377-1.391.173-.399.386-.75.637-1.053.251-.303.55-.602.897-.897.277-.243.542-.468.793-.676.251-.208.477-.438.676-.689.2-.251.355-.533.468-.845.113-.312.169-.685.169-1.118 0-.52-.091-.966-.273-1.339a2.781 2.781 0 0 0-.663-.897 2.579 2.579 0 0 0-.832-.494 2.387 2.387 0 0 0-.78-.156c-1.075 0-1.868.351-2.379 1.053-.511.702-.767 1.642-.767 2.821h-2.964z" fill="#FFFFFF" fill-rule="nonzero"/></g></svg>