<?xml version="1.0" encoding="utf-8"?><svg height="1000" width="571.429" xmlns="http://www.w3.org/2000/svg"><style>.st0{fill:#97ba78}.st1{fill:#fff}</style><path class="st0" d="M571.392 607.168q0 14.508-10.602 25.11L310.806 882.262q-10.602 10.602-25.11 10.602t-25.11-10.602L10.602 632.278Q0 621.676 0 607.168t10.602-25.11 25.11-10.602H535.68q14.508 0 25.11 10.602t10.602 25.11zm0-214.272q0 14.508-10.602 25.11t-25.11 10.602H35.712q-14.508 0-25.11-10.602T0 392.896t10.602-25.11l249.984-249.984q10.602-10.602 25.11-10.602t25.11 10.602L560.79 367.786q10.602 10.602 10.602 25.11z"/></svg>