<?xml version="1.0" encoding="utf-8"?>
<!-- Generator: Adobe Illustrator 19.1.0, SVG Export Plug-In . SVG Version: 6.00 Build 0)  -->
<!DOCTYPE svg PUBLIC "-//W3C//DTD SVG 1.1//EN" "http://www.w3.org/Graphics/SVG/1.1/DTD/svg11.dtd">
<svg version="1.1" id="Layer_1" xmlns="http://www.w3.org/2000/svg" xmlns:xlink="http://www.w3.org/1999/xlink" x="0px" y="0px"
	 width="28.515px" height="28.515px" viewBox="-390 292.345 28.515 28.515" enable-background="new -390 292.345 28.515 28.515"
	 xml:space="preserve">
<g id="Layer_1_1_">
</g>
<path fill="#CDCDCD" d="M-375.743,292.345c-7.874,0-14.257,6.383-14.257,14.257c0,7.874,6.383,14.257,14.257,14.257
	c7.874,0,14.257-6.383,14.257-14.257C-361.485,298.728-367.868,292.345-375.743,292.345z M-375.743,296.35
	c1.276,0,2.31,1.034,2.31,2.31c0,1.276-1.034,2.31-2.31,2.31s-2.31-1.034-2.31-2.31C-378.053,297.384-377.018,296.35-375.743,296.35
	z M-371.478,315.615h-8.528v-1.711h2.068v-10.937h4.392v10.937h2.068V315.615z"/>
</svg>
