<?xml version="1.0" encoding="utf-8"?><svg xmlns="http://www.w3.org/2000/svg" xmlns:xlink="http://www.w3.org/1999/xlink" viewBox="0 0 789.23 649.81"><defs><style>.cls-1{fill:url(#linear-gradient)}.cls-2{fill:#fff}.cls-3{fill:#e5cebe}.cls-4{fill:#c6af9e}.cls-5{fill:#e4e5e6}.cls-6{fill:#f0bd6c}.cls-7{fill:#595959}.cls-17,.cls-20,.cls-8{fill:none}.cls-8{stroke:#cecece;stroke-miterlimit:10}.cls-10,.cls-11,.cls-9{opacity:.8}.cls-9{fill:url(#linear-gradient-2)}.cls-10{fill:url(#linear-gradient-3)}.cls-11{fill:url(#linear-gradient-4)}.cls-12{fill:#b7b7b7}.cls-13{fill:#f9cfc5}.cls-14{fill:#696d98}.cls-15{fill:#cecece}.cls-16{fill:#3e3a58}.cls-18{fill:#94b777}.cls-19{fill:#7fa35d}.cls-20{stroke:#3e3a58;stroke-linecap:round;stroke-linejoin:round;stroke-width:7px}.cls-21{opacity:.7;fill:url(#linear-gradient-5)}</style><linearGradient id="linear-gradient" x1="379.19" y1="363.23" x2="355.18" y2="149.29" gradientUnits="userSpaceOnUse"><stop offset="0" stop-color="#696d98"/><stop offset="1" stop-color="#3e3a58"/></linearGradient><linearGradient id="linear-gradient-2" x1="411.73" y1="8.7" x2="304.77" y2="-166.88" gradientTransform="rotate(2.13 -5775.019 202.872)" gradientUnits="userSpaceOnUse"><stop offset="0" stop-color="#fff"/><stop offset="1" stop-color="#fff" stop-opacity=".2"/></linearGradient><linearGradient id="linear-gradient-3" x1="344.77" y1="206.41" x2="367.68" y2="163.15" xlink:href="#linear-gradient-2"/><linearGradient id="linear-gradient-4" x1="413.73" y1="36.22" x2="388.08" y2="126.91" xlink:href="#linear-gradient-2"/><linearGradient id="linear-gradient-5" x1="193.7" y1="265.83" x2="349.7" y2="479.83" gradientUnits="userSpaceOnUse"><stop offset="0" stop-color="#f0bd6c"/><stop offset="1" stop-color="#f0bd6c" stop-opacity=".1"/></linearGradient></defs><title>winter survival guide graphic final</title><g id="Layer_2" data-name="Layer 2"><g id="graphic_with_text" data-name="graphic with text"><path class="cls-1" d="M240.45 10.79h228.14v265.25H240.45z"/><path class="cls-2" d="M406.69 18.3c0 4.67 3.38 5 5.11 7.83 1.83 3 2.05 6.68 2.77 8.32 1.39 3.18 2.23-3.45 5.06-7.08 2.27-2.9 6.33-6 9.66-.69s2.92 19.74 5.46 14.68.55-13.06 2.88-13.36.16 7.83 2.58 8.08 1.39-10.14 8.73-12.08 2.36-9.41 2.36-9.41zM246.63 114.49s17.33 11.19 38.25 7.23c5.67-1.08 13.28-8.45 22.64-7.23s32.32 10.25 42.79 9 16.75-7.8 27.31-6 7.9 7.26 21.73 7.26c4.06 0 9.54-7.21 17.66-7s14.76 3.65 23.2 3.65c12.59 0 19.59-19 26.09-15.48s2.81 31.33-8 31.33H246.63c-4-.03-9.33-21.25 0-22.76zM249.63 23.37c0 1.75.36 3.77 1.83 4.73 6.77 4.46 2.07 24 9.25 25.32 6.4 1.16 7.47-27.63 11-27.18 5.57.72 2.53 15.79 4.94 15.36s3.64-13.07 7.83-13.07c5.88 0 4.74 21.23 10.86 21.23 2.63 0 4.13-12 9.4-18.77s18.43-8.82 17.52-13.8c-.75-4.14-50.45-2.33-67.19-1.61a5.69 5.69 0 0 0-5.43 5.68zM245 260.63c-11.36-17.16 15.72-46.46 55.67-26.66 26.33 13.05 22.2 18.95 36.29 13.48 16.41-6.37 36.76 7 49.6 5 15-2.28 25.38-10.72 48.23-9.46 23.51 1.29 31.55 6.46 34.21 17.29s-40.33 14.36-57 13.84-77.15-4.94-85-3.57c-41 7.13-78-3.78-82-9.92z"/><circle class="cls-2" cx="422.92" cy="78.47" r="8.73"/><circle class="cls-2" cx="406.69" cy="216.09" r="8.73"/><circle class="cls-2" cx="316.25" cy="98.12" r="8.73"/><circle class="cls-2" cx="304.33" cy="178.89" r="5.5"/><circle class="cls-2" cx="344.85" cy="60.63" r="5.46"/><circle class="cls-2" cx="434.75" cy="166.89" r="5.46"/><circle class="cls-2" cx="458.26" cy="214.92" r="5.46"/><circle class="cls-2" cx="271.02" cy="114.49" r="5.46"/><circle class="cls-2" cx="448.94" cy="46.82" r="5.46"/><circle class="cls-2" cx="422.47" cy="252.47" r="5.46"/><circle class="cls-2" cx="406.19" cy="4.45" r="4.45"/><circle class="cls-2" cx="276.47" cy="208.81" r="4.45"/><circle class="cls-2" cx="326.07" cy="232.01" r="4.45"/><path class="cls-3" d="M473.75 2H239.06a5.46 5.46 0 0 0-5.46 5.46v270.7a5.46 5.46 0 0 0 5.46 5.46h234.69a5.45 5.45 0 0 0 5.45-5.46V7.43A5.45 5.45 0 0 0 473.75 2zM251.07 27.45a5.46 5.46 0 0 1 5.46-5.45h90.05v107.68h-95.51zm210.67 230.66a5.45 5.45 0 0 1-5.46 5.45H256.53a5.45 5.45 0 0 1-5.46-5.45V149.33h95.51V263.4h19.65V149.33h95.51zm-95.51-128.43V22h90a5.46 5.46 0 0 1 5.46 5.46v102.22z"/><path class="cls-3" d="M512.4 289.14H198.8a2.17 2.17 0 0 1-1.61-3.74L217 266.85a2.37 2.37 0 0 1 1.61-.63h273.95a2.37 2.37 0 0 1 1.61.63L514 285.4a2.17 2.17 0 0 1-1.6 3.74z"/><rect class="cls-4" x="194.88" y="285.87" width="319.69" height="13.1" rx="2.81" ry="2.81"/><rect class="cls-4" x="25.63" y="417.97" width="19.51" height="120.48" rx="9.23" ry="9.23"/><rect class="cls-4" x="122.09" y="332.44" width="19.51" height="120.48" rx="9.23" ry="9.23"/><rect class="cls-4" x="738.3" y="417.97" width="19.51" height="120.48" rx="9.23" ry="9.23"/><path class="cls-3" d="M782.76 429H5.57c-4.43 0-6.67-4.52-3.57-7.2l105.74-97.35a5.5 5.5 0 0 1 3.57-1.27H677a5.5 5.5 0 0 1 3.57 1.27l105.74 97.35c3.12 2.65.88 7.2-3.55 7.2z"/><rect class="cls-4" y="419.47" width="789.23" height="13.5" rx="6.75" ry="6.75"/><path class="cls-4" d="M443.28 351.06c.3 9.73-25.67 18.43-58 19.42s-48.88-7.32-49.18-17.05 18.19-12.64 48.09-18.19c31.81-5.9 58.81 6.08 59.09 15.82z"/><path class="cls-2" d="M402.48 349.47v-50.61a2.33 2.33 0 0 1 .47-1.45 4.68 4.68 0 0 0 1.11-2.87c0-6.11-15.41-11.07-34.42-11.07s-34.42 5-34.42 11.07a4.74 4.74 0 0 0 1.11 2.87 2.34 2.34 0 0 1 .48 1.45v50.61a2.42 2.42 0 0 1-.68 1.69 4.86 4.86 0 0 0-1.57 3.35c0 6.23 15.71 12.29 35.08 12.29s35.09-6.06 35.09-12.29a4.88 4.88 0 0 0-1.58-3.35 2.45 2.45 0 0 1-.67-1.69z"/><ellipse class="cls-5" cx="369.64" cy="294.81" rx="30.57" ry="9.46"/><ellipse class="cls-6" cx="369.64" cy="298.31" rx="28.4" ry="5.96"/><path class="cls-6" d="M389.55 347.88a29.91 29.91 0 0 1-7.92 2 48.25 48.25 0 0 1-7.92 0v-20.5a79.55 79.55 0 0 0 8.34 0 32.69 32.69 0 0 0 7.5-2z"/><path class="cls-5" d="M386.3 342a13.86 13.86 0 0 1-3.67.92 21.82 21.82 0 0 1-3.67 0v-9.5a35.41 35.41 0 0 0 3.86 0 15 15 0 0 0 3.48-.92z"/><path class="cls-7" d="M386.3 344.72a13.86 13.86 0 0 1-3.67.92 21.82 21.82 0 0 1-3.67 0v-1.5a35.41 35.41 0 0 0 3.86 0 15 15 0 0 0 3.48-.92z"/><path class="cls-8" d="M379.46 303.77c0-2 3.42-.8 2.72 1.67-1.26 4.44-.91 24.06-.91 24.06"/><path class="cls-9" d="M385.73 70.17c-7.08 17.87-15 24.35-16.08 52.61s27.58 39.52 17.46 70.85-28.73 30.6-27 56.27c1.4 21.16 16.81 29.43 16.81 29.43s-6.54-28.59 3-40.12 28.3-38.21 29.41-58.08c1.2-21.33-19.58-29.3-25.35-51-3.44-12.85 1.75-59.96 1.75-59.96z"/><path class="cls-10" d="M351.05 103.89s-8.5 33.12-8.5 49.23 14.39 31 11.95 45.34-13.28 24.87-14.73 37.44c-2.41 20.88 18.2 36.24 18.2 36.24s-9.16-24.61-6.2-35.35c4.3-15.57 18.29-34.3 16.45-46.39s-22.54-36.84-17.17-86.51z"/><path class="cls-11" d="M398.19 37.82c5 22.4 23.23 34.73 24.07 48.16 1.38 22.32-19.07 37.7-19.07 37.7s10.36-25.75 7.93-37.3c-3.53-16.76-21.54-29.63-21.43-46.33C389.82 19.41 404.75 3 404.75 3s-8.99 23.93-6.56 34.82z"/><path class="cls-2" d="M420.8 324.13c0 9.21-6.3 16.67-14.07 16.67s-14.08-7.46-14.08-16.67 6.3-16.66 14.08-16.66 14.07 7.46 14.07 16.66zM403.73 314c-4.72 0-8.55 4.53-8.55 10.12s3.83 10.12 8.55 10.12 8.54-4.53 8.54-10.12-3.82-10.12-8.54-10.12z"/><path class="cls-12" d="M598.63 647.81s-81.19-10-163.88-67.84c-40.69-28.47-83.76-62.56-82.94-84.78s167.82-11.92 201.82 22.93 97 127.54 45 128.69"/><path class="cls-13" d="M563.71 161.18a8.74 8.74 0 0 1-1.72 2.33c-4.07 3.9-18.34 17.94-20.52 24.66-2.55 7.86 7.45 10.54 7 12.49s-2.2 7.61-.06 18.27 14.32 11.54 18.52 28.61c1 4.2-2.52 10.43-1.83 13.2 1 4.1 17.11 5.1 21.32 4.77l25.15-1.63c2.65-.21 3.84-4.63 5.3-6.85 6.43-9.81 24-37.59 26.09-50.74 1.88-12.1-39.67-54.15-61.51-63.93-6.26-2.79-15.28 13.95-17.74 18.82z"/><path class="cls-14" d="M413.2 498.22c-2.09-1.07-4.25-2.07-6.43-3 1.25-3.37 1.24-6 .62-7.81-4.93-14-55.5-28.36-55.58 7.78 0 14.16 20.26 28.83 42.4 40.15s44.33 12.2 49.57 1.95-8.44-27.75-30.58-39.07z"/><path class="cls-13" d="M399 516c12.75 7.27 16.7 15.28 28.72 9.41 7.15-3.5-4.46-30.74-4.46-30.74s-13.92-12.55-19-8.89C391.2 495.12 399 516 399 516z"/><ellipse class="cls-13" cx="532.5" cy="289.23" rx="25.62" ry="15.41"/><path class="cls-5" d="M413.08 533.21c10.77 9.69 31.17 6.5 40.55-.74 11.62-9-15.29-63.19 1-64.65 25-2.25 14.07 34.72 16.67 47.42 3.51 17.18 26.64 31.51 53.57 53s165.87 35.55 192.8 9.7S755 476.27 733.59 463.81 571.93 444.33 562 435.44c-15.51-13.79-59.4-57.7-108.7-69.44-79.69-18.91-50.99 157.51-40.22 167.21z"/><path class="cls-15" d="M445.92 443c-1.25-2.44-4.66-1.56-4.95 1.16-1.06 10.08 1 40.28 1.33 43.13.19 1.8 2-7.12 5.81-13.52a19.57 19.57 0 0 1 6.52-6 15.59 15.59 0 0 1 7.58-1.1s-6.33-8-8.91-12.25-7.38-11.42-7.38-11.42z"/><path class="cls-6" d="M733.63 313c-10-13-54.81-24.19-76.41-28.93-8.25-1.81-16.39-8.08-16.47-16.53-.12-13.54-11.76-14.76-42-16.4-49.54-2.69-32.7 6-44.32 26.36-1.67 2.93-14.59 6.35-23.88 9.16-3.49 1.06-6.79 2.15-10 3.27a21.28 21.28 0 0 0-10.62-8.93c-22.18-8.08-66.3 25.29-75.3 35.62-6.63 7.66-11.8 17.38-12.25 26.38-1.46 4.31-.83 8.95 1 14.74 8.26 26.57 74.19 11.19 85.78 23.69 9.27 10 8.77 48.52 33 77.2 23.76 28.09 149 28.52 180.49 10.3C759.89 447.42 763 351.05 733.63 313z"/><ellipse class="cls-16" cx="567.24" cy="178.51" rx="6.3" ry="3.73" transform="rotate(-60 567.238 178.515)"/><path class="cls-17" d="M500.54 498.14c-.59.75-1.14 1.45-1.67 2.1a7.06 7.06 0 0 0 1.67-2.1z"/><path class="cls-18" d="M755.43 362.07c22.07 69.46 15.41 158.4-16.41 224-17.81 36.71-47.29 54-86.68 60.91-41.46 7.25-85.55.77-122.19-20.29-23.27-13.37-72.85-45.37-88.48-82.38-5.53-13.1-3.49-70.32 13-76.47 22.23-8.3 58.21 43.27 78.11 48.13s-32.11-101.32 13.16-159.6c45.78-59.01 193.48-44.66 209.49 5.7z"/><path class="cls-19" d="M559.65 372C601 319.21 715.84 323.73 755 360.87c-18-49.38-162.57-63.87-209.1-4.52-33.92 43.28-13.3 115.1-8.71 147.9-1.93-29.54-1.32-101.95 22.46-132.25zM467 480.73c17.5 8.51 33 22.39 46.16 30.92 10 6.51 18.17 8.82 22.74 3.59a3.46 3.46 0 0 1-3.13.71c-19.9-4.86-57.36-57.42-78.11-48.13-2.42 1.08-7.25 5.08-9.27 11.68 5.05-2.22 14.35-2.29 21.61 1.23z"/><path class="cls-16" d="M575 132.45c-6.26 16.65-6.4 41 17.47 68.15 13.69 15.55 31.05-.4 37.39 8.71 3.57 5.13-1.86 15.72-15 23-22.08 12.27-3.21 55.87 19.58 78 22.94 22.25 65.8 38.59 81.05-4s-20.49-64.49-22.8-81.12 13.08-40.76-4.07-75.06c-11.56-23.15-45.91-42-69.21-43.59-25.63-1.76-38.16 9.16-44.41 25.91z"/><path class="cls-4" d="M111.38 338.91l17.49 34.77s-32.24 5.64-63.74-2.68c-5.58-1.47-5.11-2.68-5.11-2.68l40.86-37.62z"/><path class="cls-20" d="M123.53 239L79.9 267.64a8.92 8.92 0 0 0-3.19 11.21l33.49 71.87"/><path class="cls-16" d="M165.85 351.05a13.23 13.23 0 0 1 .78 4.36c0 4.87-16.91 13.33-37.76 13.33s-37.77-6.58-37.77-13.33a12.14 12.14 0 0 1 .7-3.9 15 15 0 0 0-2.73 8.12c0 7.12 17.82 14.05 39.8 14.05s39.8-8.92 39.8-14.05a15.79 15.79 0 0 0-2.82-8.58z"/><path class="cls-14" d="M128.87 368.74c20.85 0 37.76-8.46 37.76-13.33a13.23 13.23 0 0 0-.78-4.36c-4.82-7.34-16.21-14.3-37-14.3-20.27 0-32.12 7.25-37.07 14.76a12.14 12.14 0 0 0-.7 3.9c.02 6.75 16.92 13.33 37.79 13.33z"/><path class="cls-21" d="M131.94 255.15S135.89 308 146 376.5c7.71 32.47 229.68 43 254.36-.44 10.32-18.14-215.82-155.5-215.82-155.5l-52.59 34.59"/><circle class="cls-6" cx="160.04" cy="239.08" r="12.55"/><rect class="cls-16" x="129.71" y="193.73" width="10.62" height="16.96" rx="5.31" ry="5.31" transform="rotate(-26.64 134.986 202.193)"/><path class="cls-14" d="M131.94 255.15a6 6 0 0 1-8.89-2.73 38.08 38.08 0 0 1 62.52-41.06 6 6 0 0 1-1 9.2z"/></g></g></svg>
