<svg xmlns="http://www.w3.org/2000/svg" width="45.012" height="39.555" viewBox="0 0 45.012 39.555"><g data-name="Group 2035" fill="#fff" fill-rule="evenodd"><path data-name="Path 2075" d="M0 9.416c.5 1.078 1.311 2.143 4.859 1.26l-1.584 1.656a4.851 4.851 0 0 0 4.566-.488c.482.9-.43 1.712-.465 2.341 2.605.909 6.039-2.42 10.437-1.212a.788.788 0 0 0 .952-.8v-1.858a5.65 5.65 0 0 0-8.57-5.058C7.137 7.196 3.916 10.021 0 9.416z"/><path data-name="Path 2076" d="M34.815 5.254a5.65 5.65 0 0 0-8.57 5.058v1.858a.788.788 0 0 0 .954.8c4.4-1.208 7.83 2.121 10.437 1.212-.034-.628-.949-1.44-.466-2.341a4.854 4.854 0 0 0 4.568.488l-1.586-1.656c3.551.882 4.361-.182 4.859-1.26-3.919.608-7.135-2.217-10.196-4.159z"/><path data-name="Path 2077" d="M33.622 19.947c-.036-.07-.052-.126-.086-.178a1.422 1.422 0 0 1-.07-.774 4.425 4.425 0 0 0-2.153-3.549 6.122 6.122 0 0 0-5-.322c-.551.234-.688.576-.724 1.2-.068 1.532 1.224 3.009 2.483 3.783a5.068 5.068 0 0 0 3.187.754c.052 0 .1-.018.139-.018.223 0 .293.146.344.414a1.771 1.771 0 0 1-.137.828 2.738 2.738 0 0 1-1.241 1.19c-.517.268-.794.7-.535 1.242.344.484 1.086.9 1.482.7a4.647 4.647 0 0 0 2.171-2.215 4.449 4.449 0 0 0 .14-3.055z"/><path data-name="Path 2078" d="M21.327 37.603a15.312 15.312 0 0 1-4.006-2.225c-.45-.378-.918-1.421-.684-1.763.306-.506 1.53-.29 2 .07a11.044 11.044 0 0 0 2.548 1.523z"/><path data-name="Path 2079" d="M31.655 27.599c-.585-2.791-4.634-3.583-8.08-3.563l.326-16.456a3.74 3.74 0 0 1-2.791 0l.328 16.564c-3.154.178-5.274-.254-6.5-.938-1-.576-1.343-1.313-1.223-1.944.189-.4.31-.414.465-.4a5.129 5.129 0 0 0 3.207-.754c1.241-.774 2.531-2.251 2.463-3.783-.034-.628-.171-.97-.724-1.2a6.084 6.084 0 0 0-4.98.322 4.449 4.449 0 0 0-2.171 3.549 2.638 2.638 0 0 1-.068.774 1.485 1.485 0 0 0-.068.178 4.239 4.239 0 0 0 2.1 5.167c1.689.974 4.256 1.386 7.548 1.208l.07 3.617a12.161 12.161 0 0 1-4.361-.666 2.7 2.7 0 0 1-1.12-.736.919.919 0 0 1-.207-.74 1.04 1.04 0 1 0-2.067-.216 3.22 3.22 0 0 0 .654 2.324 4.9 4.9 0 0 0 1.982 1.4 14.18 14.18 0 0 0 5.153.81l.362 7.436h1.293l.068-1.836a8 8 0 0 0 4.015-.792 3.571 3.571 0 0 0 2.119-3.311 3.3 3.3 0 0 0-2.413-3.171 13.31 13.31 0 0 0-3.583-.5l.085-3.727a14.433 14.433 0 0 1 3.912.434c1.5.412 2.085 1.008 2.189 1.458.1.882-.535 1.242-1.051 1.493-.517.434.895 1.854 1.413 1.424a2.962 2.962 0 0 0 1.655-3.425zm-5.272 4.915a1.64 1.64 0 0 1 .758.468 1.028 1.028 0 0 1 .223.72c.018.45-.223.882-.965 1.28a6.259 6.259 0 0 1-3.05.558l.068-3.423a11.078 11.078 0 0 1 2.965.398z"/><path data-name="Path 2080" d="M26.105 3.599a3.555 3.555 0 0 1-2.369 3.356 3.447 3.447 0 0 1-2.459 0 3.555 3.555 0 0 1-2.369-3.356 3.6 3.6 0 1 1 7.2 0z"/></g></svg>