<?xml version="1.0" encoding="utf-8"?><svg version="1" xmlns="http://www.w3.org/2000/svg" width="400" height="400" viewBox="0 0 300.000000 300.000000"><path d="M122 3C75.6 11.4 34.9 42.7 14.5 85.5 4.2 107.2.7 123.1.6 149c-.1 18.8.7 26.5 4.5 40.7 5.5 21.1 18.3 44.7 32.7 60.3l5.9 6.5.8-9.5c3.3-44.3 19.1-68.3 46.9-71.6 5.4-.7 5.6-.6 14.9 5.4 11.9 7.6 13.4 8.4 23.7 11.8 7.5 2.6 9.9 2.9 20 2.8 16.2 0 24.3-2.9 45.3-15.9l7.8-4.8 7.1 1.1c24.8 3.8 39.5 25.3 43.8 64.2.6 5.8 1.5 11.8 1.8 13.4l.7 2.8 5.2-5.9c17-19.5 28.3-41.8 34.6-67.7 1.9-8 2.1-11.9 2.2-32.1 0-21.5-.2-23.7-2.7-34.2-4.6-19.2-12.9-37.5-24.7-54.3-6.7-9.6-26.3-28.7-36.1-35.2-16.5-10.9-33.9-18.5-52.9-23C169.2.8 136.5.3 122 3zm39 68.1c3.6.5 9.8 2.6 13.9 4.6 13.1 6.2 27.4 23 30.4 35.4 2.9 12.1 2.6 25.1-.9 35.5-3.6 10.8-13 22.8-23.2 29.7-18.1 12.3-45.7 12.2-63.4-.1-11.3-7.9-21.1-21.5-24.3-33.7-1.9-7.6-1.9-21.4 0-29 4.2-16.3 15.7-30.3 30.6-37.5 12.3-5.9 22.5-7.3 36.9-4.9z" fill="#93B874"/></svg>