<svg width="32" height="32" viewBox="0 0 32 32" xmlns="http://www.w3.org/2000/svg"><title>Arts and Entertainment Copy</title><g fill="none" fill-rule="nonzero"><path d="M10.256 0h11.488c3.567 0 4.86.371 6.163 1.069a7.27 7.27 0 0 1 3.024 3.024C31.63 5.396 32 6.689 32 10.256v11.488c0 3.567-.371 4.86-1.069 6.163a7.27 7.27 0 0 1-3.024 3.024C26.604 31.63 25.311 32 21.744 32H10.256c-3.567 0-4.86-.371-6.163-1.069a7.27 7.27 0 0 1-3.024-3.024C.37 26.604 0 25.311 0 21.744V10.256c0-3.567.371-4.86 1.069-6.163a7.27 7.27 0 0 1 3.024-3.024C5.396.37 6.689 0 10.256 0z" fill="#93B874"/><path d="M5.498 6.687c2.1 1.152 4.115 1.61 6.044 1.373 1.93-.237 3.774-1.169 5.532-2.795a2 2 0 0 1 3.343 1.225l1.277 10.398a9 9 0 0 1-17.866 2.194L2.551 8.684a2 2 0 0 1 2.947-1.997z" fill="#FFF" opacity=".8"/><path d="M17.419 14.894a1.5 1.5 0 0 0-2.978.366M10.227 13.762a1.5 1.5 0 0 1-2.977.366M9.136 21.453a4.993 4.993 0 0 1 3.743-2.503 4.993 4.993 0 0 1 4.238 1.523l-7.981.98z" stroke="#5F843F" stroke-width="2" stroke-linecap="round" stroke-linejoin="round"/><g><path d="M14.887 7.185c1.73 1.657 3.558 2.62 5.483 2.89 1.924.271 3.947-.151 6.066-1.267a2 2 0 0 1 2.912 2.049L27.89 21.23a9 9 0 0 1-17.825-2.505l1.458-10.374a2 2 0 0 1 3.364-1.167z" fill="#5F843F"/><path d="M24.277 17.198a1.5 1.5 0 0 0-2.97-.417M17.345 16.224a1.5 1.5 0 0 0-2.97-.417" stroke="#FFF" stroke-width="2" stroke-linecap="round" stroke-linejoin="round"/><path d="M14.722 21.372a4.993 4.993 0 0 0 3.7 2.567 4.993 4.993 0 0 0 4.263-1.448l-7.963-1.119z" stroke="#FFF" stroke-width="2" fill="#FFF" stroke-linecap="round" stroke-linejoin="round"/></g></g></svg>