<svg width="32" height="32" viewBox="0 0 32 32" xmlns="http://www.w3.org/2000/svg"><title>Cars and Other Vehicles</title><g fill="none" fill-rule="evenodd"><path d="M10.256 0h11.488c3.567 0 4.86.371 6.163 1.069a7.27 7.27 0 0 1 3.024 3.024C31.63 5.396 32 6.689 32 10.256v11.488c0 3.567-.371 4.86-1.069 6.163a7.27 7.27 0 0 1-3.024 3.024C26.604 31.63 25.311 32 21.744 32H10.256c-3.567 0-4.86-.371-6.163-1.069a7.27 7.27 0 0 1-3.024-3.024C.37 26.604 0 25.311 0 21.744V10.256c0-3.567.371-4.86 1.069-6.163a7.27 7.27 0 0 1 3.024-3.024C5.396.37 6.689 0 10.256 0z" fill="#93B874" fill-rule="nonzero"/><path d="M6 13c3-1.333 6.333-2 10-2s7 .667 10 2l1 5c-6 .667-9 3.333-9 8h-4c0-4.667-3-7.333-9-8l1-5z" fill="#2C510C" fill-rule="nonzero" opacity=".5"/><circle stroke="#FFF" stroke-width="2" stroke-linecap="round" stroke-linejoin="round" cx="16" cy="16" r="11"/><circle stroke="#FFF" stroke-width="2" fill="#FFF" fill-rule="nonzero" stroke-linecap="round" stroke-linejoin="round" cx="16" cy="16" r="2"/></g></svg>