<svg width="32" height="32" viewBox="0 0 32 32" xmlns="http://www.w3.org/2000/svg" xmlns:xlink="http://www.w3.org/1999/xlink"><title>Computers and Electronics</title><defs><rect id="a" width="24" height="18" rx="2"/><path id="b" d="M2 2h20v12H2z"/><path d="M9 16h6l1.561 4.684A1 1 0 0 1 15.613 22H8.387a1 1 0 0 1-.948-1.316L9 16z" id="d"/></defs><g fill="none" fill-rule="evenodd"><path d="M10.256 0h11.488c3.567 0 4.86.371 6.163 1.069a7.27 7.27 0 0 1 3.024 3.024C31.63 5.396 32 6.689 32 10.256v11.488c0 3.567-.371 4.86-1.069 6.163a7.27 7.27 0 0 1-3.024 3.024C26.604 31.63 25.311 32 21.744 32H10.256c-3.567 0-4.86-.371-6.163-1.069a7.27 7.27 0 0 1-3.024-3.024C.37 26.604 0 25.311 0 21.744V10.256c0-3.567.371-4.86 1.069-6.163a7.27 7.27 0 0 1 3.024-3.024C5.396.37 6.689 0 10.256 0z" fill="#93B874" fill-rule="nonzero"/><g transform="translate(4 6)"><use fill="#5F843F" fill-rule="nonzero" xlink:href="#a"/><mask id="c" fill="#fff"><use xlink:href="#b"/></mask><use fill-opacity=".8" fill="#FFF" fill-rule="nonzero" xlink:href="#b"/><path fill="#FFF" fill-rule="nonzero" mask="url(#c)" d="M22.111 1L7 14h16V1z"/><use fill="#5F843F" fill-rule="nonzero" xlink:href="#d"/></g></g></svg>