<svg width="32" height="32" viewBox="0 0 32 32" xmlns="http://www.w3.org/2000/svg" xmlns:xlink="http://www.w3.org/1999/xlink"><title>Education and Communication Copy</title><defs><path d="M4.208.11C5.62.257 6.885.554 8 1c1.295.518 2.39 1.238 3.282 2.158a1 1 0 0 0 1.436 0C13.611 2.238 14.705 1.518 16 1c1.115-.446 2.379-.743 3.792-.89A2 2 0 0 1 22 2.099V16.08a2 2 0 0 1-1.832 1.993c-1.566.132-2.955.44-4.168.926-1.295.518-2.39 1.238-3.282 2.158a1 1 0 0 1-1.436 0C10.389 20.238 9.295 19.518 8 19c-1.213-.485-2.602-.794-4.168-.926A2 2 0 0 1 2 16.081V2.1A2 2 0 0 1 4.208.109z" id="a"/></defs><g fill="none" fill-rule="evenodd"><path d="M10.256 0h11.488c3.567 0 4.86.371 6.163 1.069a7.27 7.27 0 0 1 3.024 3.024C31.63 5.396 32 6.689 32 10.256v11.488c0 3.567-.371 4.86-1.069 6.163a7.27 7.27 0 0 1-3.024 3.024C26.604 31.63 25.311 32 21.744 32H10.256c-3.567 0-4.86-.371-6.163-1.069a7.27 7.27 0 0 1-3.024-3.024C.37 26.604 0 25.311 0 21.744V10.256c0-3.567.371-4.86 1.069-6.163a7.27 7.27 0 0 1 3.024-3.024C5.396.37 6.689 0 10.256 0z" fill="#93B874" fill-rule="nonzero"/><g transform="translate(4 5)"><path d="M2 2h2l1 4h14l1-4h2a2 2 0 0 1 2 2v14a2 2 0 0 1-2 2H2a2 2 0 0 1-2-2V4a2 2 0 0 1 2-2z" fill="#FFF" fill-rule="nonzero"/><mask id="b" fill="#fff"><use xlink:href="#a"/></mask><use fill="#5F843F" fill-rule="nonzero" xlink:href="#a"/><path d="M17 0v7.882a.5.5 0 0 0 .947.224L18.5 7l.553 1.106A.5.5 0 0 0 20 7.882V0h-3z" fill="#FFF" fill-rule="nonzero" mask="url(#b)"/><path fill-opacity=".8" fill="#FFF" fill-rule="nonzero" mask="url(#b)" d="M11 3h2v18l-1 1-1-1z"/></g></g></svg>