<svg width="32" height="32" viewBox="0 0 32 32" xmlns="http://www.w3.org/2000/svg" xmlns:xlink="http://www.w3.org/1999/xlink"><title>Family Life</title><defs><path d="M10.256 0h11.488c3.567 0 4.86.371 6.163 1.069a7.27 7.27 0 0 1 3.024 3.024C31.63 5.396 32 6.689 32 10.256v11.488c0 3.567-.371 4.86-1.069 6.163a7.27 7.27 0 0 1-3.024 3.024C26.604 31.63 25.311 32 21.744 32H10.256c-3.567 0-4.86-.371-6.163-1.069a7.27 7.27 0 0 1-3.024-3.024C.37 26.604 0 25.311 0 21.744V10.256c0-3.567.371-4.86 1.069-6.163a7.27 7.27 0 0 1 3.024-3.024C5.396.37 6.689 0 10.256 0z" id="a"/></defs><g fill="none" fill-rule="evenodd"><mask id="b" fill="#fff"><use xlink:href="#a"/></mask><use fill="#93B874" fill-rule="nonzero" xlink:href="#a"/><g mask="url(#b)"><path d="M7 13.619L16 6l9 7.619V24a2 2 0 0 1-2 2H9a2 2 0 0 1-2-2V13.619z" fill="#5F843F" fill-rule="nonzero"/><path d="M16 23l-.172-.125c-.203-.14-4.828-3.344-4.828-5.969v-.172c0-1.5 1.262-2.734 2.778-2.734.922 0 1.722.39 2.222 1.125.5-.734 1.316-1.125 2.222-1.125C19.738 14 21 15.219 21 16.734v.172c0 2.61-4.625 5.828-4.828 5.969L16 23z" fill="#FFF"/><path fill="#5F843F" fill-rule="nonzero" d="M22 6h3v7h-3z"/><path stroke="#FFF" stroke-width="2" stroke-linecap="round" stroke-linejoin="round" d="M6.1 15L16 5.1l9.9 9.9"/></g></g></svg>