<svg width="32" height="32" viewBox="0 0 32 32" xmlns="http://www.w3.org/2000/svg" xmlns:xlink="http://www.w3.org/1999/xlink"><title>Finance and Business</title><defs><rect id="a" x="5" y="5" width="22" height="22" rx="2"/></defs><g fill="none" fill-rule="evenodd"><path d="M10.256 0h11.488c3.567 0 4.86.371 6.163 1.069a7.27 7.27 0 0 1 3.024 3.024C31.63 5.396 32 6.689 32 10.256v11.488c0 3.567-.371 4.86-1.069 6.163a7.27 7.27 0 0 1-3.024 3.024C26.604 31.63 25.311 32 21.744 32H10.256c-3.567 0-4.86-.371-6.163-1.069a7.27 7.27 0 0 1-3.024-3.024C.37 26.604 0 25.311 0 21.744V10.256c0-3.567.371-4.86 1.069-6.163a7.27 7.27 0 0 1 3.024-3.024C5.396.37 6.689 0 10.256 0z" fill="#93B874" fill-rule="nonzero"/><mask id="b" fill="#fff"><use xlink:href="#a"/></mask><use fill="#5F843F" fill-rule="nonzero" xlink:href="#a"/><path d="M25 25H8a1 1 0 0 1-1-1V7a2 2 0 1 0-4 0v17a5 5 0 0 0 5 5h17a2 2 0 1 0 0-4z" fill="#FFF" fill-rule="nonzero" mask="url(#b)"/><g mask="url(#b)"><path stroke="#FFF" stroke-width="2" stroke-linecap="round" stroke-linejoin="round" d="M10 19l4-4 3 3 7-7"/><path d="M24 10h-4.586a1 1 0 0 0-.707 1.707l4.586 4.586A1 1 0 0 0 25 15.586V11a1 1 0 0 0-1-1z" fill="#FFF" fill-rule="nonzero"/></g></g></svg>