<svg width="32" height="32" viewBox="0 0 32 32" xmlns="http://www.w3.org/2000/svg" xmlns:xlink="http://www.w3.org/1999/xlink"><title>Food and Entertaining</title><defs><path d="M10.256 0h11.488c3.567 0 4.86.371 6.163 1.069a7.27 7.27 0 0 1 3.024 3.024C31.63 5.396 32 6.689 32 10.256v11.488c0 3.567-.371 4.86-1.069 6.163a7.27 7.27 0 0 1-3.024 3.024C26.604 31.63 25.311 32 21.744 32H10.256c-3.567 0-4.86-.371-6.163-1.069a7.27 7.27 0 0 1-3.024-3.024C.37 26.604 0 25.311 0 21.744V10.256c0-3.567.371-4.86 1.069-6.163a7.27 7.27 0 0 1 3.024-3.024C5.396.37 6.689 0 10.256 0z" id="a"/></defs><g fill="none" fill-rule="evenodd"><mask id="b" fill="#fff"><use xlink:href="#a"/></mask><use fill="#93B874" fill-rule="nonzero" xlink:href="#a"/><circle fill="#5F843F" fill-rule="nonzero" mask="url(#b)" cx="15" cy="16" r="11"/><path d="M19.001 6h1v19a1 1 0 1 1-2 0v-8c-2.968-5.257-2.634-8.924 1-11z" fill="#FFF" fill-rule="nonzero" mask="url(#b)"/><g mask="url(#b)" fill="#FFF" fill-rule="nonzero"><path d="M24 7h2v18a1 1 0 0 1-2 0V7z"/><path d="M25 15c1.657 0 3-.89 3-3.375S26.657 6 25 6s-3 3.14-3 5.625S23.343 15 25 15z"/></g></g></svg>