<svg width="32" height="32" viewBox="0 0 32 32" xmlns="http://www.w3.org/2000/svg" xmlns:xlink="http://www.w3.org/1999/xlink"><title>Health</title><defs><path d="M10.256 0h11.488c3.567 0 4.86.371 6.163 1.069a7.27 7.27 0 0 1 3.024 3.024C31.63 5.396 32 6.689 32 10.256v11.488c0 3.567-.371 4.86-1.069 6.163a7.27 7.27 0 0 1-3.024 3.024C26.604 31.63 25.311 32 21.744 32H10.256c-3.567 0-4.86-.371-6.163-1.069a7.27 7.27 0 0 1-3.024-3.024C.37 26.604 0 25.311 0 21.744V10.256c0-3.567.371-4.86 1.069-6.163a7.27 7.27 0 0 1 3.024-3.024C5.396.37 6.689 0 10.256 0z" id="a"/></defs><g fill="none" fill-rule="evenodd"><mask id="b" fill="#fff"><use xlink:href="#a"/></mask><use fill="#93B874" fill-rule="nonzero" xlink:href="#a"/><path d="M16 28l-.412-.306C15.1 27.351 4 19.521 4 13.104v-.42C4 9.017 7.03 6 10.667 6 12.879 6 14.8 6.955 16 8.75 17.2 6.955 19.158 6 21.333 6 24.971 6 28 8.98 28 12.684v.42c0 6.379-11.1 14.247-11.587 14.59L16 28z" fill="#5F843F" mask="url(#b)"/><path stroke="#FFF" stroke-width="2" stroke-linecap="round" stroke-linejoin="round" mask="url(#b)" d="M5 17h3l2-3 4 8 4-11 3 6 2 3 2-3h2"/></g></svg>