<svg width="32" height="32" viewBox="0 0 32 32" xmlns="http://www.w3.org/2000/svg" xmlns:xlink="http://www.w3.org/1999/xlink"><title>Hobbies and Crafts</title><defs><path d="M10.256 0h11.488c3.567 0 4.86.371 6.163 1.069a7.27 7.27 0 0 1 3.024 3.024C31.63 5.396 32 6.689 32 10.256v11.488c0 3.567-.371 4.86-1.069 6.163a7.27 7.27 0 0 1-3.024 3.024C26.604 31.63 25.311 32 21.744 32H10.256c-3.567 0-4.86-.371-6.163-1.069a7.27 7.27 0 0 1-3.024-3.024C.37 26.604 0 25.311 0 21.744V10.256c0-3.567.371-4.86 1.069-6.163a7.27 7.27 0 0 1 3.024-3.024C5.396.37 6.689 0 10.256 0z" id="a"/></defs><g fill="none" fill-rule="evenodd"><mask id="b" fill="#fff"><use xlink:href="#a"/></mask><use fill="#93B874" fill-rule="nonzero" xlink:href="#a"/><g fill-rule="nonzero" mask="url(#b)"><path d="M9 5h14a2 2 0 0 1 2 2v18a2 2 0 0 1-2 2H9a2 2 0 0 1-2-2V7a2 2 0 0 1 2-2z" fill="#5F843F"/><g fill="#FFF"><path d="M28.132 7.368c.877.878-1.715 4.408-7.778 10.593a1.99 1.99 0 1 1-2.815-2.815c6.185-6.063 9.715-8.655 10.593-7.778zM10.454 22.218c2.121 2.12 4.485 1.171 5.657 0 1.171-1.172 1.488-2.755.707-3.536-.781-.781-2.364-.464-3.536.707-1.171 1.172 0 1.414-2.828 2.829z"/></g></g></g></svg>