<svg width="32" height="32" viewBox="0 0 32 32" xmlns="http://www.w3.org/2000/svg" xmlns:xlink="http://www.w3.org/1999/xlink"><title>Holidays and Tradition</title><defs><path d="M10.256 0h11.488c3.567 0 4.86.371 6.163 1.069a7.27 7.27 0 0 1 3.024 3.024C31.63 5.396 32 6.689 32 10.256v11.488c0 3.567-.371 4.86-1.069 6.163a7.27 7.27 0 0 1-3.024 3.024C26.604 31.63 25.311 32 21.744 32H10.256c-3.567 0-4.86-.371-6.163-1.069a7.27 7.27 0 0 1-3.024-3.024C.37 26.604 0 25.311 0 21.744V10.256c0-3.567.371-4.86 1.069-6.163a7.27 7.27 0 0 1 3.024-3.024C5.396.37 6.689 0 10.256 0z" id="a"/><path d="M.722.722h10v10a2 2 0 0 1-2 2h-6a2 2 0 0 1-2-2v-10z" id="c"/></defs><g fill="none" fill-rule="evenodd"><mask id="b" fill="#fff"><use xlink:href="#a"/></mask><use fill="#93B874" fill-rule="nonzero" xlink:href="#a"/><g transform="translate(3 1)" mask="url(#b)"><path d="M5.121 17.61l1.415 1.415-1.98 1.98-2.263 2.263a1 1 0 1 1-1.414-1.414L2.15 20.58l2.97-2.97z" fill="#FFF" fill-rule="nonzero"/><use fill="#5F843F" fill-rule="nonzero" xlink:href="#c" transform="rotate(45 -4.637 19.134)"/><path d="M22.564 7.726l-1.6 10.138a1 1 0 0 1-1.696.55l-8.536-8.536a1 1 0 0 1 .55-1.695l10.138-1.6a1 1 0 0 1 1.144 1.143z" fill="#FFF" fill-rule="nonzero"/><circle fill="#FFF" fill-rule="nonzero" opacity=".8" cx="5" cy="10" r="1"/><circle fill="#FFF" fill-rule="nonzero" opacity=".8" cx="24" cy="19" r="1"/><circle fill="#FFF" fill-rule="nonzero" opacity=".8" cx="9" cy="5" r="2"/><circle fill="#FFF" fill-rule="nonzero" opacity=".8" cx="18" cy="25" r="2"/></g></g></svg>