<svg width="32" height="32" viewBox="0 0 32 32" xmlns="http://www.w3.org/2000/svg" xmlns:xlink="http://www.w3.org/1999/xlink"><title>Home and Garden</title><defs><path d="M10.256 0h11.488c3.567 0 4.86.371 6.163 1.069a7.27 7.27 0 0 1 3.024 3.024C31.63 5.396 32 6.689 32 10.256v11.488c0 3.567-.371 4.86-1.069 6.163a7.27 7.27 0 0 1-3.024 3.024C26.604 31.63 25.311 32 21.744 32H10.256c-3.567 0-4.86-.371-6.163-1.069a7.27 7.27 0 0 1-3.024-3.024C.37 26.604 0 25.311 0 21.744V10.256c0-3.567.371-4.86 1.069-6.163a7.27 7.27 0 0 1 3.024-3.024C5.396.37 6.689 0 10.256 0z" id="a"/><path d="M2.562 0h12.876a2 2 0 0 1 1.94 2.485l-2 8A2 2 0 0 1 13.439 12H4.562a2 2 0 0 1-1.94-1.515l-2-8A2 2 0 0 1 2.561 0z" id="c"/></defs><g fill="none" fill-rule="evenodd"><mask id="b" fill="#fff"><use xlink:href="#a"/></mask><use fill="#93B874" fill-rule="nonzero" xlink:href="#a"/><use fill="#5F843F" fill-rule="nonzero" xlink:href="#c" transform="translate(7 16)" mask="url(#b)"/><path d="M19.94 16c1.105 0 2.819-1.992 2.819-4.753 0-2.762-3.091-5.24-2.818-5.247C20.214 5.993 17 9.401 17 12.162 17 14.924 18.836 16 19.94 16z" fill="#FFF" fill-rule="nonzero" opacity=".8" mask="url(#b)" transform="rotate(55 19.88 11)"/><path d="M11.94 14c1.105 0 2.819-1.992 2.819-4.753 0-2.762-3.091-5.24-2.818-5.247C12.214 3.993 9 7.401 9 10.162 9 12.924 10.836 14 11.94 14z" fill="#FFF" fill-rule="nonzero" opacity=".8" mask="url(#b)" transform="rotate(-50 11.88 9)"/><path d="M16 5a1 1 0 0 1 1 1v10h-2V6a1 1 0 0 1 1-1z" fill="#FFF" fill-rule="nonzero" mask="url(#b)"/></g></svg>