<svg width="32" height="32" viewBox="0 0 32 32" xmlns="http://www.w3.org/2000/svg" xmlns:xlink="http://www.w3.org/1999/xlink"><title>Personal Care and Style</title><defs><path d="M10.256 0h11.488c3.567 0 4.86.371 6.163 1.069a7.27 7.27 0 0 1 3.024 3.024C31.63 5.396 32 6.689 32 10.256v11.488c0 3.567-.371 4.86-1.069 6.163a7.27 7.27 0 0 1-3.024 3.024C26.604 31.63 25.311 32 21.744 32H10.256c-3.567 0-4.86-.371-6.163-1.069a7.27 7.27 0 0 1-3.024-3.024C.37 26.604 0 25.311 0 21.744V10.256c0-3.567.371-4.86 1.069-6.163a7.27 7.27 0 0 1 3.024-3.024C5.396.37 6.689 0 10.256 0z" id="a"/></defs><g fill="none" fill-rule="evenodd"><mask id="b" fill="#fff"><use xlink:href="#a"/></mask><use fill="#93B874" fill-rule="nonzero" xlink:href="#a"/><g transform="rotate(45 9.086 25.864)" mask="url(#b)" fill-rule="nonzero"><ellipse fill="#5F843F" cx="7" cy="10" rx="7" ry="10"/><ellipse fill-opacity=".8" fill="#FFF" cx="7" cy="10" rx="5" ry="8"/><path d="M5 19h4l.753 6.78A2 2 0 0 1 7.765 28h-1.53a2 2 0 0 1-1.988-2.22L5 19z" fill="#5F843F"/><circle fill="#FFF" cx="5" cy="7" r="1"/><circle fill="#FFF" cx="9" cy="10" r="1"/><circle fill="#FFF" cx="9" cy="7" r="1"/><circle fill="#FFF" cx="7" cy="4" r="1"/><circle fill="#FFF" cx="5" cy="13" r="1"/><circle fill="#FFF" cx="5" cy="10" r="1"/><circle fill="#FFF" cx="9" cy="13" r="1"/><circle fill="#FFF" cx="7" cy="16" r="1"/></g></g></svg>