<svg width="32" height="32" viewBox="0 0 32 32" xmlns="http://www.w3.org/2000/svg" xmlns:xlink="http://www.w3.org/1999/xlink"><title>Pets and Animals</title><defs><path d="M10.256 0h11.488c3.567 0 4.86.371 6.163 1.069a7.27 7.27 0 0 1 3.024 3.024C31.63 5.396 32 6.689 32 10.256v11.488c0 3.567-.371 4.86-1.069 6.163a7.27 7.27 0 0 1-3.024 3.024C26.604 31.63 25.311 32 21.744 32H10.256c-3.567 0-4.86-.371-6.163-1.069a7.27 7.27 0 0 1-3.024-3.024C.37 26.604 0 25.311 0 21.744V10.256c0-3.567.371-4.86 1.069-6.163a7.27 7.27 0 0 1 3.024-3.024C5.396.37 6.689 0 10.256 0z" id="a"/><path d="M12.591 4.959l1.163-.113a6.974 6.974 0 0 1 7.585 7.864l-.125.934a9.301 9.301 0 0 1-8.875 8.066l-2.654.098A5 5 0 0 1 4.5 16.811v-2.94a8.954 8.954 0 0 1 8.091-8.912z" id="c"/></defs><g fill="none" fill-rule="evenodd"><mask id="b" fill="#fff"><use xlink:href="#a"/></mask><use fill="#93B874" fill-rule="nonzero" xlink:href="#a"/><g mask="url(#b)"><path d="M21 11.576l3.525-5.626a1 1 0 0 1 1.838.667L25 16.5l1.352 9.777a1 1 0 0 1-1.84.663L21 21.268v-9.692z" fill="#FFF" fill-rule="nonzero"/><path d="M12 22.96c0 2.693 2.333 4.04 7 4.04-2-3.333-2-5 0-5s-.333.32-7 .96zM9 11c2.754-4.832 6.087-6.832 10-6-2.416 4.6-2.32 7.178.288 7.732 2.609.555-.82-.023-10.288-1.732z" fill-opacity=".8" fill="#FFF" fill-rule="nonzero"/><g transform="translate(1 3.92)"><mask id="d" fill="#fff"><use xlink:href="#c"/></mask><use fill="#5F843F" fill-rule="nonzero" transform="rotate(45 13.5 13)" xlink:href="#c"/><ellipse mask="url(#d)" cx="3" cy="12.58" rx="10" ry="12.5"/><circle fill="#FFF" fill-rule="nonzero" mask="url(#d)" cx="8.5" cy="11.58" r="1.5"/></g></g></g></svg>