<svg width="32" height="32" viewBox="0 0 32 32" xmlns="http://www.w3.org/2000/svg" xmlns:xlink="http://www.w3.org/1999/xlink"><title>Philosophy and Religion</title><defs><path d="M10.256 0h11.488c3.567 0 4.86.371 6.163 1.069a7.27 7.27 0 0 1 3.024 3.024C31.63 5.396 32 6.689 32 10.256v11.488c0 3.567-.371 4.86-1.069 6.163a7.27 7.27 0 0 1-3.024 3.024C26.604 31.63 25.311 32 21.744 32H10.256c-3.567 0-4.86-.371-6.163-1.069a7.27 7.27 0 0 1-3.024-3.024C.37 26.604 0 25.311 0 21.744V10.256c0-3.567.371-4.86 1.069-6.163a7.27 7.27 0 0 1 3.024-3.024C5.396.37 6.689 0 10.256 0z" id="a"/></defs><g fill="none" fill-rule="evenodd"><mask id="b" fill="#fff"><use xlink:href="#a"/></mask><use fill="#93B874" fill-rule="nonzero" xlink:href="#a"/><path d="M22.946 12.824c1.8 2.502 2.7 4.943 2.7 7.322 0 2.47-1.128 5.164-3.386 8.085a2 2 0 0 1-3.206-.055c-1.8-2.502-2.7-4.943-2.7-7.322 0-2.47 1.128-5.164 3.386-8.085a2 2 0 0 1 3.206.055z" fill="#5F843F" fill-rule="nonzero" mask="url(#b)" transform="rotate(45 21 20.5)"/><path d="M12.946 12.824c1.8 2.502 2.7 4.943 2.7 7.322 0 2.47-1.128 5.164-3.386 8.085a2 2 0 0 1-3.206-.055c-1.8-2.502-2.7-4.943-2.7-7.322 0-2.47 1.128-5.164 3.386-8.085a2 2 0 0 1 3.206.055z" fill="#5F843F" fill-rule="nonzero" mask="url(#b)" transform="scale(-1 1) rotate(45 0 -6.056)"/><path d="M17.58 9.872C19.86 12.81 21 15.52 21 18s-1.14 5.19-3.42 8.128a2 2 0 0 1-3.16 0C12.14 23.19 11 20.48 11 18s1.14-5.19 3.42-8.128a2 2 0 0 1 3.16 0z" fill="#FFF" fill-rule="nonzero" mask="url(#b)"/><circle fill="#FFF" fill-rule="nonzero" opacity=".8" mask="url(#b)" cx="25" cy="11" r="1"/><circle fill="#FFF" fill-rule="nonzero" opacity=".8" mask="url(#b)" cx="21" cy="7" r="2"/><circle fill="#FFF" fill-rule="nonzero" opacity=".8" mask="url(#b)" cx="7" cy="11" r="1"/><circle fill="#FFF" fill-rule="nonzero" opacity=".8" mask="url(#b)" cx="11" cy="7" r="2"/></g></svg>