<svg width="32" height="32" viewBox="0 0 32 32" xmlns="http://www.w3.org/2000/svg" xmlns:xlink="http://www.w3.org/1999/xlink"><title>Relationships</title><defs><path d="M10.256 0h11.488c3.567 0 4.86.371 6.163 1.069a7.27 7.27 0 0 1 3.024 3.024C31.63 5.396 32 6.689 32 10.256v11.488c0 3.567-.371 4.86-1.069 6.163a7.27 7.27 0 0 1-3.024 3.024C26.604 31.63 25.311 32 21.744 32H10.256c-3.567 0-4.86-.371-6.163-1.069a7.27 7.27 0 0 1-3.024-3.024C.37 26.604 0 25.311 0 21.744V10.256c0-3.567.371-4.86 1.069-6.163a7.27 7.27 0 0 1 3.024-3.024C5.396.37 6.689 0 10.256 0z" id="a"/></defs><g fill="none" fill-rule="evenodd"><mask id="b" fill="#fff"><use xlink:href="#a"/></mask><use fill="#93B874" fill-rule="nonzero" xlink:href="#a"/><g mask="url(#b)"><path d="M14 24l-.31-.222C13.326 23.528 5 17.833 5 13.167v-.306C5 10.194 7.272 8 10 8c1.66 0 3.1.694 4 2 .9-1.306 2.369-2 4-2 2.728 0 5 2.167 5 4.861v.306c0 4.639-8.325 10.36-8.69 10.61L14 24z" fill="#5F843F"/><path d="M20 24l-.24-.167c-.285-.187-6.76-4.458-6.76-7.958v-.23c0-2 1.767-3.645 3.889-3.645 1.29 0 2.411.52 3.111 1.5.7-.98 1.842-1.5 3.111-1.5C25.233 12 27 13.625 27 15.646v.229c0 3.48-6.475 7.77-6.76 7.958L20 24z" fill="#FFF"/></g></g></svg>