<svg width="32" height="32" viewBox="0 0 32 32" xmlns="http://www.w3.org/2000/svg" xmlns:xlink="http://www.w3.org/1999/xlink"><title>Sports and Fitness</title><defs><circle id="a" cx="16" cy="16" r="11"/></defs><g fill="none" fill-rule="evenodd"><path d="M10.256 0h11.488c3.567 0 4.86.371 6.163 1.069a7.27 7.27 0 0 1 3.024 3.024C31.63 5.396 32 6.689 32 10.256v11.488c0 3.567-.371 4.86-1.069 6.163a7.27 7.27 0 0 1-3.024 3.024C26.604 31.63 25.311 32 21.744 32H10.256c-3.567 0-4.86-.371-6.163-1.069a7.27 7.27 0 0 1-3.024-3.024C.37 26.604 0 25.311 0 21.744V10.256c0-3.567.371-4.86 1.069-6.163a7.27 7.27 0 0 1 3.024-3.024C5.396.37 6.689 0 10.256 0z" fill="#93B874" fill-rule="nonzero"/><mask id="b" fill="#fff"><use xlink:href="#a"/></mask><use fill="#5F843F" fill-rule="nonzero" xlink:href="#a"/><path fill="#FFF" fill-rule="nonzero" mask="url(#b)" d="M15 5h2v23h-2z"/><path fill="#FFF" fill-rule="nonzero" mask="url(#b)" d="M5 15h22v2H5z"/><circle stroke="#FFF" stroke-width="2" opacity=".798" mask="url(#b)" cx="31" cy="16" r="10"/><circle stroke="#FFF" stroke-width="2" opacity=".798" mask="url(#b)" cx="1" cy="17" r="10"/></g></svg>