<svg width="32" height="32" viewBox="0 0 32 32" xmlns="http://www.w3.org/2000/svg"><title>Travel</title><g fill="none" fill-rule="nonzero"><path d="M10.256 0h11.488c3.567 0 4.86.371 6.163 1.069a7.27 7.27 0 0 1 3.024 3.024C31.63 5.396 32 6.689 32 10.256v11.488c0 3.567-.371 4.86-1.069 6.163a7.27 7.27 0 0 1-3.024 3.024C26.604 31.63 25.311 32 21.744 32H10.256c-3.567 0-4.86-.371-6.163-1.069a7.27 7.27 0 0 1-3.024-3.024C.37 26.604 0 25.311 0 21.744V10.256c0-3.567.371-4.86 1.069-6.163a7.27 7.27 0 0 1 3.024-3.024C5.396.37 6.689 0 10.256 0z" fill="#93B874"/><g transform="translate(9 5)"><ellipse fill="#5F843F" cx="7" cy="7.5" rx="7" ry="7.5"/><path d="M0 9h14c-1.167 4.952-3.5 9.286-7 13-3.5-3.714-5.833-8.048-7-13z" fill="#5F843F"/><circle fill="#FFF" cx="7" cy="7" r="4"/></g></g></svg>