<svg width="32" height="32" viewBox="0 0 32 32" xmlns="http://www.w3.org/2000/svg"><title>work world</title><g fill="none" fill-rule="nonzero"><path d="M10.256 0h11.488c3.567 0 4.86.371 6.163 1.069a7.27 7.27 0 0 1 3.024 3.024C31.63 5.396 32 6.689 32 10.256v11.488c0 3.567-.371 4.86-1.069 6.163a7.27 7.27 0 0 1-3.024 3.024C26.604 31.63 25.311 32 21.744 32H10.256c-3.567 0-4.86-.371-6.163-1.069a7.27 7.27 0 0 1-3.024-3.024C.37 26.604 0 25.311 0 21.744V10.256c0-3.567.371-4.86 1.069-6.163a7.27 7.27 0 0 1 3.024-3.024C5.396.37 6.689 0 10.256 0z" fill="#93B874"/><g transform="translate(4 8)"><rect fill="#5F843F" width="24" height="9" rx="2"/><path d="M1 9h22v7a2 2 0 0 1-2 2H3a2 2 0 0 1-2-2V9z" fill="#5F843F"/><path fill-opacity=".8" fill="#FFF" d="M1 9h22v2H1z"/></g><path d="M19 5a1 1 0 0 1 1 1v2h-2V7h-4v1h-2V6a1 1 0 0 1 1-1h6z" fill="#FFF"/><rect fill="#FFF" x="13" y="16" width="6" height="4" rx="1"/></g></svg>