<svg width="32" height="32" viewBox="0 0 32 32" xmlns="http://www.w3.org/2000/svg"><title>Youth</title><g fill="none" fill-rule="evenodd"><path d="M10.256 0h11.488c3.567 0 4.86.371 6.163 1.069a7.27 7.27 0 0 1 3.024 3.024C31.63 5.396 32 6.689 32 10.256v11.488c0 3.567-.371 4.86-1.069 6.163a7.27 7.27 0 0 1-3.024 3.024C26.604 31.63 25.311 32 21.744 32H10.256c-3.567 0-4.86-.371-6.163-1.069a7.27 7.27 0 0 1-3.024-3.024C.37 26.604 0 25.311 0 21.744V10.256c0-3.567.371-4.86 1.069-6.163a7.27 7.27 0 0 1 3.024-3.024C5.396.37 6.689 0 10.256 0z" fill="#93B874" fill-rule="nonzero"/><circle fill="#5F843F" fill-rule="nonzero" cx="16" cy="16" r="12"/><path fill="#FFF" fill-rule="nonzero" d="M15 12h2v2l-1-1-1 1z"/><path d="M11 18c4 0 4-3 4-4.5S13.21 11 11 11c-.897 0-1.742.124-2.535.37a2 2 0 0 0-1.395 2.112C7.376 16.494 8.686 18 11 18zM21 18c-4 0-4-3-4-4.5s1.79-2.5 4-2.5c.897 0 1.742.124 2.535.37a2 2 0 0 1 1.395 2.112C24.624 16.494 23.314 18 21 18z" stroke="#FFF" stroke-width="2" fill-opacity=".8" fill="#FFF" fill-rule="nonzero" stroke-linecap="round" stroke-linejoin="round"/><path d="M13 22c1.333.667 2.333 1 3 1 .667 0 1.667-.333 3-1" stroke="#FFF" stroke-width="2" opacity=".8" stroke-linecap="round" stroke-linejoin="round"/></g></svg>