<?xml version="1.0" encoding="UTF-8" standalone="no"?><!DOCTYPE svg PUBLIC "-//W3C//DTD SVG 1.1//EN" "http://www.w3.org/Graphics/SVG/1.1/DTD/svg11.dtd"><svg width="100%" height="100%" viewBox="0 0 96 96" version="1.1" xmlns="http://www.w3.org/2000/svg" xmlns:xlink="http://www.w3.org/1999/xlink" xml:space="preserve" xmlns:serif="http://www.serif.com/" style="fill-rule:evenodd;clip-rule:evenodd;stroke-linejoin:round;stroke-miterlimit:1.41421;"><circle cx="48" cy="48" r="48" style="fill:#fff;"/><path d="M66.431,32.516l-3.545,6.141l-14.886,-22.545l26.968,1.619l-4.346,7.526c5.795,5.793 9.381,13.795 9.381,22.628c0,17.663 -14.34,32.003 -32.003,32.003c-17.663,0 -32.003,-14.34 -32.003,-32.003c0,-12.519 7.204,-23.369 17.69,-28.627l3.578,7.157c-7.864,3.943 -13.267,12.08 -13.267,21.47c0,13.247 10.755,24.002 24.002,24.002c13.247,0 24.002,-10.755 24.002,-24.002c0,-5.845 -2.093,-11.204 -5.571,-15.369Z"/></svg>