<svg viewBox="0 0 30 31" xmlns="http://www.w3.org/2000/svg"><g fill="#93B874" fill-rule="nonzero"><path d="M15.001 6C10.606 6 7 9.623 7 14c0 1.791.62 3.354 1.736 4.764.22.28.451.546.696.83l.013.015a7.107 7.107 0 0 1 1.529 2.84c.065.242.004.672 0 1.029V24c0 .555.469 1 1.026 1h6c.557 0 1-.445 1-1v-.522c-.003-.466-.049-.852 0-1.029.29-1.047.85-2.006 1.613-2.901l.033-.039c.22-.258.43-.501.619-.742C22.38 17.357 23 15.793 23 14c0-4.377-3.604-8-7.999-8zm4.678 11.524c-.166.21-.362.44-.57.683l-.04.047c-.893 1.046-1.659 2.23-2.069 3.707-.058.21.016.436 0 1.039h-4c-.014-.64.06-.818 0-1.04-.41-1.495-1.214-2.726-2.026-3.663l-.014-.016a22.34 22.34 0 0 1-.638-.76C9.489 16.47 9 15.337 9 14c0-3.269 2.72-6 6.001-6C18.283 8 21 10.731 21 14c0 1.337-.487 2.47-1.32 3.524z"/><path d="M17.894 26h-5.788c-.611 0-1.106.448-1.106 1s.495 1 1.106 1h5.788c.611 0 1.106-.448 1.106-1s-.495-1-1.106-1z"/><path d="M16.134 29h-2.268c-.478 0-.866.448-.866 1s.388 1 .866 1h2.268c.478 0 .866-.448.866-1s-.388-1-.866-1z"/><path d="M6 14c0-.552-.493-1-1.1-1H1.1c-.607 0-1.1.448-1.1 1s.493 1 1.1 1h3.8c.607 0 1.1-.448 1.1-1z"/><path d="M30 14c0-.552-.493-1-1.1-1h-3.8c-.607 0-1.1.448-1.1 1s.493 1 1.1 1h3.8c.607 0 1.1-.448 1.1-1z"/><path d="M15 5c.552 0 1-.41 1-.917V.917C16 .411 15.552 0 15 0s-1 .41-1 .917v3.166c0 .506.448.917 1 .917z"/><path d="M23.098 20.513a1.012 1.012 0 0 0-1.427 0 1.002 1.002 0 0 0 0 1.42l2.461 2.453a1.008 1.008 0 0 0 1.427 0 1.002 1.002 0 0 0 0-1.421l-2.461-2.452z"/><path d="M6.904 7.227a1.008 1.008 0 0 0 1.426 0 1.002 1.002 0 0 0 0-1.42L5.87 3.355a1.012 1.012 0 0 0-1.427 0 1.002 1.002 0 0 0 0 1.421l2.46 2.451z"/><path d="M6.905 20.513l-2.462 2.452a1.002 1.002 0 0 0 0 1.42 1.008 1.008 0 0 0 1.427 0l2.462-2.452a1.002 1.002 0 0 0 0-1.42 1.012 1.012 0 0 0-1.427 0z"/><path d="M22.385 7.522c.258 0 .516-.098.713-.295l2.461-2.45a1.002 1.002 0 0 0 0-1.422 1.012 1.012 0 0 0-1.427 0l-2.46 2.451a1.002 1.002 0 0 0 0 1.421c.196.197.454.295.713.295z"/></g></svg>