<svg width="20" height="20" viewBox="0 0 20 20" xmlns="http://www.w3.org/2000/svg"><title>global-progressive</title><path d="M12.2 17.94c1.26-2 2-4.45 2.14-7.06h3.86a8.26 8.26 0 0 1-6 7.06zM1.8 10.88h3.86c.14 2.6.88 5.06 2.14 7.06a8.26 8.26 0 0 1-6-7.06zm6-8.82c-1.26 2-2 4.45-2.14 7.07H1.8a8.26 8.26 0 0 1 6-7.07zm4.79 8.82A12.5 12.5 0 0 1 10 18a12.51 12.51 0 0 1-2.59-7.13l5.18.01zM7.4 9.13A12.51 12.51 0 0 1 10 1.99a12.5 12.5 0 0 1 2.59 7.14H7.4zm10.8 0h-3.87a14.79 14.79 0 0 0-2.14-7.07 8.26 8.26 0 0 1 6 7.07h.01zM10 0C4.477 0 0 4.477 0 10s4.477 10 10 10 10-4.477 10-10S15.523 0 10 0z" fill="#93B874" fill-rule="nonzero"/></svg>