<svg width="20" height="20" viewBox="0 0 20 20" xmlns="http://www.w3.org/2000/svg"><title>help</title><path d="M10 0C4.477 0 0 4.477 0 10s4.477 10 10 10 10-4.477 10-10A10 10 0 0 0 10 0zm1 16H9v-2h2v2zm2.71-7.6a2.63 2.63 0 0 1-.34.74 3.06 3.06 0 0 1-.48.55l-.54.48c-.21.18-.41.35-.59.52a3 3 0 0 0-.47.56A2.49 2.49 0 0 0 11 12a4.12 4.12 0 0 0-.11 1H9.08a8.68 8.68 0 0 1 .08-1.25c.04-.31.12-.612.24-.9a2.81 2.81 0 0 1 .41-.68c.176-.21.37-.404.58-.58l.51-.44a3 3 0 0 0 .44-.45 1.92 1.92 0 0 0 .3-.54 2.13 2.13 0 0 0 .11-.72 1.94 1.94 0 0 0-.18-.86 1.79 1.79 0 0 0-.43-.58 1.69 1.69 0 0 0-1.04-.42 1.77 1.77 0 0 0-1.53.68 3 3 0 0 0-.49 1.82H6.16a4.84 4.84 0 0 1 .28-1.68 3.57 3.57 0 0 1 .8-1.29 3.62 3.62 0 0 1 1.27-.83A4.52 4.52 0 0 1 10.18 4a4.42 4.42 0 0 1 1.43.23c.425.14.819.36 1.16.65a3 3 0 0 1 .78 1.06c.194.455.29.946.28 1.44a3.63 3.63 0 0 1-.12 1.02z" fill="#93B874" fill-rule="nonzero"/></svg>