<svg width="22" height="20" viewBox="0 0 22 20" xmlns="http://www.w3.org/2000/svg"><title>Kudos</title><g fill-rule="nonzero" fill="none"><path d="M9.197 3.829l1.486-2.574a1 1 0 1 1 1.732 1l-1.72 2.98a2.743 2.743 0 0 0-1.498-1.406zm3.423.07l.161-.278a.996.996 0 0 1 .574-.457l-.735.735zM3.3 16.622l-.926-.535a3.885 3.885 0 0 1-1.78-4.48L.426 11.6l.2-5.746a1.25 1.25 0 0 1 2.5.087l-.086 2.435c.054-.072.106-.143.156-.214.147-.207.315-.391.5-.55l-.11-.064 4-6.928a1 1 0 1 1 1.732 1L8.15 3.64a2.751 2.751 0 0 0-2.58 1.947l-2.266 7.411a1.496 1.496 0 0 0-.06.558 6.08 6.08 0 0 0 .056 3.065z" fill="#445045"/><path d="M12.173 9.296c.285.142.55.33.787.567l.03.03 4.95-4.95a1 1 0 1 1 1.414 1.415l-4.95 4.95.708.706 4.242-4.242a1 1 0 0 1 1.415 1.414l-4.252 4.252c.228.274.4.579.515.9l3.03-3.03a1 1 0 0 1 1.414 0 .984.984 0 0 1-.012 1.402L16 18l-.052-.202a2.999 2.999 0 0 1-.018.012C13.847 19.27 11.87 20 10 20c-1.497 0-2.843-.58-4.036-1.737a4.574 4.574 0 0 1-1.132-4.797l-.093-.028 2.266-7.411a1.25 1.25 0 0 1 2.39.73l-1.02 3.34c.194-.139.375-.278.544-.418.196-.163.406-.297.626-.402l-.09-.09 5.657-5.658a1 1 0 1 1 1.414 1.414l-4.353 4.353z" fill="#93B874"/></g></svg>