<svg width="20" height="20" viewBox="0 0 20 20" xmlns="http://www.w3.org/2000/svg"><title>Thumbs Up</title><g transform="matrix(-1 0 0 1 20.765 .618)" fill-rule="nonzero" fill="none"><path d="M14.265 17.56V8.56c-1.343-1.04-1.98-3.374-2-6.997-1.168-1.396-1.893-1.321-2.64.19-.291.587-.374 1.348-.302 2.391.022.326.054.63.115 1.151.201 1.7.22 2.223-.028 2.831-.379.929-1.315 1.158-2.783.738-2.809-.803-3.598-.926-4.233-.559-.757.438-1.13 1.9-1.13 5.078 0 2.799 1.345 4.31 3.746 4.866 1.755.407 3.943.248 5.751-.204 1.04-.26 2.208-.42 3.504-.483z" stroke="#93B874" fill="#93B874"/><rect fill="#445045" x="15.765" y="7.382" width="5" height="11" rx="2"/></g></svg>